<svg width="358" height="321" viewBox="0 0 358 321" fill="none" xmlns="http://www.w3.org/2000/svg">
<g clip-path="url(#clip0_2_15)">
<path d="M333.657 42.0271C333.675 42.0563 333.692 42.0796 333.716 42.0912C333.692 42.0388 333.675 42.0213 333.657 42.0271Z" fill="#2C55A2"/>
<path d="M334.036 14.2092L334.065 14.5358C334.059 14.3259 334.048 14.2442 334.036 14.2092Z" fill="#2C55A2"/>
<path d="M333.494 58.6968C333.488 58.6735 333.488 58.6735 333.482 58.656C333.482 58.9126 333.476 59.2624 333.47 59.828L333.494 58.6968Z" fill="#2C55A2"/>
<path d="M324.083 0.250761C324.153 0.256591 324.252 0.262421 324.334 0.268252C324.363 0.25076 324.346 0.233269 324.083 0.250761Z" fill="#2C55A2"/>
<path d="M325.209 0.22158C323.739 0.227411 322.387 0.233244 321.734 0.233244C321.809 0.227414 321.868 0.215749 321.897 0.198257C321.804 0.22158 321.646 0.233245 321.495 0.239076C321.36 0.239076 321.302 0.239073 321.337 0.244903C321.331 0.244903 321.331 0.244903 321.325 0.244903C322.62 0.256565 323.955 0.250734 325.209 0.22158Z" fill="#2C55A2"/>
<path d="M333.47 77.8971C333.476 77.9437 333.488 77.9845 333.5 78.002C333.488 77.9612 333.482 77.9321 333.47 77.8971Z" fill="#2C55A2"/>
<path d="M333.505 76.2062C333.511 76.282 333.517 76.3403 333.529 76.3694C333.517 76.2995 333.511 76.2528 333.505 76.2062Z" fill="#2C55A2"/>
<path d="M356.647 25.8938L356.192 25.7305L355.277 25.3982C353.743 24.8384 352.251 24.302 350.782 23.7656C348.327 22.961 346.047 22.0922 343.662 21.3867C343.044 21.3342 343.003 21.3167 342.45 21.066C342.461 21.0952 342.496 21.1127 342.444 21.1185C342.479 21.0019 342.041 20.9669 342.047 20.8503C341.208 20.5879 340.467 20.3022 339.628 20.0223C339.756 20.0748 339.762 20.1856 339.61 20.1214L339.488 19.999L339.441 20.0165C339.342 19.964 339.26 19.8766 339.394 19.8824C337.54 19.1594 335.587 18.7104 333.785 18.1274C333.797 17.4569 333.809 16.9613 333.844 17.0137C333.692 15.4278 334.018 15.8185 333.832 14.2209C333.61 7.92963 333.768 5.18924 334.03 0.239042C334.03 0.239042 332.584 0.169073 330.788 0.209887L331.074 0.128259C330.223 0.104936 328.59 0.209885 328.398 0.075781C327.488 0.145748 326.386 0.192397 325.203 0.215719C326.421 0.215719 327.716 0.209888 328.736 0.215719C327.232 0.309009 325.092 0.244871 324.188 0.314838C323.751 0.355653 319.803 0.367316 321.319 0.239042C319.85 0.227381 318.451 0.198225 317.331 0.163241L316.468 0.174905L317.016 0.0466306C315.897 0.23321 313.606 0.408127 313.92 0.139918C312.264 0.110765 309.635 -0.110798 309.215 -0.0466615C309.192 -0.104968 307.32 0.0641233 308.282 -0.15744C305.991 0.0466315 303.787 -0.139951 301.128 -0.0466615L301.385 -0.0758119C299.507 0.0291393 299.571 -0.139951 298.195 -0.0641526C298.242 -0.0816445 298.288 -0.0874769 298.341 -0.0933075H297.105L297.379 -0.15744C293.513 -0.0816421 292.085 -0.122461 288.295 -0.0933075C277.03 1.42848 253.235 -0.361514 242.653 0.268192C242.589 2.62376 243.008 7.13083 242.635 9.0491C242.734 9.60884 242.629 10.3785 242.624 10.8683C242.781 9.34647 242.74 17.1129 242.711 16.728L242.664 20.6287C242.734 19.1769 242.933 20.8153 242.851 21.7249C242.758 20.9319 242.688 21.6607 242.606 21.9989C242.909 21.4392 242.868 23.8122 242.833 24.2495L242.787 23.853C242.717 35.2752 242.606 46.2485 242.682 58.3528L242.653 58.0904L242.589 60.4635L242.699 58.7376C242.74 62.8482 242.624 67.7693 242.624 72.253C242.618 72.1131 242.612 71.9673 242.606 71.8157C242.6 72.1014 242.606 72.2705 242.624 72.3871C242.624 72.5329 242.624 72.6845 242.624 72.8302C242.6 72.6612 242.559 72.597 242.53 72.4454C242.577 74.8593 242.723 76.9117 242.693 79.1098C242.647 82.6665 241.58 90.118 243.691 90.3512C251.725 91.22 258.623 91.255 272.237 91.3891C272.266 91.3891 272.29 91.3891 272.319 91.3891C272.226 91.3949 272.144 91.3949 272.056 91.4008C272.173 91.4008 272.261 91.4008 272.325 91.3891C285.852 91.529 297.525 92.6135 333.529 91.7273L333.459 89.7565L333.371 77.5472C333.406 77.6697 333.441 77.7746 333.47 77.8912C333.377 77.3839 333.383 75.4074 333.505 76.2003C333.459 75.4657 333.715 72.8361 333.575 74.1072C333.43 70.7312 333.365 69.1045 333.196 65.8277C333.348 67.4078 333.389 64.0143 333.459 65.6936C333.441 64.9064 333.226 62.0902 333.616 64.1193C333.459 62.8832 333.325 61.9212 333.348 60.7084C333.202 61.0116 333.278 59.2974 333.243 59.0175C333.593 57.7989 333.191 53.8224 333.319 51.3327C333.581 50.0383 333.488 44.9132 333.47 40.721C333.983 40.3595 334.485 40.0039 334.963 39.7356C336.706 38.8552 338.403 37.7532 339.948 36.8378L339.913 36.8028C340.496 36.6687 341.015 35.9049 341.528 35.9224C341.627 35.8058 341.966 35.6251 341.837 35.5959C342.246 35.4851 342.782 34.9196 343.353 34.6805C343.855 34.249 344.403 34.0741 344.928 33.6368C344.858 33.6543 344.747 33.7068 344.712 33.6776C344.893 33.4619 345.324 33.5319 345.336 33.252C345.464 33.1762 345.476 33.2986 345.4 33.3395C346.583 32.4998 347.925 31.8118 349.161 31.083C349.942 30.4242 349.015 30.739 349.773 30.4416C349.802 30.3717 349.86 30.4883 349.843 30.4416C350.134 30.325 350.111 29.981 350.35 29.9635C350.35 30.121 350.507 29.9519 350.56 30.016C351.021 29.6195 351.05 29.4563 351.499 29.2814L351.429 29.2464C352 29.1064 352.461 28.6808 352.974 28.6108C353.749 28.1094 354.501 27.6255 355.248 27.1473L356.845 26.1095C357.108 25.9871 356.746 25.9579 356.647 25.8938ZM328.835 0.221546C329.436 0.221546 329.931 0.22738 330.258 0.23321C329.634 0.256533 328.987 0.291515 328.351 0.349821C327.64 0.274023 328.374 0.25653 328.835 0.221546Z" fill="#2C55A2"/>
<path d="M343.493 34.6106C343.447 34.6281 343.4 34.6456 343.353 34.6689L343.348 34.6747C343.412 34.6514 343.447 34.6456 343.493 34.6106Z" fill="#2C55A2"/>
<path d="M291.793 231.073C291.642 231.738 291.63 232.887 291.601 233.977C291.747 233.137 291.811 232.245 291.793 231.073Z" fill="#2C55A2"/>
<path d="M291.945 233.044L291.805 232.951L291.823 234.082C291.753 235.44 291.916 236.07 291.776 235.977L291.793 234.117C291.753 235.481 291.677 234.531 291.601 234.006C291.589 234.578 291.572 235.131 291.531 235.58C291.584 235.849 291.589 235.382 291.619 235.172C291.665 235.907 291.799 236.927 291.735 237.825C291.723 239.225 291.508 237.913 291.496 239.545C291.391 248.145 291.228 256.483 291.257 265.177C291.199 265.375 291.199 265.136 291.175 264.885C291.234 267.503 291.216 269.829 291.275 272.214C291.21 272.879 291.129 273.06 291.07 273.252C291.111 273.106 291.14 274.844 291.158 277.106C291.164 278.126 291.17 279.275 291.175 280.383C291.181 280.424 291.181 280.464 291.181 280.494C291.135 280.494 291.1 280.488 291.094 280.482C291.123 280.564 291.14 280.651 291.164 280.733C291.135 280.733 291.105 280.727 291.088 280.721C291.076 280.715 291.07 280.715 291.065 280.709L291.059 280.704C291.041 280.704 291.024 280.698 291.006 280.698C290.971 280.692 290.942 280.692 290.913 280.686C290.686 280.663 290.598 280.628 290.517 280.593C290.353 280.529 290.213 280.47 289.024 280.499C288.091 280.855 285.065 280.464 284.237 280.651C284.254 280.622 283.088 280.61 283.164 280.499C282.808 280.692 281.963 280.546 281.228 280.593C280.96 280.645 281.427 280.651 281.625 280.709L279.94 280.779C279.281 280.715 279.118 280.604 279.835 280.581C275.427 280.511 254.262 280.33 249.516 280.424C250.128 280.569 251.591 280.47 252.151 280.698C250.897 280.826 250.303 280.651 249.749 280.785C249.265 280.447 246.991 280.704 246.041 280.36L245.679 280.552L245.055 280.435C244.991 280.435 244.921 280.441 244.857 280.441L244.764 280.447C244.729 280.447 244.752 280.447 244.746 280.453L244.734 280.464C244.729 280.47 244.717 280.482 244.711 280.488C244.694 280.499 244.676 280.511 244.665 280.523C244.635 280.54 244.612 280.552 244.6 280.558C244.577 280.564 244.595 280.546 244.583 280.529C244.595 280.499 244.606 280.464 244.618 280.424C244.612 280.412 244.606 280.406 244.595 280.395L244.577 280.377L244.565 280.365C244.56 280.301 244.56 280.237 244.554 280.179C244.519 279.631 244.49 279.147 244.466 278.704C244.408 277.817 244.367 277.083 244.414 276.296C244.414 276.529 244.291 277.153 244.245 276.418C244.414 276.296 244.122 274.465 244.291 274.109C244.268 273.392 244.291 271.06 244.058 271.853C244.175 271.456 244.221 269.38 244.321 270.617C244.326 269.917 244.361 269.235 244.309 268.733L244.245 269.631C244.21 267.264 244.391 265.975 244.181 264.43L244.087 265.305C244.07 263.888 244.058 262.704 244.286 262.15L244.356 263.602C244.35 261.253 244.332 259.842 244.216 257.882L244.21 258.582C243.982 256.092 243.79 243.055 243.504 240.758L243.329 241.813L243.178 239.837C243.178 240.07 243.755 240.787 243.697 240.985C243.691 240.175 243.685 238.706 243.679 236.834C243.673 235.959 243.667 234.991 243.662 233.959C243.656 233.639 243.65 233.301 243.644 232.951C243.924 232.945 244.21 232.945 244.495 232.939C245.306 232.933 246.122 232.933 246.933 232.927C248.933 232.922 250.892 232.922 252.687 232.916C256.279 232.916 259.2 232.927 260.401 232.962C261.976 233.062 260.687 233.242 260.67 233.271C262.588 233.207 261.498 233.085 263.13 233.097C263.573 233.126 263.037 233.236 262.786 233.26C263.503 233.236 264.162 233.301 264.22 233.219C263.328 233.155 263.707 232.933 263.328 232.793L265.427 232.811L265.334 232.951C265.801 232.957 266.524 232.572 268.582 232.648C272.057 232.706 275.835 232.659 279.333 232.688C279.281 232.77 278.546 232.822 277.812 232.869C278.278 232.875 278.995 232.852 279.427 232.91C278.581 232.764 280.896 232.811 280.231 232.753C282.791 232.414 286.109 232.723 288.365 232.49" fill="#2C55A2"/>
<path d="M230.339 291.432C230.251 291.817 230.245 292.476 230.228 293.105C230.315 292.621 230.35 292.108 230.339 291.432Z" fill="#2C55A2"/>
<path d="M230.426 292.569L230.344 292.516L230.356 293.169C230.315 293.951 230.408 294.318 230.327 294.26L230.339 293.187C230.315 293.974 230.274 293.426 230.228 293.123C230.222 293.449 230.21 293.77 230.187 294.032C230.216 294.19 230.222 293.916 230.239 293.793C230.269 294.219 230.344 294.808 230.304 295.321C230.298 296.125 230.175 295.373 230.164 296.312C230.099 301.274 230.006 306.078 230.029 311.093C229.995 311.209 230 311.069 229.983 310.924C230.018 312.434 230.006 313.775 230.041 315.151C230.006 315.536 229.954 315.635 229.925 315.751C229.948 315.67 229.965 316.667 229.977 317.973C229.983 318.562 229.983 319.221 229.989 319.862C229.989 319.885 229.989 319.909 229.989 319.926C229.96 319.926 229.942 319.92 229.936 319.92C229.954 319.967 229.965 320.019 229.977 320.066C229.96 320.066 229.942 320.066 229.936 320.06C229.93 320.06 229.925 320.054 229.925 320.054C229.913 320.054 229.907 320.054 229.895 320.054C229.878 320.054 229.86 320.048 229.843 320.048C229.709 320.031 229.662 320.014 229.616 319.996C229.522 319.961 229.441 319.926 228.753 319.944C228.216 320.148 226.467 319.92 225.995 320.031C226.006 320.014 225.33 320.008 225.377 319.944C225.173 320.054 224.683 319.967 224.257 319.996C224.106 320.025 224.368 320.031 224.485 320.06L223.511 320.101C223.132 320.066 223.039 320.002 223.453 319.99C220.91 319.949 208.707 319.844 205.967 319.897C206.316 319.979 207.162 319.926 207.483 320.054C206.76 320.13 206.415 320.031 206.095 320.107C205.815 319.909 204.503 320.06 203.955 319.862L203.745 319.973L203.384 319.903C203.343 319.903 203.308 319.903 203.273 319.909H203.22C203.197 319.909 203.214 319.909 203.209 319.909L203.203 319.914C203.197 319.92 203.197 319.926 203.191 319.926C203.179 319.932 203.174 319.944 203.162 319.944C203.145 319.955 203.133 319.961 203.127 319.961C203.115 319.967 203.121 319.955 203.115 319.944C203.121 319.926 203.127 319.909 203.133 319.885C203.133 319.879 203.127 319.874 203.121 319.868L203.11 319.856L203.104 319.85C203.104 319.815 203.098 319.78 203.098 319.739C203.08 319.425 203.063 319.145 203.045 318.888C203.01 318.375 202.987 317.955 203.016 317.501C203.016 317.635 202.946 317.996 202.917 317.57C203.016 317.501 202.847 316.445 202.946 316.235C202.935 315.821 202.946 314.48 202.812 314.935C202.876 314.708 202.905 313.507 202.964 314.224C202.97 313.821 202.987 313.431 202.958 313.139L202.923 313.658C202.905 312.294 203.005 311.547 202.888 310.661L202.835 311.168C202.83 310.352 202.818 309.67 202.946 309.349L202.987 310.189C202.981 308.836 202.975 308.02 202.905 306.889L202.9 307.291C202.766 305.851 202.661 298.335 202.491 297.012L202.387 297.624L202.299 296.487C202.299 296.621 202.631 297.035 202.596 297.152C202.596 296.685 202.591 295.834 202.585 294.755C202.585 294.248 202.579 293.694 202.579 293.094C202.573 292.907 202.573 292.715 202.567 292.51C202.731 292.51 202.894 292.505 203.057 292.505C203.524 292.505 203.996 292.499 204.462 292.499C205.617 292.499 206.748 292.493 207.78 292.493C209.85 292.493 211.535 292.499 212.229 292.522C213.138 292.58 212.392 292.685 212.38 292.703C213.488 292.662 212.858 292.592 213.797 292.604C214.054 292.621 213.745 292.685 213.599 292.697C214.013 292.685 214.392 292.72 214.427 292.674C213.914 292.639 214.129 292.51 213.914 292.429L215.126 292.441L215.074 292.522C215.342 292.522 215.756 292.301 216.946 292.347C218.951 292.382 221.132 292.353 223.149 292.371C223.12 292.417 222.695 292.446 222.269 292.476C222.537 292.476 222.951 292.464 223.202 292.499C222.712 292.411 224.047 292.441 223.668 292.406C225.143 292.207 227.056 292.388 228.362 292.254" fill="#2C55A2"/>
<path d="M59.4431 94.5784C59.2915 95.2489 59.2741 96.4092 59.2507 97.5054C59.3965 96.6599 59.4548 95.762 59.4431 94.5784Z" fill="#2C55A2"/>
<path d="M59.5949 96.5666L59.455 96.4733L59.4724 97.6161C59.4025 98.9863 59.5657 99.6219 59.4258 99.5286L59.4433 97.6511C59.4025 99.0271 59.3267 98.0651 59.2509 97.5403C59.2392 98.1176 59.2217 98.6715 59.1751 99.1321C59.2276 99.4061 59.2334 98.9339 59.2625 98.7181C59.3092 99.4586 59.4433 100.491 59.3792 101.394C59.3675 102.805 59.1518 101.482 59.1343 103.132C59.0235 111.814 58.8661 120.221 58.8952 128.997C58.8369 129.195 58.8369 128.956 58.8136 128.705C58.8719 131.346 58.8544 133.696 58.9127 136.104C58.8486 136.775 58.7611 136.955 58.7028 137.154C58.7436 137.008 58.7728 138.757 58.7903 141.043C58.7961 142.075 58.8019 143.229 58.8078 144.349C58.8136 144.389 58.8136 144.43 58.8136 144.459C58.7669 144.459 58.732 144.453 58.7261 144.448C58.7553 144.529 58.7786 144.617 58.7961 144.698C58.7669 144.698 58.7378 144.693 58.7203 144.687C58.7086 144.681 58.7028 144.681 58.697 144.675L58.6911 144.669C58.6736 144.669 58.6562 144.663 58.6387 144.663C58.6037 144.658 58.5745 144.658 58.5454 144.652C58.3122 144.628 58.2247 144.593 58.1431 144.558C57.9798 144.494 57.8399 144.436 56.6329 144.465C55.6942 144.821 52.639 144.43 51.8052 144.617C51.8227 144.588 50.6449 144.576 50.7207 144.465C50.3592 144.658 49.5079 144.512 48.7674 144.558C48.4992 144.611 48.9657 144.617 49.1639 144.675L47.4614 144.745C46.7967 144.681 46.6334 144.57 47.3564 144.547C42.9077 144.477 21.5501 144.29 16.7632 144.389C17.3812 144.535 18.8564 144.436 19.4219 144.669C18.1567 144.797 17.5561 144.623 16.9964 144.763C16.5124 144.419 14.2152 144.681 13.2531 144.331L12.8916 144.523L12.2619 144.407C12.192 144.407 12.1278 144.413 12.0637 144.413L11.9704 144.419C11.9354 144.419 11.9587 144.419 11.9529 144.424L11.9412 144.436C11.9354 144.442 11.9237 144.453 11.9179 144.459C11.9004 144.471 11.8829 144.483 11.8713 144.494C11.8421 144.512 11.8188 144.523 11.8071 144.529C11.7838 144.535 11.8013 144.518 11.7896 144.5C11.8013 144.471 11.813 144.436 11.8246 144.395C11.8188 144.384 11.813 144.378 11.8013 144.366L11.7838 144.349L11.7722 144.337C11.7663 144.273 11.7663 144.209 11.7605 144.15C11.7255 143.596 11.6964 143.107 11.6672 142.663C11.6089 141.766 11.5681 141.031 11.6147 140.238C11.6147 140.477 11.4923 141.107 11.4456 140.366C11.6147 140.238 11.3232 138.395 11.4981 138.034C11.4748 137.311 11.4981 134.961 11.2649 135.754C11.3815 135.358 11.4281 133.259 11.5331 134.506C11.5389 133.801 11.5739 133.113 11.5214 132.606L11.4573 133.515C11.4223 131.125 11.6031 129.824 11.3932 128.268L11.2999 129.148C11.2824 127.72 11.2649 126.524 11.4981 125.965L11.5681 127.428C11.5622 125.061 11.5448 123.632 11.4223 121.656L11.4165 122.361C11.1833 119.848 10.9967 106.689 10.7051 104.374L10.5244 105.441L10.3728 103.447C10.3728 103.68 10.9559 104.409 10.8976 104.607C10.8917 103.785 10.8859 102.304 10.8801 100.421C10.8742 99.5402 10.8684 98.5607 10.8626 97.517C10.8567 97.1963 10.8509 96.8523 10.8451 96.4967C11.125 96.4908 11.4165 96.4908 11.708 96.485C12.5243 96.4792 13.3523 96.4792 14.1685 96.4733C16.1859 96.4675 18.1625 96.4675 19.9758 96.4617C23.5966 96.4617 26.5469 96.4733 27.7597 96.5083C29.3515 96.6074 28.0454 96.794 28.0279 96.8232C29.9637 96.759 28.8617 96.6308 30.5118 96.6483C30.9607 96.6832 30.4185 96.7882 30.1678 96.8115C30.8907 96.7882 31.5554 96.8523 31.6137 96.7707C30.71 96.7066 31.0948 96.485 30.71 96.3392L32.8265 96.3567L32.7332 96.4967C33.2055 96.5025 33.9285 96.1118 36.01 96.1876C39.5201 96.2459 43.3333 96.1993 46.8608 96.2343C46.8083 96.3159 46.0678 96.3684 45.3215 96.415C45.7938 96.4208 46.5168 96.3975 46.9541 96.4558C46.1028 96.3101 48.4351 96.3567 47.7704 96.2926C50.3534 95.9486 53.7001 96.2634 55.9799 96.0302" fill="#2C55A2"/>
<path d="M27.8469 157.246C27.7594 157.631 27.7536 158.29 27.7361 158.919C27.8235 158.435 27.8585 157.922 27.8469 157.246Z" fill="#2C55A2"/>
<path d="M27.9345 158.383L27.8529 158.33L27.8646 158.983C27.8237 159.765 27.917 160.132 27.8354 160.074L27.8471 159.001C27.8237 159.788 27.7829 159.24 27.7363 158.937C27.7305 159.263 27.7188 159.584 27.6955 159.846C27.7246 160.004 27.7304 159.73 27.7479 159.607C27.7771 160.033 27.8529 160.622 27.8121 161.135C27.8062 161.94 27.6838 161.187 27.6721 162.126C27.608 167.088 27.5147 171.892 27.538 176.907C27.5031 177.023 27.5089 176.883 27.4914 176.738C27.5264 178.248 27.5147 179.589 27.5497 180.965C27.5147 181.35 27.4622 181.449 27.4331 181.565C27.4564 181.484 27.4739 182.481 27.4856 183.787C27.4914 184.376 27.4914 185.035 27.4972 185.676C27.4972 185.699 27.4972 185.723 27.4972 185.74C27.4681 185.74 27.4506 185.734 27.4448 185.734C27.4622 185.781 27.4739 185.833 27.4856 185.88C27.4681 185.88 27.4506 185.88 27.4448 185.874C27.4389 185.874 27.4331 185.868 27.4331 185.868C27.4214 185.868 27.4156 185.868 27.4039 185.868C27.3864 185.868 27.369 185.863 27.3515 185.863C27.2174 185.845 27.1707 185.828 27.1241 185.81C27.0308 185.775 26.9491 185.74 26.2611 185.758C25.7247 185.962 23.9755 185.734 23.5033 185.845C23.5149 185.828 22.8386 185.822 22.8852 185.758C22.6811 185.868 22.1914 185.781 21.7657 185.81C21.6141 185.839 21.8765 185.845 21.9931 185.874L21.0194 185.915C20.6404 185.88 20.5471 185.816 20.9611 185.804C18.419 185.763 6.21547 185.659 3.47508 185.711C3.82491 185.793 4.67035 185.74 4.99104 185.868C4.26804 185.944 3.92404 185.845 3.60335 185.921C3.32348 185.723 2.01159 185.874 1.46352 185.676L1.25361 185.787L0.892113 185.717C0.851298 185.717 0.816313 185.717 0.781329 185.723H0.728856C0.705534 185.723 0.723027 185.723 0.717197 185.723L0.711365 185.728C0.705534 185.734 0.705532 185.74 0.699701 185.74C0.68804 185.746 0.682212 185.758 0.670551 185.758C0.653059 185.769 0.641395 185.775 0.635564 185.775C0.623903 185.781 0.629735 185.769 0.623905 185.758C0.629735 185.74 0.635565 185.723 0.641396 185.699C0.641396 185.693 0.635567 185.688 0.629737 185.682L0.618073 185.67L0.612245 185.664C0.612245 185.629 0.606414 185.594 0.606414 185.554C0.588922 185.239 0.571428 184.959 0.553936 184.702C0.518952 184.189 0.495632 183.769 0.524785 183.315C0.524785 183.449 0.454819 183.81 0.425666 183.385C0.524786 183.315 0.355696 182.259 0.454816 182.049C0.443155 181.635 0.454819 180.294 0.320714 180.749C0.384851 180.522 0.414001 179.321 0.472307 180.038C0.478138 179.635 0.495633 179.245 0.46648 178.953L0.431493 179.472C0.414001 178.108 0.513123 177.362 0.396511 176.475L0.344033 176.983C0.338202 176.166 0.326543 175.484 0.454816 175.163L0.49563 176.003C0.4898 174.65 0.48397 173.834 0.414002 172.703L0.40817 173.105C0.274066 171.665 0.169117 164.149 2.86698e-05 162.826L-0.104923 163.438L-0.192383 162.301C-0.192383 162.435 0.139964 162.849 0.10498 162.966C0.10498 162.499 0.0991513 161.648 0.0933207 160.569C0.0933207 160.062 0.0874888 159.508 0.0874888 158.908C0.0874888 158.721 0.0816557 158.529 0.0758251 158.325C0.239082 158.325 0.402342 158.319 0.565599 158.319C1.03205 158.319 1.50433 158.313 1.97078 158.313C3.12524 158.313 4.25638 158.307 5.2884 158.307C7.35827 158.307 9.04332 158.313 9.73716 158.336C10.6467 158.395 9.90042 158.499 9.88876 158.517C10.9966 158.476 10.3669 158.406 11.3056 158.418C11.5621 158.435 11.2531 158.499 11.1074 158.511C11.5213 158.499 11.9003 158.534 11.9353 158.488C11.4222 158.453 11.6379 158.325 11.4222 158.243L12.635 158.255L12.5825 158.336C12.8507 158.336 13.2647 158.115 14.4541 158.161C16.4599 158.196 18.6405 158.167 20.6579 158.185C20.6288 158.231 20.2031 158.26 19.7775 158.29C20.0457 158.29 20.4597 158.278 20.7104 158.313C20.2206 158.225 21.5558 158.255 21.1768 158.22C22.652 158.021 24.5644 158.202 25.8705 158.068" fill="#2C55A2"/>
<path d="M230.269 144.903H72.4045V24.9959H230.269V144.903Z" fill="#E62984"/>
<path d="M104.747 91.8614H114.093V103.324C113.901 116.338 109.167 116.338 107.61 116.338C105.872 116.338 104.665 115.61 103.692 113.977C102.887 112.624 101.925 109.511 101.925 102.333V67.1104C101.925 59.7464 102.916 56.5628 103.744 55.1868C105.044 53.0353 106.461 52.7613 107.552 52.7613C109.225 52.7613 110.333 53.2919 111.137 54.493C111.837 55.5367 112.782 57.9389 113.301 63.4605L113.563 66.2417L126.606 63.0232L126.425 60.965C125.761 53.4726 123.906 48.3183 120.758 45.2165C117.604 42.1087 113.085 40.5345 107.324 40.5345C101.459 40.5345 96.7066 42.7093 93.2024 47.0065C89.7681 51.2162 88.1006 58.4228 88.1006 69.052V100.625C88.1006 110.881 89.5349 117.883 92.4794 122.029C95.5638 126.367 99.9659 128.571 105.557 128.571C110.228 128.571 114.047 126.863 116.84 123.574L117.522 126.746H127.463V79.7512H104.747V91.8614Z" fill="white"/>
<path d="M153.036 58.7727C147.165 58.7727 142.547 60.8193 139.305 64.8599C136.151 68.7955 134.612 75.4191 134.612 85.1213V102.222C134.612 111.925 136.145 118.548 139.305 122.484C142.547 126.524 147.165 128.571 153.036 128.571C158.908 128.571 163.531 126.524 166.773 122.484C169.928 118.548 171.461 111.925 171.461 102.222V85.1213C171.461 75.425 169.928 68.8014 166.773 64.8599C163.526 60.8193 158.902 58.7727 153.036 58.7727ZM153.095 116.677C150.815 116.677 148.092 114.443 148.092 103.808V83.5179C148.092 72.8828 150.815 70.6497 153.095 70.6497C157.042 70.6497 157.87 77.6464 157.87 83.5179V103.808C157.864 109.686 157.036 116.677 153.095 116.677Z" fill="white"/>
<path d="M194.142 97.4122L187.355 60.481H173.49L187.501 126.857H200.876L214.765 60.481H201.022L194.142 97.4122Z" fill="white"/>
<path d="M229.814 278.173H40.8494V158.266H229.814V278.173Z" fill="#E62984"/>
<path d="M92.5085 177.321H56.5686V189.431H67.6293V261.935H81.4479V189.431H92.5085V177.321Z" fill="white"/>
<path d="M110.164 193.851C104.269 193.851 99.5987 195.891 96.2811 199.915C93.0335 203.856 91.4534 210.491 91.4534 220.199V237.3C91.4534 247.014 93.0335 253.65 96.2753 257.585C99.5871 261.608 104.129 263.649 109.762 263.649C115.301 263.649 119.65 262.11 122.694 259.066C125.726 256.034 127.481 251.032 128.064 243.761L128.245 241.551L115.93 239.534L115.639 242.041C115.009 247.417 113.96 249.451 113.388 250.192C112.56 251.265 111.429 251.766 109.826 251.766C105.785 251.766 104.94 244.769 104.94 238.898V234.811H128.309V220.205C128.309 210.445 126.839 203.809 123.813 199.915C120.671 195.886 116.082 193.851 110.164 193.851ZM109.936 205.734C113.884 205.734 114.712 212.73 114.712 218.602V222.689H104.94V218.602C104.934 207.967 107.651 205.734 109.936 205.734Z" fill="white"/>
<path d="M157.922 240.245C157.275 246.682 156.243 249.084 155.678 249.941C154.908 251.119 153.946 251.644 152.564 251.644C151.188 251.644 150.284 251.131 149.538 249.93C149.013 249.084 148.133 246.723 148.133 240.373V218.596C148.133 211.028 149.002 208.386 149.52 207.489C150.232 206.252 151.106 205.728 152.453 205.728C155.223 205.728 156.75 209.127 157.001 215.832L157.112 218.864L169.951 215.377L169.788 213.383C169.199 206.182 167.432 201.244 164.389 198.288C161.351 195.338 157.164 193.845 151.94 193.845C146.576 193.845 142.273 195.909 139.148 199.973C136.128 203.903 134.658 210.515 134.658 220.193V239.574C134.658 248.21 136.145 254.215 139.194 257.918C142.32 261.713 146.611 263.643 151.94 263.643C157.211 263.643 161.467 261.947 164.587 258.606C167.654 255.317 169.467 249.83 170.126 241.825L170.312 239.586L158.173 237.72L157.922 240.245Z" fill="white"/>
<path d="M197.705 193.851C194.154 193.851 191.169 194.871 188.83 196.865V172.761H175.694V261.935H189.291V227.744C189.419 213.756 191.699 205.733 195.547 205.733C197.087 205.733 198.725 208.847 198.725 217.575V261.935H212.316V220.654C212.316 210.853 211.179 204.183 208.841 200.27C206.328 196.066 202.48 193.851 197.705 193.851Z" fill="white"/>
<path d="M243.184 104.444V219.698H358V104.444H243.184Z" fill="#E62984"/>
<path d="M289.397 165.111L274.622 118.7H260.646V205.442H274.698V159.123L289.473 205.442H303.449V118.7H289.397V165.111Z" fill="white"/>
<path d="M327.523 193.023V118.7H313.232V205.442H345.633V193.023H327.523Z" fill="white"/>
<path d="M269.462 39.4383C266.284 39.4383 263.701 36.9428 263.701 33.8642C263.701 30.7857 266.279 28.296 269.462 28.296C272.646 28.296 275.223 30.7915 275.223 33.8642C275.223 36.9428 272.64 39.4383 269.462 39.4383ZM287.35 67.4544C287.35 67.4544 273.683 67.0813 274.086 50.6681L303.274 53.0586C303.28 53.0586 302.533 67.8276 287.35 67.4544ZM308.218 41.8988C305.425 41.8988 303.163 39.7124 303.163 37.007C303.163 34.3074 305.425 32.1209 308.218 32.1209C311.011 32.1209 313.273 34.3074 313.273 37.007C313.273 39.7124 311.011 41.8988 308.218 41.8988Z" fill="white"/>
</g>
<defs>
<clipPath id="clip0_2_15">
<rect width="358" height="320.101" fill="white"/>
</clipPath>
</defs>
</svg>
