<svg xmlns="http://www.w3.org/2000/svg" viewBox="0 0 567 155" width="567" height="155">
	<defs>
		<clipPath clipPathUnits="userSpaceOnUse" id="cp1">
			<path d="M0 0L566.7 0L566.7 154.12L0 154.12L0 0Z" />
		</clipPath>
		<clipPath clipPathUnits="userSpaceOnUse" id="cp2">
			<path d="M0 0L566.7 0L566.7 154.12L0 154.12L0 0Z" />
		</clipPath>
		<clipPath clipPathUnits="userSpaceOnUse" id="cp3">
			<path d="M0 0L566.7 0L566.7 154.12L0 154.12L0 0Z" />
		</clipPath>
	</defs>
	<style>
		tspan { white-space:pre }
		.shp0 { fill: #043054 } 
	</style>
	<g id="KVK_logo_OP_svg">
		<g id="Clip-2">
		</g>
		<g id="Clip-Path: Fill-1" clip-path="url(#cp1)">
			<path id="Fill-1" fill-rule="evenodd" class="shp0" d="M496.64 154.17L566.92 154.17L509.4 67.84L562.52 0L494.67 0L447.68 65.05L447.68 0L386 0L386 154.16L447.59 154.17L447.59 99.61C447.59 98.28 447.6 94.39 448.6 92.64C450.16 89.9 453.75 88.9 456.34 90.46C457.48 91.16 458.4 92.34 459.75 94.51L496.64 154.17Z" />
		</g>
		<g id="Clip-Path: Fill-3" clip-path="url(#cp2)">
			<path id="Fill-3" class="shp0" d="M186 0.01L251.02 0.01L277.75 85.98L278.16 85.98L305.13 0L367.49 0L310.28 154.16L240.65 154.16L186 0.01" />
		</g>
		<g id="Clip-Path: Fill-4" clip-path="url(#cp3)">
			<path id="Fill-4" fill-rule="evenodd" class="shp0" d="M110.64 154.17L180.92 154.17L123.4 67.84L176.52 0L108.67 0L61.68 65.05L61.68 0L0 0L0 154.16L61.59 154.17L61.59 99.61C61.59 98.27 61.6 94.39 62.6 92.64C64.16 89.9 67.75 88.9 70.34 90.46C71.49 91.16 72.4 92.34 73.75 94.51L110.64 154.17Z" />
		</g>
	</g>
</svg>