<?xml version="1.0" encoding="utf-8"?>
<!-- Generator: Adobe Illustrator 22.0.1, SVG Export Plug-In . SVG Version: 6.00 Build 0)  -->
<!DOCTYPE svg PUBLIC "-//W3C//DTD SVG 1.1//EN" "http://www.w3.org/Graphics/SVG/1.1/DTD/svg11.dtd" [
	<!ENTITY st0 "fill:none;">
	<!ENTITY st1 "fill:#154273;">
	<!ENTITY st2 "fill:#FFFFFF;">
]>
<svg version="1.1" xmlns="http://www.w3.org/2000/svg" xmlns:xlink="http://www.w3.org/1999/xlink" x="0px" y="0px"
	 width="314.0018311px" height="125px" viewBox="0 0 314.0018311 125" style="enable-background:new 0 0 314.0018311 125;"
	 xml:space="preserve">
<metadata><?xpacket begin="﻿" id="W5M0MpCehiHzreSzNTczkc9d"?>
<x:xmpmeta xmlns:x="adobe:ns:meta/" x:xmptk="Adobe XMP Core 5.6-c143 79.161210, 2017/08/11-10:28:36        ">
   <rdf:RDF xmlns:rdf="http://www.w3.org/1999/02/22-rdf-syntax-ns#">
      <rdf:Description rdf:about=""
            xmlns:dc="http://purl.org/dc/elements/1.1/"
            xmlns:xmp="http://ns.adobe.com/xap/1.0/"
            xmlns:xmpGImg="http://ns.adobe.com/xap/1.0/g/img/"
            xmlns:xmpMM="http://ns.adobe.com/xap/1.0/mm/"
            xmlns:stRef="http://ns.adobe.com/xap/1.0/sType/ResourceRef#"
            xmlns:stEvt="http://ns.adobe.com/xap/1.0/sType/ResourceEvent#"
            xmlns:illustrator="http://ns.adobe.com/illustrator/1.0/"
            xmlns:xmpTPg="http://ns.adobe.com/xap/1.0/t/pg/"
            xmlns:stDim="http://ns.adobe.com/xap/1.0/sType/Dimensions#"
            xmlns:xmpG="http://ns.adobe.com/xap/1.0/g/"
            xmlns:pdf="http://ns.adobe.com/pdf/1.3/"
            xmlns:pdfx="http://ns.adobe.com/pdfx/1.3/"
            xmlns:xmpRights="http://ns.adobe.com/xap/1.0/rights/">
         <dc:format>image/svg+xml</dc:format>
         <dc:title>
            <rdf:Alt>
               <rdf:li xml:lang="x-default">xxx_Logo_online_pos_fr</rdf:li>
            </rdf:Alt>
         </dc:title>
         <dc:rights>
            <rdf:Alt>
               <rdf:li xml:lang="x-default">Rights: By ministerial order of 16 June 2008 (Government Gazette 2008, no. 115), the State of the Netherlands (Ministry of General Affairs) entered a copyright reservation, as referred to in section 15b of the Copyright Act 1912, concerning the use and application of central government's general purpose Rijkslogo and visual identity, including the fonts Rijksoverheid Serif and Rijksoverheid Sans. This reservation does not apply to parties to whom central government has supplied the Rijkslogo and the visual identity for use in carrying out activities or services commissioned by central government. Any use in any form or by any means, electronic, mechanical, photocopying, recording or otherwise is prohibited unless prior written authorisation has been obtained from central government. To obtain authorisation, you should apply to the Government Information Service.</rdf:li>
            </rdf:Alt>
         </dc:rights>
         <xmp:CreatorTool>Adobe Illustrator CC 22.0 (Macintosh)</xmp:CreatorTool>
         <xmp:CreateDate>2017-11-27T08:36:47+01:00</xmp:CreateDate>
         <xmp:ModifyDate>2017-11-27T08:36:48+01:00</xmp:ModifyDate>
         <xmp:MetadataDate>2017-11-27T08:36:48+01:00</xmp:MetadataDate>
         <xmp:Thumbnails>
            <rdf:Alt>
               <rdf:li rdf:parseType="Resource">
                  <xmpGImg:width>256</xmpGImg:width>
                  <xmpGImg:height>104</xmpGImg:height>
                  <xmpGImg:format>JPEG</xmpGImg:format>
                  <xmpGImg:image>/9j/4AAQSkZJRgABAgEASABIAAD/7QAsUGhvdG9zaG9wIDMuMAA4QklNA+0AAAAAABAASAAAAAEA&#xA;AQBIAAAAAQAB/+4ADkFkb2JlAGTAAAAAAf/bAIQABgQEBAUEBgUFBgkGBQYJCwgGBggLDAoKCwoK&#xA;DBAMDAwMDAwQDA4PEA8ODBMTFBQTExwbGxscHx8fHx8fHx8fHwEHBwcNDA0YEBAYGhURFRofHx8f&#xA;Hx8fHx8fHx8fHx8fHx8fHx8fHx8fHx8fHx8fHx8fHx8fHx8fHx8fHx8fHx8f/8AAEQgAaAEAAwER&#xA;AAIRAQMRAf/EAaIAAAAHAQEBAQEAAAAAAAAAAAQFAwIGAQAHCAkKCwEAAgIDAQEBAQEAAAAAAAAA&#xA;AQACAwQFBgcICQoLEAACAQMDAgQCBgcDBAIGAnMBAgMRBAAFIRIxQVEGE2EicYEUMpGhBxWxQiPB&#xA;UtHhMxZi8CRygvElQzRTkqKyY3PCNUQnk6OzNhdUZHTD0uIIJoMJChgZhJRFRqS0VtNVKBry4/PE&#xA;1OT0ZXWFlaW1xdXl9WZ2hpamtsbW5vY3R1dnd4eXp7fH1+f3OEhYaHiImKi4yNjo+Ck5SVlpeYmZ&#xA;qbnJ2en5KjpKWmp6ipqqusra6voRAAICAQIDBQUEBQYECAMDbQEAAhEDBCESMUEFURNhIgZxgZEy&#xA;obHwFMHR4SNCFVJicvEzJDRDghaSUyWiY7LCB3PSNeJEgxdUkwgJChgZJjZFGidkdFU38qOzwygp&#xA;0+PzhJSktMTU5PRldYWVpbXF1eX1RlZmdoaWprbG1ub2R1dnd4eXp7fH1+f3OEhYaHiImKi4yNjo&#xA;+DlJWWl5iZmpucnZ6fkqOkpaanqKmqq6ytrq+v/aAAwDAQACEQMRAD8A5NnQOodirsVdirsVfcX5&#xA;ef8AKAeWf+2TY/8AUMmaPN9Z95dpj+ke5kGVs3Yq7FXYq7FXYq7FXYq7FXYq7FXYq7FXYq7FXYq7&#xA;FXYq7FXYq7FXYq7FXYq7FXYq/P3OgdQ7FXYq7FXYq+4vy8/5QDyz/wBsmx/6hkzR5vrPvLtMf0j3&#xA;Mgytm7FXYq7FXYq7FXYq7FXYq7FXYq7FXYq7FXYq7FXYq7FXYq7FXYq7FXYq7FXYq7FX5+50DqHY&#xA;q7FXYq7FX3F+Xn/KAeWf+2TY/wDUMmaPN9Z95dpj+ke5kGVs3Yq7FXYq7FXYq7FXYq7FXYq7FXYq&#xA;7FXYq7FXYq7FXYq7FXYq7FXYq7FXYq7FXYq/P3OgdQ7FXYq7FXYq+4vy8/5QDyz/ANsmx/6hkzR5&#xA;vrPvLtMf0j3Mgytm7FXYq7FXYq7FXYq7FXYq7FXYq7FXYq7FXYq7FXYq7FXYq7FXYq7FXYq7FXYq&#xA;7FX5+50DqHYq7FXYq7FX3F+Xn/KAeWf+2TY/9QyZo831n3l2mP6R7mQZWzdirsVdirsVdirsVdir&#xA;sVdirsVdirsVdirsVdirsVdirsVdirsVdirsVdirsVdir8/c6B1CvY2v1u9t7X1Y4PXkSL1pm4xp&#xA;zYLyduyrWpPhgJoJAeyWn5NyxeXZtOnMzrczW9xNqkdrG3pGKG69ZIw7LcFEkSjCgZiBxX48wzqP&#xA;Vf46OQMO1PI9d0ibR9XutLmljnltHMckkJJQsOoHIKajoQRscy4ysW48hRpAZJD7i/Lz/lAPLP8A&#xA;2ybH/qGTNHm+s+8u0x/SPcgrz8xtMsvzHt/JF3A8U91p7ajBfll9EhWf90w6q3CCVgT2U5WzSzyp&#xA;+b+meY9M0bUobVbKHWL68tIYru4SOb0rFJGkmjioTIeUYBj2IB5dsVTZfzP8jXVhqFxpOu6dqMun&#xA;2j3ssMd3EAI025SMOXppyIVmI+Gu+KuufzP8kWHKDU9Zs7bUIbIahd2aTes0cPpesSvEAv8AB8S/&#xA;DyYbgYqvg/M78v5l0xl16zU6wAdOR5VVpKsI+h+z+8PDf9r4euKqD/mh5Qnv7XT9I1bT9SvpryKz&#xA;ntUu40ki9QupPGjFnUxN+72JxVNNM86eU9Vv77T9N1a1vL3Tam+t4ZFd4grFWJA/lYFWp0Ox3xVB&#xA;3P5m/l/bWMF/Pr9klndQtc2sxlXjLEsghLx0+2PUITbucVW3P5o/lza21rc3PmTT4be9hNzZySXE&#xA;aiWFWKM6VPxBWBBp0oa9MVVfN/nA6Fp2m3llZHVv0peW9jbJDNHGpa7qIn9RqqVJp08cVS3SvzT0&#xA;i+h0q4uI10yG/tb67uY76eKOeBLCQRs6xLzE0TEO3qo/HiAd+WKphb/mZ+XtxZ3d7b+Y9Pms7ARm&#xA;9uI7iN0hEx4xmRgSFDMKCvfFV/8AysXyIdGn1tNfsZNJt5hbTXsc6SRic0KxVQmrsGBCjc12xVSu&#xA;PzP/AC6tjbi58y6bB9biiuLb1LmJPUhmNI5E5MOSse4xVAv+Zml6ZqvmK38zXFrpNjo11a2tpdtI&#xA;3783dv8AWEXiQD6nGvwrXoTiqYXn5mfl5ZNAt35k063NzDFc23qXMSiSCf8Au5UJajI3ZhtiqC82&#xA;fmJZaP5i0PQLOa1udT1LUILS9tGkPrQQzo8glKoDQkRniHIr1FaYqi0/M/8AL2Sxu7+PzBZPZ2Uy&#xA;WtzMkoYCaQkJGtPts5VgvGtaGnQ4qra15xitNFs9Y0mzk16yvP3iz2UsCwpbiF5jcvPM8cSx0Sle&#xA;XUjFUr8v/m55Q1S10Vr65XRdS16NZ9O0m+kjW5eKVykDlVZlHrcf3dT8XbfFV/ln8xbC8XUIdduL&#xA;LTdQsrzUbcQCbZrfTXCy3H7zgeKggsaUGKolfzS/LlrKG+/xHYLaXDyRQTPOiK0kSLI6DkR8XB1Y&#xA;DqQRTqMVTZvNHlxfL/8AiJtTthoXpev+k/VT6v6R/a9SvHrt89sVSmb80/y4htbe6n8yafDBdI8l&#xA;u8lwic1ibhJQMQao2zL1XvirJoJ4LiCOeCRZYJVDxSoQyOjCqsrDYgjcEYqvxV8U+RfKkmoX1nq9&#xA;2kU+gWd3F+lkWa3MyxKfUYNbvIkhVo0Ykqp+EMf2Tm7y5KFDm6yEb36PbPzL/Lb8v5vMukPqDppc&#xA;OoTW9haW2mqi3FxNM5SsileKotVJkPI7EdSuYOHNPhNb+9ycmONhlM1tdaG+haP+ldVub25JtEeO&#xA;W3UJHbW3qNMYzAUK8kVKsD9rdq7ZUDxWaDZVULLDfJf5YeQoPP8Acw2btqFzpXEahp2rmKRlaRA4&#xA;lionGatRX4RwNd91pdkzz4N+vc1QxR4nmn5r+TktvMes6vpMcFv5ejmEUIaaBGaZD6MixQiRpnHr&#xA;RSfFx/ZbwOZWDJcQDzacsNyRyfT35ef8oB5Z/wC2TY/9QyZq831n3lzsf0j3MI/MH8qPMfm3XdVu&#xA;1u7ewgmGlRaZdxzSfWUhtTdR3ysghAQyQanOqcZGqQteNfhrZrtE/Lvzpp+r6bdNDpS2mneYdT1i&#xA;OGK6uARa31nNbRRCtrTmhnqe1BiqXw/lR52TRNIsyul/WrDy9rOizuLq44tNqbIYWVvqtTGgi+Kq&#xA;g/EaA4qrD8rvPj6pdvHcafpmn6hor6XqyW9xczi9lGnra28ksDwRpG8Eo/vkerRgKU8FUJJ+Tnmi&#xA;516z1XU7fTdQEmm6dp9/a/pTVLWOB9OlLhoVto0W6jf4X9OdVpIKg9aqp3afl/5ujs9Pjkj04TW3&#xA;m268xT8bmYj6pdTXE3BSbZSZV+sBaEBTx+1iqn+Uf5Uaj5KvYhe29pKtlZ3Nla6rFqOo3E0qT3KT&#xA;mtjcD6ra8/TDS+kTV9xQVxVRh/KXzVpUWuvoeqwxTTXiHy9C9VFtpjXDXtzaiX0pjA8s9xIvqqjl&#xA;UVKb/ZVQ+lflX50sbLTbRv0bIlhp/mW1Ym6uGLTa7d/WYBvbbpGEVZGO+5IBpuqnHmXyB5i1L8vP&#xA;KvlxbXTb6fSJdObVbW7uJo7WaOxjo8aSLbTM3qFQPijG2KpNa/lL5ztV0UC5sZk02y8wQfV3ubnh&#xA;AdYCfVbS3Z4ZHa3tvSVObkNx3C7ccVa1T8qPOlzpT2sC6Ws7+VtP8vl2uZ1BuLO59R3JFqT6Xpk8&#xA;dq12oBvirXmj8n/NOseY9U1xWsiJta07WLOxF9e2vNbTTTYyo91axRzW8iv+8ikj5eBGKrL38oPN&#xA;Mmi6rpdjbaVY2995bbRbeAXt7Osd1Ldy3Lu0k8EkroPXJ5E8iw6AHZVNtU8kfmPPrOtapYXGn2X6&#xA;Sv7C59CO5mEklvbWZtpoTcG0LW7Mx5B40Ylfh+GtcVSRfyd87DyrPoRk0ws/lFPLUc/1iehuY5XY&#xA;Ssv1baPg/iTXt3xVMovy2892+rRtE+ly6f8Ap618wy3Ek1wLkPHaJazW/AQFXVApMb81rsCq9Qqk&#xA;S/kn59ksrWOe4sFs9I1SLUdF8tw6hqEVrApgkiuEi1CGKG7tx6kgkgRUYR0K1IbFWV6/+X/mWT8t&#xA;tK8n6Da6fbWoljGuafJfXgiezEhmmtYbuSC6nPrMeLO6fZrtvsqlut+QPzU16e0fUp9Ihso5rGZt&#xA;Lsp54YIPqGorcrRvqpe6Z7ZFjHP01RqlV32VSa9/IvztdT+cJBd6bGnnJrxLxGlnla3i9c3Vn6Ev&#xA;oRvxkdmjuYthT41YttirIPL35YeYNP1nQdUNhp9pLZam97q3HVdT1F5Y/wBGPp8TJLfRM5dfV2T4&#xA;QFVRU9lXXn5Ua/e/lBZ+UZns4tVsr1b4Qxz3K2UoS/a6WBp4kguEVkbjyROStuOmKrLX8sPMsNxa&#xA;SQ2enWUS2OvQXcX6Sv752udY9EpI093A0svxWo9RmI+0aLt8SrPvIui32heStA0O/MTXmlada2Nw&#xA;8DM8TPbQrEWRnWNqNwruoxVPMVfH/wCS9npV/wCYbmx1FOFs0Anub0yJEsNrbuHuFkLqw9OVPgeh&#xA;U8dq0JGbjUkgWHXYQCd3sjebrLVGuNd8tzz3NlompRx32mQQwzWdxaKyvJPHFSKYPCv7xZN/jAA5&#xA;DpheGRtLqHI473HROrifRb1o/Nel65BDp9uTL9a9TnaSQAUmgu3Yxskjmf8AdqzHhxqq9QYAEekj&#xA;dmaO4KS3nnOzgF95uvri5i8uzXkVtpNqkEUdrcRPQPfzq3qSzKT8JIUMFC0FTUTGM/SOf42YGf8A&#xA;F0eYfntF5fiuLCTRglxZ6jJPfWd5FIjxCKTiJIYlRRxX1+b0LGjE0AqcytLe99GjPXR9F/l5/wAo&#xA;B5Z/7ZNj/wBQyZrs31n3lzcf0j3ML85fmb5q0r8zB5I0pbCa71TTILnQIriKUH63LNMkjXMonVfQ&#xA;hitXkIVA7VCrv1rZp2n5q6XDfx6fc2t3cql8mh3Gu28MUentq5WhtkWSdrheUv7sEqUDHiZK4qls&#xA;H51abquj301jpWq2FwujXWs2Et1b2rCSG1YRSvGougjtDJIpKM6ch0bFVaT86NHsp2s7rTNUuDZx&#xA;6W+o6lDBb/V401YUt5nUXDSKheoZQrFfcb4qg9A/NJrXWvMui6ib3XL3T9Q1KZFtorYfU9OtLeOW&#xA;NZ2BtlUSOWjhLVZm6mgJCqs/5trdPpU0Gnanp1vqemajqNnDc2tqzXCWkEMyyKfrY4cVnFFYUcn7&#xA;S03VSvyr+bF3/jafSdRuLvV01Sy0G40axt7WBJYfr1tNJe3LpGeSwJwRpOUsnAkKpaoBVTm2/O/S&#xA;LrQ7TWrXy/rNxZajeJYad6UdmzzyyLIVKL9aqo/csCH4su3JRiqXat+eGiajaa7pWi/XrDVra01L&#xA;6lqTx2pi+u6bb+vNEqO87ExnYs8PpsVYKxpiqeWX5mx29zoel6lpepNcarFBHBqwigFpPdyWRvCk&#xA;dJVlNVRgWEXANsWGKpbpP5wwajHourXlpdaDpF5a6nezi6igmR4dPjWRpBNFP6kfBSTT0W5Go2pU&#xA;qrbT/nIPynd2kcsGmam13PPaW9rpxWzE0pv45ZbZg5ufQTmtu44ySq/IceNdsVemW8pmgjlMbRGR&#xA;VcxSAB15CvFgCRUd98VX4q7FXYq7FXYq7FXYq7FXYq7FXYq7FXYq+Jfy580jy75kiuprhrawmUxa&#xA;hJHBFcSmCocoizK61ZkA6Zu80OKLq8cqLPdP8zfkv5csNS1PRoZNb1O4MTRabrMRVq+ofUCGGH6u&#xA;F4tyo38tO+UGGWRAOw8m4SgNxv70sH506GEMY/L/AED0yQxT6vHQkVANOHUVOS/LH+dJj4w/mhMb&#xA;rzb+UPmvy/AfMNkvl28trgkWujRt6zxLFxAUtCbdVZiNia/DkRjyQO2/vZGcJDfb3MP/ADN822Wv&#xA;ajaxaXcyXGi2MIWxW4t4IJ4+QAkR/QSNWHJOQ+eXYcZiN+bVknZ25Pq/8vP+UA8s/wDbJsf+oZM1&#xA;Ob6z7y7DH9I9yR+avyh0fzN5kudd1C+uUuJLS2tbL0PTjezks52uIbm3l4l1lWSRutQQSDtlbNQ0&#xA;/wDJ6G2uo2n128u7FNSGvPYSR24R9W+0bkssYfgZv33pA8Q/t8OKrbf8m7e3022sY9buuNtot/oI&#xA;kaOAs0GoyLLJIfhA5qY149tsVbn/ACctZoNWi/TN0p1e20m0mcRwVVdFblCy1SnJzy5dt9sVWP8A&#xA;ktZDWNU1q11q8tNU1eS8+uzxJBSS2vYwhtpEZGDpEyq8bH4lNd9ziq7Xvy4e30fSrm2ubrUbzyvo&#xA;t/penWcaQK10Ly3SEByeADD0UpQgeOKpdo35IRJdab5hm1W707zPbWOl2yS23oH6v9QtfQmhUsji&#xA;SOcO/MNXfiR9kYqi9J/JSHT7j62dfu5r19Wg1q5kENrDFJPbQvCv7iKNIlaQSEyuo5OaV6DFUUv5&#xA;RLD+mbWz166ttG1gXzHTRBaP6UmpBvXKTvEZuIaV2ROVATvUbYqo235J6VB5o07zEuq3TXenPZyg&#xA;PHbMXaztZLTj6rRGVIpIpPiiRgoarAVNQqut/wAl9OWysNNu9YvL3S7C21Kxjs5Ft0BtdUT05Ii8&#xA;caP8CfZata7+wVQ95+TN7feWZvL175ru7mxnWOGRZLLTTW3iRkVT/o/Iy/Hz9YnkGUEU3qq9GsLN&#xA;LKxtrNJJJUtokhWWZucjCNQoZ2P2mNNziqvirsVdirsVdirsVdirsVdirsVdirsVdir8/c6B1DsV&#xA;dirsVdir7i/Lz/lAPLP/AGybH/qGTNHm+s+8u0x/SPcyDK2bsVdirsVdirsVdirsVdirsVdirsVd&#xA;irsVdirsVdirsVdirsVdirsVdirsVdirsVYP/wAqR/Kz/qwRf8jZ/wDqpl/5nJ3tXgQ7nf8AKkfy&#xA;s/6sEX/I2f8A6qY/mcnevgQ7nf8AKkfys/6sEX/I2f8A6qY/mcnevgQ7nf8AKkfys/6sEX/I2f8A&#xA;6qY/mcnevgQ7nf8AKkfys/6sEX/I2f8A6qY/mcnevgQ7mY2Fja2Fjb2NnGIrS0iSC3iBJCRxqFRQ&#xA;TU7KKb5STZstgFK+BLsVdirsVdirsVdirsVdirsVdirsVdirsVdirsVdirsVdirsVdirsVdirsVd&#xA;irsVdirsVdirsVdirsVdirsVdirsVdirsVdirsVdirsVdirsVdirsVdirsVdirsVdirsVdirsVdi&#xA;rsVdirsVdirsVdirsVdirsVdirsVdirsVdirsVdirsVdirsVdirsVdirsVdirsVdirsVdirsVdir&#xA;sVdirsVdirsVf//Z</xmpGImg:image>
               </rdf:li>
            </rdf:Alt>
         </xmp:Thumbnails>
         <xmpMM:RenditionClass>default</xmpMM:RenditionClass>
         <xmpMM:OriginalDocumentID>uuid:65E6390686CF11DBA6E2D887CEACB407</xmpMM:OriginalDocumentID>
         <xmpMM:DocumentID>xmp.did:965d134f-0a38-4b80-a1ba-2ddb0a18f0ab</xmpMM:DocumentID>
         <xmpMM:InstanceID>xmp.iid:965d134f-0a38-4b80-a1ba-2ddb0a18f0ab</xmpMM:InstanceID>
         <xmpMM:DerivedFrom rdf:parseType="Resource">
            <stRef:instanceID>uuid:6ea27f54-23be-9b48-87eb-53175be4eeb6</stRef:instanceID>
            <stRef:documentID>xmp.did:1f8f36ca-f461-4aec-90bd-7bfd9df2de46</stRef:documentID>
            <stRef:originalDocumentID>uuid:65E6390686CF11DBA6E2D887CEACB407</stRef:originalDocumentID>
            <stRef:renditionClass>default</stRef:renditionClass>
         </xmpMM:DerivedFrom>
         <xmpMM:History>
            <rdf:Seq>
               <rdf:li rdf:parseType="Resource">
                  <stEvt:action>saved</stEvt:action>
                  <stEvt:instanceID>xmp.iid:4bc33943-1bb8-41d9-b42d-3a75a8bce46d</stEvt:instanceID>
                  <stEvt:when>2017-10-23T13:00:12+02:00</stEvt:when>
                  <stEvt:softwareAgent>Adobe Illustrator CC 22.0 (Macintosh)</stEvt:softwareAgent>
                  <stEvt:changed>/</stEvt:changed>
               </rdf:li>
               <rdf:li rdf:parseType="Resource">
                  <stEvt:action>saved</stEvt:action>
                  <stEvt:instanceID>xmp.iid:965d134f-0a38-4b80-a1ba-2ddb0a18f0ab</stEvt:instanceID>
                  <stEvt:when>2017-11-27T08:36:48+01:00</stEvt:when>
                  <stEvt:softwareAgent>Adobe Illustrator CC 22.0 (Macintosh)</stEvt:softwareAgent>
                  <stEvt:changed>/</stEvt:changed>
               </rdf:li>
            </rdf:Seq>
         </xmpMM:History>
         <illustrator:StartupProfile>Web</illustrator:StartupProfile>
         <xmpTPg:NPages>1</xmpTPg:NPages>
         <xmpTPg:HasVisibleTransparency>False</xmpTPg:HasVisibleTransparency>
         <xmpTPg:HasVisibleOverprint>False</xmpTPg:HasVisibleOverprint>
         <xmpTPg:MaxPageSize rdf:parseType="Resource">
            <stDim:w>314.001838</stDim:w>
            <stDim:h>125.000000</stDim:h>
            <stDim:unit>Pixels</stDim:unit>
         </xmpTPg:MaxPageSize>
         <xmpTPg:PlateNames>
            <rdf:Seq>
               <rdf:li>Cyan</rdf:li>
               <rdf:li>Magenta</rdf:li>
               <rdf:li>Yellow</rdf:li>
               <rdf:li>Black</rdf:li>
            </rdf:Seq>
         </xmpTPg:PlateNames>
         <xmpTPg:SwatchGroups>
            <rdf:Seq>
               <rdf:li rdf:parseType="Resource">
                  <xmpG:groupName>Standaardstaalgroep</xmpG:groupName>
                  <xmpG:groupType>0</xmpG:groupType>
                  <xmpG:Colorants>
                     <rdf:Seq>
                        <rdf:li rdf:parseType="Resource">
                           <xmpG:swatchName>Wit</xmpG:swatchName>
                           <xmpG:mode>RGB</xmpG:mode>
                           <xmpG:type>PROCESS</xmpG:type>
                           <xmpG:red>255</xmpG:red>
                           <xmpG:green>255</xmpG:green>
                           <xmpG:blue>255</xmpG:blue>
                        </rdf:li>
                        <rdf:li rdf:parseType="Resource">
                           <xmpG:swatchName>Zwart</xmpG:swatchName>
                           <xmpG:mode>RGB</xmpG:mode>
                           <xmpG:type>PROCESS</xmpG:type>
                           <xmpG:red>0</xmpG:red>
                           <xmpG:green>0</xmpG:green>
                           <xmpG:blue>0</xmpG:blue>
                        </rdf:li>
                        <rdf:li rdf:parseType="Resource">
                           <xmpG:swatchName>R21G66B115</xmpG:swatchName>
                           <xmpG:type>PROCESS</xmpG:type>
                           <xmpG:tint>100.000000</xmpG:tint>
                           <xmpG:mode>RGB</xmpG:mode>
                           <xmpG:red>21</xmpG:red>
                           <xmpG:green>66</xmpG:green>
                           <xmpG:blue>115</xmpG:blue>
                        </rdf:li>
                     </rdf:Seq>
                  </xmpG:Colorants>
               </rdf:li>
            </rdf:Seq>
         </xmpTPg:SwatchGroups>
         <pdf:Producer>Adobe PDF library 15.00</pdf:Producer>
         <pdfx:CreatorVersion>21.0.0</pdfx:CreatorVersion>
         <xmpRights:Marked>True</xmpRights:Marked>
      </rdf:Description>
   </rdf:RDF>
</x:xmpmeta>
                                                                                                    
                                                                                                    
                                                                                                    
                                                                                                    
                                                                                                    
                                                                                                    
                                                                                                    
                                                                                                    
                                                                                                    
                                                                                                    
                                                                                                    
                                                                                                    
                                                                                                    
                                                                                                    
                                                                                                    
                                                                                                    
                                                                                                    
                                                                                                    
                                                                                                    
                                                                                                    
                           
<?xpacket end="w"?>
	</metadata>
<g id="Laag_1">
	<g>
		<rect style="&st0;" width="314" height="125"/>
		<rect style="&st1;" width="50" height="100"/>
	</g>
	<path style="&st2;" d="M25.9037113,77.3628998H25.033432v-2.4129333h0.8702793V77.3628998z M29.8273716,66.7244873h-0.8701439
		v-2.4142838h0.8701439V66.7244873z M13.7119255,62.5619011c-0.0657434,0-0.5160284,0.001358-0.5160284,0.0941315
		c0,0.092907,0.20959,0.0450935,0.5160284,0.0968475c0.696413,0.1193962,0.9709311,0.469574,1.4597921,0.469574
		c0.4436359,0,0.8966303-0.3010063,0.7203197-0.9430847c-0.0292034-0.1074448-0.0915508-0.0823174-0.1062212-0.0092392
		c-0.0676441,0.2864723-0.419858,0.4509659-0.7912169,0.4509659C14.534934,62.721096,14.4361839,62.5619011,13.7119255,62.5619011z
		 M8.9198885,64.9734726c0.0763445,0.1060867,0.8974457,1.1712799-0.3633518,1.5785065
		c-0.0558271,0.0186157-0.0749798,0.0729446,0.0092363,0.1088028c0.9311323,0.3886185,1.3822317-0.3264008,1.3822317-0.3264008
		c0.468215,1.0718536-0.2500677,1.6661224-0.2500677,1.6661224c0.1014671,0.1936951,0.5464544,0.5160217,1.2223577,0.6672058
		c0.2553644-0.1366501,0.6154566-0.3992081,0.7654228-0.8024979c0,0,0.182416,0.4682159,0.0165653,0.9152374
		c1.9021988,0.1725082,2.5747051-1.3477249,4.0397959-1.0744324c0.0425148,0.0080109,0.0623465-0.0186081,0.0623465-0.0637054
		c0-0.9377899-0.5744352-2.6515884-2.3883438-2.9991837c-1.80861-0.3488159-1.3217859-1.0916862-1.3217859-1.0916862
		c0.7626991-0.0345039,1.2030687,0.2971992,1.2030687,0.2971992c0.1392355-0.228199-0.0570498-0.4748688-0.0570498-0.4748688
		c0.0729418-0.0876122,0.1134272-0.3979912,0.1134272-0.3979912c-0.8588762-0.001358-1.0843582-0.1856842-1.0843582-0.1856842
		c-0.1320295-0.5093689,0.222086-1.2296906,1.4975538-0.4589767c0.3183918-0.2838898,0.2944918-0.7163811,0.2944918-0.7163811
		c0.0961628-0.0450974,0.1557932-0.1962776,0.1557932-0.2612076c0-0.2123032-1.0199671-0.7840233-1.2819881-0.8516693
		c-0.0636978-0.3090172-0.458971-0.7548218-1.6581078-0.5942688c-0.5671005,0.0703621-0.9763641-0.0782394-0.7852478-0.4085846
		c0.0324707-0.0556908-0.0690031-0.0662842-0.1221132-0.0119514c-0.1313505,0.1313515-0.3124151,0.5014954,0.1837816,0.7508812
		c0.5498495,0.2784576,0.5836725,0.8303452,0.5876112,0.9099426c0.0092363,0.1166801-0.1313496,0.1272774-0.1624556,0.0105972
		c-0.2534637-0.9311333-1.5255356-1.131485-2.2789984-0.6367836c0.0444174,0.4987755,0.5804186,0.8277626,0.874218,0.8277626
		c0.1691113,0,0.4032869-0.1684303,0.4032869-0.4005699c0-0.1127396,0.0575933-0.0982056,0.0908718-0.0105934
		c0.1246948,0.3315659-0.3655186,1.0160255-1.0944033,0.5995636c-0.7408237,0.7415123-0.4449873,1.6553917-0.370822,1.9923935
		c0.1327076,0.6048584-0.1631355,1.1911163-0.7082243,0.9179535c-0.0279884-0.0133057-0.0558343-0.0239029-0.0558343,0.0410233
		C7.8387971,64.8699646,8.3349934,65.2997437,8.9198885,64.9734726z M13.0028791,61.2353592
		c-0.3462372,0.3860359-0.9099426,0.2971992-1.0452318-0.3395844C12.6685953,60.858696,12.9743547,60.9302788,13.0028791,61.2353592
		z M35.0717316,62.721096c-0.3715019,0-0.7230377-0.1644936-0.7906837-0.4509659
		c-0.015213-0.0730782-0.0775604-0.0982056-0.1060829,0.0092392c-0.1764488,0.6420784,0.2765541,0.9430847,0.7203178,0.9430847
		c0.4888611,0,0.7633781-0.3501778,1.4591141-0.469574c0.3064384-0.051754,0.516037-0.0039406,0.516037-0.0968475
		c0-0.0927734-0.450428-0.0941315-0.516037-0.0941315C35.6301384,62.5619011,35.53125,62.721096,35.0717316,62.721096z
		 M42.2273903,64.4892273c0-0.0649261-0.0278473-0.0543289-0.0550117-0.0410233
		c-0.5452347,0.2731628-0.8409424-0.3130951-0.7083702-0.9179535c0.0743027-0.3370018,0.3701439-1.2508812-0.3713646-1.9923935
		c-0.728878,0.4164619-1.2190971-0.2679977-1.0944023-0.5995636c0.0338211-0.0876122,0.0908699-0.1021461,0.0908699,0.0105934
		c0,0.2321396,0.2341843,0.4005699,0.4032898,0.4005699c0.2938042,0,0.8296623-0.3289871,0.8747597-0.8277626
		c-0.7534637-0.4947014-2.0255356-0.2943497-2.278862,0.6367836c-0.0317841,0.1166801-0.1725082,0.1060829-0.1631355-0.0105972
		c0.0046196-0.0795975,0.0377617-0.631485,0.5876122-0.9099426c0.4960594-0.2493858,0.3156738-0.6195297,0.1843338-0.7508812
		c-0.0536613-0.0543327-0.1551285-0.0437393-0.1226654,0.0119514c0.191658,0.3303452-0.2174683,0.4789467-0.7845688,0.4085846
		c-1.199131-0.160553-1.5945396,0.2852516-1.6581078,0.5942688c-0.2626915,0.067646-1.2821236,0.6393661-1.2821236,0.8516693
		c0,0.06493,0.0597649,0.2161102,0.1559334,0.2612076c0,0-0.0239067,0.4324913,0.294487,0.7163811
		c1.2746506-0.7707138,1.6289024-0.0503922,1.4975548,0.4589767c0,0-0.2254829,0.1843262-1.0850334,0.1856842
		c0,0,0.0411606,0.310379,0.1141014,0.3979912c0,0-0.1964149,0.2466698-0.0570488,0.4748688
		c0,0,0.4403763-0.3317032,1.2030678-0.2971992c0,0,0.486824,0.7428703-1.322464,1.0916862
		c-1.8133659,0.3475952-2.3876648,2.0613937-2.3876648,2.9991837c0,0.0450974,0.0191498,0.0717163,0.0616646,0.0637054
		c1.4657707-0.2732925,2.1375999,1.2469406,4.0404778,1.0744324c-0.165844-0.4470215,0.016571-0.9152374,0.016571-0.9152374
		c0.1498222,0.4032898,0.5093727,0.6658478,0.7654152,0.8024979c0.675087-0.1511841,1.1202126-0.4735107,1.2216797-0.6672058
		c0,0-0.7176056-0.5942688-0.2493896-1.6661224c0,0,0.4509659,0.7150192,1.3822327,0.3264008
		c0.0835381-0.0358582,0.0642471-0.0901871,0.009243-0.1088028c-1.2614822-0.4072266-0.4403763-1.4724197-0.3634949-1.5785065
		C41.7320061,65.2997437,42.2273903,64.8699646,42.2273903,64.4892273z M38.1093521,60.8957748
		c-0.1359596,0.6367836-0.6996651,0.7256203-1.0452309,0.3395844C37.0926476,60.9302788,37.398407,60.858696,38.1093521,60.8957748z
		 M24.6991482,50.2122726c0,0.160553,0.0690041,0.3011398,0.1240158,0.3793793
		c0.1121979,0.1591949,0.0949459,0.2466698,0.0418358,0.2997818c-0.0524235,0.053112-0.1405869,0.0703621-0.3004608-0.0411568
		c-0.0782394-0.0556908-0.2181473-0.1246948-0.3787022-0.1246948c-0.2745171,0-0.4104862,0.1803856-0.4104862,0.3342857
		c0,0.1538963,0.1359692,0.3342819,0.4104862,0.3342819c0.1605549,0,0.3004627-0.0690041,0.3787022-0.1246948
		c0.159874-0.1113815,0.2480373-0.0941315,0.3004608-0.0410194c0.0531101,0.0516167-0.0245857,0.6035042-0.0862541,1.0372162
		c-0.4542236,0.0954895-0.6731853,0.4589806-0.6731853,0.6712837c0,0.5464554,0.5843525,0.862133,0.9278717,1.0452347
		c0.3429775-0.1831017,0.92733-0.4987793,0.92733-1.0452347c0-0.2123032-0.2189617-0.5757942-0.6726437-0.6712837
		c-0.0623474-0.433712-0.1392288-0.9855995-0.0867958-1.0372162c0.0522938-0.053112,0.1405849-0.0703621,0.3004608,0.0410194
		c0.0782471,0.0556908,0.2181549,0.1246948,0.3787003,0.1246948c0.274519,0,0.4104862-0.1803856,0.4104862-0.3342819
		c0-0.1539001-0.1359673-0.3342857-0.4104862-0.3342857c-0.1605453,0-0.3004532,0.0690041-0.3787003,0.1246948
		c-0.1598759,0.1115189-0.248167,0.0942688-0.3004608,0.0411568c-0.052433-0.053112-0.0703621-0.1405869,0.0417004-0.2997818
		c0.0551472-0.0782394,0.1246929-0.2188263,0.1246929-0.3793793c0-0.2745209-0.1803856-0.4111671-0.3342838-0.4111671
		C24.8789902,49.8011055,24.6991482,49.9377518,24.6991482,50.2122726z M25.033432,54.2727165
		c-0.3681049,0-0.6665306,0.2970657-0.6665306,0.6658516c0,0.367424,0.2984257,0.6658478,0.6665306,0.6658478
		c0.3674278,0,0.665987-0.2984238,0.665987-0.6658478C25.699419,54.5697823,25.4008598,54.2727165,25.033432,54.2727165z
		 M25.033432,60.6836052c2.6683025,0,4.1738625,0.5093727,4.1738625,0.5093727
		c0.014534-1.3477287,0.0052986-2.0998344,0.7785931-1.9870949c-0.4224396-1.132843,1.3981247-1.5771523,1.3981247-3.0535164
		c0-0.9724274-0.6877213-1.0824509-0.8906536-1.0824509c-0.6043205,0-0.5093727,0.3925552-1.0234985,0.3925552
		c-0.06357,0-0.1299839-0.015892-0.1299839,0.0305634c0,0.1697922,0.1446533,0.4603386,0.3807297,0.4603386
		c0.3156757,0,0.3223305-0.3158112,0.5565147-0.3158112c0.1014595,0,0.2473431,0.0823135,0.2473431,0.406002
		c0,0.6274109-0.4111652,1.3238258-0.8966236,1.8624001c-0.1115265-0.1538963-0.2633858-0.2493858-0.4451313-0.2493858
		c-0.2871494,0-0.5392551,0.2997818-0.5392551,0.6697884c0,0.1366501,0.0220051,0.2362137,0.0717201,0.3515358
		c-0.1619129,0.0901909-0.3057518,0.1419449-0.4138813,0.1419449c-0.2188263,0-0.5491714-0.0888329-0.5491714-0.5690041
		c0-1.0691376,1.4339848-2.0110016,1.4339848-3.3666115c0-0.647377-0.4324913-1.292038-1.3357773-1.292038
		c-0.9690228,0-0.7886448,0.8848152-1.6270027,0.8848152c-0.0384407,0-0.0690022,0.0118141-0.0690022,0.0463181
		c0,0.0556908,0.14534,0.5452309,0.5790539,0.5452309c0.4642754,0,0.5949459-0.8024979,1.0054321-0.8024979
		c0.1538982,0,0.3834553,0.0901909,0.3834553,0.6340675c0,0.4231186-0.209589,1.1062202-0.5107307,1.7616119
		c-0.1088009-0.1088028-0.2560444-0.1884003-0.422575-0.1884003c-0.3594131,0-0.6173515,0.3474579-0.6173515,0.7626991
		c0,0.2626991,0.1033611,0.5160294,0.2818451,0.6831017c-0.2116261,0.2707138-0.4278717,0.4909019-0.7209988,0.4909019
		c-0.5790539,0-0.8349552-0.3289871-0.8349552-0.6871796c0-0.387394,0.7070007-0.5279808,0.7070007-1.132843
		c0-0.4111671-0.2673187-0.6433029-0.5247211-0.6433029c-0.2765541,0-0.4185009,0.1831017-0.4463463,0.1831017
		c-0.0285244,0-0.1704693-0.1831017-0.4470234-0.1831017c-0.257267,0-0.5245857,0.2321358-0.5245857,0.6433029
		c0,0.6048622,0.7070084,0.7454491,0.7070084,1.132843c0,0.3581924-0.2553654,0.6871796-0.8342838,0.6871796
		c-0.2939415,0-0.5100517-0.2201881-0.7216778-0.4909019c0.1783466-0.1670723,0.2818527-0.4204025,0.2818527-0.6831017
		c0-0.4152412-0.257946-0.7626991-0.6174965-0.7626991c-0.1663933,0-0.3136368,0.0795975-0.4224377,0.1884003
		c-0.3004551-0.6553917-0.5100517-1.3384933-0.5100517-1.7616119c0-0.5438766,0.229557-0.6340675,0.3833199-0.6340675
		c0.4099426,0,0.5406132,0.8024979,1.0055676,0.8024979c0.4337139,0,0.5789185-0.4895401,0.5789185-0.5452309
		c0-0.0345039-0.031105-0.0463181-0.0695457-0.0463181c-0.8383522,0-0.6579742-0.8848152-1.6263237-0.8848152
		c-0.903286,0-1.3357773,0.6446609-1.3357773,1.292038c0,1.3556099,1.4339848,2.2974739,1.4339848,3.3666115
		c0,0.4801712-0.3303375,0.5690041-0.5491714,0.5690041c-0.1088028,0-0.2521057-0.051754-0.4145603-0.1419449
		c0.0497131-0.1153221,0.0715828-0.2148857,0.0715828-0.3515358c0-0.3700066-0.2519684-0.6697884-0.5391197-0.6697884
		c-0.1817436,0-0.3330612,0.0954895-0.4444427,0.2493858c-0.486145-0.5385742-0.8966312-1.2349892-0.8966312-1.8624001
		c0-0.3236885,0.1458836-0.406002,0.2466717-0.406002c0.2347183,0,0.241375,0.3158112,0.5570488,0.3158112
		c0.2355347,0,0.3800602-0.2905464,0.3800602-0.4603386c0-0.0464554-0.0656071-0.0305634-0.1293125-0.0305634
		c-0.5146694,0-0.4191799-0.3925552-1.0233631-0.3925552c-0.2036133,0-0.890789,0.1100235-0.890789,1.0824509
		c0,1.4763641,1.8206997,1.9206734,1.3981247,3.0535164c0.7734375-0.1127396,0.7633781,0.6393661,0.7780476,1.9870949
		C20.859026,61.1929779,22.3645954,60.6836052,25.033432,60.6836052z M20.1407433,62.6746407
		c-0.7262955,0.1591949-1.2476215,0.3090172-1.4809818,0.3807373c0.0118256-0.3209724,0.1339302-0.6181717,0.4197235-0.6844597
		c0.0365391-0.0093727,0.0457821-0.0584068,0.0119534-0.0809555c-0.6472435-0.4297752-0.9941597,0.3939133-1.0040741,0.420536
		c-0.229557-0.0172501-0.5790558,0.0543327-0.5790558,0.3647118c0,0.9271927-2.1210251,1.4420013-2.6124668,1.5175247
		c0.8660688,0.3342819,1.2269764,1.4259644,1.2269764,1.4259644c0.628767-0.6287689,1.3643074-1.1832352,1.5260773-1.1832352
		c0.1672096,0,0.2307873,0.2095871,0.244091,0.3342819c0.0039406,0.0411606,0.042387,0.0544739,0.068325,0.0186157
		c0.3289852-0.4907684,0.1711483-0.6022873,0.1445255-0.7468109c-0.0211906-0.1140976,0.0119534-0.5438728,0.4921207-0.4934807
		V70.1362l-0.2466717,0.0490341c-0.1134205,0.0199661-1.0180645-0.749527-2.0540524-1.4657745
		c-1.0360022-0.7162399-1.5925083-0.2878265-2.7743874,0.3515396c-1.5453672,0.836998-3.1093435,0.0782394-3.1093435,0.0782394
		c-1.3330536,0.9524536-1.7867336,3.706192-1.7867336,3.706192c-0.2652884,0.1140976-0.7056575,0.2334976-1.1227994,0.2334976
		c-1.0175214,0-1.2045627-0.6154633-1.2045627-0.9842453c0-1.5706329,1.9665833-2.2444992,1.9665833-3.79245
		c0-0.3754349-0.1725073-1.9035568-2.0627527-1.9035568c-0.242054,0-1.6845956-0.0025787-1.6912513-0.0025787
		c-0.7076876,0-0.8846774-0.5093689-0.9828844-0.7044296c-0.0377614-0.0755234-0.1101534-0.0317841-0.0828578,0.0278473
		c0.054333,0.1299896-0.0816286,0.3276291-0.0816286,0.7203217c0,0.6287689,0.3694644,1.0067902,1.057178,1.0067902
		c0.3130941,0,0.6075788-0.0888367,0.7030692-0.1458817c0.0637054-0.0370865,0.097528,0.0239029,0.0676446,0.058403
		c-0.2997756,0.3501816-0.323689,1.0054321-0.2003531,1.1646347c0.0292044,0.0384369,0.065743,0.0278397,0.0729423-0.0027237
		c0.1658583-0.6644897,0.7879715-1.2919006,1.6256442-1.2919006c1.0253997,0,1.020102,0.8715057,1.020102,1.0823135
		c0,1.2602539-2.2132554,2.1847305-2.2132554,3.9171448c0,1.7576675,1.8564305,2.1343307,2.9322243,1.8557434
		c-0.0630331,1.7590332-2.0766149,2.3585968-2.1376038,1.0997009c-0.0046182-0.0596313-0.0478129-0.0743027-0.0809565,0.0052948
		c-0.2546859,0.6221161-0.1538982,1.1687012,0.6301274,1.3424377c0.0529747,0.0133057,0.0271664,0.0423737-0.0213256,0.0756531
		c-0.7758756,0.4933472-0.355474,2.4327621-0.3170333,3.0031281c0.0584078,0.822464-0.759304,0.7242584-0.8264055,0.7003479
		c-0.0338221-0.013176-0.0662861,0.0040741-0.014534,0.0690079c0.5797334,0.7109451,1.2959785,0.0609894,1.2959785,0.0609894
		c0.5411568,0.1697845,0.2056503,0.631485-0.1552567,0.8728561c-0.0563703,0.0384445-0.0516162,0.0756607,0.0093727,0.0795975
		c0.080956,0.0053024,0.9186354,0.0756607,1.0677795-0.5916824c0.3708229,0.4430847,0.9159193,0.2813034,1.0307045,0.2229004
		c0.1612263-0.0821838,0.9457951-0.3674316,1.0240345,0.5146713c0.0046186,0.0637054,0.0418367,0.0225449,0.0676451-0.0105972
		c0.5929089-0.7454529-0.0423803-1.2057877-0.3952732-1.2601242c0.0285254-0.041153,0.5040751-0.4350662,0.9311323,0.1113892
		c0.0285244,0.0370789,0.0558271,0.0450974,0.0611248-0.0292053c0.0490351-0.9458008-0.7203207-1.0319214-1.2184181-0.6207581
		c-0.0232277-0.0968475-0.1890717-0.6287689,0.5630255-0.6101608c0.01793,0,0.0537901-0.026619,0.0160284-0.0637054
		c-0.5836725-0.6168137-1.0638399-0.055687-1.1753588,0.0782394c-0.259984,0.3064423-0.9072256,0.1844635-0.9669919,0.1764526
		c0.2029338-3.2870178,3.0987477-2.1223907,3.4966016-3.7195053c0.018609-0.0848999,0.0563774-0.0531158,0.0643845-0.0225525
		c0.1094809,0.3899765,1.0923653,0.4444427,1.2727509-0.3236847c0.0099163-0.0476761,0.0039396-0.0848999-0.0305624-0.0490417
		c-0.8382225,0.8370056-2.7258873-1.78022-0.1498232-3.9065399c2.1992655-1.8132324,4.1704674-0.8024979,4.9199905-0.205513
		c0.0397987,0.262558-0.1168156,0.3474579-0.2169247,0.3792419c-0.0358601,0.0107269-0.0471325,0.0438766,0.0099163,0.0664215
		c0.209589,0.0795975,0.5047531,0.0543365,0.6434383-0.1419449c0.4721546,0.3302078,0.067646,0.7454453-0.1234703,0.8609085
		c-0.0483494,0.030426-0.0271683,0.0623474,0.0133114,0.0702209c0.433712,0.0782394,0.7905445-0.3647079,0.8077946-0.6193924
		l0.0729427,0.041153v1.8676987c0,2.6596069,3.0681858,3.0282516,6.4354744,5.2833481
		c3.3666096-2.2550964,6.4347954-2.6237411,6.4347954-5.2833481v-1.8676987l0.0736217-0.041153
		c0.0172501,0.2546844,0.3740826,0.6976318,0.8079319,0.6193924c0.0403442-0.0078735,0.0609894-0.0397949,0.013176-0.0702209
		c-0.1909714-0.1154633-0.5954895-0.5307007-0.1233368-0.8609085c0.1380081,0.1962814,0.4337158,0.2215424,0.6433029,0.1419449
		c0.0563698-0.0225449,0.0457764-0.0556946,0.0093727-0.0664215c-0.099556-0.0317841-0.2560425-0.116684-0.2162437-0.3792419
		c0.7495232-0.5969849,2.7205963-1.6077194,4.9199905,0.205513c2.5760651,2.1263199,0.6877213,4.7435455-0.1499596,3.9065399
		c-0.0351791-0.0358582-0.0404701,0.0013657-0.030426,0.0490417c0.1803856,0.7681274,1.163269,0.7136612,1.2720718,0.3236847
		c0.0078773-0.0305634,0.0464554-0.0623474,0.0649261,0.0225525c0.3979912,1.5971146,3.2936707,0.4324875,3.4966011,3.7195053
		c-0.0596199,0.0080109-0.7070084,0.1299896-0.9669838-0.1764526c-0.1113815-0.1339264-0.5915565-0.6950531-1.1752281-0.0782394
		c-0.0384407,0.0370865-0.0027199,0.0637054,0.015892,0.0637054c0.7521019-0.0186081,0.5863876,0.5133133,0.5624809,0.6101608
		c-0.4974174-0.4111633-1.2674522-0.3250427-1.2177391,0.6207581c0.0046196,0.0743027,0.0324707,0.0662842,0.060997,0.0292053
		c0.4271851-0.5464554,0.9020576-0.1525421,0.9312592-0.1113892c-0.35289,0.0543365-0.988308,0.5146713-0.3952713,1.2601242
		c0.0251274,0.0331421,0.0622101,0.0743027,0.067646,0.0105972c0.0775604-0.882103,0.8621292-0.5968552,1.0240402-0.5146713
		c0.1146431,0.058403,0.6591949,0.2201843,1.0306969-0.2229004c0.1484642,0.6673431,0.986824,0.5969849,1.0677795,0.5916824
		c0.0603104-0.0039368,0.0649376-0.041153,0.0092468-0.0795975c-0.3607788-0.2413712-0.6964226-0.7030716-0.1551285-0.8728561
		c0,0,0.7162437,0.6499557,1.2959785-0.0609894c0.0510712-0.0649338,0.0184708-0.0821838-0.0146713-0.0690079
		c-0.066967,0.0239105-0.8853569,0.1221161-0.8264046-0.7003479c0.0384483-0.5703659,0.4589767-2.5097809-0.3170357-3.0031281
		c-0.0490341-0.0332794-0.0749779-0.0623474-0.0211868-0.0756531c0.7838898-0.1737366,0.8848114-0.7203217,0.630127-1.3424377
		c-0.0331459-0.0795975-0.0770187-0.0649261-0.0809517-0.0052948c-0.0609932,1.2588959-2.0745773,0.6593323-2.1382828-1.0997009
		c1.0757942,0.2785873,2.9322166-0.0980759,2.9322166-1.8557434c0-1.7324142-2.213253-2.6568909-2.213253-3.9171448
		c0-0.2108078-0.0052986-1.0823135,1.0200996-1.0823135c0.8376808,0,1.4597931,0.6274109,1.6261902,1.2919006
		c0.0066528,0.0305634,0.0437355,0.0411606,0.0729485,0.0027237c0.1233292-0.1592026,0.099556-0.8144531-0.2002258-1.1646347
		c-0.0305595-0.0345001,0.0032692-0.0954895,0.067646-0.058403c0.0948105,0.057045,0.3899765,0.1458817,0.7023888,0.1458817
		c0.6877213,0,1.0571861-0.3780212,1.0571861-1.0067902c0-0.3926926-0.1352882-0.590332-0.0809555-0.7203217
		c0.0271645-0.0596313-0.0457764-0.1033707-0.082859-0.0278473c-0.0988846,0.1950607-0.2758751,0.7044296-0.9830208,0.7044296
		c-0.0065193,0-1.4491959,0.0025787-1.6919289,0.0025787c-1.8895683,0-2.0626183,1.5281219-2.0626183,1.9035568
		c0,1.5479507,1.9664497,2.221817,1.9664497,3.79245c0,0.368782-0.1863632,0.9842453-1.2044296,0.9842453
		c-0.417141,0-0.8575096-0.1194-1.1222496-0.2334976c0,0-0.4535446-2.7537384-1.7867393-3.706192
		c0,0-1.5639763,0.7587585-3.1092072-0.0782394c-1.1820145-0.6393661-1.7390633-1.0677795-2.7750587-0.3515396
		c-1.0359955,0.7162476-1.9406395,1.4857407-2.053381,1.4657745L31.4682274,70.1362v-6.1881294
		c0.4803047-0.0503922,0.5141277,0.3793831,0.4928017,0.4934807c-0.0264874,0.1445236-0.1843185,0.2560425,0.1446609,0.7468109
		c0.0251312,0.0358582,0.0637054,0.0225449,0.0676537-0.0186157c0.0131683-0.1246948,0.0768738-0.3342819,0.2440834-0.3342819
		c0.1617737,0,0.8979874,0.5544662,1.5267563,1.1832352c0,0,0.3607712-1.0916824,1.2269821-1.4259644
		c-0.4921265-0.0755234-2.6131516-0.590332-2.6131516-1.5175247c0-0.310379-0.3494987-0.3819618-0.5783768-0.3647118
		c-0.0105934-0.0266228-0.3575115-0.8503113-1.0042095-0.420536c-0.0343647,0.0225487-0.0251293,0.0715828,0.0119534,0.0809555
		c0.2859268,0.066288,0.4079056,0.3634872,0.4198666,0.6844597c-0.6181812-0.1897583-3.2511597-0.9285507-6.3738155-0.9285507
		c-1.5154839,0-2.9122486,0.175087-4.0225449,0.3754425v2.1449318h-0.8701439V62.6746407L20.1407433,62.6746407
		 M14.3798141,84.6480103c-0.230916-0.0929108-0.3834553-0.2415085-0.3834553-0.5452347v-1.3318405
		c-0.3812828-0.1339264-1.424612-0.5319214-3.5058384-0.5319214c-1.7296925,0-2.2716637,0.3899765-2.296793,0.5279846
		l-0.4596572,2.5362701c0,0,0.7003522-0.6407242,3.2087722-0.4762344c3.0217314,0.192337,6.1522636,1.9751434,6.1522636,0.0743027
		v-1.118309C14.726594,83.7830276,14.3798141,84.5364914,14.3798141,84.6480103z M32.9718933,83.7830276v1.118309
		c0,1.9008408,3.1305351,0.1180344,6.1522636-0.0743027c2.5082855-0.1644897,3.2087746,0.4762344,3.2087746,0.4762344
		l-0.4603386-2.5362701c-0.0245857-0.1380081-0.5664215-0.5279846-2.2967911-0.5279846
		c-2.0806847,0-3.1245575,0.397995-3.5052948,0.5319214v1.3318405c0,0.3037262-0.1525421,0.4523239-0.3833199,0.5452347
		C35.6871872,84.5364914,35.3395996,83.7830276,32.9718933,83.7830276z M25.033432,82.6317062
		c4.8656578,0,9.80616,0.2546921,10.452179,0.9881821c0.0516167,0.0584106,0.0729446-0.0012207,0.0729446-0.0450897
		l0.0012207-2.5786514c0-0.7521057-5.0976601-1.189888-10.5263443-1.189888c-5.4292259,0-10.5263433,0.4377823-10.5263433,1.189888
		l0.001358,2.5786514c0,0.043869,0.0211906,0.1035004,0.0729427,0.0450897
		C15.2274084,82.8863983,20.1679096,82.6317062,25.033432,82.6317062z M20.6938534,70.4730606l-0.4921207-0.1272736
		l-0.0411568,0.0609894l-0.5710411-0.2507477c0,0,0.421217-0.0025787,0.5107307-0.0039368
		c0.047821,0,0.0510731-0.0305634,0.0258083-0.0543365c-0.2326813-0.2281952-0.4362946-0.4271927-0.4362946-0.4271927
		s0.2320023,0.0862503,0.5637054,0.2095871c0.0377617,0.0133133,0.0517521-0.014534,0.033823-0.0397949
		c-0.1591969-0.2348557-0.3761215-0.5505295-0.3761215-0.5505295s0.4596653,0.3077927,0.5532475,0.3701401
		c0.029747,0.0211945,0.0536537,0.001358,0.0410213-0.0292053c-0.1226578-0.3037186-0.2618866-0.647377-0.2618866-0.647377
		l0.5046196,0.4762344c0.0232258,0.0213242,0.0491772,0.0093689,0.0425148-0.0225525
		c-0.0490284-0.2268372-0.1392288-0.6472397-0.1392288-0.6472397l0.3700161,0.541153
		c0.021862,0.0317841,0.0497074,0.0225525,0.0503864-0.014534c0.002037-0.1062164,0.0119534-0.5916824,0.0119534-0.5916824
		s0.1559353,0.3581924,0.2348537,0.541153c0.015892,0.0372238,0.043745,0.0398026,0.06357-0.0078735
		c0.0245857-0.0584106,0.1904373-0.4576187,0.1904373-0.4576187l0.0218697,0.6154556l-0.0823154,0.015892l-0.1033688,0.7415085
		c0.7348537-0.1723709,1.6501007-1.4285507,2.3518047-1.4285507c0.8357773,0,1.1394997,0.9789429,2.6841869,0.4827499
		c0.3892975,0.5770187,0.5259438,1.0785065,0.6764469,1.7722092c0.5956249,0.5611191,1.4333057,0.3740768,1.4333057-0.2201843
		c0-0.7999191-0.8721809-0.9524612-0.8721809-1.7867432c0-0.3727264,0.2613411-0.9087219,0.9736462-0.9087219
		c0.3768082,0,0.9292316,0.161911,1.2469444,0.161911c0.3773422,0,0.4576187-0.2732925,0.5001354-0.3860321
		c0.0343647-0.0848999,0.1371899-0.0570526,0.1272736,0.0092316c-0.0126324,0.0782394,0.0437393,0.1870422,0.0437393,0.3662033
		c0,0.5278473-0.7679977,0.5968552-0.8634796,0.5319214c-0.0398064-0.0278397-0.0683327,0.014534-0.0398064,0.0370865
		c0.1154575,0.0929108,0.0895119,0.4072266-0.0478134,0.6075745c-0.016573,0.0225525-0.0377617,0.0184784-0.0423794-0.0027161
		c-0.0823154-0.3780212-0.5259438-0.8450089-0.9165993-0.8450089c-0.1439819,0-0.4297733,0.0836716-0.4297733,0.4152374
		c0,0.4748688,0.9510994,0.9073639,0.9510994,1.8916016c0,1.0226898-1.0134468,1.2681351-2.0321922,1.0134506
		c0.034502,0.9683533,1.4803123,1.5440063,1.5148048,0.851532c0.002039-0.0476761,0.0278473-0.0184708,0.0425167,0.001358
		c0.2148876,0.295845,0.1166801,0.5213242-0.1566162,0.6354294c0.2521133,0.1140976,0.2972031,0.6221085,0.3715038,0.9258347
		c0.1107025,0.45504,0.5935879,0.2029343,0.6174946,0.1897583c0.0258083-0.015892,0.0350437-0.001358,0.0244484,0.0278473
		c-0.1829662,0.4735107-0.6685677,0.2944794-0.6685677,0.2944794c-0.2546864,0.1790314,0.053112,0.3395844,0.2838898,0.4085846
		c0.034502,0.0092392,0.032465,0.0345001,0.0052986,0.0450974c-0.1704693,0.0623474-0.534502,0.1763153-0.710947-0.1287689
		c-0.1306725,0.3158112-0.3998928,0.3064423-0.504076,0.3064423c-0.1863613,0-0.3103771,0.190979-0.2666378,0.4456635
		c0.0039387,0.0226822-0.0119534,0.0292053-0.0285263,0.0160294c-0.4443073-0.294487-0.188942-0.6407242-0.0099144-0.7269745
		c-0.0312424-0.0186081-0.3369942-0.1458893-0.4669933,0.2123032c-0.0099087,0.0278473-0.0271664,0.029068-0.037075,0.0025787
		c-0.1937046-0.5160217,0.229414-0.6658478,0.5344944-0.5358582c-0.0211906-0.072937-0.1810646-0.3250427-0.5823154-0.2440872
		c-0.0177937,0.0052948-0.029747-0.0027161-0.0184727-0.0278473c0.0656071-0.1578369,0.2646103-0.3913345,0.6287689-0.1552582
		c0.1856842,0.1154556,0.5066566-0.0529709,0.5358601-0.0676422c-0.6473713-1.2879639-1.9049168-0.2095947-2.1860886-1.2189636
		c-0.0052986-0.0213242-0.0304279-0.0398026-0.047678,0.015892c-0.0671005,0.2148895-0.615593,0.2294235-0.7163811-0.1936951
		c-0.0078773-0.0331421,0.0046177-0.0370865,0.0259438-0.015892c0.0801411,0.0809555,0.2526493,0.1538925,0.4794884-0.1737289
		c0.1498241-0.2162476,0.1711502-0.5054398,0.1711502-0.7017136c0-0.7840271-0.7826672-2.0986176-2.0031223-2.0986176
		c-0.7712574,0-1.6003799,0.3011475-2.2158375,0.749527l0.5730782,0.1313477
		c-0.0544682,0.5795975-0.6115189,0.9166031-1.1236076,0.7746582l0.0889778-0.663269
		c-0.0889778,0.0278397-0.3137722,0.1074371-0.433857,0.2785873c-0.0085564,0.013176-0.0264874,0.0092392-0.030426-0.0052948
		c-0.1048546-0.3754425,0.2055149-0.5650635,0.3023643-0.6142349c0.0105934-0.0066605,0.0099144-0.014534-0.0099163-0.014534
		c-0.277914-0.0105972-0.4343929,0.1936951-0.4782658,0.2639236c-0.0072002,0.0105896-0.0191536,0.0080109-0.0225487-0.001358
		C20.6128979,70.8047638,20.5638618,70.6110687,20.6938534,70.4730606z M22.3957005,74.9513245
		c-0.2195053,0.2679977-0.4118443,0.0119553-0.6996746,0.0119553c-0.2712574,0-0.3163528,0.2268372-0.3230095,0.3170319
		c-0.001358,0.015892-0.0105877,0.0225525-0.0218678,0.0053024c-0.3071175-0.4191818,0.0358582-0.6473846,0.2360764-0.6778107
		c-0.0291977-0.0291977-0.3308887-0.232132-0.5232277,0.0463181c-0.0146694,0.0199738-0.0331421,0.0107346-0.0331421-0.013176
		c-0.0093651-0.5199661,0.4031506-0.5571823,0.675087-0.3289795c0.0491714-0.1962814-0.0782394-0.3289871-0.2984238-0.3395844
		c-0.0264874,0-0.0305614-0.0172501-0.0198307-0.0292053c0.0920944-0.0994263,0.1816082-0.1445236,0.271801-0.1445236
		c0.2898655,0,0.3264122,0.366066,0.5153484,0.366066c0.2838898,0,0.6851387-0.3820953,0.7237148-0.4231186
		c-0.008007-0.0213242-0.2792721-0.7561798-0.2256184-1.1965485c0.002718-0.0186081-0.0071983-0.0211868-0.0198307-0.0133133
		c-0.1366482,0.0770187-0.484787,0.0743027-0.484787-0.3541107c0-0.0345078,0.0099163-0.0370865,0.029068-0.0092392
		c0.1525478,0.2108154,0.4000282-0.0266266,0.5233707-0.1658554c0.1339245-0.1485977,0.8475952-1.18853,1.8007259-1.18853
		c0.2095966,0.001358,0.4801674,0.1154556,0.6977711,0.2666397c-0.3289871,0.4005661-0.0027161,0.7838898,0.241375,0.7348557
		c0.0285244-0.0053024,0.0338287,0.0211868,0.0066624,0.0305557c-1.2595825,0.4735184-1.8226089,0.6631393-1.8226089,1.7177429
		c0,0.5505295,0.1882648,0.8556061,0.5112743,0.7840271c0.0245857-0.0066605,0.0312424,0.0039368,0.0139904,0.0225449
		c-0.1166725,0.1392288-0.2521057,0.1856842-0.3641663,0.1856842c-0.261343,0-0.3083401-0.1433029-0.4489269-0.1433029
		c-0.1446609,0-0.6135559,0.2758789-0.6135559,0.5067902c0,0.0874786,0.0550117,0.205513,0.2208633,0.3143158
		c0.010603,0.0066605,0.0046196,0.015892-0.0046177,0.0172501C22.8540001,75.2709427,22.4819546,75.3028641,22.3957005,74.9513245z
		 M25.712595,64.6975937c-0.3939133-0.0239029-0.6460114,0.0635681-0.6340656,0.189621
		C25.2701893,65.0889282,25.5248756,65.0663834,25.712595,64.6975937z M24.2594585,65.6712418
		c0.277914-0.0703583,0.5843582-0.0372162,0.6168156-0.026619c0.0437374,0.0146637,0.0425167,0.0809555-0.0073357,0.0876083
		c-0.5802765,0.0743027-0.6067638,0.3409424-0.9769077,0.3409424c-0.244091,0-0.5080128-0.2454529-0.4085827-0.6075821
		c0.0126324-0.0464554,0.0491714-0.0478134,0.0597649-0.0039368C23.5802956,65.6181335,23.8057785,65.7879257,24.2594585,65.6712418
		z M16.7297173,78.5288849c0.3846779,0.4921188,0.7527828,0.0292053,1.2567234,0.0292053
		c0.2454491,0,0.5459099,0.0835342,0.6022873,0.5770187c0.002718,0.0251236,0.0238991,0.0331421,0.0478058,0
		c0.5491714-0.750885-0.0763302-1.1740036-0.43643-1.2283401c0.0775681-0.0703583,0.6147785-0.4005661,0.9550457,0.0874786
		c0.0186024,0.0266266,0.0556927,0.0186081,0.0556927-0.0184708c0-0.9498825-0.7116337-1.0161667-1.226984-0.6050034
		c-0.0968475-0.3700027,0.1824303-0.6140976,0.5411568-0.6140976c0.0431957,0,0.0584087-0.0292053,0.0358601-0.0543289
		c-0.6361027-0.6818848-1.1123314,0.175087-1.2203197,0.3117371c-0.2541351,0.3382187-1.1627254-0.2972031-1.525528-0.6752243
		c0,0,0.8031712-0.8410797,0.8031712-1.6104355c0-0.0450974-0.0052967-0.1100235-0.0052967-0.1366501
		c0-0.0237656,0.0105934-0.0331421,0.0324631-0.0198288c0.0795975,0.0450974,0.1923389,0.0782394,0.2958431,0.0768814
		c0.1837826,0,0.5305614-0.0582733,0.5305614-0.7109451c0-0.0490341-0.0225468-0.0464554-0.0437374-0.0172501
		c-0.0954895,0.1380005-0.2008953,0.1684265-0.2818451,0.1684265c-0.6480637,0-2.0016356-2.162178-3.5973969-2.162178
		c-0.4165983,0-1.2057858,0.3011398-1.604454,0.7322693c0.193018,0.1141052,0.2294216,0.3475952,0.20959,0.5186081
		c-0.0292044,0.2746582-0.2466717,0.4099426-0.4695663,0.47229c-0.0398064,0.0092392-0.043066,0.0384445,0,0.0556946
		c0.8058872,0.3077927,2.2721996,0.8634872,2.6052685,1.1500931c0.3939142,0.3395844,0.3170261,0.9842453,0.0888271,1.8716354
		c-0.2208633,0.8528976-0.6924744,0.7362137-0.8662043,0.708374c-0.0252647-0.0039444-0.0338221,0.0119476-0.01793,0.0317841
		c0.2082319,0.2626953,0.4610157,0.350174,0.6778049,0.350174c0.4184999,0,0.5751152-0.2599869,0.7919035-0.2599869
		c0.3648462,0,1.1282253,0.5226898,1.1282253,0.9206772c0,0.2227631-0.1744089,0.4258347-0.3992119,0.5717163
		c-0.0146694,0.0105972-0.0119534,0.0278473,0.0099163,0.0317841C15.877368,79.1111984,16.591711,79.1721878,16.7297173,78.5288849z
		 M34.3633614,79.0819931c0.0218697-0.0039368,0.0251312-0.0211868,0.0105972-0.0317841
		c-0.2248039-0.1458817-0.3998909-0.3489532-0.3998909-0.5717163c0-0.3979874,0.7633781-0.9206772,1.1280899-0.9206772
		c0.2169228,0,0.3734016,0.2599869,0.7919044,0.2599869c0.2169228,0,0.4695702-0.0874786,0.6786194-0.350174
		c0.0152206-0.0198364,0.0065193-0.0357285-0.0179329-0.0317841c-0.1738663,0.0278397-0.6460114,0.1445236-0.8662033-0.708374
		c-0.228199-0.8873901-0.3050804-1.5320511,0.0888367-1.8716354c0.3329239-0.2866058,1.7986946-0.8423004,2.6052666-1.1500931
		c0.0430679-0.0172501,0.0397987-0.0464554,0-0.0556946c-0.2229004-0.0623474-0.4403687-0.1976318-0.469574-0.47229
		c-0.0199661-0.1710129,0.015892-0.4045029,0.2095909-0.5186081c-0.3986702-0.4311295-1.1885338-0.7322693-1.6051331-0.7322693
		c-1.5957603,0-2.9494705,2.162178-3.5973892,2.162178c-0.0809555,0-0.1863632-0.030426-0.2811737-0.1684265
		c-0.021328-0.0292053-0.0438728-0.0317841-0.0438728,0.0172501c0,0.6526718,0.3462372,0.7109451,0.5300179,0.7109451
		c0.1040459,0.001358,0.2161102-0.0317841,0.2963867-0.0768814c0.0213242-0.0133133,0.0319214-0.0039368,0.0319214,0.0198288
		c0,0.0266266-0.0052986,0.0915527-0.0052986,0.1366501c0,0.7693558,0.8038559,1.6104355,0.8038559,1.6104355
		c-0.3634872,0.3780212-1.2722054,1.013443-1.5262146,0.6752243c-0.1081238-0.1366501-0.5843506-0.9936218-1.2196388-0.3117371
		c-0.0225487,0.0251236-0.0073357,0.0543289,0.0357227,0.0543289c0.3581905,0,0.6374607,0.2440948,0.5412922,0.6140976
		c-0.5153484-0.4111633-1.2269745-0.3448792-1.2269745,0.6050034c0,0.0370789,0.0370827,0.0450974,0.0556908,0.0184708
		c0.3395824-0.4880447,0.8767986-0.1578369,0.9543591-0.0874786c-0.3600903,0.0543365-0.9849205,0.4774551-0.4357491,1.2283401
		c0.0232258,0.0331421,0.0444164,0.0251236,0.0478115,0c0.0563717-0.4934845,0.3568401-0.5770187,0.6014671-0.5770187
		c0.5040741,0,0.8721809,0.4629135,1.2568588-0.0292053C33.4752884,79.1721878,34.1896324,79.1111984,34.3633614,79.0819931z
		 M21.4486752,66.6076736c-0.0510731,0.0703583-0.2189617-0.0025787-0.2825317-0.0317841
		c-0.0146694-0.0066605-0.0172501,0-0.0119534,0.0105972c0.0404797,0.0901871,0.2022552,0.3607712,0.4424076,0.3607712
		c0.1086655,0,0.2671814-0.0637054,0.3122787-0.1366501c0,0,0.9398251,0.3050766,1.4047794,0.4338455
		c-0.1803856,0.2400208-0.2931252,0.5292053-0.3156738,0.8436584c-0.3747616-0.2309113-1.8743534-1.0347748-1.8743534-1.0347748
		l-0.4649544,0.6354294c-0.0768814,0.1048584-0.4482479-0.1658554-0.3713665-0.2719421l0.3547935-0.4854584
		c-0.1173592-0.1246948-0.4005699-0.0464554-0.4774513-0.0239105c-0.0107307,0.0027161-0.0206394-0.0025787-0.0107307-0.0211868
		c0.0452328-0.0954895,0.2215443-0.3899765,0.663271-0.2574081c0.001358-0.2692184-0.4005699-0.1829605-0.5052967-0.1537628
		c-0.0126324,0.0025864-0.016573-0.0027161-0.0052986-0.0146637c0.1086674-0.116684,0.4350796-0.3807449,0.8004684-0.1644974
		l0.1591892-0.2188263l-0.3216515-0.3382187l0.2015762-0.2772369l0.225481,0.3037186l1.7310505-2.3704109
		c0.0425148-0.0584106,0.3853569-0.1578407,0.5148048-0.1856842c0.013855,0.1325722,0.028389,0.4880447-0.0126324,0.5464554
		l-1.7025242,2.3917427l0.3587322,0.1180344l-0.1983147,0.2784576l-0.4237976-0.1976395L21.4486752,66.6076736z
		 M27.5193043,66.2204132c0,0.2174683,0.1339302,0.5358582,0.4244766,0.444313
		c0.014677-0.0066605,0.0278454-0.0025864,0.0245857,0.0119476c-0.0444164,0.2427368-0.4769077,0.4642792-0.6745453,0.1778107
		c-0.175087,0.3700027-0.1346092,0.7162399,0.244091,0.9205322c0.0205116,0.0119553,0.0244503,0.0384445,0.0006809,0.0556946
		c-0.2254829,0.1644897-0.5770168,0.1274109-0.7408314-0.1884003c-0.3105125,0.2334976-0.2654171,0.7322693-0.0770168,0.9020615
		c0,0.0027161-0.8595409,0.5107346-1.6394997,0.1472473c-0.5173855-0.2480316-0.938467-0.5650635-1.6056767-0.5133133
		c0.0927811-0.9352112,0.5604458-1.1818771,1.4199944-1.3159485c0.6870403-0.1113815,0.7746525-0.4270554,0.676445-0.6658478
		c-0.2334957-0.0623474-0.660553,0.1525345-0.660553,0.1525345c-0.0770168-0.1286316,0.034502-0.2626953,0.034502-0.2626953
		c-0.0425167-0.0517502-0.0637054-0.2241287-0.0637054-0.2241287c0.4801674,0,0.5650635-0.1060791,0.5650635-0.1060791
		c0.0855732-0.5001373-0.4237976-0.5532455-0.8117371-0.2838898c-0.1803856-0.1592026-0.1513157-0.3715057-0.1513157-0.3715057
		c-0.0536556-0.0264893-0.0874767-0.1100235-0.0874767-0.1458817c0-0.118042,0.5696812-0.4390106,0.7162457-0.4762344
		c0.0372181-0.1657104,0.244091-0.3952713,0.8489532-0.3407974c0.0722618-0.1605568-0.0450897-0.7455902-0.1193981-0.9034271
		c-0.0237694-0.0476761,0.0105953-0.0742989,0.0637054-0.0411568c0.2116356,0.1340675,0.421896,0.6275482,0.5650635,0.6367836
		c0,0,0.680521-0.3568306,0.713665-0.3370018c0.0324631,0.0186119,0.1286335,0.7787285,0.1286335,0.7787285
		c0.0903282,0.1113815,0.615593,0.0025787,0.8450146,0.1007919c0.0584068,0.0252609,0.0556908,0.0676422,0.0039387,0.0756531
		c-0.1716919,0.0292053-0.7195053,0.2652817-0.8096981,0.4164658
		C27.6672249,65.3356018,27.5193043,66.0292969,27.5193043,66.2204132z"/>
</g>
<g id="Isolatiemodus">
	<g>
		<path d="M61.4262695,64.4804688C62,64.3095703,62.2944336,64.0302734,62.3408203,63.5654297l0.6826172-7.9223633
			l-0.8994141-0.2636719v-0.4492188c0.6977539-0.0932617,1.550293-0.1088867,2.1083984-0.1088867h0.5581055l2.434082,7.519043
			h0.015625l2.3564453-7.519043h0.6665039c0.5581055,0,1.2553711,0.015625,1.8754883,0.1088867v0.4492188l-0.9609375,0.2324219
			l0.6821289,8.5268555l0.8989258,0.1708984v0.3408203c-0.3720703,0.1708984-0.8989258,0.2636719-1.503418,0.2636719
			c-0.7133789,0-1.1625977-0.03125-1.7055664-0.1552734v-0.2939453c0.6513672-0.1552734,0.9458008-0.5429688,0.9150391-1.1787109
			l-0.3876953-7.0385742h-0.03125l-2.7592773,8.6049805l-0.6049805,0.0771484l-2.7900391-8.6665039l-0.015625,0.015625
			l-0.4804688,7.7670898l1.0073242,0.2636719v0.3408203c-0.6665039,0.2021484-1.0385742,0.2636719-1.7827148,0.2636719
			c-0.3564453,0-0.8061523-0.0615234-1.1938477-0.1552734V64.4804688z"/>
		<path d="M73.9355469,64.4951172c0.4179688-0.1542969,0.8212891-0.4648438,0.8212891-0.8369141v-5.2402344l-0.9921875-0.418457
			v-0.3256836c0.6972656-0.2016602,1.4111328-0.2944336,1.8447266-0.2944336h0.4960938l-0.0771484,0.8369141v5.8920898
			l0.8681641,0.2324219v0.2939453c-0.5273438,0.1865234-1.0078125,0.2636719-1.7988281,0.2636719
			c-0.3564453,0-0.8056641-0.03125-1.1621094-0.1396484V64.4951172z M74.5859375,55.0693359
			c0-0.4804688,0.3417969-0.9145508,0.8837891-0.9145508c0.4345703,0,0.8066406,0.3256836,0.8066406,0.8369141
			c0,0.5429688-0.3720703,0.9614258-0.8681641,0.9614258C74.9433594,55.953125,74.5859375,55.5810547,74.5859375,55.0693359z"/>
		<path d="M78.1660156,64.4951172c0.4033203-0.1542969,0.8222656-0.4648438,0.8222656-0.8369141v-5.2402344l-1.0078125-0.418457
			v-0.3408203c0.7128906-0.2016602,1.4101562-0.2792969,1.8603516-0.2792969h0.3720703v0.8369141
			c0.5263672-0.5268555,1.3945312-0.8681641,2.2939453-0.8681641c1.2871094,0,2.1708984,0.8217773,2.1708984,2.4189453v4.3413086
			l0.8056641,0.2324219v0.2939453c-0.4189453,0.1708984-0.9609375,0.2636719-1.6279297,0.2636719
			c-0.3251953,0-0.6972656-0.03125-1.0078125-0.1396484v-0.2636719c0.3876953-0.1699219,0.5585938-0.4648438,0.5585938-1.0224609
			v-2.9614258c0-1.5195312-0.6357422-2.0932617-1.5507812-2.0932617c-0.6347656,0-1.2558594,0.2172852-1.5966797,0.480957v5.2094727
			l0.8681641,0.2324219v0.2939453c-0.5273438,0.1865234-1.0234375,0.2636719-1.7978516,0.2636719
			c-0.3720703,0-0.8066406-0.03125-1.1630859-0.1396484V64.4951172z"/>
		<path d="M86.7060547,64.4951172c0.4189453-0.1542969,0.8212891-0.4648438,0.8212891-0.8369141v-5.2402344l-0.9921875-0.418457
			v-0.3256836c0.6982422-0.2016602,1.4111328-0.2944336,1.8457031-0.2944336h0.4960938l-0.078125,0.8369141v5.8920898
			l0.8681641,0.2324219v0.2939453c-0.5263672,0.1865234-1.0078125,0.2636719-1.7978516,0.2636719
			c-0.3564453,0-0.8066406-0.03125-1.1630859-0.1396484V64.4951172z M87.3574219,55.0693359
			c0-0.4804688,0.3408203-0.9145508,0.8837891-0.9145508c0.4335938,0,0.8056641,0.3256836,0.8056641,0.8369141
			c0,0.5429688-0.3720703,0.9614258-0.8681641,0.9614258C87.7138672,55.953125,87.3574219,55.5810547,87.3574219,55.0693359z"/>
		<path d="M90.8447266,63.0849609c0.6972656,0.6513672,1.3642578,0.9765625,2.1855469,0.9765625
			c0.8681641,0,1.3183594-0.4189453,1.3183594-0.9609375c0-0.543457-0.3105469-0.8842773-1.3339844-1.3183594l-0.7744141-0.3256836
			c-0.8994141-0.3876953-1.3955078-1.0385742-1.3955078-1.9223633c0-1.2246094,1.0849609-2.2788086,2.6972656-2.2788086
			c1.2402344,0,1.7363281,0.3720703,1.7363281,0.9609375c0,0.2329102-0.03125,0.4345703-0.0771484,0.6513672
			c-0.4960938-0.3408203-1.1787109-0.5888672-1.7675781-0.5888672c-0.9921875,0-1.4570312,0.4335938-1.4570312,0.9609375
			c0,0.5581055,0.2792969,0.8681641,1.2089844,1.2246094l0.8369141,0.3256836
			c1.1162109,0.434082,1.5351562,1.0078125,1.5351562,1.9223633c0,1.1938477-1.1474609,2.2788086-2.8837891,2.2788086
			c-1.3642578,0-1.96875-0.4335938-1.96875-1.2705078C90.7050781,63.5029297,90.7519531,63.2548828,90.8447266,63.0849609z"/>
		<path d="M97.3554688,60.5263672l0.0458984-2.0620117h-0.8525391V57.953125l1.6748047-1.6586914l0.5117188-0.0625
			l-0.0625,1.3955078h2.046875l-0.1083984,0.8369141h-1.984375l-0.03125,1.9536133
			c-0.015625,0.6508789-0.015625,1.2402344-0.015625,1.8139648c0,1.2563477,0.3720703,1.6899414,0.9453125,1.6899414
			c0.4501953,0,0.8378906-0.1552734,1.1474609-0.4033203l0.1552734,0.0625
			c-0.0625,0.9140625-0.6044922,1.3798828-1.6748047,1.3798828c-1.2402344,0-1.8447266-0.6513672-1.8447266-2.1557617
			C97.3085938,62.0610352,97.3398438,61.2397461,97.3554688,60.5263672z"/>
		<path d="M104.609375,57.2709961c1.6748047,0,2.6816406,1.1162109,2.6816406,2.8989258
			c0,0.2944336,0,0.6044922-0.0146484,0.9921875h-4.5732422c0,1.7363281,1.0068359,2.7441406,2.2939453,2.7441406
			c0.7597656,0,1.5966797-0.2636719,2.1855469-0.6660156c0.03125,0.0771484,0.0625,0.2480469,0.0625,0.4023438
			c0,0.6982422-1.0234375,1.3486328-2.6669922,1.3486328c-1.7666016,0-3.2089844-1.3789062-3.2089844-3.550293
			C101.3691406,58.7436523,102.9970703,57.2709961,104.609375,57.2709961z M106.0507812,60.355957
			c0-1.5195312-0.6503906-2.2480469-1.5654297-2.2480469c-0.8525391,0-1.7519531,1.0234375-1.7519531,2.2480469H106.0507812z"/>
		<path d="M108.5458984,64.4951172c0.4033203-0.1542969,0.8212891-0.4648438,0.8212891-0.8369141v-5.2402344l-1.0068359-0.418457
			v-0.3408203c0.7128906-0.2016602,1.4101562-0.2792969,1.8603516-0.2792969h0.3720703v1.0849609h0.0146484l0.4345703-0.4804688
			c0.4189453-0.4492188,0.8369141-0.6821289,1.3642578-0.6821289c0.5429688,0,0.8066406,0.2329102,0.8066406,0.6665039
			c0,0.2949219-0.09375,0.6357422-0.2480469,0.9306641c-0.2949219-0.2329102-0.6357422-0.3569336-0.9619141-0.3569336
			c-0.4804688,0-0.9296875,0.2172852-1.3642578,0.6357422v4.9306641l1.0703125,0.2324219v0.2939453
			c-0.5273438,0.1865234-1.0390625,0.2636719-1.9228516,0.2636719c-0.4492188,0-0.8837891-0.03125-1.2402344-0.1396484V64.4951172z"
			/>
		<path d="M113.7685547,64.4951172c0.4189453-0.1542969,0.8212891-0.4648438,0.8212891-0.8369141v-5.2402344l-0.9921875-0.418457
			v-0.3256836c0.6982422-0.2016602,1.4111328-0.2944336,1.8457031-0.2944336h0.4960938l-0.078125,0.8369141v5.8920898
			l0.8681641,0.2324219v0.2939453c-0.5263672,0.1865234-1.0078125,0.2636719-1.7978516,0.2636719
			c-0.3564453,0-0.8066406-0.03125-1.1630859-0.1396484V64.4951172z M114.4199219,55.0693359
			c0-0.4804688,0.3408203-0.9145508,0.8837891-0.9145508c0.4335938,0,0.8056641,0.3256836,0.8056641,0.8369141
			c0,0.5429688-0.3720703,0.9614258-0.8681641,0.9614258C114.7763672,55.953125,114.4199219,55.5810547,114.4199219,55.0693359z"/>
		<path d="M121.1005859,57.2709961c1.6748047,0,2.6826172,1.1162109,2.6826172,2.8989258
			c0,0.2944336,0,0.6044922-0.015625,0.9921875h-4.5742188c0,1.7363281,1.0078125,2.7441406,2.2949219,2.7441406
			c0.7597656,0,1.5966797-0.2636719,2.1855469-0.6660156c0.03125,0.0771484,0.0625,0.2480469,0.0625,0.4023438
			c0,0.6982422-1.0234375,1.3486328-2.6669922,1.3486328c-1.7666016,0-3.2089844-1.3789062-3.2089844-3.550293
			C117.8603516,58.7436523,119.4882812,57.2709961,121.1005859,57.2709961z M122.5429688,60.355957
			c0-1.5195312-0.6513672-2.2480469-1.5664062-2.2480469c-0.8525391,0-1.7519531,1.0234375-1.7519531,2.2480469H122.5429688z"/>
		<path d="M127.6875,58.2011719l-0.6347656-0.449707v-0.3720703h2.9609375v0.3720703l-0.8837891,0.3720703l1.6738281,4.9145508
			h0.015625l1.7207031-4.8681641l-0.8837891-0.418457v-0.3720703h2.3876953v0.3720703l-0.4335938,0.3564453l-2.7597656,6.8374023
			l-0.5273438,0.03125L127.6875,58.2011719z"/>
		<path d="M138.3359375,60.7436523V60.324707c0-1.6738281-0.4023438-2.0307617-1.3789062-2.0307617
			c-0.8535156,0-1.6748047,0.3569336-2.3261719,1.0078125c-0.03125-0.1547852-0.0458984-0.2944336-0.0458984-0.465332
			c0-0.9921875,0.7285156-1.5654297,2.5419922-1.5654297c1.5664062,0,2.4960938,0.7905273,2.4960938,2.0771484
			c0,0.3413086-0.046875,1.1162109-0.0625,1.565918l-0.0458984,2.5117188
			c0.1083984,0.2792969,0.3408203,0.5732422,0.6201172,0.7910156c-0.2324219,0.2783203-0.6513672,0.5888672-1.0546875,0.7900391
			c-0.2939453-0.1855469-0.5263672-0.4335938-0.7128906-0.7597656c-0.4335938,0.4189453-1.2714844,0.7441406-2.0927734,0.7441406
			c-1.1630859,0-1.96875-0.7285156-1.96875-1.7207031C134.3056641,61.90625,135.7939453,60.7436523,138.3359375,60.7436523z
			 M136.8476562,64.0615234c0.4804688,0,1.1015625-0.1865234,1.4882812-0.4189453V61.472168
			c-1.7519531,0-2.6972656,0.7285156-2.6972656,1.565918C135.6386719,63.6582031,136.0576172,64.0615234,136.8476562,64.0615234z"/>
		<path d="M141.4824219,64.4951172c0.4033203-0.1542969,0.8222656-0.4648438,0.8222656-0.8369141v-5.2402344l-1.0078125-0.418457
			v-0.3408203c0.7128906-0.2016602,1.4101562-0.2792969,1.8603516-0.2792969h0.3720703v0.8369141
			c0.5263672-0.5268555,1.3945312-0.8681641,2.2939453-0.8681641c1.2871094,0,2.1708984,0.8217773,2.1708984,2.4189453v4.3413086
			l0.8056641,0.2324219v0.2939453c-0.4189453,0.1708984-0.9609375,0.2636719-1.6279297,0.2636719
			c-0.3251953,0-0.6972656-0.03125-1.0078125-0.1396484v-0.2636719c0.3876953-0.1699219,0.5585938-0.4648438,0.5585938-1.0224609
			v-2.9614258c0-1.5195312-0.6357422-2.0932617-1.5507812-2.0932617c-0.6347656,0-1.2558594,0.2172852-1.5966797,0.480957v5.2094727
			l0.8681641,0.2324219v0.2939453c-0.5273438,0.1865234-1.0234375,0.2636719-1.7978516,0.2636719
			c-0.3720703,0-0.8066406-0.03125-1.1630859-0.1396484V64.4951172z"/>
		<path d="M153.0917969,64.4648438c0.5273438-0.1240234,0.8994141-0.4501953,0.8994141-1.1474609v-7.6279297l-0.9765625-0.3256836
			v-0.3408203c0.9765625-0.1860352,1.6279297-0.2167969,3.1005859-0.2167969c2.2480469,0,3.3330078,0.8212891,3.3330078,2.2939453
			c0,1.1787109-1.0546875,2.2636719-2.2636719,2.4960938v0.015625c1.6279297,0,2.6972656,0.8994141,2.6972656,2.3408203
			c0,1.6899414-1.5810547,3.0083008-3.984375,3.0083008c-1.1005859,0-1.96875-0.03125-2.8056641-0.2021484V64.4648438z
			 M158.0371094,57.2397461c0-0.9921875-0.6816406-1.5966797-2.03125-1.5966797
			c-0.2167969,0-0.4335938,0.015625-0.6972656,0.0463867v3.6899414
			C156.9980469,59.3793945,158.0371094,58.5883789,158.0371094,57.2397461z M156.1308594,64.1083984
			c1.2548828,0,2.2783203-0.8378906,2.2783203-2.0161133c0-1.3022461-0.8994141-1.96875-2.6044922-1.96875h-0.4960938v3.9223633
			C155.6191406,64.0927734,155.8359375,64.1083984,156.1308594,64.1083984z"/>
		<path d="M161.3681641,64.4951172c0.4189453-0.1542969,0.8212891-0.4648438,0.8212891-0.8369141v-5.2402344l-0.9921875-0.418457
			v-0.3256836c0.6982422-0.2016602,1.4111328-0.2944336,1.8457031-0.2944336h0.4960938l-0.078125,0.8369141v5.8920898
			l0.8681641,0.2324219v0.2939453c-0.5263672,0.1865234-1.0078125,0.2636719-1.7978516,0.2636719
			c-0.3564453,0-0.8066406-0.03125-1.1630859-0.1396484V64.4951172z M162.0195312,55.0693359
			c0-0.4804688,0.3408203-0.9145508,0.8837891-0.9145508c0.4335938,0,0.8056641,0.3256836,0.8056641,0.8369141
			c0,0.5429688-0.3720703,0.9614258-0.8681641,0.9614258C162.3759766,55.953125,162.0195312,55.5810547,162.0195312,55.0693359z"/>
		<path d="M165.5996094,64.4951172c0.4033203-0.1542969,0.8222656-0.4648438,0.8222656-0.8369141v-5.2402344l-1.0078125-0.418457
			v-0.3408203c0.7128906-0.2016602,1.4101562-0.2792969,1.8603516-0.2792969h0.3720703v0.8369141
			c0.5263672-0.5268555,1.3945312-0.8681641,2.2939453-0.8681641c1.2871094,0,2.1708984,0.8217773,2.1708984,2.4189453v4.3413086
			l0.8056641,0.2324219v0.2939453c-0.4189453,0.1708984-0.9609375,0.2636719-1.6279297,0.2636719
			c-0.3251953,0-0.6972656-0.03125-1.0078125-0.1396484v-0.2636719c0.3876953-0.1699219,0.5585938-0.4648438,0.5585938-1.0224609
			v-2.9614258c0-1.5195312-0.6357422-2.0932617-1.5507812-2.0932617c-0.6347656,0-1.2558594,0.2172852-1.5966797,0.480957v5.2094727
			l0.8681641,0.2324219v0.2939453c-0.5273438,0.1865234-1.0234375,0.2636719-1.7978516,0.2636719
			c-0.3720703,0-0.8066406-0.03125-1.1630859-0.1396484V64.4951172z"/>
		<path d="M174.1396484,64.4951172c0.4033203-0.1542969,0.8212891-0.4648438,0.8212891-0.8369141v-5.2402344l-1.0068359-0.418457
			v-0.3408203c0.7128906-0.2016602,1.4101562-0.2792969,1.8603516-0.2792969h0.3720703v0.8369141
			c0.5263672-0.5268555,1.3945312-0.8681641,2.2939453-0.8681641c1.2871094,0,2.1708984,0.8217773,2.1708984,2.4189453v4.3413086
			l0.8056641,0.2324219v0.2939453c-0.4179688,0.1708984-0.9609375,0.2636719-1.6279297,0.2636719
			c-0.3251953,0-0.6972656-0.03125-1.0078125-0.1396484v-0.2636719c0.3876953-0.1699219,0.5585938-0.4648438,0.5585938-1.0224609
			v-2.9614258c0-1.5195312-0.6357422-2.0932617-1.5507812-2.0932617c-0.6357422,0-1.2548828,0.2172852-1.5966797,0.480957v5.2094727
			l0.8681641,0.2324219v0.2939453c-0.5263672,0.1865234-1.0224609,0.2636719-1.7978516,0.2636719
			c-0.3720703,0-0.8066406-0.03125-1.1630859-0.1396484V64.4951172z"/>
		<path d="M185.78125,57.2709961c1.6748047,0,2.6816406,1.1162109,2.6816406,2.8989258c0,0.2944336,0,0.6044922-0.0146484,0.9921875
			H183.875c0,1.7363281,1.0068359,2.7441406,2.2939453,2.7441406c0.7597656,0,1.5966797-0.2636719,2.1855469-0.6660156
			c0.03125,0.0771484,0.0625,0.2480469,0.0625,0.4023438c0,0.6982422-1.0234375,1.3486328-2.6669922,1.3486328
			c-1.7666016,0-3.2089844-1.3789062-3.2089844-3.550293C182.5410156,58.7436523,184.1689453,57.2709961,185.78125,57.2709961z
			 M187.2226562,60.355957c0-1.5195312-0.6503906-2.2480469-1.5654297-2.2480469
			c-0.8525391,0-1.7519531,1.0234375-1.7519531,2.2480469H187.2226562z"/>
		<path d="M189.7167969,64.4951172c0.4033203-0.1542969,0.8222656-0.4648438,0.8222656-0.8369141v-5.2402344l-1.0078125-0.418457
			v-0.3408203c0.7128906-0.2016602,1.4101562-0.2792969,1.8603516-0.2792969h0.3720703v0.8369141
			c0.5263672-0.5268555,1.3945312-0.8681641,2.2939453-0.8681641c1.2871094,0,2.1708984,0.8217773,2.1708984,2.4189453v4.3413086
			l0.8056641,0.2324219v0.2939453c-0.4189453,0.1708984-0.9609375,0.2636719-1.6279297,0.2636719
			c-0.3251953,0-0.6972656-0.03125-1.0078125-0.1396484v-0.2636719c0.3876953-0.1699219,0.5585938-0.4648438,0.5585938-1.0224609
			v-2.9614258c0-1.5195312-0.6357422-2.0932617-1.5507812-2.0932617c-0.6347656,0-1.2558594,0.2172852-1.5966797,0.480957v5.2094727
			l0.8681641,0.2324219v0.2939453c-0.5273438,0.1865234-1.0234375,0.2636719-1.7978516,0.2636719
			c-0.3720703,0-0.8066406-0.03125-1.1630859-0.1396484V64.4951172z"/>
		<path d="M198.2578125,64.4951172c0.4033203-0.1542969,0.8222656-0.4648438,0.8222656-0.8369141v-8.9916992l-1.0078125-0.4189453
			v-0.3408203c0.6972656-0.2016602,1.4257812-0.2792969,1.8603516-0.2792969h0.4960938l-0.078125,0.8681641v9.612793
			l0.8681641,0.2324219v0.2939453c-0.5273438,0.1865234-1.0234375,0.2636719-1.7978516,0.2636719
			c-0.3720703,0-0.8066406-0.03125-1.1630859-0.1396484V64.4951172z"/>
		<path d="M206.2402344,60.7436523V60.324707c0-1.6738281-0.4023438-2.0307617-1.3789062-2.0307617
			c-0.8535156,0-1.6748047,0.3569336-2.3261719,1.0078125c-0.03125-0.1547852-0.0458984-0.2944336-0.0458984-0.465332
			c0-0.9921875,0.7285156-1.5654297,2.5419922-1.5654297c1.5664062,0,2.4960938,0.7905273,2.4960938,2.0771484
			c0,0.3413086-0.046875,1.1162109-0.0625,1.565918l-0.0458984,2.5117188
			c0.1083984,0.2792969,0.3408203,0.5732422,0.6201172,0.7910156c-0.2324219,0.2783203-0.6513672,0.5888672-1.0546875,0.7900391
			c-0.2939453-0.1855469-0.5263672-0.4335938-0.7128906-0.7597656c-0.4335938,0.4189453-1.2714844,0.7441406-2.0927734,0.7441406
			c-1.1630859,0-1.96875-0.7285156-1.96875-1.7207031C202.2099609,61.90625,203.6982422,60.7436523,206.2402344,60.7436523z
			 M204.7519531,64.0615234c0.4804688,0,1.1015625-0.1865234,1.4882812-0.4189453V61.472168
			c-1.7519531,0-2.6972656,0.7285156-2.6972656,1.565918C203.5429688,63.6582031,203.9619141,64.0615234,204.7519531,64.0615234z"/>
		<path d="M209.3867188,64.4951172c0.4033203-0.1542969,0.8222656-0.4648438,0.8222656-0.8369141v-5.2402344l-1.0078125-0.418457
			v-0.3408203c0.7128906-0.2016602,1.4101562-0.2792969,1.8603516-0.2792969h0.3720703v0.8369141
			c0.5263672-0.5268555,1.3945312-0.8681641,2.2939453-0.8681641c1.2871094,0,2.1708984,0.8217773,2.1708984,2.4189453v4.3413086
			l0.8056641,0.2324219v0.2939453c-0.4189453,0.1708984-0.9609375,0.2636719-1.6279297,0.2636719
			c-0.3251953,0-0.6972656-0.03125-1.0078125-0.1396484v-0.2636719c0.3876953-0.1699219,0.5585938-0.4648438,0.5585938-1.0224609
			v-2.9614258c0-1.5195312-0.6357422-2.0932617-1.5507812-2.0932617c-0.6347656,0-1.2558594,0.2172852-1.5966797,0.480957v5.2094727
			l0.8681641,0.2324219v0.2939453c-0.5273438,0.1865234-1.0234375,0.2636719-1.7978516,0.2636719
			c-0.3720703,0-0.8066406-0.03125-1.1630859-0.1396484V64.4951172z"/>
		<path d="M221.4921875,57.2866211c0.3720703,0,0.8222656,0.0463867,1.0703125,0.1083984v-2.7285156l-1.0546875-0.4189453
			v-0.3408203c0.7128906-0.2016602,1.4726562-0.2792969,1.9228516-0.2792969h0.4960938l-0.0927734,0.8681641v8.8833008
			c0.1083984,0.3105469,0.2939453,0.6357422,0.5888672,0.8994141c-0.3105469,0.2792969-0.6513672,0.4960938-1.0849609,0.7285156
			c-0.3105469-0.2480469-0.5898438-0.6044922-0.7441406-0.9296875c-0.4960938,0.5117188-1.3496094,0.8837891-1.984375,0.8837891
			c-1.5664062,0-2.8222656-1.3027344-2.8222656-3.3647461C217.7871094,58.8056641,219.4775391,57.2866211,221.4921875,57.2866211z
			 M222.578125,63.4570312v-5.1318359c-0.2636719-0.0932617-0.7138672-0.1704102-1.1318359-0.1704102
			c-1.3183594,0-2.3105469,1.0385742-2.3105469,3.1933594c0,1.6899414,0.8837891,2.6049805,1.8603516,2.6049805
			C221.5859375,63.953125,222.2207031,63.7509766,222.578125,63.4570312z"/>
		<path d="M225.7539062,63.0849609c0.6972656,0.6513672,1.3642578,0.9765625,2.1855469,0.9765625
			c0.8681641,0,1.3183594-0.4189453,1.3183594-0.9609375c0-0.543457-0.3105469-0.8842773-1.3339844-1.3183594l-0.7744141-0.3256836
			c-0.8994141-0.3876953-1.3955078-1.0385742-1.3955078-1.9223633c0-1.2246094,1.0849609-2.2788086,2.6972656-2.2788086
			c1.2402344,0,1.7363281,0.3720703,1.7363281,0.9609375c0,0.2329102-0.03125,0.4345703-0.0771484,0.6513672
			c-0.4960938-0.3408203-1.1787109-0.5888672-1.7675781-0.5888672c-0.9921875,0-1.4570312,0.4335938-1.4570312,0.9609375
			c0,0.5581055,0.2783203,0.8681641,1.2089844,1.2246094l0.8369141,0.3256836
			c1.1162109,0.434082,1.5351562,1.0078125,1.5351562,1.9223633c0,1.1938477-1.1474609,2.2788086-2.8837891,2.2788086
			c-1.3642578,0-1.96875-0.4335938-1.96875-1.2705078C225.6142578,63.5029297,225.6611328,63.2548828,225.7539062,63.0849609z"/>
		<path d="M234.6982422,57.2709961c1.6748047,0,2.6826172,1.1162109,2.6826172,2.8989258
			c0,0.2944336,0,0.6044922-0.015625,0.9921875h-4.5742188c0,1.7363281,1.0078125,2.7441406,2.2949219,2.7441406
			c0.7597656,0,1.5966797-0.2636719,2.1855469-0.6660156c0.03125,0.0771484,0.0625,0.2480469,0.0625,0.4023438
			c0,0.6982422-1.0234375,1.3486328-2.6669922,1.3486328c-1.7666016,0-3.2089844-1.3789062-3.2089844-3.550293
			C231.4580078,58.7436523,233.0859375,57.2709961,234.6982422,57.2709961z M236.140625,60.355957
			c0-1.5195312-0.6513672-2.2480469-1.5664062-2.2480469c-0.8525391,0-1.7519531,1.0234375-1.7519531,2.2480469H236.140625z"/>
		<path d="M241.2539062,64.3710938l4.8984375-8.5576172h-2.7128906c-0.6201172,0-1.0390625,0.3413086-1.2714844,1.0541992
			l-0.1083984,0.3413086h-0.4960938L241.75,54.8989258h6.0302734l0.1396484,0.3408203l-4.8681641,8.6049805h2.7441406
			c0.9921875,0,1.3173828-0.2949219,1.6123047-1.1010742l0.0927734-0.2949219h0.4960938l-0.2480469,2.3100586h-6.3564453
			L241.2539062,64.3710938z"/>
		<path d="M252.6933594,60.7436523V60.324707c0-1.6738281-0.4023438-2.0307617-1.3789062-2.0307617
			c-0.8535156,0-1.6748047,0.3569336-2.3261719,1.0078125c-0.03125-0.1547852-0.0458984-0.2944336-0.0458984-0.465332
			c0-0.9921875,0.7285156-1.5654297,2.5419922-1.5654297c1.5664062,0,2.4960938,0.7905273,2.4960938,2.0771484
			c0,0.3413086-0.046875,1.1162109-0.0625,1.565918l-0.0458984,2.5117188
			c0.1083984,0.2792969,0.3408203,0.5732422,0.6201172,0.7910156c-0.2324219,0.2783203-0.6513672,0.5888672-1.0546875,0.7900391
			c-0.2939453-0.1855469-0.5263672-0.4335938-0.7128906-0.7597656c-0.4335938,0.4189453-1.2714844,0.7441406-2.0927734,0.7441406
			c-1.1630859,0-1.96875-0.7285156-1.96875-1.7207031C248.6630859,61.90625,250.1513672,60.7436523,252.6933594,60.7436523z
			 M251.2050781,64.0615234c0.4804688,0,1.1015625-0.1865234,1.4882812-0.4189453V61.472168
			c-1.7519531,0-2.6972656,0.7285156-2.6972656,1.565918C249.9960938,63.6582031,250.4150391,64.0615234,251.2050781,64.0615234z"/>
		<path d="M255.8232422,64.4951172c0.4189453-0.1542969,0.8369141-0.4648438,0.8369141-0.8369141v-8.9916992l-1.0224609-0.4189453
			v-0.3408203c0.7128906-0.2016602,1.4257812-0.2792969,1.8603516-0.2792969h0.5273438l-0.09375,0.8681641v6.2011719
			l0.8525391-0.7441406c0.8378906-0.7128906,1.5966797-1.7827148,1.5966797-2.4804688
			c0.2792969-0.0927734,0.5117188-0.1240234,0.8222656-0.1240234c0.2324219,0,0.4179688,0.046875,0.6201172,0.1396484
			c-0.03125,0.6669922-0.6982422,1.7207031-2.1083984,2.7285156l-0.5429688,0.3876953l2.3876953,2.8989258
			c0.4345703,0.5273438,0.8212891,0.7441406,1.1474609,0.7441406v0.3261719
			c-0.3417969,0.2324219-0.6982422,0.3251953-1.1474609,0.3251953c-0.4345703,0-0.8056641-0.1855469-1.1005859-0.5888672
			l-2.5273438-3.3334961v3.1323242l0.8066406,0.2480469v0.2939453c-0.5742188,0.1865234-1.0234375,0.2480469-1.7519531,0.2480469
			c-0.3564453,0-0.8066406-0.03125-1.1630859-0.1396484V64.4951172z"/>
		<path d="M266.2558594,57.2709961c1.6748047,0,2.6816406,1.1162109,2.6816406,2.8989258
			c0,0.2944336,0,0.6044922-0.0146484,0.9921875h-4.5732422c0,1.7363281,1.0068359,2.7441406,2.2939453,2.7441406
			c0.7597656,0,1.5966797-0.2636719,2.1855469-0.6660156c0.03125,0.0771484,0.0625,0.2480469,0.0625,0.4023438
			c0,0.6982422-1.0234375,1.3486328-2.6669922,1.3486328c-1.7666016,0-3.2089844-1.3789062-3.2089844-3.550293
			C263.015625,58.7436523,264.6435547,57.2709961,266.2558594,57.2709961z M267.6972656,60.355957
			c0-1.5195312-0.6503906-2.2480469-1.5654297-2.2480469c-0.8525391,0-1.7519531,1.0234375-1.7519531,2.2480469H267.6972656z"/>
		<path d="M270.1914062,64.4951172c0.4033203-0.1542969,0.8222656-0.4648438,0.8222656-0.8369141v-5.2402344l-1.0078125-0.418457
			v-0.3408203c0.7128906-0.2016602,1.4101562-0.2792969,1.8603516-0.2792969h0.3720703v0.8369141
			c0.5263672-0.5268555,1.3945312-0.8681641,2.2939453-0.8681641c1.2871094,0,2.1708984,0.8217773,2.1708984,2.4189453v4.3413086
			l0.8056641,0.2324219v0.2939453c-0.4189453,0.1708984-0.9609375,0.2636719-1.6279297,0.2636719
			c-0.3251953,0-0.6972656-0.03125-1.0078125-0.1396484v-0.2636719c0.3876953-0.1699219,0.5585938-0.4648438,0.5585938-1.0224609
			v-2.9614258c0-1.5195312-0.6357422-2.0932617-1.5507812-2.0932617c-0.6347656,0-1.2558594,0.2172852-1.5966797,0.480957v5.2094727
			l0.8681641,0.2324219v0.2939453c-0.5273438,0.1865234-1.0234375,0.2636719-1.7978516,0.2636719
			c-0.3720703,0-0.8066406-0.03125-1.1630859-0.1396484V64.4951172z"/>
		<path d="M284.8867188,57.2709961c1.6748047,0,2.6816406,1.1162109,2.6816406,2.8989258
			c0,0.2944336,0,0.6044922-0.0146484,0.9921875h-4.5732422c0,1.7363281,1.0068359,2.7441406,2.2939453,2.7441406
			c0.7597656,0,1.5966797-0.2636719,2.1855469-0.6660156c0.03125,0.0771484,0.0625,0.2480469,0.0625,0.4023438
			c0,0.6982422-1.0234375,1.3486328-2.6669922,1.3486328c-1.7666016,0-3.2089844-1.3789062-3.2089844-3.550293
			C281.6464844,58.7436523,283.2744141,57.2709961,284.8867188,57.2709961z M286.328125,60.355957
			c0-1.5195312-0.6503906-2.2480469-1.5654297-2.2480469c-0.8525391,0-1.7519531,1.0234375-1.7519531,2.2480469H286.328125z"/>
		<path d="M288.8222656,64.4951172c0.4033203-0.1542969,0.8222656-0.4648438,0.8222656-0.8369141v-5.2402344l-1.0078125-0.418457
			v-0.3408203c0.7128906-0.2016602,1.4101562-0.2792969,1.8603516-0.2792969h0.3720703v0.8369141
			c0.5263672-0.5268555,1.3945312-0.8681641,2.2939453-0.8681641c1.2871094,0,2.1708984,0.8217773,2.1708984,2.4189453v4.3413086
			l0.8056641,0.2324219v0.2939453c-0.4189453,0.1708984-0.9609375,0.2636719-1.6279297,0.2636719
			c-0.3251953,0-0.6972656-0.03125-1.0078125-0.1396484v-0.2636719c0.3876953-0.1699219,0.5585938-0.4648438,0.5585938-1.0224609
			v-2.9614258c0-1.5195312-0.6357422-2.0932617-1.5507812-2.0932617c-0.6347656,0-1.2558594,0.2172852-1.5966797,0.480957v5.2094727
			l0.8681641,0.2324219v0.2939453c-0.5273438,0.1865234-1.0234375,0.2636719-1.7978516,0.2636719
			c-0.3720703,0-0.8066406-0.03125-1.1630859-0.1396484V64.4951172z"/>
		<path d="M61.8759766,82.0644531c0.6665039-0.2011719,0.8994141-0.5263672,0.8994141-1.1933594v-7.6279297l-0.9770508-0.2480469
			v-0.3408203c0.5737305-0.1699219,1.2094727-0.2480469,1.7675781-0.2480469s1.0073242,0.046875,1.4570312,0.1552734v0.2949219
			c-0.6508789,0.1855469-0.8989258,0.4648438-0.8989258,1.1464844v7.6591797l0.9765625,0.2480469v0.3408203
			c-0.5888672,0.1699219-1.0541992,0.2636719-1.8447266,0.2636719c-0.5737305,0-1.0078125-0.046875-1.3798828-0.1552734V82.0644531z
			 M64.1704102,77.3515625l3.6743164-4.1699219v-0.015625l-0.8374023-0.1855469v-0.3261719
			c0.6821289-0.2011719,1.0854492-0.2480469,1.6899414-0.2480469c0.3876953,0,0.7285156,0.03125,1.0698242,0.1396484v0.2949219
			c-0.434082,0.2011719-0.7597656,0.4179688-1.1318359,0.8212891l-3.1005859,3.4570312l2.7592773,3.5039062
			c0.5273438,0.6669922,0.9306641,0.9609375,1.7211914,1.3173828v0.3105469
			c-0.3256836,0.2167969-0.6201172,0.3408203-1.1010742,0.3408203c-0.7441406,0-1.1933594-0.2480469-1.9375-1.2861328
			l-2.8061523-3.8916016V77.3515625z"/>
		<path d="M73.7338867,74.8564453c1.9067383,0,3.3793945,1.4257812,3.3793945,3.5810547
			c0,2.5576172-1.7822266,4.1699219-3.6274414,4.1699219c-1.8754883,0-3.3950195-1.3173828-3.3950195-3.5810547
			C70.0908203,76.4833984,71.8271484,74.8564453,73.7338867,74.8564453z M73.5791016,81.7080078
			c1.0380859,0,2.1240234-1.0078125,2.1240234-3.1308594c0-1.8144531-0.9765625-2.8222656-2.0776367-2.8222656
			c-1.0698242,0-2.1240234,1.0703125-2.1240234,3.1162109C71.5014648,80.7470703,72.4785156,81.7080078,73.5791016,81.7080078z"/>
		<path d="M78.0888672,82.0957031c0.4033203-0.1552734,0.8212891-0.4648438,0.8212891-0.8369141v-5.2402344l-1.0068359-0.4179688
			v-0.3417969c0.7128906-0.2011719,1.4101562-0.2792969,1.8603516-0.2792969h0.3720703v0.8378906
			c0.5263672-0.5273438,1.3945312-0.8681641,2.2939453-0.8681641c1.2871094,0,2.1708984,0.8212891,2.1708984,2.4179688v4.3408203
			l0.8056641,0.2324219v0.2949219c-0.4179688,0.1708984-0.9609375,0.2636719-1.6279297,0.2636719
			c-0.3251953,0-0.6972656-0.03125-1.0078125-0.1396484v-0.2636719c0.3876953-0.1708984,0.5585938-0.4648438,0.5585938-1.0234375
			v-2.9609375c0-1.5185547-0.6357422-2.0927734-1.5507812-2.0927734c-0.6357422,0-1.2548828,0.2167969-1.5966797,0.4804688
			v5.2089844l0.8681641,0.2324219v0.2949219c-0.5263672,0.1855469-1.0224609,0.2636719-1.7978516,0.2636719
			c-0.3720703,0-0.8066406-0.03125-1.1630859-0.1396484V82.0957031z"/>
		<path d="M86.6289062,82.0957031c0.4189453-0.1552734,0.8222656-0.4648438,0.8222656-0.8369141v-5.2402344l-0.9921875-0.4179688
			v-0.3261719c0.6972656-0.2011719,1.4101562-0.2949219,1.8447266-0.2949219h0.4960938l-0.078125,0.8378906v5.890625
			l0.8681641,0.2324219v0.2949219c-0.5273438,0.1855469-1.0078125,0.2636719-1.7978516,0.2636719
			c-0.3564453,0-0.8066406-0.03125-1.1630859-0.1396484V82.0957031z M87.2802734,72.6699219
			c0-0.4804688,0.3408203-0.9150391,0.8837891-0.9150391c0.4335938,0,0.8056641,0.3261719,0.8056641,0.8378906
			c0,0.5419922-0.3720703,0.9609375-0.8681641,0.9609375C87.6367188,73.5537109,87.2802734,73.1816406,87.2802734,72.6699219z"/>
		<path d="M90.8603516,82.0957031c0.4033203-0.1552734,0.8212891-0.4648438,0.8212891-0.8369141v-5.2402344l-1.0068359-0.4179688
			v-0.3417969c0.7128906-0.2011719,1.4101562-0.2792969,1.8603516-0.2792969h0.3720703v0.8378906
			c0.5263672-0.5273438,1.3945312-0.8681641,2.2939453-0.8681641c1.2871094,0,2.1708984,0.8212891,2.1708984,2.4179688v4.3408203
			l0.8056641,0.2324219v0.2949219c-0.4179688,0.1708984-0.9609375,0.2636719-1.6279297,0.2636719
			c-0.3251953,0-0.6972656-0.03125-1.0078125-0.1396484v-0.2636719c0.3876953-0.1708984,0.5585938-0.4648438,0.5585938-1.0234375
			v-2.9609375c0-1.5185547-0.6357422-2.0927734-1.5507812-2.0927734c-0.6357422,0-1.2548828,0.2167969-1.5966797,0.4804688
			v5.2089844l0.8681641,0.2324219v0.2949219c-0.5263672,0.1855469-1.0224609,0.2636719-1.7978516,0.2636719
			c-0.3720703,0-0.8066406-0.03125-1.1630859-0.1396484V82.0957031z"/>
		<path d="M99.3847656,82.0957031c0.4189453-0.1552734,0.8378906-0.4648438,0.8378906-0.8369141v-8.9921875l-1.0234375-0.4179688
			v-0.3417969c0.7128906-0.2011719,1.4257812-0.2783203,1.8603516-0.2783203h0.5263672l-0.0927734,0.8681641v6.2011719
			l0.8525391-0.7441406c0.8378906-0.7128906,1.5976562-1.7832031,1.5976562-2.4804688
			c0.2783203-0.09375,0.5107422-0.1240234,0.8212891-0.1240234c0.2324219,0,0.4189453,0.0458984,0.6201172,0.1396484
			c-0.03125,0.6660156-0.6972656,1.7207031-2.1083984,2.7285156l-0.5429688,0.3867188l2.3876953,2.8994141
			c0.4335938,0.5273438,0.8212891,0.7441406,1.1474609,0.7441406v0.3251953
			c-0.3408203,0.2333984-0.6982422,0.3261719-1.1474609,0.3261719c-0.4335938,0-0.8066406-0.1865234-1.1005859-0.5888672
			l-2.5273438-3.3330078v3.1308594l0.8066406,0.2480469v0.2949219c-0.5742188,0.1855469-1.0234375,0.2480469-1.7519531,0.2480469
			c-0.3564453,0-0.8066406-0.03125-1.1630859-0.1396484V82.0957031z"/>
		<path d="M106.7167969,82.0957031c0.4033203-0.1552734,0.8222656-0.4648438,0.8222656-0.8369141v-5.2402344l-1.0078125-0.4179688
			v-0.3417969c0.7128906-0.2011719,1.4101562-0.2792969,1.8603516-0.2792969h0.3720703v1.0859375h0.015625l0.4335938-0.4804688
			c0.4189453-0.4501953,0.8369141-0.6826172,1.3642578-0.6826172c0.5429688,0,0.8056641,0.2324219,0.8056641,0.6669922
			c0,0.2939453-0.0927734,0.6357422-0.2480469,0.9296875c-0.2939453-0.2324219-0.6347656-0.3564453-0.9609375-0.3564453
			c-0.4804688,0-0.9296875,0.2167969-1.3642578,0.6357422v4.9296875l1.0703125,0.2324219v0.2949219
			c-0.5273438,0.1855469-1.0390625,0.2636719-1.9228516,0.2636719c-0.4492188,0-0.8837891-0.03125-1.2402344-0.1396484V82.0957031z"
			/>
		<path d="M112.3271484,82.0957031c0.4189453-0.1552734,0.8212891-0.4648438,0.8212891-0.8369141v-5.2402344l-0.9921875-0.4179688
			v-0.3261719c0.6982422-0.2011719,1.4111328-0.2949219,1.8457031-0.2949219h0.4960938l-0.078125,0.8378906v5.890625
			l0.8681641,0.2324219v0.2949219c-0.5263672,0.1855469-1.0078125,0.2636719-1.7978516,0.2636719
			c-0.3564453,0-0.8066406-0.03125-1.1630859-0.1396484V82.0957031z M112.9785156,72.6699219
			c0-0.4804688,0.3408203-0.9150391,0.8837891-0.9150391c0.4335938,0,0.8056641,0.3261719,0.8056641,0.8378906
			c0,0.5419922-0.3720703,0.9609375-0.8681641,0.9609375C113.3349609,73.5537109,112.9785156,73.1816406,112.9785156,72.6699219z"/>
		<path d="M117.3183594,76.0185547l-0.9921875-0.4179688v-0.3261719c0.7128906-0.2011719,1.4111328-0.2949219,1.8603516-0.2949219
			h0.4960938l-0.0927734,0.8691406v6.9599609c0,2.5429688-0.7597656,3.3330078-1.7519531,3.3330078
			c-0.3408203,0-0.6826172-0.1230469-0.8681641-0.3710938v-0.2480469c0.6816406,0,1.3486328-0.7753906,1.3486328-2.3574219
			V76.0185547z M117.1474609,72.6699219c0-0.4804688,0.3417969-0.9150391,0.8837891-0.9150391
			c0.4345703,0,0.8066406,0.3261719,0.8066406,0.8378906c0,0.5419922-0.3720703,0.9609375-0.8681641,0.9609375
			C117.5039062,73.5537109,117.1474609,73.1816406,117.1474609,72.6699219z"/>
		<path d="M120.2470703,82.0957031c0.4189453-0.1552734,0.8369141-0.4648438,0.8369141-0.8369141v-8.9921875l-1.0224609-0.4179688
			v-0.3417969c0.7128906-0.2011719,1.4257812-0.2783203,1.8603516-0.2783203h0.5273438l-0.09375,0.8681641v6.2011719
			l0.8525391-0.7441406c0.8378906-0.7128906,1.5966797-1.7832031,1.5966797-2.4804688
			c0.2792969-0.09375,0.5117188-0.1240234,0.8222656-0.1240234c0.2324219,0,0.4179688,0.0458984,0.6201172,0.1396484
			c-0.03125,0.6660156-0.6982422,1.7207031-2.1083984,2.7285156l-0.5429688,0.3867188l2.3876953,2.8994141
			c0.4345703,0.5273438,0.8212891,0.7441406,1.1474609,0.7441406v0.3251953
			c-0.3417969,0.2333984-0.6982422,0.3261719-1.1474609,0.3261719c-0.4345703,0-0.8056641-0.1865234-1.1005859-0.5888672
			l-2.5273438-3.3330078v3.1308594l0.8066406,0.2480469v0.2949219c-0.5742188,0.1855469-1.0234375,0.2480469-1.7519531,0.2480469
			c-0.3564453,0-0.8066406-0.03125-1.1630859-0.1396484V82.0957031z"/>
		<path d="M127.4863281,80.6845703c0.6972656,0.6513672,1.3642578,0.9775391,2.1855469,0.9775391
			c0.8681641,0,1.3183594-0.4189453,1.3183594-0.9619141c0-0.5419922-0.3105469-0.8828125-1.3339844-1.3173828l-0.7744141-0.3251953
			c-0.8994141-0.3876953-1.3955078-1.0390625-1.3955078-1.9228516c0-1.2246094,1.0849609-2.2783203,2.6972656-2.2783203
			c1.2402344,0,1.7363281,0.3710938,1.7363281,0.9609375c0,0.2324219-0.03125,0.4335938-0.0771484,0.6503906
			c-0.4960938-0.3408203-1.1787109-0.5888672-1.7675781-0.5888672c-0.9921875,0-1.4570312,0.4345703-1.4570312,0.9619141
			c0,0.5576172,0.2783203,0.8671875,1.2089844,1.2246094l0.8369141,0.3251953
			c1.1162109,0.4345703,1.5351562,1.0078125,1.5351562,1.9228516c0,1.1933594-1.1474609,2.2783203-2.8837891,2.2783203
			c-1.3642578,0-1.96875-0.4335938-1.96875-1.2714844C127.3466797,81.1035156,127.3935547,80.8554688,127.4863281,80.6845703z"/>
		<path d="M133.3291016,82.0957031c0.4033203-0.1552734,0.8212891-0.4648438,0.8212891-0.8369141v-5.2402344l-1.0068359-0.4179688
			v-0.3417969c0.7128906-0.2011719,1.4101562-0.2792969,1.8603516-0.2792969h0.3720703v1.0859375h0.0146484l0.4345703-0.4804688
			c0.4189453-0.4501953,0.8369141-0.6826172,1.3642578-0.6826172c0.5429688,0,0.8066406,0.2324219,0.8066406,0.6669922
			c0,0.2939453-0.09375,0.6357422-0.2480469,0.9296875c-0.2949219-0.2324219-0.6357422-0.3564453-0.9619141-0.3564453
			c-0.4804688,0-0.9296875,0.2167969-1.3642578,0.6357422v4.9296875l1.0703125,0.2324219v0.2949219
			c-0.5273438,0.1855469-1.0390625,0.2636719-1.9228516,0.2636719c-0.4492188,0-0.8837891-0.03125-1.2402344-0.1396484V82.0957031z"
			/>
		<path d="M141.6533203,74.8710938c1.6748047,0,2.6826172,1.1162109,2.6826172,2.8994141
			c0,0.2949219,0,0.6044922-0.015625,0.9921875h-4.5742188c0,1.7363281,1.0078125,2.7441406,2.2949219,2.7441406
			c0.7597656,0,1.5966797-0.2636719,2.1855469-0.6669922c0.03125,0.078125,0.0625,0.2480469,0.0625,0.4033203
			c0,0.6972656-1.0234375,1.3486328-2.6669922,1.3486328c-1.7666016,0-3.2089844-1.3798828-3.2089844-3.5498047
			C138.4130859,76.3447266,140.0410156,74.8710938,141.6533203,74.8710938z M143.0957031,77.9560547
			c0-1.5185547-0.6513672-2.2470703-1.5664062-2.2470703c-0.8525391,0-1.7519531,1.0224609-1.7519531,2.2470703H143.0957031z"/>
		<path d="M145.5898438,82.0957031c0.4033203-0.1552734,0.8222656-0.4648438,0.8222656-0.8369141v-8.9921875l-1.0078125-0.4179688
			v-0.3417969c0.6972656-0.2011719,1.4257812-0.2783203,1.8603516-0.2783203h0.4960938l-0.078125,0.8681641v9.6113281
			l0.8681641,0.2324219v0.2949219c-0.5273438,0.1855469-1.0234375,0.2636719-1.7978516,0.2636719
			c-0.3720703,0-0.8066406-0.03125-1.1630859-0.1396484V82.0957031z"/>
		<path d="M153.5722656,78.34375v-0.4179688c0-1.6748047-0.4023438-2.03125-1.3789062-2.03125
			c-0.8535156,0-1.6748047,0.3564453-2.3261719,1.0078125c-0.03125-0.1552734-0.0458984-0.2949219-0.0458984-0.4648438
			c0-0.9921875,0.7285156-1.5664062,2.5419922-1.5664062c1.5664062,0,2.4960938,0.7910156,2.4960938,2.078125
			c0,0.3408203-0.046875,1.1162109-0.0625,1.5654297l-0.0458984,2.5117188
			c0.1083984,0.2792969,0.3408203,0.5732422,0.6201172,0.7900391c-0.2324219,0.2792969-0.6513672,0.5898438-1.0546875,0.7910156
			c-0.2939453-0.1865234-0.5263672-0.4345703-0.7128906-0.7597656c-0.4335938,0.4189453-1.2714844,0.7441406-2.0927734,0.7441406
			c-1.1630859,0-1.96875-0.7285156-1.96875-1.7207031C149.5419922,79.5068359,151.0302734,78.34375,153.5722656,78.34375z
			 M152.0839844,81.6621094c0.4804688,0,1.1015625-0.1865234,1.4882812-0.4189453v-2.1699219
			c-1.7519531,0-2.6972656,0.7285156-2.6972656,1.5654297C150.875,81.2587891,151.2939453,81.6621094,152.0839844,81.6621094z"/>
		<path d="M157.3857422,78.1269531l0.0458984-2.0615234h-0.8525391v-0.5117188l1.6748047-1.6591797l0.5117188-0.0615234
			l-0.0625,1.3945312H160.75l-0.109375,0.8378906h-1.984375l-0.0302734,1.953125
			c-0.015625,0.6513672-0.015625,1.2402344-0.015625,1.8134766c0,1.2558594,0.3720703,1.6904297,0.9453125,1.6904297
			c0.4501953,0,0.8369141-0.1552734,1.1474609-0.4033203l0.1552734,0.0615234
			c-0.0625,0.9150391-0.6044922,1.3798828-1.6748047,1.3798828c-1.2402344,0-1.8447266-0.6503906-1.8447266-2.1542969
			C157.3388672,79.6621094,157.3701172,78.8398438,157.3857422,78.1269531z"/>
		<path d="M161.5390625,82.0957031c0.4189453-0.1552734,0.8222656-0.4648438,0.8222656-0.8369141v-5.2402344l-0.9921875-0.4179688
			v-0.3261719c0.6972656-0.2011719,1.4101562-0.2949219,1.8447266-0.2949219h0.4960938l-0.078125,0.8378906v5.890625
			L164.5,81.9404297v0.2949219c-0.5273438,0.1855469-1.0078125,0.2636719-1.7978516,0.2636719
			c-0.3564453,0-0.8066406-0.03125-1.1630859-0.1396484V82.0957031z M162.1904297,72.6699219
			c0-0.4804688,0.3408203-0.9150391,0.8837891-0.9150391c0.4335938,0,0.8056641,0.3261719,0.8056641,0.8378906
			c0,0.5419922-0.3720703,0.9609375-0.8681641,0.9609375C162.546875,73.5537109,162.1904297,73.1816406,162.1904297,72.6699219z"/>
		<path d="M168.8710938,74.8710938c1.6748047,0,2.6816406,1.1162109,2.6816406,2.8994141
			c0,0.2949219,0,0.6044922-0.0146484,0.9921875h-4.5732422c0,1.7363281,1.0068359,2.7441406,2.2939453,2.7441406
			c0.7597656,0,1.5966797-0.2636719,2.1855469-0.6669922c0.03125,0.078125,0.0625,0.2480469,0.0625,0.4033203
			c0,0.6972656-1.0234375,1.3486328-2.6669922,1.3486328c-1.7666016,0-3.2089844-1.3798828-3.2089844-3.5498047
			C165.6308594,76.3447266,167.2587891,74.8710938,168.8710938,74.8710938z M170.3125,77.9560547
			c0-1.5185547-0.6503906-2.2470703-1.5654297-2.2470703c-0.8525391,0-1.7519531,1.0224609-1.7519531,2.2470703H170.3125z"/>
		<path d="M172.7138672,80.6845703c0.6972656,0.6513672,1.3642578,0.9775391,2.1855469,0.9775391
			c0.8681641,0,1.3183594-0.4189453,1.3183594-0.9619141c0-0.5419922-0.3105469-0.8828125-1.3339844-1.3173828l-0.7744141-0.3251953
			c-0.8994141-0.3876953-1.3955078-1.0390625-1.3955078-1.9228516c0-1.2246094,1.0849609-2.2783203,2.6972656-2.2783203
			c1.2402344,0,1.7363281,0.3710938,1.7363281,0.9609375c0,0.2324219-0.03125,0.4335938-0.0771484,0.6503906
			c-0.4960938-0.3408203-1.1787109-0.5888672-1.7675781-0.5888672c-0.9921875,0-1.4570312,0.4345703-1.4570312,0.9619141
			c0,0.5576172,0.2792969,0.8671875,1.2089844,1.2246094l0.8369141,0.3251953
			c1.1162109,0.4345703,1.5351562,1.0078125,1.5351562,1.9228516c0,1.1933594-1.1474609,2.2783203-2.8837891,2.2783203
			c-1.3642578,0-1.96875-0.4335938-1.96875-1.2714844C172.5742188,81.1035156,172.6210938,80.8554688,172.7138672,80.6845703z"/>
	</g>
	<g>
		<rect style="&st0;" width="314" height="125"/>
	</g>
</g>
</svg>
