<?xml version="1.0" encoding="utf-8"?>
<!-- Generator: Adobe Illustrator 26.0.1, SVG Export Plug-In . SVG Version: 6.00 Build 0)  -->
<svg version="1.1" id="Layer_1" xmlns="http://www.w3.org/2000/svg" xmlns:xlink="http://www.w3.org/1999/xlink" x="0px" y="0px"
	 viewBox="0 0 288 96" style="enable-background:new 0 0 288 96;" xml:space="preserve">
<style type="text/css">
	.st0{fill:#281F6B;}
	.st1{fill:#EFCC36;}
	.st2{fill:#D32939;}
</style>
<path class="st0" d="M151.3,31.7c1-0.4,2.6-0.8,4.2-0.8c3.2,0,5.3,1.8,5.3,4.8c0,3.4-2,5.2-5.4,5.2c-0.6,0-1.2-0.1-1.5-0.2v3.9h-2.6
	L151.3,31.7L151.3,31.7z M153.9,38.5c0.3,0.1,0.8,0.2,1.3,0.2c1.7,0,2.9-0.9,2.9-2.9c0-1.7-1.1-2.6-2.7-2.6c-0.5,0-1.1,0.1-1.6,0.2
	V38.5z"/>
<path class="st0" d="M165.6,40.8H163v-8.9c1.1-0.6,2.5-0.9,3.9-0.9c0.8,0,1.3,0.1,2,0.3v2.5c-0.6-0.3-1.3-0.3-1.9-0.3
	c-0.5,0-0.9,0.1-1.3,0.2V40.8z"/>
<path class="st0" d="M175,30.9c2.9,0,5.1,2,5.1,5.1S177.9,41,175,41c-2.9,0-5-2-5-5.1S172.1,30.9,175,30.9z M175,33.1
	c-1.4,0-2.4,1.1-2.4,2.8s1,2.8,2.4,2.8s2.4-1.1,2.4-2.8S176.4,33.1,175,33.1z"/>
<path class="st0" d="M184.2,40.8l-3.7-9.7h2.8l2.5,7.1l2.5-7.1h2.7l-3.7,9.7H184.2z"/>
<path class="st0" d="M192.3,28.2c0-0.9,0.7-1.6,1.6-1.6c0.8,0,1.6,0.7,1.6,1.6c0,0.8-0.7,1.5-1.6,1.5C193,29.7,192.3,29,192.3,28.2z
	 M195.2,40.8h-2.6v-9.7h2.6V40.8z"/>
<path class="st0" d="M197.9,31.7c1.4-0.5,3.2-0.8,4.6-0.8c2.5,0,4.1,0.9,4.1,3.8v6.1H204v-5.9c0-1.1-0.6-1.6-1.7-1.6
	c-0.6,0-1.3,0.1-1.8,0.3v7.3h-2.6L197.9,31.7L197.9,31.7z"/>
<path class="st0" d="M216.5,34.1c-0.8-0.6-1.6-0.9-2.5-0.9c-1.6,0-2.7,1-2.7,2.7c0,1.6,1.1,2.8,2.9,2.8c0.9,0,1.7-0.3,2.4-0.9v2.5
	c-0.9,0.5-1.8,0.7-2.8,0.7c-3.1,0-5.1-2-5.1-5c0-3.1,2.1-5.1,5.1-5.1c1.1,0,1.9,0.2,2.7,0.7V34.1z"/>
<path class="st0" d="M218.6,28.2c0-0.9,0.7-1.6,1.6-1.6c0.8,0,1.6,0.7,1.6,1.6c0,0.8-0.7,1.5-1.6,1.5
	C219.3,29.7,218.6,29,218.6,28.2z M221.5,40.8h-2.6v-9.7h2.6V40.8z"/>
<path class="st0" d="M226.1,36.7L226.1,36.7c0.2,1.4,1.5,2.1,2.8,2.1c1.3,0,2.3-0.3,3.2-0.9v2.2c-0.9,0.6-2.2,0.9-3.5,0.9
	c-3.1,0-5.1-1.9-5.1-4.9c0-3.2,2-5.2,4.7-5.2c3,0,4.2,2,4.2,4.5v1.2H226.1z M230,35.1c0-1.2-0.6-2.1-1.8-2.1c-1.1,0-1.9,0.8-2.1,2.1
	H230z"/>
<path class="st0" d="M150.7,49.6h9.3V52l-6.3,8.1h6.5v2.4h-9.6V60l6.2-8.1h-6.1V49.6z"/>
<path class="st0" d="M170.6,62.2c-1.1,0.3-2.8,0.5-4,0.5c-2.8,0-4.6-0.9-4.6-3.7v-6.2h2.6v5.9c0,1.2,0.5,1.8,1.9,1.8
	c0.4,0,0.9,0,1.4-0.1v-7.6h2.6V62.2z"/>
<path class="st0" d="M173,49.9c0-0.9,0.7-1.6,1.6-1.6c0.8,0,1.6,0.7,1.6,1.6c0,0.8-0.7,1.5-1.6,1.5C173.7,51.4,173,50.7,173,49.9z
	 M175.8,62.4h-2.6v-9.7h2.6V62.4z"/>
<path class="st0" d="M187.4,62.2c-1.2,0.3-2.6,0.5-3.9,0.5c-3.3,0-5.5-1.8-5.5-5c0-3.1,2.1-5.1,5.1-5.1c0.7,0,1.4,0.1,1.8,0.3v-5.2
	h2.6L187.4,62.2L187.4,62.2z M184.8,55.2c-0.4-0.2-0.9-0.3-1.6-0.3c-1.6,0-2.6,1-2.6,2.7c0,1.8,1.2,2.9,3,2.9c0.3,0,0.8,0,1.3-0.1
	V55.2z"/>
<path class="st0" d="M205.2,49.6h2.7v12.9h-2.7v-5.2h-5.9v5.2h-2.7V49.6h2.7v5.2h5.9V49.6z"/>
<path class="st0" d="M214.9,52.6c2.9,0,5.1,2,5.1,5.1c0,3-2.2,5.1-5.1,5.1c-2.9,0-5-2-5-5.1C209.9,54.6,212,52.6,214.9,52.6z
	 M214.9,54.8c-1.4,0-2.4,1.1-2.4,2.8c0,1.7,1,2.8,2.4,2.8c1.4,0,2.4-1.1,2.4-2.8C217.3,55.9,216.3,54.8,214.9,54.8z"/>
<path class="st0" d="M224.6,62.4H222V47.7h2.6V62.4z"/>
<path class="st0" d="M229.9,62.4h-2.6V47.7h2.6V62.4z"/>
<path class="st0" d="M237.2,56.1c0-0.9-0.8-1.3-1.7-1.3c-1.2,0-2,0.3-2.8,0.8v-2.3c0.9-0.5,2-0.8,3.2-0.8c2.2,0,3.9,0.9,3.9,3.4v6.2
	c-0.9,0.2-2.4,0.4-3.6,0.4c-2.4,0-4.3-0.7-4.3-3c0-2,1.6-3,4.3-3h1.1V56.1z M237.2,58.4h-0.9c-1.2,0-1.9,0.3-1.9,1.2
	c0,0.8,0.7,1.2,1.7,1.2c0.3,0,0.7,0,1.1-0.1V58.4z"/>
<path class="st0" d="M242.2,53.4c1.4-0.5,3.2-0.8,4.6-0.8c2.5,0,4.1,0.9,4.1,3.8v6.1h-2.6v-5.9c0-1.1-0.6-1.6-1.7-1.6
	c-0.6,0-1.3,0.1-1.8,0.3v7.3h-2.6L242.2,53.4L242.2,53.4z"/>
<path class="st0" d="M262.4,62.2c-1.2,0.3-2.6,0.5-3.9,0.5c-3.3,0-5.5-1.8-5.5-5c0-3.1,2.1-5.1,5.1-5.1c0.7,0,1.4,0.1,1.8,0.3v-5.2
	h2.6L262.4,62.2L262.4,62.2z M259.8,55.2c-0.4-0.2-0.9-0.3-1.6-0.3c-1.6,0-2.6,1-2.6,2.7c0,1.8,1.2,2.9,3,2.9c0.3,0,0.8,0,1.3-0.1
	V55.2z"/>
<path class="st0" d="M189.5,57.6v3.1l5-3.4v-3L189.5,57.6z"/>
<path class="st1" d="M124.6,75.7h17.7l-3.2-2.7l2.9-2.6h-17.3l-0.5,4.9C124.2,75.5,124.4,75.7,124.6,75.7z"/>
<path class="st1" d="M65.2,73.4h31h31v-3H125c-0.2,0-0.4-0.3-0.2-0.5l2-1.4c0.2-0.1,0.1-0.5-0.2-0.5H96.3H65.9
	c-0.3,0-0.4,0.3-0.2,0.5l1.9,1.4c0.2,0.1,0.1,0.5-0.2,0.5h-2.3V73.4z"/>
<path class="st1" d="M50.2,75.7h17.7c0.3,0,0.5-0.2,0.4-0.5l-0.5-4.9H50.6l2.9,2.6L50.2,75.7z"/>
<path class="st1" d="M96.3,66.6c7.9,0,15.4-4.4,15.4-16.1V31.1H80.8v19.4C80.8,62.2,88.4,66.6,96.3,66.6z"/>
<path class="st1" d="M107.4,25.6c0,0.5,0.2,0.9,0.7,0.9c0.5,0,0.7-0.4,0.7-0.9c0-0.4-0.2-0.8-0.7-0.8
	C107.7,24.8,107.4,25.2,107.4,25.6z"/>
<path class="st1" d="M92.3,26.4c0.5,0,0.7-0.4,0.7-0.9c0-0.4-0.2-0.8-0.7-0.8c-0.5,0-0.7,0.4-0.7,0.8C91.6,26,91.8,26.4,92.3,26.4z"
	/>
<path class="st1" d="M99.5,25.5c0,0.5,0.2,0.9,0.7,0.9c0.5,0,0.7-0.4,0.7-0.9c0-0.4-0.2-0.8-0.7-0.8C99.7,24.7,99.5,25.1,99.5,25.5z
	"/>
<path class="st1" d="M112.8,21.3l-1.7,0.8c-0.3,0.4-0.3,1,0,1.6l-0.6-0.6c-0.3-0.3-0.5-0.4-0.8-0.4c-0.3,0-0.4,0.1-0.6,0.5l-0.3,0.6
	l1,1.9l-1.7,2l-1.9-2.1l1.4-2l-0.1-0.7c-0.1-0.4-0.3-0.6-0.6-0.6c-0.3,0-0.7,0.1-1.6,0.6c0.7-0.8,0.9-1.3,0.9-2l-1.5-2.1h-1
	l-1.5,2.1c0,0.7,0.1,1.3,0.9,2c-1-0.5-1.4-0.6-1.7-0.6c-0.2,0-0.5,0.2-0.6,0.6l-0.1,0.7l1.4,2l-2,2.1l-2-2.2l1.6-1.9l-0.1-0.5
	c-0.1-0.5-0.3-0.8-0.7-0.8c-0.4,0-0.8,0.2-1.6,0.6c0.8-0.8,0.8-1.4,0.8-2l-1.4-2h-0.5h-0.5l-1.4,2c0,0.6,0.1,1.3,0.8,2
	c-0.8-0.4-1.3-0.6-1.6-0.6c-0.5,0-0.7,0.3-0.7,0.8l-0.1,0.5l1.6,1.9l-2,2.2l-2-2.1l1.4-2L91.6,23c-0.1-0.4-0.3-0.6-0.6-0.6
	c-0.3,0-0.7,0.2-1.7,0.6c0.7-0.8,0.9-1.3,0.9-2L88.7,19h-1L86.2,21c0,0.7,0.1,1.3,0.9,2c-0.9-0.5-1.2-0.6-1.6-0.6
	c-0.3,0-0.6,0.2-0.6,0.6l-0.1,0.7l1.4,2l-1.9,2.1l-1.7-2l1-1.9l-0.3-0.6c-0.1-0.3-0.3-0.5-0.6-0.5c-0.2,0-0.5,0.1-0.8,0.4l-0.6,0.6
	c0.2-0.6,0.2-1.2,0-1.6l-1.7-0.8l-0.4,0.2l2.6,8h14.4h14.4l2.6-8L112.8,21.3z"/>
<path class="st1" d="M84.4,26.5c0.5,0,0.7-0.4,0.7-0.9c0-0.4-0.2-0.8-0.7-0.8c-0.5,0-0.7,0.4-0.7,0.8C83.7,26.1,83.9,26.5,84.4,26.5
	z"/>
<path class="st2" d="M81.3,63.5c-0.5,0-0.9,0.3-1.1,0.5l-0.7,0.5h-1.1L73,59.1c1.3,0,2.5-0.5,3.4-1.2c-4.5-2-4.8-6.6-8.4-8.6
	c-1.1,0.2-2.5,1-3,1.8c0.3,0.2,0.5,0.5,0.5,0.9c0,0.7-0.6,1.1-1.4,1.1c-0.1-0.4-0.2-0.8-0.2-1.2c0-0.9,0.5-1.5,1.1-2
	c1.4-1,3.8-1.6,5.4-3.9c-1.8-0.9-2.7-1.9-3.2-3.7c-0.6,0.3-1.4,0.5-2.4,0.5c-0.9,0-1.9-0.2-2.7-0.7c-0.2,1.7-0.8,3.4-1.8,5.2
	c-1.7,3-4,4.1-5.9,4.1c-2.1,0-3.5-1-3.5-2.3c0-1.5,1.1-2.5,3.7-3.4c3.3-1.1,4.6-2.1,4.6-3.9c0-0.7-0.3-1.3-0.8-1.8
	c0.2-0.4,0.3-0.8,0.3-1.2c0-0.6-0.3-1.3-0.8-1.9l-2.6-2.6c-0.3,0.4-0.9,0.6-1.4,0.6c-1,0-2-0.8-2-2c-1,0.3-1.8,1.3-1.8,2.5
	c0,0.7,0.2,1.3,0.8,1.8l1,0.9v1.8c0.2-0.1,0.5-0.2,0.8-0.2c0.6,0,1.2,0.3,1.7,0.8c0.6,0.5,1.1,0.8,1.9,0.8c0.3,0,0.7-0.1,1-0.2
	c0.2,0.2,0.3,0.5,0.3,0.8c0,0.9-1.5,1.6-3.7,2.3c-3.1,0.9-4.7,2.5-4.7,4.8c0,2.6,2.2,4.1,5.1,4.1c0.7,0,1.3-0.1,1.8-0.2l0.8,3.9
	h-6.1c0.3,0.6,0.4,0.9,0.4,1.4c0,1-0.8,2.1-1.7,2.9l5.3,8h3.9c0.9,0,1.4-0.5,1.6-1.3l0.4,0l0.5-0.9c-0.2-0.8-1.3-1.4-2.2-1.4
	c-0.6,0-1.2,0.9-1.5,1.5c-1.7-1.3-2.9-2.6-2.9-4.4c0-1.5,0.9-2.9,3-2.9c1.1,0,2.2,0.4,3.5,1.3l3.9-3.7l-0.7-3.5
	c2.6,0.5,4.5,1.5,4.5,3.3c0,1-0.4,1.7-1.3,2.3l9.2,7.2h6.6l0.2-1.7l-1.1-1C82,63.7,81.7,63.5,81.3,63.5z"/>
<path class="st2" d="M141.3,58.2c0-0.5,0.1-0.9,0.4-1.4h-6.1l0.8-3.9c0.6,0.1,1.1,0.2,1.8,0.2c3,0,5.1-1.5,5.1-4.1
	c0-2.3-1.7-3.8-4.7-4.8c-2.2-0.7-3.7-1.4-3.7-2.3c0-0.3,0.1-0.6,0.3-0.8c0.3,0.1,0.6,0.2,1,0.2c0.7,0,1.3-0.3,1.9-0.8
	c0.5-0.5,1-0.8,1.7-0.8c0.2,0,0.5,0.1,0.8,0.2v-1.8l1-0.9c0.5-0.5,0.8-1.2,0.8-1.8c0-1.2-0.8-2.1-1.8-2.5c0,1.2-0.9,2-2,2
	c-0.6,0-1.1-0.3-1.4-0.6l-2.6,2.6c-0.6,0.6-0.8,1.3-0.8,1.9c0,0.4,0.1,0.8,0.3,1.2c-0.5,0.5-0.8,1.1-0.8,1.8c0,1.8,1.3,2.8,4.6,3.9
	c2.6,0.9,3.7,1.8,3.7,3.4c0,1.4-1.4,2.3-3.5,2.3c-1.9,0-4.2-1.1-5.9-4.1c-1-1.7-1.6-3.4-1.8-5.2c-0.8,0.4-1.8,0.6-2.7,0.6
	c-1,0-1.7-0.2-2.4-0.5c-0.4,1.7-1.4,2.7-3.2,3.7c1.6,2.3,4,2.9,5.4,3.9c0.6,0.5,1.1,1.1,1.1,2c0,0.4-0.1,0.8-0.2,1.2
	c-0.8,0.1-1.4-0.4-1.4-1.1c0-0.4,0.2-0.6,0.5-0.9c-0.5-0.8-1.9-1.6-3-1.8c-3.5,2-3.9,6.6-8.4,8.6c0.9,0.7,2.1,1.2,3.4,1.2l-5.4,5.4
	H113l-0.7-0.5c-0.3-0.2-0.7-0.5-1.1-0.5c-0.4,0-0.7,0.2-1.1,0.5l-1.1,1l0.2,1.7h6.6l9.2-7.2c-0.9-0.6-1.3-1.4-1.3-2.3
	c0-1.8,1.9-2.9,4.5-3.3l-0.7,3.5l3.9,3.7c1.2-0.9,2.4-1.3,3.5-1.3c2.1,0,3,1.3,3,2.9c0,1.7-1.2,3.1-2.9,4.4
	c-0.3-0.6-0.9-1.5-1.5-1.5c-1,0-2.1,0.6-2.2,1.4l0.5,0.9l0.4,0c0.2,0.7,0.7,1.3,1.6,1.3h3.9l5.3-8C142.1,60.3,141.3,59.2,141.3,58.2
	z"/>
<path class="st2" d="M115.7,44.5c-0.3,0.6-0.5,1.3-0.6,2.1c-0.1,0.8-0.4,1.7-1.2,2.9l-0.4,0.6l-0.6-0.4c-0.6,0-1.2,0.3-1.4,0.9
	c-0.1,0.2-0.1,0.5-0.1,0.9l0,0.4v0c-0.5,0.2-0.8,0.6-0.9,1.1c0,0.1,0,0.3,0,0.4l0.3,0.8l0.1,0.2h0.8c0,0.2,0,0.4,0.1,0.6
	c0.1,0.3,0.2,0.5,0.4,0.7l0.2,0.2c0.1,0,0.1,0.1,0.2,0.1c0.2,0.1,0.3,0.1,0.5,0.1c0.4,0,1-0.3,1.3-0.5c0.1,0.2,0.3,0.3,0.5,0.3h0
	c0.2,0,0.4-0.1,0.6-0.3l0.2-0.2l0.3-0.2c0.3-0.2,0.4-0.5,0.4-0.8c0-0.4-0.4-0.9-0.8-1.2l0.2-0.3l1,0.7c0.5-1-0.1-1.9-0.1-2.8
	c0-0.8,0.6-1.4,1.9-2.5c0.8-0.7,1.3-1.3,1.7-2.2c0-1.1-0.2-2.2-0.8-3C118.5,44.2,117.5,44.6,115.7,44.5z"/>
<path class="st2" d="M104,52.4c1.7,0,3-0.9,3-2.5c0-1.4-1-2.3-2.8-2.9c-1.3-0.4-2.2-0.8-2.2-1.4c0-0.2,0.1-0.3,0.2-0.4
	c0.2,0.1,0.4,0.1,0.6,0.1c0.4,0,0.8-0.1,1.1-0.5c0.3-0.3,0.6-0.5,1-0.5c0.2,0,0.4,0.1,0.5,0.1v-1.1l0.6-0.6c0.3-0.3,0.4-0.7,0.4-1.1
	c0-0.7-0.5-1.2-1.1-1.5c0,0.6-0.5,1.2-1.2,1.2c-0.3,0-0.6-0.1-0.9-0.4l-1.6,1.7c-0.3,0.3-0.5,0.6-0.5,1.1c0,0.3,0.1,0.5,0.2,0.7
	c-0.3,0.3-0.4,0.8-0.4,1.1c0,1.1,0.8,1.6,2.8,2.3c1.6,0.5,2.2,1,2.2,2c0,0.8-0.8,1.4-2.1,1.4c-1.2,0-2.5-0.6-3.6-2.5
	c-0.8-1.4-1-2.1-1.1-3c-1,0.5-2,0.5-3,0.1c-0.4,0.8-1.1,1.5-2,2c0.4,0.8,2.2,1.8,3,2.2c0.7,0.4,1,1,1,1.4c0,0.3-0.1,0.5-0.2,0.7
	c-0.6,0-0.8-0.3-0.8-0.6c0-0.2,0.1-0.4,0.3-0.5c-0.3-0.4-0.9-0.7-1.4-0.9c-2.1,1.1-2.9,3.9-5.3,5c0.7,0.5,1.4,0.7,2,0.7l-3.2,3.2
	h-0.6L88.4,59c-0.1-0.1-0.4-0.3-0.6-0.3c-0.2,0-0.5,0.1-0.6,0.2l-0.8,0.7l-0.3,1h4.4l5.6-4.3c-0.5-0.4-0.8-0.8-0.8-1.3
	c0-1,1.3-1.8,2.7-2.2L97.5,55l2.3,2.2c0.7-0.6,1.6-0.9,2.3-0.9c1,0,1.7,0.7,1.7,1.7c0,1.2-0.8,2.4-1.6,2.9c-0.2-0.5-0.5-0.9-1-0.9
	c-0.4,0-1.2,0.3-1.3,0.9l0.3,0.5l0.2,0c0.1,0.4,0.4,0.8,1,0.8h2.3l3.2-4.9c-0.5-0.4-1-1.1-1-1.8c0-0.3,0.1-0.6,0.3-0.9h-3.7l0.4-2.4
	C103.3,52.4,103.6,52.4,104,52.4z"/>
<path class="st2" d="M76.5,40.7c0-1,0.9-1.8,0.9-3c0-1-0.4-1.7-1.4-2.2c1.4,0,2.5-1,2.5-1.6c-2.1,0-3.1-2.2-5.8-2.2
	c-1.9,0-2.1,1-3.5,1c-1,0-1-0.5-2.5-0.5v-0.4c0.9-0.2,1.7-0.3,2.5,0.4c0.5-0.3,0.6-0.7,0.6-1c0-0.6-0.4-0.9-0.9-1.1
	c-0.1-0.6-0.3-0.9-0.7-1l-0.2,0.9c-1.4,0-1.7,0.5-2.5,0.5c-0.7,0-1-0.5-1.1-1.2c-0.1-0.3-0.1-0.6-0.1-1c0-0.1,0-0.2,0-0.3
	c0.1-2.1,0.7-2.9,1.5-2.9c0.8,0,1.1,0.5,2.4,0.8l0.1,1c0.4,0,0.7-0.3,0.9-0.8c1,0.2,1.5-0.2,1.5-1.3v-1.1l0.3-0.3V22l-2.1-0.6
	l-0.4,0.1L68.4,21l-2.5-0.4l-0.6,0.5h-3.6c-0.6,0-0.9,0.2-0.9,0.5c0,0.3,0.3,0.8,0.7,1.1c-2.5,0.5-3.4,1.9-3.4,3
	c0,1.7,0.5,1.7,0.5,3.8c0,1-0.3,1.8-1.2,2.7l3.2,3.2c1.2,1.2,1.5,2.1,1.5,2.8c0,0.7-0.4,1.5-1,2c1,1.1,2.4,1.7,3.8,1.7
	c1.2,0,2.1-0.4,2.9-1c0.3,2.7,1.4,3.6,3.5,4.6c0.1-1.7,0.7-2.9,1.6-3.6c0.9,1.3,1.9,1.9,3.1,1.9c1.3,0,2-0.7,2.2-1.3
	C77,42.3,76.5,41.5,76.5,40.7z M67.9,22.4c-0.1,0.1-0.2,0.3-0.5,0.3c-0.1,0.3-0.5,0.5-0.9,0.5c-0.4,0-0.8-0.2-1-0.6
	C65.9,22.2,66.7,22.2,67.9,22.4z"/>
<path class="st2" d="M79.8,26.3l0-0.6l0-0.2c0-0.5-0.2-0.9-0.5-1c-0.1-0.1-0.3-0.1-0.4-0.1h-0.2c0-0.3-0.1-0.5-0.3-0.7
	c-0.2-0.1-0.4-0.2-0.6-0.2c-0.6,0-1.1,0.2-1.3,0.8c-0.5,0-1,0.6-1,1.5c0,1.2,1.5,1.5,1,2.4l-1.8,3.1c1.6,0.5,2.1,1.3,3.4,1.7l1-3.9
	c0.2-1,1.4-1.1,1.5-2c0-0.2,0-0.3-0.1-0.5c0,0,0-0.1-0.1-0.1L79.8,26.3z"/>
<path class="st2" d="M92.6,46.6c-0.8,0.7-1.9,1-2.7,0.5l-1.3,2.6l-0.4-0.3c-0.3,0-0.6,0.1-0.7,0.3c-0.1,0.1-0.2,0.3-0.2,0.5v0.1v0.1
	c-0.3,0.1-0.5,0.3-0.5,0.5c0,0.1,0,0.1,0,0.2l0.1,0.4l0,0.1l0.4,0.1c-0.1,0.3-0.1,0.5,0.1,0.6l0.4,0.4l0,0c0.4,0.1,0.6,0,0.8-0.3
	c0.1,0.3,0.3,0.3,0.4,0.2c0,0,0,0,0,0l0.5-0.3l0.1,0c0.1-0.1,0.1-0.3,0.1-0.4c0-0.2-0.2-0.5-0.4-0.6l0.1-0.1l0.3,0.3
	c0.3-0.5,0-1.1,0.4-1.4l2.8-2.4C93,47.3,92.8,46.9,92.6,46.6z"/>
<path class="st2" d="M87,38.9L86.9,39l-0.1,0.2c0,0.1,0,0.3,0.1,0.4c0.1,0.1,0.2,0.2,0.4,0.3c0.3,0.1,0.6,0.1,0.8,0.2
	c0.1,0,0.2,0.1,0.3,0.2l1.2,1.7c0.1-0.9,0.7-1.7,1.4-2.1l-1.4-0.5c-0.4-0.1-0.5-0.5-0.5-0.8c0.1-0.2,0.3-0.6,0-1
	c-0.1-0.3-0.3-0.4-0.5-0.5c-0.1,0-0.3,0-0.4,0c-0.1-0.1-0.3-0.2-0.5-0.2c-0.1,0-0.3,0-0.4,0.1C87.2,37,87.1,37,87,37.2
	c-0.1,0.1-0.1,0.3,0,0.4l-0.2,0.1c0,0,0,0.1,0,0.1c-0.1,0.2-0.1,0.5,0,0.7c0,0,0,0,0,0L87,38.9z"/>
<path class="st2" d="M81.9,52.9c-0.1-0.5-0.4-0.8-0.9-1.1v0l0-0.4c0-0.4,0-0.6-0.1-0.9c-0.2-0.6-0.7-0.9-1.4-0.9L79,50l-0.4-0.6
	c-0.8-1.2-1.1-2-1.2-2.9c-0.1-0.8-0.3-1.4-0.6-2.1c-1.8,0.2-2.8-0.3-3.9-1.4c-0.5,0.7-0.8,1.9-0.8,3c0.4,0.9,0.9,1.5,1.7,2.2
	c1.3,1.1,1.9,1.7,1.9,2.5c0,0.8-0.5,1.7-0.1,2.8l1-0.7l0.2,0.3c-0.5,0.3-0.8,0.8-0.8,1.2c0,0.3,0.1,0.6,0.4,0.8l0.3,0.2l0.2,0.2
	c0.2,0.2,0.4,0.3,0.6,0.3h0c0.3,0,0.4-0.1,0.5-0.3c0.3,0.2,0.9,0.5,1.3,0.5c0.2,0,0.4-0.1,0.5-0.1c0.1,0,0.2-0.1,0.2-0.1l0.2-0.2
	c0.2-0.1,0.3-0.4,0.4-0.7c0-0.2,0.1-0.4,0.1-0.6h0.8l0.1-0.2l0.3-0.8C82,53.2,81.9,53,81.9,52.9z"/>
<path class="st2" d="M102.1,39.9c-0.5-0.5-0.7-0.9-0.7-1.8c0-0.8,0.3-1.5,0.3-2.3c0-0.8-0.5-1.4-2-1.7c0.3-0.2,0.4-0.5,0.4-0.7
	c0-0.2-0.2-0.3-0.6-0.3h-2.1L97,32.9l-1.5,0.2l-0.2,0.3l-0.2-0.1l-1.3,0.4v0.8l0.1,0.2v0.7c0,0.7,0.3,0.9,0.9,0.8
	c0.1,0.2,0.3,0.5,0.5,0.5l0.1-0.6c0.4-0.1,1.1-0.5,1.4-0.5c0.5,0,0.9,0.4,0.9,1.8c0,0,0,0.1,0,0.1c0,0.3,0,0.5-0.1,0.6
	c-0.1,0.3-0.3,0.5-0.6,0.5c-0.6,0-0.8-0.3-1.5-0.3l-0.1-0.5c-0.3,0.1-0.4,0.4-0.4,0.6c-0.3,0.1-0.5,0.3-0.5,0.6
	c0,0.2,0.1,0.4,0.4,0.7c0.5-0.3,1.3-0.3,2-0.1v0.5c-0.9-0.1-1.3,0.1-1.9,0.1c-0.7,0-1.1-0.3-2.1-0.3c-1.4,0-2.7,1-2.7,2.3
	c0,1,0.5,1.3,0.5,2.5c0,0.6-0.4,1.1-1.2,1.1c0.3,0.5,0.8,0.9,1.4,0.9c0.9,0,1.6-0.7,1.9-1.1c0.5,0.6,0.9,1.3,1,2.1
	c1.2-0.5,1.9-1.3,2.2-2.5c0.5,0.4,1.2,0.6,1.7,0.6c0.7,0,1.6-0.4,2.3-1c-0.3-0.1-0.6-0.4-0.6-1.1c0-0.5,0.2-1.1,0.9-1.8L102.1,39.9z
	 M96.6,34.4c-0.3,0-0.5-0.1-0.5-0.4c-0.1,0-0.2-0.1-0.3-0.1c0.7-0.1,1.2-0.1,1.4,0.1C97.2,34.2,97,34.4,96.6,34.4z"/>
<path class="st2" d="M135,32.3c-0.9-0.9-1.2-1.8-1.2-2.7c0-2.1,0.5-2.1,0.5-3.8c0-1.1-0.8-2.6-3.4-3c0.4-0.3,0.7-0.8,0.7-1.1
	c0-0.3-0.3-0.5-0.9-0.5h-3.6l-0.6-0.5l-2.5,0.4l-0.3,0.6l-0.4-0.1l-2.1,0.7v1.3l0.2,0.3v1.1c0,1.2,0.5,1.5,1.5,1.3
	c0.2,0.4,0.5,0.8,0.9,0.8l0.1-1c1.3-0.3,1.6-0.8,2.4-0.8c0.8,0,1.5,0.7,1.5,2.9c0,0.1,0,0.2,0,0.3c0,0.4,0,0.7-0.1,1
	c-0.1,0.7-0.4,1.2-1.1,1.2c-0.8,0-1.1-0.5-2.5-0.5l-0.2-0.9c-0.4,0.2-0.6,0.5-0.7,1c-0.5,0.1-0.9,0.5-0.9,1.1c0,0.3,0.1,0.7,0.6,1
	c0.8-0.6,1.6-0.5,2.5-0.4v0.4c-1.5,0-1.5,0.5-2.5,0.5c-1.3,0-1.5-1-3.5-1c-2.6,0-3.7,2.2-5.8,2.2c0,0.6,1,1.5,2.5,1.6
	c-1,0.5-1.4,1.2-1.4,2.2c0,1.2,0.9,1.9,0.9,3c0,0.8-0.5,1.7-1.8,1.7c0.1,0.6,0.9,1.3,2.2,1.3c1.3,0,2.2-0.6,3.1-1.9
	c0.9,0.8,1.5,1.9,1.6,3.6c2.1-0.9,3.3-1.8,3.5-4.6c0.9,0.7,1.8,1,2.9,1c1.3,0,2.8-0.5,3.8-1.7c-0.6-0.5-1-1.3-1-2
	c0-0.7,0.3-1.6,1.5-2.8L135,32.3z M126,23.1c-0.4,0-0.8-0.3-0.9-0.5c-0.2,0-0.4-0.1-0.5-0.3c1.2-0.2,2-0.1,2.4,0.2
	C126.8,22.9,126.4,23.1,126,23.1z"/>
<path class="st2" d="M116,28.3c-0.5-0.9,1-1.2,1-2.4c0-0.9-0.5-1.5-1-1.5c-0.3-0.6-0.8-0.8-1.3-0.8c-0.2,0-0.4,0.1-0.6,0.2
	c-0.2,0.1-0.4,0.4-0.3,0.7h-0.2c-0.1,0-0.3,0-0.4,0.1c-0.3,0.2-0.5,0.6-0.5,1l0,0.2l0,0.6l-0.5,0.3c0,0,0,0.1-0.1,0.1
	c-0.1,0.1-0.1,0.3-0.1,0.5c0,0.9,1.2,1,1.5,2l1,3.9c1.3-0.4,1.7-1.2,3.4-1.7L116,28.3z"/>
<path class="st2" d="M71.6,71.8l-0.8-2.2h0.5l0.6,1.7l0.6-1.7H73l-0.8,2.2H71.6z"/>
<path class="st2" d="M74,71.8h-0.5v-2.2H74V71.8z"/>
<path class="st2" d="M76.4,70.2c-0.2-0.1-0.4-0.2-0.6-0.2c-0.4,0-0.7,0.3-0.7,0.7c0,0.5,0.3,0.7,0.7,0.7c0.1,0,0.2,0,0.3,0v-0.6h0.5
	v0.9c-0.2,0.1-0.5,0.2-0.7,0.2c-0.7,0-1.2-0.4-1.2-1.2c0-0.7,0.5-1.2,1.2-1.2c0.3,0,0.5,0.1,0.7,0.2L76.4,70.2L76.4,70.2z"/>
<path class="st2" d="M77.7,71.8h-0.5v-2.2h0.5V71.8z"/>
<path class="st2" d="M78.4,69.6h0.5v1.8h0.9v0.4h-1.3V69.6z"/>
<path class="st2" d="M80.9,71.3l-0.2,0.5h-0.5l0.9-2.2h0.6l0.9,2.2H82l-0.2-0.5H80.9z M81.3,70L81,70.9h0.7L81.3,70z"/>
<path class="st2" d="M83.7,71.8h-0.5V70h-0.7v-0.4h1.8V70h-0.7V71.8z"/>
<path class="st2" d="M86.4,71.4v0.4H85v-2.2h1.4V70h-0.9v0.5h0.9v0.4h-0.9v0.5H86.4z"/>
<path class="st2" d="M89,69.6c0.2,0,0.4,0,0.7,0c0.8,0,1.3,0.4,1.3,1.1c0,0.8-0.5,1.2-1.3,1.2c-0.2,0-0.5,0-0.7,0L89,69.6L89,69.6z
	 M89.4,71.4c0.1,0,0.2,0,0.2,0c0.4,0,0.7-0.2,0.7-0.8c0-0.5-0.3-0.7-0.8-0.7c-0.1,0-0.2,0-0.2,0L89.4,71.4L89.4,71.4z"/>
<path class="st2" d="M92.9,71.4v0.4h-1.4v-2.2h1.4V70h-0.9v0.5h0.9v0.4h-0.9v0.5H92.9z"/>
<path class="st2" d="M94.5,69.5c0.6,0,1.2,0.5,1.2,1.2c0,0.7-0.5,1.2-1.2,1.2c-0.6,0-1.2-0.5-1.2-1.2C93.3,70,93.8,69.5,94.5,69.5z
	 M94.5,69.9c-0.4,0-0.7,0.3-0.7,0.7c0,0.4,0.3,0.7,0.7,0.7c0.4,0,0.7-0.3,0.7-0.7C95.1,70.2,94.9,69.9,94.5,69.9z"/>
<path class="st2" d="M99.4,70.2c-0.1-0.1-0.4-0.2-0.6-0.2c-0.4,0-0.7,0.3-0.7,0.7c0,0.4,0.3,0.7,0.7,0.7c0.3,0,0.4-0.1,0.6-0.2v0.5
	c-0.2,0.1-0.4,0.2-0.6,0.2c-0.7,0-1.2-0.5-1.2-1.2c0-0.7,0.5-1.2,1.2-1.2c0.2,0,0.4,0,0.6,0.1L99.4,70.2L99.4,70.2z"/>
<path class="st2" d="M101.1,69.5c0.6,0,1.2,0.5,1.2,1.2c0,0.7-0.5,1.2-1.2,1.2s-1.2-0.5-1.2-1.2C99.9,70,100.4,69.5,101.1,69.5z
	 M101.1,69.9c-0.4,0-0.7,0.3-0.7,0.7c0,0.4,0.3,0.7,0.7,0.7s0.7-0.3,0.7-0.7C101.7,70.2,101.5,69.9,101.1,69.9z"/>
<path class="st2" d="M104.3,71.1v-1.5h0.5v2.2h-0.4l-1-1.5v1.5h-0.5v-2.2h0.5L104.3,71.1z"/>
<path class="st2" d="M105.5,71.8v-2.2h1.3V70H106v0.6h0.7v0.4H106v0.8H105.5z"/>
<path class="st2" d="M107.9,71.8h-0.5v-2.2h0.5V71.8z"/>
<path class="st2" d="M108.7,69.6c0.2,0,0.4,0,0.7,0c0.8,0,1.3,0.4,1.3,1.1c0,0.8-0.5,1.2-1.3,1.2c-0.2,0-0.5,0-0.7,0L108.7,69.6
	L108.7,69.6z M109.1,71.4c0.1,0,0.2,0,0.2,0c0.4,0,0.7-0.2,0.7-0.8c0-0.5-0.3-0.7-0.8-0.7c-0.1,0-0.2,0-0.2,0L109.1,71.4L109.1,71.4
	z"/>
<path class="st2" d="M112.7,71.4v0.4h-1.4v-2.2h1.4V70h-0.9v0.5h0.9v0.4h-0.9v0.5H112.7z"/>
<path class="st2" d="M114.9,71.1v-1.5h0.5v2.2h-0.4l-1-1.5v1.5h-0.5v-2.2h0.5L114.9,71.1z"/>
<path class="st2" d="M117,71.8h-0.5V70h-0.7v-0.4h1.8V70H117V71.8z"/>
<path class="st2" d="M119.7,71.4v0.4h-1.4v-2.2h1.4V70h-0.9v0.5h0.9v0.4h-0.9v0.5H119.7z"/>
<path class="st2" d="M120.3,71.2c0.2,0.1,0.4,0.2,0.6,0.2c0.2,0,0.4-0.1,0.4-0.3c0-0.2-0.1-0.2-0.4-0.3c-0.4-0.1-0.6-0.3-0.6-0.7
	c0-0.4,0.3-0.7,0.7-0.7c0.3,0,0.4,0.1,0.6,0.2v0.5c-0.2-0.1-0.4-0.2-0.6-0.2c-0.2,0-0.3,0.1-0.3,0.2c0,0.2,0.1,0.2,0.4,0.3
	c0.4,0.1,0.6,0.3,0.6,0.7c0,0.5-0.4,0.7-0.8,0.7c-0.2,0-0.5-0.1-0.6-0.2L120.3,71.2L120.3,71.2z"/>
<path class="st0" d="M108,66.8l-0.1-0.1c0.1-1.1,0.7-1.5,1.3-1.5l0.3,1.3C109,66.4,108.3,66.5,108,66.8z"/>
<path class="st0" d="M110.2,66.6c0.5-0.1,1.1-0.1,1.5-0.1c-0.2-0.3-0.3-0.5-0.3-0.9c0-0.1,0-0.3,0-0.4c-0.7,0.1-1.1,0.4-1.4,1.2
	L110.2,66.6z"/>
<path class="st0" d="M114.5,66.8h-0.9l-0.1-0.1c0.2-0.5,0.7-0.7,0.9-0.7c0.1,0.1,0.2,0.3,0.2,0.5C114.6,66.5,114.6,66.7,114.5,66.8z
	"/>
<path class="st0" d="M131.2,68.2l-0.1-0.1c0.1-1,0.6-1.7,1.4-1.7l0.1,1.4C132.2,67.8,131.6,67.9,131.2,68.2z"/>
<path class="st0" d="M132.5,68.8l-0.1-0.2c0.3-0.7,0.7-1,1.4-1.2c-0.1,0.1-0.1,0.3-0.1,0.5c0,0.3,0.1,0.5,0.2,0.7
	C133.7,68.7,133.1,68.7,132.5,68.8z"/>
<path class="st0" d="M136.7,69.1h-0.9l-0.1-0.1c0.2-0.5,0.7-0.7,0.9-0.7c0.1,0.1,0.2,0.3,0.2,0.5C136.8,68.9,136.8,69,136.7,69.1z"
	/>
<path class="st0" d="M102.6,62.2L102.6,62.2c0.1-0.4,0.4-0.5,0.5-0.5c0.1,0.1,0.1,0.2,0.1,0.3c0,0.1,0,0.1-0.1,0.2L102.6,62.2
	L102.6,62.2z"/>
<path class="st0" d="M100.6,62c0.3-0.1,0.7-0.1,0.9-0.1c-0.1-0.1-0.1-0.3-0.1-0.5c0-0.1,0-0.2,0-0.3c-0.4,0.1-0.7,0.3-0.8,0.7
	L100.6,62z"/>
<path class="st0" d="M99.9,61.7L99.9,61.7c0-1.1,0.6-1.1,0.9-1l-0.1,0.8C100.4,61.4,100.1,61.5,99.9,61.7z"/>
<path class="st0" d="M89.1,60.7L89.1,60.7c0.1-0.4,0.4-0.5,0.5-0.5c0.2,0.2,0.2,0.4,0,0.5L89.1,60.7L89.1,60.7z"/>
<path class="st0" d="M87.1,60.5c0.3-0.1,0.6-0.1,0.9-0.1c-0.1-0.1-0.2-0.3-0.2-0.4c0-0.1,0-0.2,0.1-0.4c-0.5,0.1-0.7,0.3-0.9,0.7
	L87.1,60.5z"/>
<path class="st0" d="M85.8,60.7L85.8,60.7c0-0.8,0.4-1,0.7-1l0.1,0.8C86.4,60.5,86,60.5,85.8,60.7z"/>
<path class="st0" d="M84.5,66.8c-0.3-0.3-1-0.3-1.4-0.3l0.3-1.3c0.6,0,1.2,0.5,1.3,1.5L84.5,66.8z"/>
<path class="st0" d="M82.3,66.6l0.1-0.2c-0.3-0.7-0.7-1-1.4-1.2c0,0.1,0,0.3,0,0.4c0,0.3-0.1,0.6-0.3,0.9
	C81.2,66.4,81.8,66.4,82.3,66.6z"/>
<path class="st0" d="M78,66.8c-0.1-0.1-0.1-0.2-0.1-0.4c0-0.2,0.1-0.3,0.2-0.5c0.3,0,0.7,0.2,0.9,0.7l-0.1,0.1L78,66.8L78,66.8z"/>
<path class="st0" d="M61.3,68.2c-0.4-0.3-1-0.4-1.3-0.4l0.1-1.4c0.7,0,1.3,0.6,1.4,1.7L61.3,68.2z"/>
<path class="st0" d="M60,68.8c-0.5-0.1-1.1-0.2-1.4-0.1c0.1-0.2,0.2-0.5,0.2-0.7c0-0.2-0.1-0.3-0.1-0.5c0.7,0.1,1.2,0.4,1.4,1.2
	L60,68.8z"/>
<path class="st0" d="M55.8,69.1c-0.1-0.1-0.1-0.2-0.1-0.4c0-0.2,0.1-0.3,0.2-0.5c0.3,0,0.7,0.2,0.9,0.7l-0.1,0.1L55.8,69.1
	L55.8,69.1z"/>
<path class="st0" d="M110.6,52.9c-0.6,0.3-1,1-1,1.6l0.2,0.1c0.3-0.2,0.8-0.4,1.1-0.5l-0.3-0.8C110.6,53.2,110.6,53,110.6,52.9z"/>
<path class="st0" d="M115,55.7C115,55.7,115,55.7,115,55.7c0.1,0.2,0.2,0.4,0.3,0.6l0.3,0c0.2-0.3,0.3-0.7,0.3-1l-0.2,0.2
	C115.4,55.7,115.2,55.7,115,55.7z"/>
<path class="st0" d="M111.5,50.5c-0.7,0.1-1.4,0.5-1.6,1.2l0.1,0.1c0.5-0.1,1-0.1,1.5-0.1l0-0.4C111.4,51.1,111.4,50.8,111.5,50.5z"
	/>
<path class="st0" d="M112.2,55.6c-0.2-0.1-0.3-0.4-0.4-0.7c-0.4,0.5-0.4,1.3,0,1.9l0.3,0c0.1-0.3,0.4-0.7,0.6-1
	c-0.1,0-0.2-0.1-0.2-0.1L112.2,55.6z"/>
<path class="st0" d="M64.5,29.3c0.9-0.8,1.8-1.2,2.8-1.2c2.2,0,2.9,0.9,4.6,0.9c1.6,0,2.5-0.7,2.5-2c0-1-0.6-1.7-1.6-1.7
	c-0.7,0-1.5,0.3-1.5,1.2c0,0.6,0.4,1,0.9,1c0.3,0,0.3-0.2,0.5-0.2c0.1,0,0.2,0.1,0.2,0.2c0,0.2-0.3,0.7-1.2,0.7c-1.2,0-2.5-1-4.4-1
	c-1.2,0-2.1,0.2-3,0.8c0,0.1,0,0.2,0,0.3C64.4,28.7,64.5,29,64.5,29.3z"/>
<path class="st0" d="M80.7,25.5c-0.3,0-0.6,0.1-0.9,0.2l0,0.6l0.5,0.3c0,0,0,0.1,0.1,0.1c0.2-0.3,0.6-0.6,0.9-0.8v-0.3
	C81.1,25.6,80.9,25.5,80.7,25.5z"/>
<path class="st0" d="M78.7,24.4H79c0.1,0,0.3,0,0.4,0.1c0.3-0.2,0.5-0.4,0.8-0.6v-0.2c-0.3-0.1-0.6-0.2-0.9-0.2
	c-0.3,0-0.6,0.1-0.9,0.2C78.6,23.9,78.8,24.1,78.7,24.4z"/>
<path class="st0" d="M88.3,37c0.1-0.1,0.3-0.1,0.4,0c-0.2-0.4-0.7-0.6-1.1-0.5l0,0.1c0.1,0.1,0.1,0.2,0.2,0.3
	C88,36.8,88.2,36.9,88.3,37z"/>
<path class="st0" d="M86.9,39l0.1-0.1l-0.3-0.4c0,0,0,0,0,0c-0.3,0.1-0.5,0.3-0.6,0.4l0,0.1C86.5,38.9,86.7,39,86.9,39z"/>
<path class="st0" d="M86.9,40l0,0.1c0.2,0.1,0.6,0.2,1.1-0.1c-0.2-0.1-0.6-0.1-0.8-0.2C87.1,39.9,87,40,86.9,40z"/>
<path class="st0" d="M87,37.5c-0.1-0.1-0.1-0.3,0-0.4c-0.3-0.1-0.6,0-0.8,0.2v0.1c0.2,0.1,0.4,0.2,0.6,0.3c0,0,0-0.1,0-0.1L87,37.5z
	"/>
<path class="st0" d="M89.1,52.9c0.1,0.2,0.1,0.4,0.1,0.5h0.1c0.2-0.2,0.3-0.5,0.3-0.8L89.1,52.9C89.1,52.8,89.1,52.8,89.1,52.9z"/>
<path class="st0" d="M87.3,53.2l0.1,0.1c0.1-0.1,0.2-0.3,0.3-0.4l-0.4-0.4C87.3,52.6,87.2,52.9,87.3,53.2z"/>
<path class="st0" d="M86.8,51c-0.2,0.1-0.4,0.4-0.5,0.6l0.1,0.1c0.1,0,0.3-0.1,0.5-0.1l-0.1-0.4C86.8,51.1,86.8,51.1,86.8,51z"/>
<path class="st0" d="M87.5,49.7c-0.3,0-0.6,0.2-0.8,0.5l0,0.1c0.2,0,0.4,0,0.5,0.1v-0.1C87.3,50,87.4,49.9,87.5,49.7z"/>
<path class="st0" d="M81.1,51.4l0,0.4c0.5,0,0.9,0,1.5,0.1l0.1-0.1c-0.2-0.6-0.9-1.1-1.6-1.2C81.1,50.8,81.1,51.1,81.1,51.4z"/>
<path class="st0" d="M76.9,55.5l-0.2-0.2c0,0.4,0.1,0.7,0.3,1l0.3,0c0.1-0.2,0.2-0.4,0.3-0.6h0C77.3,55.7,77.1,55.7,76.9,55.5z"/>
<path class="st0" d="M80.1,55.7c-0.1,0-0.1,0.1-0.2,0.1c0.3,0.3,0.5,0.6,0.6,1l0.3,0c0.3-0.6,0.3-1.3,0-1.9
	c-0.1,0.3-0.2,0.5-0.4,0.7L80.1,55.7z"/>
<path class="st0" d="M82.9,54.5c0-0.6-0.5-1.3-1-1.6c0,0.1,0,0.3,0,0.4l-0.3,0.8c0.4,0.1,0.8,0.3,1.1,0.5L82.9,54.5z"/>
<path class="st0" d="M97.9,37.4c-0.5-0.3-1.1-0.5-1.8-0.5c-1.2,0-1.9,0.6-2.6,0.6c-0.5,0-0.7-0.3-0.7-0.4c0-0.1,0.1-0.1,0.1-0.1
	c0.1,0,0.1,0.1,0.3,0.1c0.3,0,0.6-0.3,0.6-0.6c0-0.5-0.5-0.7-0.9-0.7c-0.6,0-1,0.4-1,1c0,0.8,0.7,1.2,1.5,1.2c1.3,0,1.4-0.5,2.8-0.5
	c0.6,0,1.1,0.2,1.6,0.6c0.1-0.2,0.1-0.4,0.1-0.6C97.9,37.5,97.9,37.4,97.9,37.4z"/>
<path class="st0" d="M128,28c-0.9-0.5-1.8-0.8-3-0.8c-1.9,0-3.1,1-4.4,1c-0.9,0-1.2-0.4-1.2-0.7c0-0.2,0.1-0.2,0.2-0.2
	c0.2,0,0.2,0.2,0.5,0.2c0.5,0,0.9-0.4,0.9-1c0-0.9-0.8-1.2-1.5-1.2c-1.1,0-1.6,0.7-1.6,1.7c0,1.3,0.9,2,2.5,2c1.7,0,2.4-0.9,4.6-0.9
	c1,0,1.9,0.4,2.8,1.2c0.1-0.3,0.1-0.6,0.1-1C128.1,28.2,128.1,28.1,128,28z"/>
<path class="st0" d="M113.8,24.4c0-0.3,0.1-0.5,0.3-0.7c-0.3-0.1-0.6-0.2-0.9-0.2c-0.3,0-0.6,0-0.9,0.2v0.2c0.2,0.2,0.5,0.4,0.8,0.6
	c0.1-0.1,0.3-0.1,0.4-0.1H113.8z"/>
<path class="st0" d="M112.7,26.3l0-0.6c-0.3-0.1-0.6-0.2-0.9-0.2c-0.2,0-0.4,0-0.6,0.1v0.3c0.3,0.2,0.6,0.5,0.9,0.8
	c0,0,0-0.1,0.1-0.1L112.7,26.3z"/>
</svg>
