<?xml version="1.0" encoding="UTF-8" standalone="no"?>
<svg
   id="Layer_1"
   x="0px"
   y="0px"
   viewBox="0 0 335 100"
   style="enable-background:new 0 0 335 100;"
   xml:space="preserve"
   version="1.1"
   sodipodi:docname="tip.svg"
   inkscape:version="1.2.2 (732a01da63, 2022-12-09)"
   xmlns:inkscape="http://www.inkscape.org/namespaces/inkscape"
   xmlns:sodipodi="http://sodipodi.sourceforge.net/DTD/sodipodi-0.dtd"
   xmlns="http://www.w3.org/2000/svg"
   xmlns:svg="http://www.w3.org/2000/svg"><defs
   id="defs24" /><sodipodi:namedview
   id="namedview22"
   pagecolor="#ffffff"
   bordercolor="#000000"
   borderopacity="0.25"
   inkscape:showpageshadow="2"
   inkscape:pageopacity="0.0"
   inkscape:pagecheckerboard="0"
   inkscape:deskcolor="#d1d1d1"
   showgrid="false"
   inkscape:zoom="2.36"
   inkscape:cx="167.37288"
   inkscape:cy="50"
   inkscape:window-width="1920"
   inkscape:window-height="1094"
   inkscape:window-x="-11"
   inkscape:window-y="-11"
   inkscape:window-maximized="1"
   inkscape:current-layer="Layer_1" />
<style
   type="text/css"
   id="style2">
	.st0{fill:url(#SVGID_1_);}
	.st1{fill:#FFFFFF;}
</style>
<g
   id="g19">
	<linearGradient
   id="SVGID_1_"
   gradientUnits="userSpaceOnUse"
   x1="56.7061"
   y1="50"
   x2="156.9011"
   y2="50">
		<stop
   offset="0"
   style="stop-color:#00B2E6"
   id="stop4" />
		<stop
   offset="1"
   style="stop-color:#85CA93"
   id="stop6" />
	</linearGradient>
	<path
   class="st0"
   d="M153.4,41.5l-3.4-3.4c-1.1-1.2-2.3-2.8-3-4.4c-1.3-3-1.3-9.5-1.3-9.5l0,0.1v-1c0-6.8-5.5-12.3-12.3-12.3h-4   c-1.7-0.1-3.9-0.3-5.7-1c-2.6-1-6.5-4.7-7.4-5.6l-0.8-0.8c-4.8-4.8-12.6-4.8-17.4,0l-0.8,0.8l0.1-0.2c0,0-3.4,3.9-6.9,5.5   C87.5,11.1,81,11,81,11l0.1,0h-1.3c-6.5,0-11.8,5.3-11.8,11.8v1.8l-0.2-0.4c0,0,0.3,5.1-1,8.8c-1.1,3-5.8,7.6-5.8,7.6l0.3-0.2   l-1.1,1.1c-4.6,4.6-4.6,12.1,0,16.7l1.3,1.3L61,59.3c0,0,3.9,3.4,5.5,6.9c1.3,3,1.3,9.5,1.3,9.5l0.2-0.6V77   c0,6.5,5.3,11.8,11.8,11.8h1.6L81,89c0,0,5.1-0.3,8.8,1c3,1.1,7.6,5.8,7.6,5.8L97,95.1l1.4,1.4c4.6,4.6,12.1,4.6,16.7,0l1-1   l-0.1,0.2c0,0,3.4-3.9,6.9-5.5c3-1.3,9.5-1.3,9.5-1.3l-0.6-0.2h2c6.5,0,11.8-5.3,11.8-11.8v-1.3l0,0c0,0,0-0.1,0-0.2V73   c0.1-1.8,0.3-4.1,1-6c1.1-3,5.8-7.6,5.8-7.6l-0.4,0.2l1.3-1.3C158.1,53.6,158.1,46.2,153.4,41.5z M141.6,31.4   c0.2,0.4,0.4,0.8,0.7,1.3c0.1,0.3,0.3,0.6,0.4,0.9c0.2,0.4,0.4,0.9,0.6,1.3c0.1,0.3,0.2,0.6,0.3,0.8c1.4,3.7,2.3,7.6,2.5,11.5   c-0.4-1.3-1.1-2.4-2.1-3.4l-3.3-3.3c-0.8-1-1.7-2.1-2.3-3.3c-1.1-2.3-1-7.5-1-7.5l0,0.1v-1.5c0-1.8-0.5-3.4-1.4-4.8   C138.2,25.9,140.1,28.5,141.6,31.4z M120.9,13.1c0.3,0.1,0.7,0.3,1,0.4c0.3,0.1,0.6,0.3,1,0.4c3.8,1.7,7.3,4,10.3,6.7   c-1.4-0.9-3-1.4-4.8-1.4h-3.9c-1.3-0.1-3-0.3-4.4-0.8c-1.7-0.6-4.1-2.8-5.3-3.9l-1.6-1.6c-1.2-1.2-2.8-2-4.4-2.4   C112.9,10.8,117,11.6,120.9,13.1z M90.8,13.9c0.3-0.1,0.6-0.2,0.8-0.4c0.4-0.2,0.9-0.4,1.3-0.5c0.3-0.1,0.6-0.2,0.9-0.3   c0.5-0.2,0.9-0.3,1.4-0.4c3.1-1,6.3-1.5,9.5-1.7c-1.6,0.4-3.1,1.2-4.4,2.4l-1.1,1.1l0.1-0.2c0,0-2.7,3.1-5.4,4.3   c-2.3,1.1-7.5,1-7.5,1l0,0h-1.7c-1.4,0-2.7,0.3-3.9,0.9C83.8,17.6,87.2,15.5,90.8,13.9z M70.9,33.7c0.2-0.4,0.4-0.8,0.6-1.2   c0.2-0.3,0.4-0.7,0.5-1c1.4-2.7,3.2-5.2,5.1-7.4c-0.6,1.2-0.9,2.5-0.9,3.9V30L76,29.7c0,0,0.3,4-0.8,6.9c-0.9,2.4-4.6,6-4.6,6   l0.3-0.1l-1.3,1.3c-1,1-1.7,2.2-2.1,3.4c0.2-3,0.7-6,1.6-8.9c0.1-0.4,0.2-0.7,0.4-1.1c0.1-0.4,0.3-0.8,0.4-1.2   c0.1-0.4,0.3-0.8,0.5-1.1C70.5,34.4,70.7,34.1,70.9,33.7z M72,68.3c-0.2-0.3-0.4-0.7-0.5-1c-0.2-0.4-0.4-0.8-0.6-1.2   c-0.2-0.4-0.3-0.8-0.5-1.1c-0.2-0.4-0.3-0.8-0.5-1.1c-0.2-0.4-0.3-0.8-0.4-1.2c-0.1-0.4-0.2-0.7-0.4-1.1c-0.9-2.9-1.4-5.9-1.6-8.9   c0.4,1.3,1.1,2.4,2.1,3.4l1.5,1.5l-0.4-0.2c0,0,3.1,2.7,4.3,5.4c1.1,2.3,1,7.5,1,7.5l0.2-0.5v2.1c0,1.4,0.3,2.7,0.9,3.9   C75.1,73.5,73.4,71,72,68.3z M95.2,87.6c-0.4-0.1-0.7-0.2-1.1-0.4c-0.4-0.1-0.8-0.3-1.2-0.4c-0.4-0.1-0.8-0.3-1.2-0.5   c-0.4-0.2-0.8-0.3-1.1-0.5c-0.4-0.2-0.8-0.4-1.2-0.6c-0.3-0.2-0.7-0.3-1-0.5c-2.7-1.4-5.2-3.1-7.4-5.1c1.2,0.6,2.5,0.9,3.9,0.9h2   l-0.4,0.2c0,0,4-0.3,6.9,0.8c2.4,0.9,6,4.6,6,4.6L99,85.5l1.7,1.7c1,1,2.2,1.7,3.4,2.1C101.1,89,98.1,88.5,95.2,87.6z M125.2,84.7   c-0.3,0.2-0.7,0.4-1,0.5c-0.4,0.2-0.8,0.4-1.2,0.6c-0.4,0.2-0.8,0.3-1.1,0.5c-0.4,0.2-0.8,0.3-1.2,0.5c-0.4,0.2-0.8,0.3-1.2,0.4   c-0.4,0.1-0.7,0.2-1.1,0.4c-2.9,0.9-5.9,1.4-8.9,1.6c1.2-0.4,2.4-1.1,3.4-2.1l1.3-1.3l-0.1,0.2c0,0,2.7-3.1,5.4-4.3   c2.3-1.1,7.5-1,7.5-1l-0.6-0.2h2.3c1.4,0,2.7-0.3,3.9-0.9C130.4,81.6,127.9,83.3,125.2,84.7z M134.7,63.6c-0.1,0.3-0.3,0.5-0.4,0.8   c-2.9,5.5-7.4,10-12.9,12.9c-0.3,0.1-0.5,0.3-0.8,0.4c-0.3,0.2-0.6,0.3-0.9,0.4c-0.3,0.1-0.6,0.3-0.9,0.4c-0.3,0.1-0.6,0.2-0.9,0.4   c-0.3,0.1-0.6,0.2-1,0.4c-0.3,0.1-0.6,0.2-0.9,0.3c-5.9,1.8-12.3,1.8-18.3,0c-0.3-0.1-0.6-0.2-0.9-0.3c-0.3-0.1-0.7-0.2-1-0.4   c-0.3-0.1-0.6-0.2-0.9-0.4c-0.3-0.1-0.6-0.3-0.9-0.4c-0.3-0.1-0.6-0.3-0.9-0.4c0,0-0.1,0-0.1-0.1c-6-3-11-7.9-14-14   c0,0,0-0.1-0.1-0.1c-0.2-0.3-0.3-0.6-0.4-0.9c-0.1-0.3-0.3-0.6-0.4-0.9c-0.1-0.3-0.2-0.6-0.4-0.9c-0.1-0.3-0.2-0.7-0.4-1   c-0.1-0.3-0.2-0.6-0.3-0.9c-1.8-5.9-1.8-12.3,0-18.3c0.1-0.3,0.2-0.6,0.3-0.9c0.1-0.3,0.2-0.7,0.4-1c0.1-0.3,0.2-0.6,0.4-0.9   c0.1-0.3,0.3-0.6,0.4-0.9c0.1-0.3,0.3-0.6,0.4-0.9c0.1-0.3,0.3-0.5,0.4-0.8c3.2-6.1,8.5-11,14.9-13.9c0.2-0.1,0.4-0.2,0.7-0.3   c0.3-0.1,0.7-0.3,1.1-0.4c0.2-0.1,0.5-0.2,0.7-0.3c0.4-0.1,0.7-0.2,1.1-0.3c6.6-2,13.7-1.8,20.2,0.7c0.3,0.1,0.5,0.2,0.8,0.3   c0.3,0.1,0.5,0.2,0.8,0.3c6.3,2.8,11.5,7.7,14.8,13.8c0.2,0.3,0.3,0.7,0.5,1c0.1,0.2,0.2,0.5,0.3,0.7c0.2,0.3,0.3,0.7,0.5,1   c0.1,0.2,0.2,0.4,0.3,0.7c2.5,6.5,2.7,13.7,0.7,20.3c-0.1,0.3-0.2,0.6-0.3,0.9c-0.1,0.3-0.2,0.6-0.4,1c-0.1,0.3-0.2,0.6-0.4,0.9   c-0.1,0.3-0.3,0.6-0.4,0.9C135,63,134.8,63.3,134.7,63.6z M142.2,67.3c-0.2,0.3-0.4,0.7-0.5,1c-1.4,2.7-3.1,5.2-5.1,7.4   c0.6-1.2,0.9-2.5,0.9-3.9v-1.6l0,0c0,0,0,0,0,0v-2.3c0.1-1.4,0.3-3.1,0.8-4.5c0.9-2.4,4.6-6,4.6-6l-0.3,0.2L144,56   c1-1,1.7-2.2,2.1-3.4c-0.2,3-0.7,6-1.6,8.9c-0.1,0.4-0.2,0.7-0.4,1.1c-0.1,0.4-0.3,0.8-0.4,1.2c-0.1,0.4-0.3,0.8-0.5,1.1   c-0.2,0.4-0.3,0.8-0.5,1.1C142.5,66.5,142.4,66.9,142.2,67.3z"
   id="path9" />
	<g
   id="g17">
		<path
   class="st1"
   d="M187.4,37.3H177V25h34.9v12.4h-10.3V75h-14.3V37.3z"
   id="path11"
   style="fill:#1225b0;fill-opacity:1" />
		<path
   class="st1"
   d="M218.1,25h14.2V75h-14.2V25z"
   id="path13"
   style="fill:#1225b0;fill-opacity:1" />
		<path
   class="st1"
   d="M239.4,25h21.7c11.5,0,17.2,7.9,17.2,17c0,9-5.7,16.7-17.2,16.7h-7.5V75h-14.2V25z M259.4,37h-5.8v9.5h5.8    c2.6,0,4.5-1.8,4.5-4.8C263.9,38.8,262,37,259.4,37z"
   id="path15"
   style="fill:#1225b0;fill-opacity:1" />
	</g>
</g>
</svg>
