<?xml version="1.0" encoding="utf-8"?>
<!-- Generator: Adobe Illustrator 19.0.0, SVG Export Plug-In . SVG Version: 6.00 Build 0)  -->
<svg version="1.1" id="layer" xmlns="http://www.w3.org/2000/svg" xmlns:xlink="http://www.w3.org/1999/xlink" x="0px" y="0px"
	 viewBox="-153 -46 652 652" style="enable-background:new -153 -46 652 652;" xml:space="preserve">
<style type="text/css">
	.st0{fill:#009FE4;}
	.st1{fill:#004388;}
</style>
<path class="st0" d="M473.9,279.9c0-85.8-69.6-155.7-155.3-156.2c-0.2,0-0.3,0-0.5,0h-50.7c-8.7,0-15.8,7.1-15.8,15.8
	s7.1,15.8,15.8,15.8h50.2c68.7,0,124.5,55.9,124.5,124.5c0,68.7-55.9,124.5-124.5,124.5H144.4v-29h-31.7v60.6h205.4v0
	C404.1,435.9,473.9,365.9,473.9,279.9 M-126.1,279.9c0,85.8,69.6,155.7,155.3,156.2c0.2,0,0.3,0,0.5,0h50.7
	c8.7,0,15.8-7.1,15.8-15.8c0-8.7-7.1-15.8-15.8-15.8H30.1c-68.7,0-124.5-55.9-124.5-124.5c0-68.7,55.9-124.5,124.5-124.5h173.3v29
	h31.7v-60.6H29.7v0C-56.3,124-126.1,193.9-126.1,279.9"/>
<path class="st1" d="M35.6,293.8L6,215.4h-35.8l51.5,128.8h24.8l53.1-128.8H65.7L35.6,293.8z M203.4,297.4l-50.1-82h-40.6v128.8
	h31.6v-84.1l51.5,84.1H235V215.4h-31.6V297.4z M325.6,266.1v29.5H348v16.9c-2.9,1.4-5.9,2.5-8.9,3.4c-4.1,1.3-9.1,1.9-14.9,1.9
	c-5.6,0-10.7-0.9-15.1-2.8c-4.4-1.8-8.3-4.5-11.5-7.9c-3.3-3.4-5.8-7.5-7.4-12c-1.7-4.6-2.6-9.8-2.6-15.4c0-5.5,0.9-10.6,2.6-15.3
	c1.6-4.5,4.1-8.6,7.4-12.1c3.3-3.4,7.2-6.1,11.5-7.9c4.5-1.9,9.6-2.8,15.1-2.8c6.7,0,12.4,1,16.8,2.8c4.4,1.9,8.5,4.7,12,8.3
	l1.5,1.6l22.2-24.3l-1.5-1.4c-6.5-6-14.4-10.5-22.9-12.9c-8.5-2.4-18-3.7-28.1-3.7c-9.9,0-19.2,1.6-27.7,4.7
	c-8.2,3-15.7,7.6-22,13.6c-6.2,5.9-11,13.1-14.5,21.4c-3.4,8.3-5.2,17.7-5.2,27.9c0,10.2,1.7,19.6,5.2,27.9
	c3.4,8.3,8.3,15.5,14.5,21.4c6.2,5.9,13.6,10.4,22,13.6c8.4,3.1,17.7,4.7,27.7,4.7c9.3,0,18.5-1,27.4-2.9c9-1.9,17.7-5.1,25.9-9.3
	l1.1-0.6v-68.5L325.6,266.1L325.6,266.1z"/>
</svg>
