<svg width="1280" height="720" xmlns="http://www.w3.org/2000/svg" xmlns:xlink="http://www.w3.org/1999/xlink" overflow="hidden"><defs><linearGradient x1="753" y1="331.5" x2="753" y2="372.414" gradientUnits="userSpaceOnUse" spreadMethod="reflect" id="fill0"><stop offset="0" stop-color="#9B9B9B"/><stop offset="0.5" stop-color="#8E8E8E"/><stop offset="1" stop-color="#797979"/></linearGradient><linearGradient x1="623.5" y1="337.5" x2="623.5" y2="371.067" gradientUnits="userSpaceOnUse" spreadMethod="reflect" id="fill1"><stop offset="0" stop-color="#9B9B9B"/><stop offset="0.5" stop-color="#8E8E8E"/><stop offset="1" stop-color="#797979"/></linearGradient><linearGradient x1="684.5" y1="334.5" x2="684.5" y2="375.414" gradientUnits="userSpaceOnUse" spreadMethod="reflect" id="fill2"><stop offset="0" stop-color="#9B9B9B"/><stop offset="0.5" stop-color="#8E8E8E"/><stop offset="1" stop-color="#797979"/></linearGradient><linearGradient x1="43.5001" y1="640.5" x2="43.5001" y2="662.22" gradientUnits="userSpaceOnUse" spreadMethod="reflect" id="fill3"><stop offset="0" stop-color="#9B9B9B"/><stop offset="0.5" stop-color="#8E8E8E"/><stop offset="1" stop-color="#797979"/></linearGradient></defs><g><rect x="0" y="0" width="1280" height="720" fill="#FFFFFF"/><path d="M454.5 51.6674C454.5 36.111 467.111 23.5001 482.667 23.5001L729.333 23.5001C744.889 23.5001 757.5 36.111 757.5 51.6674L757.5 164.333C757.5 179.889 744.889 192.5 729.333 192.5L482.667 192.5C467.111 192.5 454.5 179.889 454.5 164.333Z" stroke="#2F528F" stroke-width="1.33333" stroke-miterlimit="8" fill="#8FAADC" fill-rule="evenodd"/><text fill="#FFFFFF" font-family="Calibri,Calibri_MSFontService,sans-serif" font-weight="400" font-size="24" transform="translate(521.054 101)">Stichting Alkemio</text><text fill="#FFFFFF" font-family="Calibri,Calibri_MSFontService,sans-serif" font-weight="400" font-size="24" transform="translate(554.594 130)">(</text><text fill="#FFFFFF" font-family="Calibri,Calibri_MSFontService,sans-serif" font-weight="400" font-size="24" transform="translate(561.927 130)">stewards)</text><path d="M407.5 320.167C407.5 301.573 422.573 286.5 441.167 286.5L759.833 286.5C778.427 286.5 793.5 301.573 793.5 320.167L793.5 454.833C793.5 473.427 778.427 488.5 759.833 488.5L441.167 488.5C422.573 488.5 407.5 473.427 407.5 454.833Z" stroke="#2F528F" stroke-width="1.33333" stroke-miterlimit="8" fill="#8FAADC" fill-rule="evenodd"/><text fill="#FFFFFF" font-family="Calibri,Calibri_MSFontService,sans-serif" font-weight="400" font-size="24" transform="translate(504.226 394)">Alkemio Holding BV</text><path d="M0.333333-3.51308e-07 0.333431 92.9485-0.333235 92.9485-0.333333 3.51308e-07ZM4.0001 91.6151 0.000104987 99.6151-3.9999 91.6151Z" fill="#4472C4" transform="matrix(1 0 0 -1 584.5 292.115)"/><path d="M893.5 203C893.5 193.887 900.888 186.5 910 186.5L1098 186.5C1107.11 186.5 1114.5 193.887 1114.5 203L1114.5 269C1114.5 278.113 1107.11 285.5 1098 285.5L910 285.5C900.888 285.5 893.5 278.113 893.5 269Z" stroke="#2F528F" stroke-width="1.33333" stroke-miterlimit="8" fill="#8FAADC" fill-rule="evenodd"/><text fill="#FFFFFF" font-family="Calibri,Calibri_MSFontService,sans-serif" font-weight="400" font-size="24" transform="translate(937.686 228)">Alkemio STAK</text><text fill="#FFFFFF" font-family="Calibri,Calibri_MSFontService,sans-serif" font-weight="400" font-size="24" transform="translate(937.486 257)">(certification)</text><path d="M688.167 334.333 688.167 235.167 886.535 235.167 886.535 235.833 688.5 235.833 688.833 235.5 688.833 334.333ZM885.202 231.5 893.202 235.5 885.202 239.5Z" fill="#4472C4"/><path d="M469.5 570.667C469.5 558.425 479.425 548.5 491.667 548.5L709.333 548.5C721.576 548.5 731.5 558.425 731.5 570.667L731.5 659.333C731.5 671.576 721.576 681.5 709.333 681.5L491.667 681.5C479.425 681.5 469.5 671.576 469.5 659.333Z" stroke="#2F528F" stroke-width="1.33333" stroke-miterlimit="8" fill="#8FAADC" fill-rule="evenodd"/><text fill="#FFFFFF" font-family="Calibri,Calibri_MSFontService,sans-serif" font-weight="400" font-size="24" transform="translate(544.826 622)">Alkemio BV</text><path d="M0-0.333333 30.5028-0.333333 30.5028 0.183307 30.1694-0.150026 53.6721-0.150026 53.6721 0.51664 29.8361 0.51664 29.8361 0 30.1694 0.333333 0 0.333333ZM52.3388-3.81669 60.3388 0.183307 52.3388 4.18331Z" fill="#4472C4" transform="matrix(1.83697e-16 1 1 -1.83697e-16 600.5 488.5)"/><path d="M87.5001 201.834C87.5001 193.365 94.3651 186.5 102.834 186.5L331.167 186.5C339.635 186.5 346.5 193.365 346.5 201.834L346.5 263.167C346.5 271.635 339.635 278.5 331.167 278.5L102.834 278.5C94.3651 278.5 87.5001 271.635 87.5001 263.167Z" stroke="#2F528F" stroke-width="1.33333" stroke-miterlimit="8" fill="#BF9000" fill-rule="evenodd"/><text fill="#FFFFFF" font-family="Calibri,Calibri_MSFontService,sans-serif" font-weight="400" font-size="24" transform="translate(113.333 225)">Stichting de</text><text fill="#FFFFFF" font-family="Calibri,Calibri_MSFontService,sans-serif" font-weight="400" font-size="24" transform="translate(233.613 225)">Prioriteit</text><text fill="#FFFFFF" font-family="Calibri,Calibri_MSFontService,sans-serif" font-weight="400" font-size="24" transform="translate(169.2 254)">(external)</text><path d="M505.512 309.325 425.672 309.325 425.672 232.5 426.006 232.833 353.167 232.833 353.167 232.167 426.339 232.167 426.339 308.991 426.006 308.658 505.512 308.658ZM354.5 236.5 346.5 232.5 354.5 228.5Z" fill="#4472C4"/><path d="M846.5 510C846.5 490.946 881.198 475.5 924 475.5 966.802 475.5 1001.5 490.946 1001.5 510 1001.5 529.054 966.802 544.5 924 544.5 881.198 544.5 846.5 529.054 846.5 510Z" stroke="#507E32" stroke-width="1.33333" stroke-miterlimit="8" fill="#70AD47" fill-rule="evenodd"/><text fill="#FFFFFF" font-family="Calibri,Calibri_MSFontService,sans-serif" font-weight="400" font-size="21" transform="translate(886.935 517)">Backer 1</text><path d="M862.5 526C862.5 506.946 897.198 491.5 940 491.5 982.802 491.5 1017.5 506.946 1017.5 526 1017.5 545.054 982.802 560.5 940 560.5 897.198 560.5 862.5 545.054 862.5 526Z" stroke="#507E32" stroke-width="1.33333" stroke-miterlimit="8" fill="#70AD47" fill-rule="evenodd"/><text fill="#FFFFFF" font-family="Calibri,Calibri_MSFontService,sans-serif" font-weight="400" font-size="21" transform="translate(902.935 533)">Backer 1</text><path d="M878.5 545C878.5 525.946 913.198 510.5 956 510.5 998.802 510.5 1033.5 525.946 1033.5 545 1033.5 564.054 998.802 579.5 956 579.5 913.198 579.5 878.5 564.054 878.5 545Z" stroke="#507E32" stroke-width="1.33333" stroke-miterlimit="8" fill="#70AD47" fill-rule="evenodd"/><text fill="#FFFFFF" font-family="Calibri,Calibri_MSFontService,sans-serif" font-weight="400" font-size="19" transform="translate(911.351 539)">Contributor</text><text fill="#FFFFFF" font-family="Calibri,Calibri_MSFontService,sans-serif" font-weight="400" font-size="19" transform="translate(922.451 562)">Capital</text><text fill="#FFFFFF" font-family="Calibri,Calibri_MSFontService,sans-serif" font-weight="400" font-size="19" transform="translate(979.225 562)">n</text><path d="M0-0.333333 56.3132-0.333333 56.3132 163.029 55.6465 163.029 55.6465 0 55.9798 0.333333 0 0.333333ZM59.9798 161.696 55.9798 169.696 51.9798 161.696Z" fill="#4472C4" transform="matrix(1.83697e-16 1 1 -1.83697e-16 677.5 453.5)"/><path d="M1074.5 488.167C1074.5 482.276 1079.28 477.5 1085.17 477.5L1197.83 477.5C1203.72 477.5 1208.5 482.276 1208.5 488.167L1208.5 530.833C1208.5 536.724 1203.72 541.5 1197.83 541.5L1085.17 541.5C1079.28 541.5 1074.5 536.724 1074.5 530.833Z" stroke="#507E32" stroke-width="1.33333" stroke-miterlimit="8" fill="#70AD47" fill-rule="evenodd"/><path d="M1090.5 504.167C1090.5 498.276 1095.28 493.5 1101.17 493.5L1213.83 493.5C1219.72 493.5 1224.5 498.276 1224.5 504.167L1224.5 546.833C1224.5 552.724 1219.72 557.5 1213.83 557.5L1101.17 557.5C1095.28 557.5 1090.5 552.724 1090.5 546.833Z" stroke="#507E32" stroke-width="1.33333" stroke-miterlimit="8" fill="#70AD47" fill-rule="evenodd"/><path d="M1106.5 520.167C1106.5 514.276 1111.28 509.5 1117.17 509.5L1229.83 509.5C1235.72 509.5 1240.5 514.276 1240.5 520.167L1240.5 562.833C1240.5 568.724 1235.72 573.5 1229.83 573.5L1117.17 573.5C1111.28 573.5 1106.5 568.724 1106.5 562.833Z" stroke="#507E32" stroke-width="1.33333" stroke-miterlimit="8" fill="#70AD47" fill-rule="evenodd"/><text fill="#FFFFFF" font-family="Calibri,Calibri_MSFontService,sans-serif" font-weight="400" font-size="19" transform="translate(1128.53 536)">Contributor</text><text fill="#FFFFFF" font-family="Calibri,Calibri_MSFontService,sans-serif" font-weight="400" font-size="19" transform="translate(1147.11 559)">Time</text><text fill="#FFFFFF" font-family="Calibri,Calibri_MSFontService,sans-serif" font-weight="400" font-size="19" transform="translate(1188.94 559)">n</text><path d="M723.5 370.947C748.897 376.186 748.897 365.708 774.292 365.708L774.292 338.476 723.5 338.476ZM727.685 338.476 727.685 334.945 778.13 334.945 778.13 362.349C776.212 362.349 774.292 362.539 774.292 362.539L774.292 338.476ZM731.618 334.945 731.618 331.5 782.5 331.5 782.5 358.818C780.315 358.818 778.13 358.961 778.13 358.961L778.13 334.945Z" fill="url(#fill0)" fill-rule="evenodd"/><path d="M723.5 338.476 774.292 338.476 774.292 365.708C748.897 365.708 748.897 376.186 723.5 370.947ZM727.685 338.476 727.685 334.945 778.13 334.945 778.13 362.349C776.212 362.349 774.292 362.539 774.292 362.539M731.618 334.945 731.618 331.5 782.5 331.5 782.5 358.818C780.315 358.818 778.13 358.961 778.13 358.961" stroke="#000000" stroke-width="0.666667" stroke-miterlimit="8" fill="none" fill-rule="evenodd"/><text font-family="Calibri,Calibri_MSFontService,sans-serif" font-weight="400" font-size="19" transform="translate(738.798 360)">CT</text><path d="M505.5 291.5 548.5 291.5 548.5 319.568C527 319.568 527 330.263 505.5 324.186Z" stroke="#6C4F00" stroke-width="1.33333" stroke-miterlimit="8" fill="#FFC000" fill-rule="evenodd"/><text font-family="Calibri,Calibri_MSFontService,sans-serif" font-weight="400" font-size="21" transform="translate(515.547 312)">PC</text><path d="M562.5 292.5 606.5 292.5 606.5 319.766C584.5 319.766 584.5 330.155 562.5 324.252Z" stroke="#6C4F00" stroke-width="1.33333" stroke-miterlimit="8" fill="#FFC000" fill-rule="evenodd"/><text font-family="Calibri,Calibri_MSFontService,sans-serif" font-weight="400" font-size="21" transform="translate(573.377 313)">S</text><text font-family="Calibri,Calibri_MSFontService,sans-serif" font-weight="400" font-size="21" transform="translate(583.21 313)">C</text><path d="M601.5 337.5 645.5 337.5 645.5 364.766C623.5 364.766 623.5 375.155 601.5 369.252Z" stroke="#000000" stroke-width="0.666667" stroke-miterlimit="8" fill="url(#fill1)" fill-rule="evenodd"/><text font-family="Calibri,Calibri_MSFontService,sans-serif" font-weight="400" font-size="21" transform="translate(612.815 358)">SE</text><path d="M651.5 453.947C676.897 459.186 676.897 448.708 702.292 448.708L702.292 421.476 651.5 421.476ZM655.685 421.476 655.685 417.945 706.13 417.945 706.13 445.349C704.212 445.349 702.292 445.539 702.292 445.539L702.292 421.476ZM659.618 417.945 659.618 414.5 710.5 414.5 710.5 441.818C708.315 441.818 706.13 441.961 706.13 441.961L706.13 417.945Z" fill="#D9D9D9" fill-rule="evenodd"/><path d="M651.5 421.476 702.292 421.476 702.292 448.708C676.897 448.708 676.897 459.186 651.5 453.947ZM655.685 421.476 655.685 417.945 706.13 417.945 706.13 445.349C704.212 445.349 702.292 445.539 702.292 445.539M659.618 417.945 659.618 414.5 710.5 414.5 710.5 441.818C708.315 441.818 706.13 441.961 706.13 441.961" stroke="#000000" stroke-width="0.666667" stroke-miterlimit="8" stroke-dasharray="2.66667 2" fill="none" fill-rule="evenodd"/><text font-family="Calibri,Calibri_MSFontService,sans-serif" font-weight="400" font-size="21" transform="translate(665.219 444)">CC</text><path d="M654.5 373.947C680.328 379.186 680.328 368.708 706.153 368.708L706.153 341.476 654.5 341.476ZM658.756 341.476 658.756 337.945 710.056 337.945 710.056 365.349C708.106 365.349 706.153 365.539 706.153 365.539L706.153 341.476ZM662.756 337.945 662.756 334.5 714.5 334.5 714.5 361.818C712.278 361.818 710.056 361.961 710.056 361.961L710.056 337.945Z" fill="url(#fill2)" fill-rule="evenodd"/><path d="M654.5 341.476 706.153 341.476 706.153 368.708C680.328 368.708 680.328 379.186 654.5 373.947ZM658.756 341.476 658.756 337.945 710.056 337.945 710.056 365.349C708.106 365.349 706.153 365.539 706.153 365.539M662.756 337.945 662.756 334.5 714.5 334.5 714.5 361.818C712.278 361.818 710.056 361.961 710.056 361.961" stroke="#000000" stroke-width="0.666667" stroke-miterlimit="8" fill="none" fill-rule="evenodd"/><text font-family="Calibri,Calibri_MSFontService,sans-serif" font-weight="400" font-size="21" transform="translate(668.424 364)">C</text><text font-family="Calibri,Calibri_MSFontService,sans-serif" font-weight="400" font-size="21" transform="translate(679.757 364)">C</text><path d="M0.333333-2.41916e-07 0.333433 137.994-0.333233 137.994-0.333333 2.41916e-07ZM4.0001 136.66 0.000104987 144.66-3.9999 136.66Z" fill="#4472C4" transform="matrix(1 0 0 -1 623.5 337.161)"/><path d="M757.167 331.07 757.167 235.167 886.864 235.167 886.864 235.833 757.5 235.833 757.833 235.5 757.833 331.07ZM885.531 231.5 893.531 235.5 885.531 239.5Z" fill="#4472C4"/><path d="M721.5 450.985C746.897 456.096 746.897 445.874 772.292 445.874L772.292 419.306 721.5 419.306ZM725.685 419.306 725.685 415.861 776.13 415.861 776.13 442.596C774.212 442.596 772.292 442.782 772.292 442.782L772.292 419.306ZM729.618 415.861 729.618 412.5 780.5 412.5 780.5 439.152C778.315 439.152 776.13 439.291 776.13 439.291L776.13 415.861Z" fill="#D9D9D9" fill-rule="evenodd"/><path d="M721.5 419.306 772.292 419.306 772.292 445.874C746.897 445.874 746.897 456.096 721.5 450.985ZM725.685 419.306 725.685 415.861 776.13 415.861 776.13 442.596C774.212 442.596 772.292 442.782 772.292 442.782M729.618 415.861 729.618 412.5 780.5 412.5 780.5 439.152C778.315 439.152 776.13 439.291 776.13 439.291" stroke="#000000" stroke-width="0.666667" stroke-miterlimit="8" stroke-dasharray="2.66667 2" fill="none" fill-rule="evenodd"/><text font-family="Calibri,Calibri_MSFontService,sans-serif" font-weight="400" font-size="21" transform="translate(735.515 442)">C</text><text font-family="Calibri,Calibri_MSFontService,sans-serif" font-weight="400" font-size="21" transform="translate(746.955 442)">T</text><path d="M780.5 432.167 1040.55 432.167 1040.55 509.997 1040.22 509.663 1067.39 509.663 1067.39 510.33 1039.89 510.33 1039.89 432.5 1040.22 432.833 780.5 432.833ZM1066.06 505.997 1074.06 509.997 1066.06 513.997Z" fill="#4472C4"/><path d="M30.5001 604.5 56.5001 604.5 56.5001 622.143C43.5001 622.143 43.5001 628.865 30.5001 625.046Z" stroke="#6C4F00" stroke-width="1.33333" stroke-miterlimit="8" fill="#FFC000" fill-rule="evenodd"/><text font-family="Calibri,Calibri_MSFontService,sans-serif" font-weight="400" font-size="19" transform="translate(66.1324 618)">Share: voting, no economic</text><path d="M30.5001 674.5 56.5001 674.5 56.5001 693.747C43.5001 693.747 43.5001 701.08 30.5001 696.913Z" stroke="#000000" stroke-width="0.666667" stroke-miterlimit="8" stroke-dasharray="2.66667 2" fill="#D9D9D9" fill-rule="evenodd"/><text font-family="Calibri,Calibri_MSFontService,sans-serif" font-weight="400" font-size="19" transform="translate(67.2458 689)">Certificate</text><path d="M30.5001 640.5 56.5001 640.5 56.5001 658.143C43.5001 658.143 43.5001 664.865 30.5001 661.046Z" stroke="#000000" stroke-width="0.666667" stroke-miterlimit="8" fill="url(#fill3)" fill-rule="evenodd"/><text font-family="Calibri,Calibri_MSFontService,sans-serif" font-weight="400" font-size="19" transform="translate(66.1324 653)">Share: economic, no voting</text><rect x="13.5001" y="585.5" width="286" height="127" stroke="#172C51" stroke-width="1.33333" stroke-miterlimit="8" stroke-dasharray="5.33333 4" fill="none"/></g></svg>