<svg width="1280" height="720" xmlns="http://www.w3.org/2000/svg" xmlns:xlink="http://www.w3.org/1999/xlink" overflow="hidden"><defs><linearGradient x1="753" y1="304.5" x2="753" y2="345.414" gradientUnits="userSpaceOnUse" spreadMethod="reflect" id="fill0"><stop offset="0" stop-color="#9B9B9B"/><stop offset="0.5" stop-color="#8E8E8E"/><stop offset="1" stop-color="#797979"/></linearGradient><linearGradient x1="625.5" y1="286.5" x2="625.5" y2="320.067" gradientUnits="userSpaceOnUse" spreadMethod="reflect" id="fill1"><stop offset="0" stop-color="#9B9B9B"/><stop offset="0.5" stop-color="#8E8E8E"/><stop offset="1" stop-color="#797979"/></linearGradient><linearGradient x1="683" y1="303.5" x2="683" y2="344.414" gradientUnits="userSpaceOnUse" spreadMethod="reflect" id="fill2"><stop offset="0" stop-color="#9B9B9B"/><stop offset="0.5" stop-color="#8E8E8E"/><stop offset="1" stop-color="#797979"/></linearGradient><linearGradient x1="43.5001" y1="640.5" x2="43.5001" y2="662.22" gradientUnits="userSpaceOnUse" spreadMethod="reflect" id="fill3"><stop offset="0" stop-color="#9B9B9B"/><stop offset="0.5" stop-color="#8E8E8E"/><stop offset="1" stop-color="#797979"/></linearGradient></defs><g><rect x="0" y="0" width="1280" height="720" fill="#FFFFFF"/><path d="M454.5 51.6674C454.5 36.111 467.111 23.5001 482.667 23.5001L729.333 23.5001C744.889 23.5001 757.5 36.111 757.5 51.6674L757.5 164.333C757.5 179.889 744.889 192.5 729.333 192.5L482.667 192.5C467.111 192.5 454.5 179.889 454.5 164.333Z" stroke="#2F528F" stroke-width="1.33333" stroke-miterlimit="8" fill="#8FAADC" fill-rule="evenodd"/><text fill="#FFFFFF" font-family="Calibri,Calibri_MSFontService,sans-serif" font-weight="400" font-size="24" transform="translate(521.054 101)">Stichting Alkemio</text><text fill="#FFFFFF" font-family="Calibri,Calibri_MSFontService,sans-serif" font-weight="400" font-size="24" transform="translate(554.594 130)">(</text><text fill="#FFFFFF" font-family="Calibri,Calibri_MSFontService,sans-serif" font-weight="400" font-size="24" transform="translate(561.927 130)">stewards)</text><path d="M407 307.167C407 287.193 423.193 271 443.167 271L756.833 271C776.807 271 793 287.193 793 307.167L793 451.833C793 471.807 776.807 488 756.833 488L443.167 488C423.193 488 407 471.807 407 451.833Z" stroke="#2F528F" stroke-width="6" stroke-miterlimit="8" fill="#8FAADC" fill-rule="evenodd"/><text fill="#FFFFFF" font-family="Calibri,Calibri_MSFontService,sans-serif" font-weight="400" font-size="27" transform="translate(493.619 388)">Alkemio Holding BV</text><path d="M569.167 285.779 569.167 202.167 569.833 202.167 569.833 285.779ZM565.5 203.5 569.5 195.5 573.5 203.5Z" fill="#4472C4"/><path d="M893.5 200.667C893.5 192.843 899.843 186.5 907.667 186.5L1194.33 186.5C1202.16 186.5 1208.5 192.843 1208.5 200.667L1208.5 257.333C1208.5 265.157 1202.16 271.5 1194.33 271.5L907.667 271.5C899.843 271.5 893.5 265.157 893.5 257.333Z" stroke="#2F528F" stroke-width="1.33333" stroke-miterlimit="8" fill="#8FAADC" fill-rule="evenodd"/><text fill="#FFFFFF" font-family="Calibri,Calibri_MSFontService,sans-serif" font-weight="400" font-size="24" transform="translate(917.142 221)">STAK</text><text fill="#FFFFFF" font-family="Calibri,Calibri_MSFontService,sans-serif" font-weight="400" font-size="24" transform="translate(969.602 221)">Participanten</text><text fill="#FFFFFF" font-family="Calibri,Calibri_MSFontService,sans-serif" font-weight="400" font-size="24" transform="translate(1104.94 221)">Alkemio</text><text fill="#FFFFFF" font-family="Calibri,Calibri_MSFontService,sans-serif" font-weight="400" font-size="24" transform="translate(984.615 250)">(certification)</text><path d="M687.167 303.356 687.167 228.167 886.858 228.167 886.858 228.833 687.5 228.833 687.833 228.5 687.833 303.356ZM885.524 224.5 893.524 228.5 885.524 232.5Z" fill="#4472C4"/><path d="M469.5 570.667C469.5 558.425 479.425 548.5 491.667 548.5L709.333 548.5C721.576 548.5 731.5 558.425 731.5 570.667L731.5 659.333C731.5 671.576 721.576 681.5 709.333 681.5L491.667 681.5C479.425 681.5 469.5 671.576 469.5 659.333Z" stroke="#2F528F" stroke-width="1.33333" stroke-miterlimit="8" fill="#8FAADC" fill-rule="evenodd"/><text fill="#FFFFFF" font-family="Calibri,Calibri_MSFontService,sans-serif" font-weight="400" font-size="24" transform="translate(544.826 622)">Alkemio BV</text><path d="M0-0.333333 30.5028-0.333333 30.5028 0.183307 30.1694-0.150026 53.6721-0.150026 53.6721 0.51664 29.8361 0.51664 29.8361 0 30.1694 0.333333 0 0.333333ZM52.3388-3.81669 60.3388 0.183307 52.3388 4.18331Z" fill="#4472C4" transform="matrix(1.83697e-16 1 1 -1.83697e-16 600.5 488.5)"/><path d="M81.5001 203.834C81.5001 195.365 88.3651 188.5 96.8336 188.5L325.167 188.5C333.635 188.5 340.5 195.365 340.5 203.834L340.5 265.167C340.5 273.635 333.635 280.5 325.167 280.5L96.8336 280.5C88.3651 280.5 81.5001 273.635 81.5001 265.167Z" stroke="#2F528F" stroke-width="1.33333" stroke-miterlimit="8" fill="#BF9000" fill-rule="evenodd"/><text fill="#FFFFFF" font-family="Calibri,Calibri_MSFontService,sans-serif" font-weight="400" font-size="24" transform="translate(107.795 227)">Stichting de</text><text fill="#FFFFFF" font-family="Calibri,Calibri_MSFontService,sans-serif" font-weight="400" font-size="24" transform="translate(228.075 227)">Prioriteit</text><text fill="#FFFFFF" font-family="Calibri,Calibri_MSFontService,sans-serif" font-weight="400" font-size="24" transform="translate(140.915 256)">(</text><text fill="#FFFFFF" font-family="Calibri,Calibri_MSFontService,sans-serif" font-weight="400" font-size="24" transform="translate(148.248 256)">independent</text><text fill="#FFFFFF" font-family="Calibri,Calibri_MSFontService,sans-serif" font-weight="400" font-size="24" transform="translate(273.528 256)">)</text><path d="M486.353 321.242 413.093 321.242 413.093 234.5 413.426 234.833 347.167 234.833 347.167 234.167 413.76 234.167 413.76 320.909 413.426 320.575 486.353 320.575ZM348.5 238.5 340.5 234.5 348.5 230.5Z" fill="#4472C4"/><path d="M846.5 510C846.5 490.946 881.198 475.5 924 475.5 966.802 475.5 1001.5 490.946 1001.5 510 1001.5 529.054 966.802 544.5 924 544.5 881.198 544.5 846.5 529.054 846.5 510Z" stroke="#507E32" stroke-width="1.33333" stroke-miterlimit="8" fill="#70AD47" fill-rule="evenodd"/><text fill="#FFFFFF" font-family="Calibri,Calibri_MSFontService,sans-serif" font-weight="400" font-size="21" transform="translate(886.935 517)">Backer 1</text><path d="M862.5 526C862.5 506.946 897.198 491.5 940 491.5 982.802 491.5 1017.5 506.946 1017.5 526 1017.5 545.054 982.802 560.5 940 560.5 897.198 560.5 862.5 545.054 862.5 526Z" stroke="#507E32" stroke-width="1.33333" stroke-miterlimit="8" fill="#70AD47" fill-rule="evenodd"/><text fill="#FFFFFF" font-family="Calibri,Calibri_MSFontService,sans-serif" font-weight="400" font-size="21" transform="translate(902.935 533)">Backer 1</text><path d="M878.5 545C878.5 525.946 913.198 510.5 956 510.5 998.802 510.5 1033.5 525.946 1033.5 545 1033.5 564.054 998.802 579.5 956 579.5 913.198 579.5 878.5 564.054 878.5 545Z" stroke="#507E32" stroke-width="1.33333" stroke-miterlimit="8" fill="#70AD47" fill-rule="evenodd"/><text fill="#FFFFFF" font-family="Calibri,Calibri_MSFontService,sans-serif" font-weight="400" font-size="19" transform="translate(911.351 539)">Contributor</text><text fill="#FFFFFF" font-family="Calibri,Calibri_MSFontService,sans-serif" font-weight="400" font-size="19" transform="translate(929.451 562)">Capital</text><path d="M0-0.333333 56.3132-0.333333 56.3132 163.029 55.6465 163.029 55.6465 0 55.9798 0.333333 0 0.333333ZM59.9798 161.696 55.9798 169.696 51.9798 161.696Z" fill="#4472C4" transform="matrix(1.83697e-16 1 1 -1.83697e-16 677.5 453.5)"/><path d="M1074.5 488.167C1074.5 482.276 1079.28 477.5 1085.17 477.5L1197.83 477.5C1203.72 477.5 1208.5 482.276 1208.5 488.167L1208.5 530.833C1208.5 536.724 1203.72 541.5 1197.83 541.5L1085.17 541.5C1079.28 541.5 1074.5 536.724 1074.5 530.833Z" stroke="#507E32" stroke-width="1.33333" stroke-miterlimit="8" fill="#70AD47" fill-rule="evenodd"/><path d="M1090.5 504.167C1090.5 498.276 1095.28 493.5 1101.17 493.5L1213.83 493.5C1219.72 493.5 1224.5 498.276 1224.5 504.167L1224.5 546.833C1224.5 552.724 1219.72 557.5 1213.83 557.5L1101.17 557.5C1095.28 557.5 1090.5 552.724 1090.5 546.833Z" stroke="#507E32" stroke-width="1.33333" stroke-miterlimit="8" fill="#70AD47" fill-rule="evenodd"/><path d="M1106.5 520.167C1106.5 514.276 1111.28 509.5 1117.17 509.5L1229.83 509.5C1235.72 509.5 1240.5 514.276 1240.5 520.167L1240.5 562.833C1240.5 568.724 1235.72 573.5 1229.83 573.5L1117.17 573.5C1111.28 573.5 1106.5 568.724 1106.5 562.833Z" stroke="#507E32" stroke-width="1.33333" stroke-miterlimit="8" fill="#70AD47" fill-rule="evenodd"/><text fill="#FFFFFF" font-family="Calibri,Calibri_MSFontService,sans-serif" font-weight="400" font-size="19" transform="translate(1128.53 536)">Contributor</text><text fill="#FFFFFF" font-family="Calibri,Calibri_MSFontService,sans-serif" font-weight="400" font-size="19" transform="translate(1154.11 559)">Time</text><path d="M723.5 343.947C748.897 349.186 748.897 338.708 774.292 338.708L774.292 311.476 723.5 311.476ZM727.685 311.476 727.685 307.945 778.13 307.945 778.13 335.349C776.212 335.349 774.292 335.539 774.292 335.539L774.292 311.476ZM731.618 307.945 731.618 304.5 782.5 304.5 782.5 331.818C780.315 331.818 778.13 331.961 778.13 331.961L778.13 307.945Z" fill="url(#fill0)" fill-rule="evenodd"/><path d="M723.5 311.476 774.292 311.476 774.292 338.708C748.897 338.708 748.897 349.186 723.5 343.947ZM727.685 311.476 727.685 307.945 778.13 307.945 778.13 335.349C776.212 335.349 774.292 335.539 774.292 335.539M731.618 307.945 731.618 304.5 782.5 304.5 782.5 331.818C780.315 331.818 778.13 331.961 778.13 331.961" stroke="#000000" stroke-width="0.666667" stroke-miterlimit="8" fill="none" fill-rule="evenodd"/><text font-family="Calibri,Calibri_MSFontService,sans-serif" font-weight="400" font-size="19" transform="translate(739.029 333)">CT</text><path d="M486.5 303.5 530.5 303.5 530.5 330.766C508.5 330.766 508.5 341.155 486.5 335.252Z" stroke="#6C4F00" stroke-width="1.33333" stroke-miterlimit="8" fill="#FFC000" fill-rule="evenodd"/><text font-family="Calibri,Calibri_MSFontService,sans-serif" font-weight="400" font-size="21" transform="translate(496.85 324)">PC</text><path d="M547.5 285.5 590.5 285.5 590.5 312.766C569 312.766 569 323.155 547.5 317.252Z" stroke="#6C4F00" stroke-width="1.33333" stroke-miterlimit="8" fill="#FFC000" fill-rule="evenodd"/><text font-family="Calibri,Calibri_MSFontService,sans-serif" font-weight="400" font-size="21" transform="translate(558.182 306)">S</text><text font-family="Calibri,Calibri_MSFontService,sans-serif" font-weight="400" font-size="21" transform="translate(568.016 306)">C</text><path d="M603.5 286.5 647.5 286.5 647.5 313.766C625.5 313.766 625.5 324.155 603.5 318.252Z" stroke="#000000" stroke-width="0.666667" stroke-miterlimit="8" fill="url(#fill1)" fill-rule="evenodd"/><text font-family="Calibri,Calibri_MSFontService,sans-serif" font-weight="400" font-size="21" transform="translate(615.065 307)">SE</text><path d="M651.5 453.947C676.897 459.186 676.897 448.708 702.292 448.708L702.292 421.476 651.5 421.476ZM655.685 421.476 655.685 417.945 706.13 417.945 706.13 445.349C704.212 445.349 702.292 445.539 702.292 445.539L702.292 421.476ZM659.618 417.945 659.618 414.5 710.5 414.5 710.5 441.818C708.315 441.818 706.13 441.961 706.13 441.961L706.13 417.945Z" fill="#D9D9D9" fill-rule="evenodd"/><path d="M651.5 421.476 702.292 421.476 702.292 448.708C676.897 448.708 676.897 459.186 651.5 453.947ZM655.685 421.476 655.685 417.945 706.13 417.945 706.13 445.349C704.212 445.349 702.292 445.539 702.292 445.539M659.618 417.945 659.618 414.5 710.5 414.5 710.5 441.818C708.315 441.818 706.13 441.961 706.13 441.961" stroke="#000000" stroke-width="0.666667" stroke-miterlimit="8" stroke-dasharray="2.66667 2" fill="none" fill-rule="evenodd"/><text font-family="Calibri,Calibri_MSFontService,sans-serif" font-weight="400" font-size="21" transform="translate(665.219 444)">CC</text><path d="M653.5 342.947C678.897 348.186 678.897 337.708 704.292 337.708L704.292 310.476 653.5 310.476ZM657.685 310.476 657.685 306.945 708.13 306.945 708.13 334.349C706.212 334.349 704.292 334.539 704.292 334.539L704.292 310.476ZM661.618 306.945 661.618 303.5 712.5 303.5 712.5 330.818C710.315 330.818 708.13 330.961 708.13 330.961L708.13 306.945Z" fill="url(#fill2)" fill-rule="evenodd"/><path d="M653.5 310.476 704.292 310.476 704.292 337.708C678.897 337.708 678.897 348.186 653.5 342.947ZM657.685 310.476 657.685 306.945 708.13 306.945 708.13 334.349C706.212 334.349 704.292 334.539 704.292 334.539M661.618 306.945 661.618 303.5 712.5 303.5 712.5 330.818C710.315 330.818 708.13 330.961 708.13 330.961" stroke="#000000" stroke-width="0.666667" stroke-miterlimit="8" fill="none" fill-rule="evenodd"/><text font-family="Calibri,Calibri_MSFontService,sans-serif" font-weight="400" font-size="21" transform="translate(667.101 333)">C</text><text font-family="Calibri,Calibri_MSFontService,sans-serif" font-weight="400" font-size="21" transform="translate(678.435 333)">C</text><path d="M0.333333-3.86486e-07 0.333431 83.8817-0.333236 83.8817-0.333333 3.86486e-07ZM4.0001 82.5483 0.000104987 90.5483-3.9999 82.5483Z" fill="#4472C4" transform="matrix(1 0 0 -1 625.5 286.048)"/><path d="M757.167 304.51 757.167 228.167 886.633 228.167 886.633 228.833 757.5 228.833 757.833 228.5 757.833 304.51ZM885.3 224.5 893.3 228.5 885.3 232.5Z" fill="#4472C4"/><path d="M721.5 450.985C746.897 456.096 746.897 445.874 772.292 445.874L772.292 419.306 721.5 419.306ZM725.685 419.306 725.685 415.861 776.13 415.861 776.13 442.596C774.212 442.596 772.292 442.782 772.292 442.782L772.292 419.306ZM729.618 415.861 729.618 412.5 780.5 412.5 780.5 439.152C778.315 439.152 776.13 439.291 776.13 439.291L776.13 415.861Z" fill="#D9D9D9" fill-rule="evenodd"/><path d="M721.5 419.306 772.292 419.306 772.292 445.874C746.897 445.874 746.897 456.096 721.5 450.985ZM725.685 419.306 725.685 415.861 776.13 415.861 776.13 442.596C774.212 442.596 772.292 442.782 772.292 442.782M729.618 415.861 729.618 412.5 780.5 412.5 780.5 439.152C778.315 439.152 776.13 439.291 776.13 439.291" stroke="#000000" stroke-width="0.666667" stroke-miterlimit="8" stroke-dasharray="2.66667 2" fill="none" fill-rule="evenodd"/><text font-family="Calibri,Calibri_MSFontService,sans-serif" font-weight="400" font-size="21" transform="translate(735.515 442)">C</text><text font-family="Calibri,Calibri_MSFontService,sans-serif" font-weight="400" font-size="21" transform="translate(746.955 442)">T</text><path d="M780.5 432.167 1040.55 432.167 1040.55 509.997 1040.22 509.663 1067.39 509.663 1067.39 510.33 1039.89 510.33 1039.89 432.5 1040.22 432.833 780.5 432.833ZM1066.06 505.997 1074.06 509.997 1066.06 513.997Z" fill="#4472C4"/><path d="M30.5001 604.5 56.5001 604.5 56.5001 622.143C43.5001 622.143 43.5001 628.865 30.5001 625.046Z" stroke="#6C4F00" stroke-width="1.33333" stroke-miterlimit="8" fill="#FFC000" fill-rule="evenodd"/><text font-family="Calibri,Calibri_MSFontService,sans-serif" font-weight="400" font-size="19" transform="translate(66.1324 618)">Share: voting, no economic</text><path d="M30.5001 674.5 56.5001 674.5 56.5001 693.747C43.5001 693.747 43.5001 701.08 30.5001 696.913Z" stroke="#000000" stroke-width="0.666667" stroke-miterlimit="8" stroke-dasharray="2.66667 2" fill="#D9D9D9" fill-rule="evenodd"/><text font-family="Calibri,Calibri_MSFontService,sans-serif" font-weight="400" font-size="19" transform="translate(67.2458 689)">Certificate</text><path d="M30.5001 640.5 56.5001 640.5 56.5001 658.143C43.5001 658.143 43.5001 664.865 30.5001 661.046Z" stroke="#000000" stroke-width="0.666667" stroke-miterlimit="8" fill="url(#fill3)" fill-rule="evenodd"/><text font-family="Calibri,Calibri_MSFontService,sans-serif" font-weight="400" font-size="19" transform="translate(66.1324 653)">Share: economic, no voting</text><rect x="13.5001" y="585.5" width="286" height="127" stroke="#172C51" stroke-width="1.33333" stroke-miterlimit="8" stroke-dasharray="5.33333 4" fill="none"/></g></svg>