<?xml version="1.0" encoding="UTF-8"?>
<svg width="500px" height="49px" viewBox="0 0 700 69" version="1.1" xmlns="http://www.w3.org/2000/svg" xmlns:xlink="http://www.w3.org/1999/xlink">
    <!-- Generator: Sketch 58 (84663) - https://sketch.com -->
    <title>logo-digicampus</title>
    <desc>Created with Sketch.</desc>
    <defs>
        <linearGradient x1="49.843104%" y1="86.8589575%" x2="50.1848918%" y2="6.55347028%" id="linearGradient-1">
            <stop stop-color="#00A19A" offset="0%"></stop>
            <stop stop-color="#29235C" offset="100%"></stop>
        </linearGradient>
        <linearGradient x1="49.8802793%" y1="9.85998741%" x2="50.1081264%" y2="86.178692%" id="linearGradient-2">
            <stop stop-color="#00A19A" offset="0%"></stop>
            <stop stop-color="#29235C" offset="100%"></stop>
        </linearGradient>
        <linearGradient x1="41.8506551%" y1="87.5928344%" x2="74.7066442%" y2="-1.973664%" id="linearGradient-3">
            <stop stop-color="#00A19A" offset="0%"></stop>
            <stop stop-color="#29235C" offset="100%"></stop>
        </linearGradient>
        <linearGradient x1="59.8394265%" y1="111.220044%" x2="39.1974162%" y2="4.15892667%" id="linearGradient-4">
            <stop stop-color="#00A19A" offset="0%"></stop>
            <stop stop-color="#29235C" offset="100%"></stop>
        </linearGradient>
        <linearGradient x1="63.9948221%" y1="6.72098765%" x2="28.8303706%" y2="119.595556%" id="linearGradient-5">
            <stop stop-color="#00A19A" offset="0%"></stop>
            <stop stop-color="#29235C" offset="100%"></stop>
        </linearGradient>
        <linearGradient x1="56.7858408%" y1="26.1180886%" x2="40.6634102%" y2="102.696544%" id="linearGradient-6">
            <stop stop-color="#00A19A" offset="0%"></stop>
            <stop stop-color="#29235C" offset="100%"></stop>
        </linearGradient>
        <linearGradient x1="42.5443701%" y1="7.82811695%" x2="63.8060704%" y2="79.2107913%" id="linearGradient-7">
            <stop stop-color="#00A19A" offset="0%"></stop>
            <stop stop-color="#0E6D85" offset="38.4%"></stop>
            <stop stop-color="#29235C" offset="100%"></stop>
        </linearGradient>
        <linearGradient x1="42.6538506%" y1="92.6493677%" x2="54.8983293%" y2="-7.0205985%" id="linearGradient-8">
            <stop stop-color="#00A19A" offset="0%"></stop>
            <stop stop-color="#0E6D85" offset="38.4%"></stop>
            <stop stop-color="#29235C" offset="100%"></stop>
        </linearGradient>
        <linearGradient x1="-118.81742%" y1="55.0436681%" x2="171.898148%" y2="46.3502183%" id="linearGradient-9">
            <stop stop-color="#00A19A" offset="0%"></stop>
            <stop stop-color="#29235C" offset="100%"></stop>
        </linearGradient>
        <linearGradient x1="3.20314548%" y1="50.4097929%" x2="231.503932%" y2="48.3793903%" id="linearGradient-10">
            <stop stop-color="#00A19A" offset="0%"></stop>
            <stop stop-color="#29235C" offset="100%"></stop>
        </linearGradient>
        <linearGradient x1="-138.821234%" y1="59.3571429%" x2="282.484482%" y2="38.4453782%" id="linearGradient-11">
            <stop stop-color="#00A19A" offset="0%"></stop>
            <stop stop-color="#29235C" offset="100%"></stop>
        </linearGradient>
        <linearGradient x1="49.106793%" y1="88.0600358%" x2="52.902732%" y2="-72.4865591%" id="linearGradient-12">
            <stop stop-color="#00A19A" offset="0%"></stop>
            <stop stop-color="#29235C" offset="100%"></stop>
        </linearGradient>
        <linearGradient x1="42.7862129%" y1="171.212978%" x2="51.4720768%" y2="27.1474832%" id="linearGradient-13">
            <stop stop-color="#00A19A" offset="0%"></stop>
            <stop stop-color="#29235C" offset="100%"></stop>
        </linearGradient>
        <linearGradient x1="37.237395%" y1="173.823988%" x2="58.1512605%" y2="-34.9398701%" id="linearGradient-14">
            <stop stop-color="#00A19A" offset="0%"></stop>
            <stop stop-color="#29235C" offset="100%"></stop>
        </linearGradient>
        <linearGradient x1="9.68091845%" y1="50.0401747%" x2="106.881631%" y2="50.0401747%" id="linearGradient-15">
            <stop stop-color="#00A19A" offset="0%"></stop>
            <stop stop-color="#29235C" offset="100%"></stop>
        </linearGradient>
        <linearGradient x1="116.584873%" y1="49.4503928%" x2="-73.067552%" y2="51.0265352%" id="linearGradient-16">
            <stop stop-color="#00A19A" offset="0%"></stop>
            <stop stop-color="#29235C" offset="100%"></stop>
        </linearGradient>
        <linearGradient x1="252.197208%" y1="43.8490401%" x2="-34.4328098%" y2="52.534904%" id="linearGradient-17">
            <stop stop-color="#00A19A" offset="0%"></stop>
            <stop stop-color="#29235C" offset="100%"></stop>
        </linearGradient>
        <linearGradient x1="43.9061177%" y1="9.193122%" x2="56.3146303%" y2="139.625887%" id="linearGradient-18">
            <stop stop-color="#00A19A" offset="0%"></stop>
            <stop stop-color="#29235C" offset="100%"></stop>
        </linearGradient>
        <linearGradient x1="48.882455%" y1="90.6973967%" x2="52.2635333%" y2="-31.0389072%" id="linearGradient-19">
            <stop stop-color="#00A19A" offset="0%"></stop>
            <stop stop-color="#29235C" offset="100%"></stop>
        </linearGradient>
        <linearGradient x1="48.286423%" y1="163.258107%" x2="51.3675937%" y2="-40.3004598%" id="linearGradient-20">
            <stop stop-color="#00A19A" offset="0%"></stop>
            <stop stop-color="#29235C" offset="100%"></stop>
        </linearGradient>
        <linearGradient x1="227.60842%" y1="-111.098496%" x2="18.0722802%" y2="78.9743979%" id="linearGradient-21">
            <stop stop-color="#00A19A" offset="0%"></stop>
            <stop stop-color="#29235C" offset="100%"></stop>
        </linearGradient>
        <linearGradient x1="73.1068012%" y1="27.1229044%" x2="20.4733977%" y2="113.693426%" id="linearGradient-22">
            <stop stop-color="#00A19A" offset="0%"></stop>
            <stop stop-color="#29235C" offset="100%"></stop>
        </linearGradient>
        <linearGradient x1="18.0776115%" y1="50.8446783%" x2="207.567849%" y2="46.4676617%" id="linearGradient-23">
            <stop stop-color="#00A19A" offset="0%"></stop>
            <stop stop-color="#29235C" offset="100%"></stop>
        </linearGradient>
        <linearGradient x1="14.1644277%" y1="51.4173261%" x2="95.6509236%" y2="49.5438528%" id="linearGradient-24">
            <stop stop-color="#00A19A" offset="0%"></stop>
            <stop stop-color="#29235C" offset="100%"></stop>
        </linearGradient>
        <linearGradient x1="-1571.52632%" y1="64.8323927%" x2="26.5115789%" y2="49.9059005%" id="linearGradient-25">
            <stop stop-color="#00A19A" offset="0%"></stop>
            <stop stop-color="#29235C" offset="100%"></stop>
        </linearGradient>
        <linearGradient x1="3.56728305%" y1="543.585263%" x2="50.7767406%" y2="38.3242105%" id="linearGradient-26">
            <stop stop-color="#00A19A" offset="0%"></stop>
            <stop stop-color="#29235C" offset="100%"></stop>
        </linearGradient>
        <linearGradient x1="49.9196061%" y1="31.2416319%" x2="50.2246226%" y2="101.10551%" id="linearGradient-27">
            <stop stop-color="#00A19A" offset="0%"></stop>
            <stop stop-color="#29235C" offset="100%"></stop>
        </linearGradient>
        <linearGradient x1="0.18974359%" y1="49.8944724%" x2="100.115385%" y2="49.8944724%" id="linearGradient-28">
            <stop stop-color="#00A19A" offset="0%"></stop>
            <stop stop-color="#29235C" offset="100%"></stop>
        </linearGradient>
        <linearGradient x1="-0.0917431193%" y1="50.1513158%" x2="99.8685015%" y2="50.1513158%" id="linearGradient-29">
            <stop stop-color="#00A19A" offset="0%"></stop>
            <stop stop-color="#29235C" offset="100%"></stop>
        </linearGradient>
        <linearGradient x1="-0.0644329897%" y1="50.0736196%" x2="99.9871134%" y2="50.0736196%" id="linearGradient-30">
            <stop stop-color="#00A19A" offset="0%"></stop>
            <stop stop-color="#29235C" offset="100%"></stop>
        </linearGradient>
        <linearGradient x1="-0.00815660685%" y1="50.0071531%" x2="100.013594%" y2="50.0071531%" id="linearGradient-31">
            <stop stop-color="#00A19A" offset="0%"></stop>
            <stop stop-color="#29235C" offset="100%"></stop>
        </linearGradient>
        <linearGradient x1="19.17%" y1="49.82%" x2="81.39%" y2="49.82%" id="linearGradient-32">
            <stop stop-color="#00A19A" offset="0%"></stop>
            <stop stop-color="#29235C" offset="100%"></stop>
        </linearGradient>
        <linearGradient x1="0%" y1="49.44%" x2="100.196532%" y2="49.44%" id="linearGradient-33">
            <stop stop-color="#00A19A" offset="0%"></stop>
            <stop stop-color="#29235C" offset="100%"></stop>
        </linearGradient>
        <linearGradient x1="61.8128344%" y1="9.5095468%" x2="31.6486756%" y2="119.829255%" id="linearGradient-34">
            <stop stop-color="#00A19A" offset="0%"></stop>
            <stop stop-color="#29235C" offset="100%"></stop>
        </linearGradient>
        <linearGradient x1="-0.00408004663%" y1="49.85%" x2="100.003303%" y2="49.85%" id="linearGradient-35">
            <stop stop-color="#00A19A" offset="0%"></stop>
            <stop stop-color="#29235C" offset="100%"></stop>
        </linearGradient>
        <linearGradient x1="48.34%" y1="50.3%" x2="50.75%" y2="50.3%" id="linearGradient-36">
            <stop stop-color="#00A19A" offset="0%"></stop>
            <stop stop-color="#29235C" offset="100%"></stop>
        </linearGradient>
        <linearGradient x1="14.95%" y1="50.09%" x2="84.7%" y2="50.09%" id="linearGradient-37">
            <stop stop-color="#00A19A" offset="0%"></stop>
            <stop stop-color="#29235C" offset="100%"></stop>
        </linearGradient>
        <linearGradient x1="47.45%" y1="49.9991224%" x2="53.4%" y2="49.9991224%" id="linearGradient-38">
            <stop stop-color="#00A19A" offset="0%"></stop>
            <stop stop-color="#29235C" offset="100%"></stop>
        </linearGradient>
        <linearGradient x1="4.07%" y1="49.97%" x2="95.24%" y2="49.97%" id="linearGradient-39">
            <stop stop-color="#00A19A" offset="0%"></stop>
            <stop stop-color="#29235C" offset="100%"></stop>
        </linearGradient>
        <linearGradient x1="47.34%" y1="49.94%" x2="52.75%" y2="49.94%" id="linearGradient-40">
            <stop stop-color="#00A19A" offset="0%"></stop>
            <stop stop-color="#29235C" offset="100%"></stop>
        </linearGradient>
        <linearGradient x1="60.7788633%" y1="76.2393171%" x2="37.1093602%" y2="-19.6537581%" id="linearGradient-41">
            <stop stop-color="#00A19A" offset="0%"></stop>
            <stop stop-color="#29235C" offset="100%"></stop>
        </linearGradient>
        <linearGradient x1="108.673558%" y1="48.61802%" x2="-23.6717778%" y2="50.7845258%" id="linearGradient-42">
            <stop stop-color="#00A19A" offset="0%"></stop>
            <stop stop-color="#29235C" offset="100%"></stop>
        </linearGradient>
    </defs>
    <g id="Symbols" stroke="none" stroke-width="1" fill="none" fill-rule="evenodd">
        <g id="logo-digicampus/color">
            <g id="logo-digicampus">
                <polygon id="Path" fill="url(#linearGradient-1)" fill-rule="nonzero" points="99.4949279 1.42765617 99.9620929 1.89482114 99.9620929 66.2776295 99.4949279 66.7447944 87.3635878 66.7447944 86.8964229 66.2776295 86.8964229 1.89482114 87.3635878 1.42765617"></polygon>
                <polygon id="Path" fill="url(#linearGradient-2)" fill-rule="nonzero" points="229.105179 1.42765617 229.572344 1.89482114 229.572344 66.2776295 229.105179 66.7447944 216.973839 66.7447944 216.506674 66.2776295 216.506674 1.89482114 216.973839 1.42765617"></polygon>
                <path d="M313.975974,21.0224239 C307.910304,15.8910838 300.914042,13.5589963 292.049119,13.5589963 C280.852109,13.5589963 271.987186,22.8873465 271.987186,34.0843566 C271.987186,45.2813668 280.852109,54.609717 292.049119,54.609717 C300.914042,54.609717 307.910304,52.2776295 313.975974,47.1462894 L314.443139,47.6134544 L314.443139,62.076882 C308.377469,66.4607581 300.914042,68.1425521 292.049119,68.1425521 C273.014949,68.1425521 257.527496,52.8382274 257.527496,34.0843566 C257.527496,15.3304859 273.014949,0.0261612387 292.049119,0.0261612387 C300.914042,0.0261612387 308.377469,1.70421783 314.443139,6.09183129 L314.443139,20.5552589 L313.975974,21.0224239 Z" id="Path" fill="url(#linearGradient-3)" fill-rule="nonzero"></path>
                <path d="M606.193273,54.6134544 C606.189536,54.6134544 606.185798,54.6134544 606.182061,54.6134544 C597.317138,54.6134544 590.317138,48.5477843 590.317138,35.9530166 L590.317138,1.89482114 L589.849973,1.42765617 L577.718633,1.42765617 L577.251468,1.89482114 L577.251468,37.8179391 C577.251468,56.9455419 590.313401,68.1425521 606.178324,68.1425521 C606.182061,68.1425521 606.185798,68.1425521 606.189536,68.1425521 L606.189536,54.6134544 L606.193273,54.6134544 Z" id="Path" fill="url(#linearGradient-4)" fill-rule="nonzero"></path>
                <path d="M684.232248,17.7597437 C682.180459,14.9604912 679.381207,13.5627336 677.049119,13.5627336 C673.782702,13.5627336 672.384944,15.4276562 672.384944,18.2269087 C672.384944,25.6940737 699.910304,25.6940737 699.910304,47.153764 C699.910304,58.3507742 690.578217,68.1462894 677.983449,68.1462894 C668.184196,68.1462894 659.323011,63.0149493 656.056594,53.6828617 L666.786439,46.499733 L667.720769,46.499733 C670.052856,52.7522691 674.253604,54.6171917 677.983449,54.6171917 C682.647624,54.6171917 685.914042,51.8179391 685.914042,47.153764 C685.914042,35.9567539 658.388681,36.4239188 658.388681,18.2269087 C658.388681,7.49706353 666.693006,0.0336358783 677.049119,0.0336358783 C684.983449,0.0336358783 690.111052,3.30005339 695.246129,10.2963161 L685.170315,17.763481 L684.232248,17.763481 L684.232248,17.7597437 Z" id="Path" fill="url(#linearGradient-5)" fill-rule="nonzero"></path>
                <path d="M634.638014,1.42765617 L622.506674,1.42765617 L622.039509,1.89482114 L622.039509,35.9530166 C622.039509,48.5477843 615.039509,54.6134544 606.178324,54.6134544 C606.174586,54.6134544 606.170849,54.620929 606.167112,54.6246663 L606.167112,68.1388147 C606.170849,68.1388147 606.174586,68.1425521 606.178324,68.1425521 C622.039509,68.1425521 635.101442,56.9455419 635.101442,37.8179391 L635.101442,1.89482114 L634.638014,1.42765617 Z" id="Path" fill="url(#linearGradient-6)" fill-rule="nonzero"></path>
                <g id="Group" transform="translate(421.195942, 1.121196)" fill-rule="nonzero">
                    <polygon id="Path" fill="url(#linearGradient-7)" points="65.2050187 0.306460224 53.0774159 0.306460224 52.143086 0.7736252 33.0154832 23.6348105 33.0154832 42.7624132 33.4826482 42.7624132 52.6102509 20.368393 52.6102509 65.1564335 53.0774159 65.6235985 65.2050187 65.6235985 65.6721837 65.1564335 65.6721837 0.7736252"></polygon>
                    <polygon id="Path" fill="url(#linearGradient-8)" points="13.8878804 0.7736252 12.9535505 0.306460224 0.822210358 0.306460224 0.358782702 0.7736252 0.358782702 65.1564335 0.822210358 65.6235985 12.9535505 65.6235985 13.4207154 65.1564335 13.4207154 20.368393 32.5483182 42.7624132 33.0154832 42.7624132 33.0154832 23.6348105"></polygon>
                </g>
                <g id="Group" transform="translate(13.080619, 31.019754)" fill-rule="nonzero">
                    <path d="M7.79604912,0.0373731981 C6.92899092,0.0373731981 6.18526428,0.553123332 5.8489055,1.28937533 L6.6785905,1.28937533 L6.6785905,3.06460224 L5.8489055,3.06460224 C6.18526428,3.80459156 6.92899092,4.31660438 7.79604912,4.31660438 C8.97704218,4.31660438 9.93753337,3.35611319 9.93753337,2.17512013 C9.93753337,0.994127069 8.9807795,0.0373731981 7.79604912,0.0373731981 Z M7.80726108,3.00480513 C7.35130806,3.00480513 6.9813134,2.63481046 6.9813134,2.17885745 C6.9813134,1.72290443 7.35130806,1.35290977 7.80726108,1.35290977 C8.2632141,1.35290977 8.63320876,1.72290443 8.63320876,2.17885745 C8.63320876,2.63481046 8.2632141,3.00480513 7.80726108,3.00480513 Z" id="Shape" fill="url(#linearGradient-9)"></path>
                    <path d="M5.8489055,1.29311265 L0.145755473,1.29311265 L0.145755473,3.06833956 L5.8489055,3.06833956 C5.72557395,2.79925254 5.65456487,2.49652963 5.65456487,2.17885745 C5.65456487,1.86118526 5.72557395,1.56219968 5.8489055,1.29311265 Z" id="Path" fill="url(#linearGradient-10)"></path>
                    <path d="M6.6785905,1.29311265 L5.8489055,1.29311265 C5.72557395,1.56219968 5.65456487,1.86492258 5.65456487,2.18259477 C5.65456487,2.50026695 5.72557395,2.79925254 5.8489055,3.07207688 L6.6785905,3.07207688 L6.6785905,1.29311265 Z" id="Path" fill="url(#linearGradient-11)"></path>
                </g>
                <g id="Group" transform="translate(364.762413, 31.767218)" fill-rule="nonzero">
                    <path d="M1.43139349,4.21569674 L1.43139349,8.38654565 L3.2066204,8.38654565 L3.2066204,4.21569674 C2.93753337,4.33529098 2.63481046,4.40256273 2.31713828,4.40256273 C1.9994661,4.40256273 1.70421783,4.33529098 1.43139349,4.21569674 Z" id="Path" fill="url(#linearGradient-12)"></path>
                    <path d="M4.46235985,2.33582488 C4.46235985,1.19594234 3.50186866,0.269087026 2.3208756,0.269087026 C1.13988254,0.269087026 0.179391351,1.19594234 0.179391351,2.33582488 C0.179391351,3.17298452 0.695141484,3.89054992 1.43139349,4.21569674 L1.43139349,3.4159103 L3.2066204,3.4159103 L3.2066204,4.21569674 C3.94660972,3.89054992 4.46235985,3.17298452 4.46235985,2.33582488 Z M2.3208756,3.12066204 C1.86492258,3.12066204 1.49492792,2.76561666 1.49492792,2.32461292 C1.49492792,1.88360918 1.86492258,1.5285638 2.3208756,1.5285638 C2.77682862,1.5285638 3.14682328,1.88360918 3.14682328,2.32461292 C3.14308596,2.76561666 2.77682862,3.12066204 2.3208756,3.12066204 Z" id="Shape" fill="url(#linearGradient-13)"></path>
                    <path d="M1.43139349,3.4159103 L1.43139349,4.21569674 C1.70048051,4.33529098 2.00320342,4.40256273 2.3208756,4.40256273 C2.63854778,4.40256273 2.93753337,4.33529098 3.21035771,4.21569674 L3.21035771,3.4159103 L1.43139349,3.4159103 Z" id="Path" fill="url(#linearGradient-14)"></path>
                </g>
                <path d="M532.882007,20.2824346 C532.044848,20.2824346 531.327282,20.7981847 531.002136,21.5344367 L525.508275,21.5344367 L525.508275,23.3096636 L531.002136,23.3096636 C531.327282,24.049653 532.044848,24.5616658 532.882007,24.5616658 C534.02189,24.5616658 534.948745,23.6011746 534.948745,22.4201815 C534.948745,21.2391885 534.025627,20.2824346 532.882007,20.2824346 Z M532.893219,23.2498665 C532.452216,23.2498665 532.09717,22.8798719 532.09717,22.4239188 C532.09717,21.9679658 532.452216,21.5979712 532.893219,21.5979712 C533.334223,21.5979712 533.689269,21.9679658 533.689269,22.4239188 C533.689269,22.8798719 533.334223,23.2498665 532.893219,23.2498665 Z" id="Shape" fill="url(#linearGradient-15)" fill-rule="nonzero"></path>
                <g id="Group" transform="translate(152.482648, 31.767218)" fill-rule="nonzero">
                    <polygon id="Path" fill="url(#linearGradient-16)" points="3.56914042 1.36785905 10.0421783 1.36785905 10.0421783 3.14308596 3.56914042 3.14308596"></polygon>
                    <path d="M2.45168179,0.115856914 C1.27068873,0.115856914 0.310197544,1.0763481 0.310197544,2.25734116 C0.310197544,3.43833422 1.27068873,4.39882541 2.45168179,4.39882541 C3.63267485,4.39882541 4.59316604,3.43833422 4.59316604,2.25734116 C4.59316604,1.07261078 3.63267485,0.115856914 2.45168179,0.115856914 Z M2.44046983,3.07955152 C1.98451682,3.07955152 1.61452216,2.70955686 1.61452216,2.25360384 C1.61452216,1.79765083 1.98451682,1.42765617 2.44046983,1.42765617 C2.89642285,1.42765617 3.26641751,1.79765083 3.26641751,2.25360384 C3.26641751,2.70955686 2.89642285,3.07955152 2.44046983,3.07955152 Z" id="Shape" fill="url(#linearGradient-17)"></path>
                </g>
                <g id="Group" transform="translate(0.000000, 1.121196)" fill-rule="nonzero">
                    <path d="M22.5584624,0.306460224 L13.1890016,0.306460224 L13.2076882,13.368393 L22.5621997,13.368393 C34.6935398,13.368393 43.0912974,21.3027229 43.0912974,32.9631607 C43.0912974,44.6273358 34.6935398,52.5579285 22.5621997,52.5579285 L13.2263748,52.5579285 L13.2263748,52.5579285 L0.164442072,52.5579285 L0.164442072,65.1526962 L0.631607048,65.6198612 L22.5584624,65.6198612 C42.6203951,65.6198612 57.0800854,50.9695675 57.0800854,32.9631607 C57.0800854,14.9567539 42.6203951,0.306460224 22.5584624,0.306460224 Z" id="Path" fill="url(#linearGradient-18)"></path>
                    <polygon id="Path" fill="url(#linearGradient-19)" points="13.2263748 32.966898 5.80779498 32.966898 5.80779498 31.7261078 5.80779498 31.1916711 5.80779498 0.306460224 0.631607048 0.306460224 0.474639616 0.463427656 0.164442072 0.7736252 0.164442072 52.5616658 13.2263748 52.5616658"></polygon>
                    <polygon id="Path" fill="url(#linearGradient-20)" points="13.1890016 0.306460224 7.58302189 0.306460224 7.58302189 31.1916711 13.2263748 31.1916711"></polygon>
                </g>
                <g id="Group" transform="translate(335.237587, 1.121196)">
                    <polygon id="Path" points="30.95622 39.0325681 32.7314469 39.0325681 32.7314469 39.0325681 39.3091297 39.0325681 31.8457021 17.1019754 24.3785371 39.0325681"></polygon>
                    <polygon id="Path" fill="url(#linearGradient-21)" fill-rule="nonzero" points="0.119594234 65.1564335 0.58675921 65.6235985 15.0501869 65.6235985 15.5173518 65.1564335 20.181527 52.0945008 5.13881474 52.0945008"></polygon>
                    <polygon id="Path" fill="url(#linearGradient-22)" fill-rule="nonzero" points="38.8419648 0.7736252 38.3747998 0.306460224 25.3128671 0.306460224 24.8457021 0.7736252 10.1542979 39.0325681 24.3785371 39.0325681 31.8457021 17.1019754 39.3091297 39.0325681 53.5371062 39.0325681 58.5525894 52.0945008 43.5061399 52.0945008 48.1740523 65.1564335 48.6412173 65.6235985 63.104645 65.6235985 63.5718099 65.1564335"></polygon>
                    <polygon id="Path" fill="#FFFFFF" fill-rule="nonzero" points="7.3027229 46.4511479 5.13881474 52.0945008 5.13881474 52.0945008"></polygon>
                    <path d="M10.1542979,39.0325681 C9.44046983,40.8974907 8.72290443,42.7586759 8.00907635,44.6235985" id="Path" fill="#FFFFFF" fill-rule="nonzero"></path>
                    <polygon id="Path" fill="url(#linearGradient-23)" fill-rule="nonzero" points="30.95622 44.675921 30.95622 39.0325681 24.3785371 39.0325681 10.1542979 39.0325681 7.98665243 44.675921"></polygon>
                    <polygon id="Path" fill="url(#linearGradient-24)" fill-rule="nonzero" points="53.5371062 39.0325681 39.3091297 39.0325681 32.7314469 39.0325681 32.7314469 44.675921 32.7314469 44.675921 32.7314469 46.4511479 32.7314469 46.4511479 30.95622 46.4511479 7.3027229 46.4511479 5.13881474 52.0945008 20.181527 52.0945008 43.5061399 52.0945008 58.5525894 52.0945008"></polygon>
                    <rect id="Rectangle" fill="url(#linearGradient-25)" fill-rule="nonzero" x="30.95622" y="39.0325681" width="1.77522691" height="1"></rect>
                    <rect id="Rectangle" fill="#FFFFFF" fill-rule="nonzero" x="32.7314469" y="44.675921" width="1" height="1.77522691"></rect>
                    <rect id="Rectangle" fill="url(#linearGradient-26)" fill-rule="nonzero" x="32.7314469" y="44.675921" width="1" height="1.77522691"></rect>
                </g>
                <polygon id="Path" fill="url(#linearGradient-27)" fill-rule="nonzero" points="525.508275 43.4650294 525.508275 43.4201815 525.508275 30.3545115 525.508275 30.3096636 525.508275 30.3545115 525.564335 1.42765617 512.913508 1.42765617 512.446343 1.89482114 512.446343 66.2776295 512.913508 66.7447944 518.115857 66.7447944 518.115857 23.3171383 518.115857 22.9097704 518.115857 21.5120128 525.519487 21.5120128 525.519487 23.3171383 519.894821 23.3171383 519.894821 66.7447944 525.044848 66.7447944 525.508275 66.2776295 525.508275 43.4201815 525.508275 43.4201815"></polygon>
                <g id="Group" transform="translate(123.331554, 0.000000)" fill-rule="nonzero">
                    <path d="M59.1057128,62.5589963 C58.6235985,62.8168713 58.1377469,63.0635344 57.648158,63.3027229 C58.1377469,63.0635344 58.6235985,62.8168713 59.1057128,62.5589963 Z" id="Path" fill="url(#linearGradient-28)" opacity="0.8"></path>
                    <path d="M57.3117993,63.4634277 C56.9044314,63.6577683 56.5008009,63.8483716 56.0896957,64.0315003 C56.4970635,63.8483716 56.9044314,63.6577683 57.3117993,63.4634277 Z" id="Path" fill="url(#linearGradient-29)" opacity="0.8"></path>
                    <path d="M55.8280833,64.1473572 C55.345969,64.3603844 54.8638548,64.5621997 54.3780032,64.7565403 C54.8638548,64.5621997 55.345969,64.3603844 55.8280833,64.1473572 Z" id="Path" fill="url(#linearGradient-30)" opacity="0.8"></path>
                    <polygon id="Path" fill="url(#linearGradient-31)" opacity="0.8" points="39.6604378 41.0843566 39.1932728 40.6171917 39.1932728 28.4895889 39.6604378 28.0224239 39.6604378 28.0224239 39.1932728 28.4895889 39.1932728 40.6171917 39.6604378 41.0843566 46.066204 41.0843566 46.066204 41.0843566"></polygon>
                    <polygon id="Path" fill="url(#linearGradient-32)" opacity="0.8" points="59.1281367 28.4895889 58.8964229 28.2578751"></polygon>
                    <path d="M53.7202349,65.0069407 L53.7202349,65.02189 C53.9369995,64.939669 54.153764,64.8499733 54.3667912,64.7640149 C54.153764,64.846236 53.9369995,64.9247197 53.7202349,65.0069407 Z" id="Path" fill="url(#linearGradient-33)" opacity="0.8"></path>
                    <path d="M46.0475174,67.2082221 L46.0475174,53.2231714 C43.7116925,54.153764 39.5258943,54.6134544 36.2706887,54.6134544 C23.208756,54.6134544 14.8109984,45.2851041 14.8109984,34.088094 C14.8109984,22.8910838 23.208756,13.5627336 35.8035238,13.5627336 C43.7341164,13.5627336 51.664709,14.9604912 58.664709,19.1612387 L59.131874,18.6940737 L59.131874,4.23064602 C52.1356113,0.96422851 44.6684463,0.0336358783 35.8035238,0.0336358783 C15.741591,0.0336358783 0.347570742,15.4313935 0.347570742,34.0918313 C0.347570742,53.2194341 16.2124933,68.1500267 36.2706887,68.1500267 C41.8654565,68.1500267 47.0416444,67.3166044 51.945008,65.6609717 L51.945008,65.6460224 C50.0202883,66.2888414 48.0619327,66.8158035 46.0475174,67.2082221 Z" id="Path" fill="url(#linearGradient-34)"></path>
                    <polygon id="Path" fill="url(#linearGradient-35)" points="58.8964229 28.2578751 58.664709 28.0224239 39.6604378 28.0224239 39.6604378 28.0224239 58.664709 28.0224239"></polygon>
                    <path d="M54.3780032,64.7565403 C54.3742659,64.7565403 54.3705286,64.7602776 54.3705286,64.7602776 C54.3705286,64.7602776 54.3742659,64.7602776 54.3780032,64.7565403 Z" id="Path" fill="url(#linearGradient-36)"></path>
                    <path d="M56.0896957,64.0315003 C56.0037373,64.0688735 55.9140416,64.1062467 55.8280833,64.1473572 C55.9140416,64.109984 56,64.0726108 56.0896957,64.0315003 Z" id="Path" fill="url(#linearGradient-37)"></path>
                    <path d="M59.1057128,62.5589963 C59.1131874,62.5552589 59.120662,62.5515216 59.1281367,62.5477843 L59.1281367,28.4895889 L59.1281367,28.4895889 L59.1281367,62.5477843 C59.120662,62.5515216 59.1131874,62.5552589 59.1057128,62.5589963 Z" id="Path" fill="url(#linearGradient-38)"></path>
                    <path d="M57.6518954,63.3027229 C57.5397758,63.3587827 57.4239188,63.4111052 57.3117993,63.4634277 C57.4239188,63.4111052 57.5360384,63.3587827 57.6518954,63.3027229 Z" id="Path" fill="url(#linearGradient-39)"></path>
                    <path d="M46.066204,53.2156967 C46.0587293,53.2194341 46.0512547,53.2194341 46.0475174,53.2231714 L46.0475174,53.2231714 C46.054992,53.2194341 46.0624666,53.2194341 46.066204,53.2156967 L46.066204,53.2156967 Z" id="Path" fill="url(#linearGradient-40)"></path>
                    <path d="M51.945008,65.6422851 L51.945008,34.9103043 L39.1932728,34.9103043 L39.1932728,33.1350774 L51.945008,33.1350774 L51.9861185,33.1350774 L53.7202349,33.1350774 L53.7202349,65.0069407 C53.9369995,64.9247197 54.153764,64.846236 54.3667912,64.7640149 C54.3705286,64.7640149 54.3742659,64.7602776 54.3742659,64.7602776 C54.8601175,64.565937 55.3422317,64.3603844 55.824346,64.1510945 C55.9103043,64.1137213 56,64.0763481 56.0859584,64.0352376 C56.4933262,63.8521089 56.9006941,63.6615056 57.3080619,63.467165 C57.4201815,63.4111052 57.5360384,63.3587827 57.648158,63.3064602 C58.1377469,63.0672718 58.6198612,62.8206086 59.1057128,62.5627336 C59.1131874,62.5589963 59.120662,62.5552589 59.1281367,62.5515216 L59.1281367,28.4895889 L58.8964229,28.2578751 L58.664709,28.0224239 L39.6604378,28.0224239 L39.1932728,28.4895889 L39.1932728,40.6171917 L39.6604378,41.0843566 L46.066204,41.0843566 L46.066204,41.0843566 L46.066204,53.2119594 L46.066204,53.2119594 C46.0587293,53.2156967 46.0512547,53.2156967 46.0475174,53.2194341 L46.0475174,67.2044848 C48.0619327,66.8158035 50.0202883,66.2888414 51.945008,65.6422851 Z" id="Path" fill="url(#linearGradient-41)"></path>
                </g>
                <path d="M532.97544,1.42765617 L512.913508,1.42765617 L512.446343,1.89482114 L512.446343,14.5942338 L525.508275,14.5157501 L525.508275,14.4933262 L532.041111,14.4933262 C536.910838,14.4933262 540.274426,15.9994661 541.410571,19.4901228 C541.485318,19.7218366 541.552589,19.9647624 541.608649,20.2151628 C541.758142,20.8878804 541.836626,21.6241324 541.836626,22.4276562 C541.836626,28.0261612 538.103043,30.3582488 532.037373,30.3582488 L525.504538,30.3582488 L525.504538,43.4201815 L525.504538,43.4201815 L525.504538,43.4201815 L532.971703,43.4201815 C541.959957,43.4201815 548.582488,39.8659904 552.42819,34.5963695 C552.69354,34.2338494 552.94394,33.8601175 553.183129,33.4826482 C553.302723,33.2920448 553.41858,33.1014415 553.530699,32.9071009 C553.646556,32.709023 553.758676,32.5072077 553.867058,32.3016551 C553.979178,32.0923652 554.08756,31.879338 554.192205,31.6663107 C554.539776,30.9599573 554.846236,30.2311799 555.107848,29.483716 C555.111586,29.4762413 555.111586,29.4687667 555.115323,29.4650294 C555.320876,28.8820075 555.49653,28.2915109 555.646022,27.6898025 C555.795515,27.088094 555.918847,26.4789108 556.019754,25.8622531 C556.06834,25.5520555 556.113187,25.2381207 556.146823,24.9204485 C556.236519,24.120662 556.288841,23.313401 556.292579,22.4986652 C556.292579,22.4762413 556.296321,22.4500801 556.296321,22.4276562 C556.303791,11.2269087 547.906033,1.42765617 532.97544,1.42765617 Z" id="Path" fill="url(#linearGradient-42)" fill-rule="nonzero"></path>
            </g>
        </g>
    </g>
</svg>
