<?xml version="1.0" encoding="utf-8"?>
<!-- Generator: Adobe Illustrator 28.1.0, SVG Export Plug-In . SVG Version: 6.00 Build 0)  -->
<svg version="1.1" id="Laag_1" xmlns="http://www.w3.org/2000/svg" xmlns:xlink="http://www.w3.org/1999/xlink" x="0px" y="0px"
	 viewBox="0 0 1333 229.6" style="enable-background:new 0 0 1333 229.6;" xml:space="preserve">
<style type="text/css">
	.st0{fill:#0087CD;}
	.st1{fill:#8CC841;}
</style>
<g>
	<path class="st0" d="M578.3,98c-20.3,0-31.4-9.3-33.9-24.7l20.9-4.2c0.9,7.3,4.3,10,12.8,10c7.4,0,11.1-3,11.1-7.6
		c0-4.5-1.8-7.2-9.3-10l-8-3c-18-6.7-24.3-16.3-24.3-31.2c0-16.2,12.7-27.3,31.1-27.3c18.7,0,28,6.9,30.2,23.1L588.7,28
		c-1-6.4-3.8-8.5-10-8.5c-6.2,0-9.4,3.1-9.4,7.8c0,4.3,1.9,7.5,9.3,10.2l8,3C605,47.3,611,56,611,70.1C611,86.4,598.3,98,578.3,98z"
		/>
	<path class="st0" d="M690.2,0c26.4,0,41.1,16.6,41.1,48.8c0,29.2-15,49.1-41.1,49.1C663.8,98,649,81.3,649,49
		C649,19.9,664.2,0,690.2,0z M690.2,18.7c-12.4,0-18.3,9.4-18.3,30.3c0,19.8,6.2,30.3,18.3,30.3c12.5,0,18.4-9.6,18.4-30.4
		C708.6,29.1,702.3,18.7,690.2,18.7z"/>
	<path class="st0" d="M766.8,50.6c0-31.3,18.4-50.6,46-50.6c6.6,0,12.2,0.4,19.6,2.1l-3.1,19.5c-6.2-1.6-11.2-2.4-17.4-2.4
		c-13,0-22.6,10-22.6,30.4c0,20.7,9,28.9,23.4,28.9c6,0,10.6-1.5,16.8-3.4l5.2,17.8c-9.6,3.6-18.1,5.1-25.5,5.1
		C782,98,766.8,81,766.8,50.6z"/>
	<path class="st0" d="M872.9,96.5V83l11.9-2.7V17.5L872.9,15V1.5h45.9V15l-11.9,2.5v62.8l11.9,2.7v13.5H872.9z"/>
	<path class="st0" d="M963.2,1.5h54.1l-1.8,17.8h-30.4v20.4h19.5v17.8h-19.5v21.3h32.6l-1.2,17.7h-53.4V1.5z"/>
	<path class="st0" d="M1078.5,20.2h-25.9V1.5h75.5l-1.5,18.7h-25.4v76.2h-22.7V20.2z"/>
	<path class="st0" d="M1207.4,78.2h-31.3l-5.6,18.3h-21.2l32.1-95h22.1l31.4,95h-22.4L1207.4,78.2z M1202.5,61.3l-6.6-25
		c-1.6-5.8-2.4-10.5-2.5-15.3h-2.1c-0.4,4.8-1.3,9.6-2.9,15.3l-7.2,25H1202.5z"/>
	<path class="st0" d="M1271.4,1.5h22.1v76.4h39.5l-2.9,18.6h-58.7V1.5z"/>
	<path class="st0" d="M0,228v-13.5l11.9-2.7V149L0,146.5V133h45.9v13.5L33.9,149v62.8l11.9,2.7V228H0z"/>
	<path class="st0" d="M112.8,187.8c-6-10.6-6.8-15.6-8.1-23.4l-2.1,0.3c1,5.7,1.2,11.4,1.2,24.1V228H84.5v-94.1l21.4-1.8l21.5,37.9
		c6,10.6,6.8,15.3,8.1,23.1l2.1-0.3c-1-5.7-1.2-11.4-1.2-24V133h19.3v93l-19.2,3.4L112.8,187.8z"/>
	<path class="st0" d="M227.6,187.8c-6-10.6-6.8-15.6-8.1-23.4l-2.1,0.3c1,5.7,1.2,11.4,1.2,24.1V228h-19.3v-94.1l21.4-1.8l21.5,37.9
		c6,10.6,6.8,15.3,8.1,23.1l2.1-0.3c-1-5.7-1.2-11.4-1.2-24V133h19.3v93l-19.2,3.4L227.6,187.8z"/>
	<path class="st0" d="M348.7,131.5c26.4,0,41.1,16.6,41.1,48.8c0,29.2-15,49.1-41.1,49.1c-26.4,0-41.1-16.6-41.1-49
		C307.5,151.4,322.7,131.5,348.7,131.5z M348.7,150.2c-12.4,0-18.3,9.4-18.3,30.3c0,19.8,6.2,30.3,18.3,30.3
		c12.5,0,18.4-9.6,18.4-30.4C367.1,160.6,360.8,150.2,348.7,150.2z"/>
	<path class="st0" d="M415,134.8l22.6-2.8l14.9,60.4c1.6,6.7,2.7,11.2,3.1,17.4h2.1c0.4-6.1,1.5-10.6,3.1-17.4l14.9-60.1l22.7,1.3
		L470,228h-27.7L415,134.8z"/>
	<path class="st0" d="M574,209.7h-31.3l-5.6,18.3h-21.2l32.1-95h22.1l31.4,95h-22.4L574,209.7z M569.1,192.8l-6.6-25
		c-1.6-5.8-2.4-10.5-2.5-15.3h-2.1c-0.4,4.8-1.3,9.6-2.9,15.3l-7.2,25H569.1z"/>
	<path class="st0" d="M643.3,151.7h-25.9V133h75.5l-1.5,18.7H666V228h-22.7V151.7z"/>
	<path class="st0" d="M722.4,228v-13.5l11.9-2.7V149l-11.9-2.5V133h45.9v13.5l-11.9,2.5v62.8l11.9,2.7V228H722.4z"/>
	<path class="st0" d="M841.4,131.5c26.4,0,41.1,16.6,41.1,48.8c0,29.2-15,49.1-41.1,49.1c-26.4,0-41.1-16.6-41.1-49
		C800.3,151.4,815.5,131.5,841.4,131.5z M841.4,150.2c-12.4,0-18.3,9.4-18.3,30.3c0,19.8,6.2,30.3,18.3,30.3
		c12.5,0,18.4-9.6,18.4-30.4C859.8,160.6,853.5,150.2,841.4,150.2z"/>
	<path class="st0" d="M947.9,187.8c-6-10.6-6.8-15.6-8.1-23.4l-2.1,0.3c1,5.7,1.2,11.4,1.2,24.1V228h-19.3v-94.1l21.4-1.8l21.5,37.9
		c6,10.6,6.8,15.3,8.1,23.1l2.1-0.3c-1-5.7-1.2-11.4-1.2-24V133h19.3v93l-19.2,3.4L947.9,187.8z"/>
</g>
<g>
	<path class="st1" d="M3,2.9c7.6-1.2,16.7-2,26.6-2c18,0,30.8,4.2,39.3,12.1c8.6,7.9,13.7,19.1,13.7,34.8c0,15.8-4.9,28.8-14,37.7
		c-9.1,9.1-24,14-42.9,14C16.8,99.4,9.3,99,3,98.2V2.9z M15.5,88.6c3.2,0.6,7.8,0.7,12.7,0.7c26.8,0,41.3-15,41.3-41.1
		c0.1-22.9-12.8-37.4-39.3-37.4c-6.5,0-11.4,0.6-14.7,1.3V88.6z"/>
	<path class="st1" d="M131.4,1.6V59c0,21.7,9.6,30.9,22.6,30.9c14.4,0,23.6-9.5,23.6-30.9V1.6h12.7v56.5c0,29.8-15.7,42-36.7,42
		c-19.9,0-34.8-11.4-34.8-41.4V1.6H131.4z"/>
	<path class="st1" d="M250.5,12.2H221V1.6h71.8v10.6h-29.6v86.3h-12.7V12.2z"/>
	<path class="st1" d="M387.6,95.4c-4.6,2.3-13.8,4.6-25.6,4.6c-27.3,0-47.9-17.3-47.9-49.1c0-30.4,20.6-50.9,50.6-50.9
		c12.1,0,19.7,2.6,23,4.3l-3,10.2c-4.7-2.3-11.5-4-19.6-4c-22.7,0-37.8,14.5-37.8,40c0,23.7,13.7,39,37.3,39c7.6,0,15.4-1.6,20.4-4
		L387.6,95.4z"/>
	<path class="st1" d="M435.9,1.6v40.6h46.9V1.6h12.7v96.9h-12.7V53.1h-46.9v45.5h-12.5V1.6H435.9z"/>
	<path class="st1" d="M1044.9,131v40.6h46.9V131h12.7v97h-12.7v-45.5h-46.9V228h-12.5v-97H1044.9z"/>
	<path class="st1" d="M1158.8,131v57.4c0,21.7,9.6,30.9,22.6,30.9c14.4,0,23.6-9.5,23.6-30.9V131h12.7v56.5c0,29.8-15.7,42-36.7,42
		c-19.9,0-34.8-11.4-34.8-41.4V131H1158.8z"/>
	<path class="st1" d="M1259.5,132.3c5.5-1.2,14.1-2,22.9-2c12.5,0,20.6,2.2,26.6,7c5,3.7,8.1,9.5,8.1,17.1c0,9.3-6.2,17.5-16.4,21.3
		v0.3c9.2,2.3,20,9.9,20,24.3c0,8.3-3.3,14.7-8.2,19.4c-6.8,6.2-17.7,9.1-33.5,9.1c-8.6,0-15.2-0.6-19.4-1.2V132.3z M1272,172h11.4
		c13.2,0,21-6.9,21-16.3c0-11.4-8.6-15.8-21.3-15.8c-5.8,0-9.1,0.4-11.1,0.9V172z M1272,218.5c2.4,0.4,6,0.6,10.5,0.6
		c12.9,0,24.9-4.7,24.9-18.8c0-13.2-11.4-18.7-25-18.7H1272V218.5z"/>
</g>
</svg>
