<?xml version="1.0" encoding="UTF-8"?>
<svg width="700px" height="69px" viewBox="0 0 700 69" version="1.1" xmlns="http://www.w3.org/2000/svg" xmlns:xlink="http://www.w3.org/1999/xlink">
    <!-- Generator: Sketch 58 (84663) - https://sketch.com -->
    <title>logo-digicampus-wit</title>
    <desc>Created with Sketch.</desc>
    <defs>
        <linearGradient x1="49.9473504%" y1="7.08359558%" x2="50.0423486%" y2="84.8486582%" id="linearGradient-1">
            <stop stop-color="#FFFFFF" offset="0%"></stop>
            <stop stop-color="#FFFFFF" stop-opacity="0.7" offset="100%"></stop>
        </linearGradient>
        <linearGradient x1="49.8473327%" y1="78.520341%" x2="50.1458059%" y2="22.9501631%" id="linearGradient-2">
            <stop stop-color="#FFFFFF" offset="0%"></stop>
            <stop stop-color="#FFFFFF" stop-opacity="0.6" offset="100%"></stop>
        </linearGradient>
        <linearGradient x1="46.4722542%" y1="16.0869088%" x2="61.4817924%" y2="86.3162515%" id="linearGradient-3">
            <stop stop-color="#FFFFFF" offset="0%"></stop>
            <stop stop-color="#FFFFFF" stop-opacity="0.6" offset="100%"></stop>
        </linearGradient>
        <linearGradient x1="55.8464461%" y1="84.9588258%" x2="45.0012521%" y2="34.7263459%" id="linearGradient-4">
            <stop stop-color="#FFFFFF" offset="0%"></stop>
            <stop stop-color="#FFFFFF" stop-opacity="0.6" offset="100%"></stop>
        </linearGradient>
        <linearGradient x1="47.7554948%" y1="42.2152732%" x2="50.778778%" y2="83.6570112%" id="linearGradient-5">
            <stop stop-color="#FFFFFF" offset="0%"></stop>
            <stop stop-color="#FFFFFF" stop-opacity="0.6" offset="100%"></stop>
        </linearGradient>
        <linearGradient x1="46.9416284%" y1="85.5742297%" x2="57.6082763%" y2="16.5714286%" id="linearGradient-6">
            <stop stop-color="#FFFFFF" offset="0%"></stop>
            <stop stop-color="#FFFFFF" stop-opacity="0.6" offset="100%"></stop>
        </linearGradient>
        <linearGradient x1="53.4590295%" y1="58.7033646%" x2="36.638819%" y2="96.6010529%" id="linearGradient-7">
            <stop stop-color="#FFFFFF" offset="0%"></stop>
            <stop stop-color="#FFFFFF" stop-opacity="0.8" offset="100%"></stop>
        </linearGradient>
        <linearGradient x1="56.185626%" y1="19.1634241%" x2="39.3654154%" y2="57.0611124%" id="linearGradient-8">
            <stop stop-color="#FFFFFF" offset="0%"></stop>
            <stop stop-color="#FFFFFF" stop-opacity="0.8" offset="100%"></stop>
        </linearGradient>
        <linearGradient x1="70.681859%" y1="100.062922%" x2="22.287156%" y2="22.0054914%" id="linearGradient-9">
            <stop stop-color="#FFFFFF" offset="0%"></stop>
            <stop stop-color="#FFFFFF" stop-opacity="0.7" offset="100%"></stop>
        </linearGradient>
        <linearGradient x1="48.6509441%" y1="7.42436163%" x2="50.0473823%" y2="83.8709677%" id="linearGradient-10">
            <stop stop-color="#FFFFFF" offset="0%"></stop>
            <stop stop-color="#FFFFFF" stop-opacity="0.7" offset="100%"></stop>
        </linearGradient>
        <linearGradient x1="49.4714339%" y1="11.2307878%" x2="51.198673%" y2="140.578482%" id="linearGradient-11">
            <stop stop-color="#FFFFFF" offset="0%"></stop>
            <stop stop-color="#FFFFFF" stop-opacity="0.7" offset="100%"></stop>
        </linearGradient>
        <linearGradient x1="9.16542474%" y1="27.8644937%" x2="171.367362%" y2="113.40403%" id="linearGradient-12">
            <stop stop-color="#FFFFFF" offset="0%"></stop>
            <stop stop-color="#FFFFFF" stop-opacity="0.6" offset="100%"></stop>
        </linearGradient>
        <linearGradient x1="36.7066599%" y1="32.0153353%" x2="77.4548071%" y2="70.9773404%" id="linearGradient-13">
            <stop stop-color="#FFFFFF" offset="0%"></stop>
            <stop stop-color="#FFFFFF" stop-opacity="0.6" offset="100%"></stop>
        </linearGradient>
        <linearGradient x1="175.77286%" y1="49.8560889%" x2="49.8535633%" y2="50.0039975%" id="linearGradient-14">
            <stop stop-color="#FFFFFF" offset="0%"></stop>
            <stop stop-color="#FFFFFF" stop-opacity="0.6" offset="100%"></stop>
        </linearGradient>
        <linearGradient x1="80.9610408%" y1="49.9931547%" x2="26.8028258%" y2="50.0564734%" id="linearGradient-15">
            <stop stop-color="#FFFFFF" offset="0%"></stop>
            <stop stop-color="#FFFFFF" stop-opacity="0.6" offset="100%"></stop>
        </linearGradient>
        <linearGradient x1="-1571.57895%" y1="57.5679916%" x2="26.5263158%" y2="49.9524026%" id="linearGradient-16">
            <stop stop-color="#00A19A" offset="0%"></stop>
            <stop stop-color="#29235C" offset="100%"></stop>
        </linearGradient>
        <linearGradient x1="26.3091719%" y1="543.578947%" x2="50.3966453%" y2="38.3157895%" id="linearGradient-17">
            <stop stop-color="#00A19A" offset="0%"></stop>
            <stop stop-color="#29235C" offset="100%"></stop>
        </linearGradient>
        <linearGradient x1="51.2778449%" y1="90.6219603%" x2="49.4392192%" y2="31.6473079%" id="linearGradient-18">
            <stop stop-color="#FFFFFF" offset="0%"></stop>
            <stop stop-color="#FFFFFF" stop-opacity="0.6" offset="100%"></stop>
        </linearGradient>
        <linearGradient x1="83.6006229%" y1="12.5148685%" x2="39.3774399%" y2="72.3349522%" id="linearGradient-19">
            <stop stop-color="#FFFFFF" offset="0%"></stop>
            <stop stop-color="#FFFFFF" stop-opacity="0.7" offset="100%"></stop>
        </linearGradient>
        <linearGradient x1="45.4975%" y1="3.05197902%" x2="60.4718888%" y2="82.546495%" id="linearGradient-20">
            <stop stop-color="#FFFFFF" offset="0%"></stop>
            <stop stop-color="#FFFFFF" stop-opacity="0.7" offset="100%"></stop>
        </linearGradient>
        <linearGradient x1="29.4323143%" y1="13.4830935%" x2="79.3896831%" y2="87.5706322%" id="linearGradient-21">
            <stop stop-color="#FFFFFF" offset="0%"></stop>
            <stop stop-color="#FFFFFF" stop-opacity="0.6" offset="100%"></stop>
        </linearGradient>
    </defs>
    <g id="Symbols" stroke="none" stroke-width="1" fill="none" fill-rule="evenodd">
        <g id="logo-digicampus/wit">
            <g id="logo-digicampus-wit">
                <polygon id="Path" fill="url(#linearGradient-1)" fill-rule="nonzero" points="99.4949279 1.45755473 99.9620929 1.9247197 99.9620929 66.307528 99.4949279 66.774693 87.3635878 66.774693 86.8964229 66.307528 86.8964229 1.9247197 87.3635878 1.45755473"></polygon>
                <polygon id="Path" fill="url(#linearGradient-2)" fill-rule="nonzero" points="229.097704 1.45755473 229.564869 1.9247197 229.564869 66.307528 229.097704 66.774693 216.973839 66.774693 216.510411 66.307528 216.510411 1.9247197 216.973839 1.45755473"></polygon>
                <path d="M313.975974,21.0523225 C307.910304,15.9209824 300.895355,13.5776829 292.049119,13.5776829 C280.83716,13.5776829 271.987186,22.9209824 271.987186,34.1030432 C271.987186,45.2851041 280.852109,54.632141 292.049119,54.632141 C300.914042,54.632141 307.910304,52.3000534 313.975974,47.1575013 L314.443139,47.6246663 L314.443139,62.088094 C308.377469,66.4719701 300.914042,68.153764 292.049119,68.153764 C273.014949,68.153764 257.527496,52.8494394 257.527496,34.0955686 C257.527496,15.3416978 273.014949,0.0373731981 292.049119,0.0373731981 C300.914042,0.0373731981 308.377469,1.71916711 314.443139,6.10304325 L314.443139,20.5664709 L313.975974,21.0523225 Z" id="Path" fill="url(#linearGradient-3)" fill-rule="nonzero"></path>
                <path d="M606.193273,54.6396156 L606.193273,54.6396156 C597.32835,54.6396156 590.332088,48.5739455 590.332088,35.9754405 L590.332088,1.9247197 L589.864923,1.45755473 L577.733582,1.45755473 L577.266418,1.9247197 L577.266418,37.8478377 C577.266418,56.9754405 590.347037,68.1724506 606.193273,68.1724506 L606.193273,68.1724506 L606.193273,54.6396156 Z" id="Path" fill="url(#linearGradient-4)" fill-rule="nonzero" opacity="0.8"></path>
                <path d="M684.232248,17.785905 C682.180459,14.9866524 679.373732,13.5888948 677.045382,13.5888948 C673.782702,13.5888948 672.384944,15.4575547 672.384944,18.2530699 C672.384944,25.7277096 699.910304,25.7277096 699.910304,47.1761879 C699.910304,58.3881474 690.567005,68.1724506 677.979712,68.1724506 C668.184196,68.1724506 659.319274,63.0373732 656.052856,53.709023 L666.782702,46.5258943 L667.717032,46.5258943 C670.049119,52.774693 674.249867,54.6433529 677.979712,54.6433529 C682.647624,54.6433529 685.910304,51.8441004 685.910304,47.1687133 C685.910304,35.9567539 658.384944,36.4388681 658.384944,18.2455953 C658.384944,7.51575013 666.689269,0.0485851575 677.045382,0.0485851575 C684.979712,0.0485851575 690.126001,3.31500267 695.242392,10.3112653 L685.151628,17.785905 L684.232248,17.785905 Z" id="Path" fill="url(#linearGradient-5)" fill-rule="nonzero"></path>
                <path d="M634.638014,1.45755473 L622.506674,1.45755473 L622.039509,1.9247197 L622.039509,35.9791778 C622.039509,48.5776829 615.043246,54.6433529 606.178324,54.6433529 L606.178324,54.6433529 L606.178324,68.1687133 L606.178324,68.1687133 C622.039509,68.1687133 635.105179,56.9567539 635.105179,37.8441004 L635.105179,1.9247197 L634.638014,1.45755473 Z" id="Path" fill="url(#linearGradient-6)" fill-rule="nonzero"></path>
                <polygon id="Path" fill="url(#linearGradient-7)" fill-rule="nonzero" opacity="0.8" points="486.400961 1.45755473 474.273358 1.45755473 473.339028 1.92098238 454.211426 24.7821676 454.211426 43.9097704 454.67859 43.9097704 473.806193 21.5194875 473.806193 66.307528 474.273358 66.7709557 486.400961 66.7709557 486.868126 66.307528 486.868126 1.92098238"></polygon>
                <polygon id="Path" fill="url(#linearGradient-8)" fill-rule="nonzero" points="435.083823 1.92098238 434.149493 1.45755473 422.018153 1.45755473 421.554725 1.92098238 421.554725 66.307528 422.018153 66.7709557 434.149493 66.7709557 434.616658 66.307528 434.616658 21.5194875 453.744261 43.9097704 454.211426 43.9097704 454.211426 24.7821676"></polygon>
                <path d="M20.8766684,31.0832887 C20.0379482,31.085238 19.2772856,31.5757997 18.9295248,32.3390283 L19.7592098,32.3390283 L19.7592098,34.1142552 L18.9295248,34.1142552 C19.3719242,35.0831359 20.4591312,35.579626 21.4810629,35.2794551 C22.5029946,34.9792842 23.1489988,33.9736999 22.9971537,32.919475 C22.8453085,31.8652502 21.9417726,31.0828537 20.8766684,31.0832887 L20.8766684,31.0832887 Z M20.8766684,34.0507208 C20.4220208,34.0445485 20.0578654,33.6720708 20.0619663,33.2173998 C20.0660673,32.7627288 20.4368821,32.3968802 20.8915671,32.3989013 C21.3462521,32.4009393 21.7137862,32.7700836 21.7138281,33.2247731 C21.7138281,33.6809314 21.3440387,34.0507208 20.8878804,34.0507208 L20.8766684,34.0507208 Z" id="Shape" fill="#FFFFFF" fill-rule="nonzero"></path>
                <path d="M18.9295248,32.3390283 L13.2263748,32.3390283 L13.2263748,34.1142552 L18.9295248,34.1142552 C18.6702193,33.5509203 18.6702193,32.9023632 18.9295248,32.3390283 L18.9295248,32.3390283 Z" id="Path" fill="#FFFFFF" fill-rule="nonzero"></path>
                <path d="M19.7592098,32.3390283 L18.9295248,32.3390283 C18.6702193,32.9023632 18.6702193,33.5509203 18.9295248,34.1142552 L19.7592098,34.1142552 L19.7592098,32.3390283 Z" id="Path" fill="#FFFFFF" fill-rule="nonzero"></path>
                <path d="M366.193807,36.0090763 L366.193807,40.1799253 L367.969034,40.1799253 L367.969034,36.0090763 C367.690192,36.1329007 367.388386,36.1965728 367.083289,36.1959423 C366.777035,36.1960994 366.474107,36.132459 366.193807,36.0090763 L366.193807,36.0090763 Z" id="Path" fill="#FFFFFF" fill-rule="nonzero"></path>
                <path d="M369.224773,34.1292045 C369.224773,32.9464954 368.265998,31.9877202 367.083289,31.9877202 C365.90058,31.9877202 364.941805,32.9464954 364.941805,34.1292045 C364.952047,34.9451319 365.4431,35.6780481 366.193807,35.9978644 L366.193807,35.1980779 L367.969034,35.1980779 L367.969034,35.9978644 C368.720562,35.6784086 369.212925,34.9457253 369.224773,34.1292045 Z M367.083289,34.9140416 C366.646853,34.8996871 366.303449,34.5364271 366.313624,34.0998735 C366.323799,33.6633199 366.683755,33.3164537 367.120386,33.3224486 C367.557017,33.3284436 367.907313,33.6850614 367.905506,34.1217298 C367.895288,34.5667126 367.528345,34.9203123 367.083289,34.9140416 Z" id="Shape" fill="#FFFFFF" fill-rule="nonzero"></path>
                <path d="M366.193807,35.2092899 L366.193807,36.0090763 C366.474107,36.132459 366.777035,36.1960994 367.083289,36.195947 C367.388386,36.1965728 367.690192,36.1329007 367.969034,36.0090763 L367.969034,35.2092899 L366.193807,35.2092899 Z" id="Path" fill="#FFFFFF" fill-rule="nonzero"></path>
                <rect id="Rectangle" fill="#FFFFFF" fill-rule="nonzero" x="525.508275" y="21.5643353" width="6.29364656" height="1.77522691"></rect>
                <path d="M532.882007,20.3085958 C532.009701,20.2781304 531.206193,20.7801283 530.851054,21.5774508 C530.495914,22.3747732 530.660218,23.307849 531.26635,23.9359025 C531.872482,24.563956 532.799134,24.7612924 533.608566,24.4346921 C534.417997,24.1080918 534.948213,23.3229185 534.948745,22.4500801 C534.967497,21.2887557 534.043265,20.3310973 532.882007,20.3085958 Z M532.882007,23.2760278 C532.54549,23.2882173 532.235266,23.0948936 532.097951,22.7874238 C531.960637,22.479954 532.02373,22.1199092 532.257411,21.8774512 C532.491093,21.6349931 532.848568,21.5586742 533.160889,21.6845637 C533.473211,21.8104531 533.677836,22.1133416 533.678057,22.4500801 C533.684449,22.8929624 533.335851,23.2598196 532.893219,23.2760278 L532.882007,23.2760278 Z" id="Shape" fill="#FFFFFF" fill-rule="nonzero"></path>
                <rect id="Rectangle" fill="#FFFFFF" fill-rule="nonzero" transform="translate(159.288308, 34.052589) rotate(180.000000) translate(-159.288308, -34.052589) " x="156.051789" y="33.164976" width="6.47303791" height="1.77522691"></rect>
                <path d="M154.93433,31.9092332 C153.751621,31.9092332 152.792846,32.8680117 152.792846,34.0507208 C152.792846,35.2334299 153.751621,36.192205 154.93433,36.192205 C156.117039,36.192205 157.075817,35.2334299 157.075817,34.0507208 C157.076809,33.4824596 156.851508,32.9371868 156.449686,32.5353648 C156.047864,32.1335429 155.502591,31.9082422 154.93433,31.9092332 L154.93433,31.9092332 Z M154.93433,34.8766684 C154.599929,34.8781816 154.297614,34.6779081 154.168594,34.3693955 C154.039575,34.0608829 154.109314,33.7050168 154.345237,33.4680219 C154.581159,33.2310269 154.936705,33.1596747 155.2458,33.2872936 C155.554894,33.4149125 155.75654,33.7163168 155.75654,34.0507208 C155.75654,34.2710769 155.668505,34.4823007 155.511989,34.6374126 C155.355474,34.7925245 155.143465,34.8786626 154.923118,34.8766684 L154.93433,34.8766684 Z" id="Shape" fill="#FFFFFF" fill-rule="nonzero"></path>
                <path d="M22.5584624,1.45755473 L13.1890016,1.45755473 L13.1890016,14.5381741 L22.5323011,14.5381741 C34.6599039,14.5381741 43.0613988,22.4687667 43.0613988,34.1329418 C43.0613988,45.7971169 34.6599039,53.7277096 22.5323011,53.7277096 L0.164442072,53.7277096 L0.164442072,66.3262146 L0.631607048,66.7933796 L22.5584624,66.7933796 C42.6203951,66.7933796 57.0800854,52.143086 57.0800854,34.1329418 C57.0800854,16.1227977 42.6054458,1.45755473 22.5584624,1.45755473 Z" id="Path" fill="url(#linearGradient-9)" fill-rule="nonzero"></path>
                <polygon id="Path" fill="url(#linearGradient-10)" fill-rule="nonzero" points="13.2263748 34.1142552 5.80779498 34.1142552 5.80779498 32.8772023 5.80779498 32.3390283 5.80779498 1.45755473 0.631607048 1.45755473 0.474639616 1.61078484 0.164442072 1.92098238 0.164442072 53.709023 13.2263748 53.709023"></polygon>
                <polygon id="Path" fill="url(#linearGradient-11)" fill-rule="nonzero" points="13.1890016 1.45755473 7.58302189 1.45755473 7.58302189 32.3390283 13.2263748 32.3390283"></polygon>
                <polygon id="Path" points="366.193807 40.1799253 367.969034 40.1799253 367.969034 40.1799253 374.546716 40.1799253 367.083289 18.2530699 359.616124 40.1799253 366.193807 40.1799253"></polygon>
                <polygon id="Path" fill="url(#linearGradient-12)" fill-rule="nonzero" opacity="0.8" points="335.357181 66.307528 335.824346 66.7709557 350.287774 66.7709557 350.754939 66.307528 355.419114 53.241858 340.376401 53.241858"></polygon>
                <polygon id="Path" fill="url(#linearGradient-13)" fill-rule="nonzero" opacity="0.8" points="374.079552 1.92098238 373.612387 1.45755473 360.550454 1.45755473 360.083289 1.92098238 345.391885 40.1799253 359.616124 40.1799253 367.083289 18.2530699 374.546716 40.1799253 388.774693 40.1799253 393.790176 53.241858 378.743727 53.241858 383.411639 66.307528 383.878804 66.7709557 398.342232 66.7709557 398.809397 66.307528"></polygon>
                <polygon id="Path" fill="url(#linearGradient-14)" fill-rule="nonzero" points="366.193807 45.8232782 366.193807 40.1799253 359.616124 40.1799253 345.391885 40.1799253 343.224239 45.8232782"></polygon>
                <polygon id="Path" fill="url(#linearGradient-15)" fill-rule="nonzero" points="388.79338 40.1687133 374.56914 40.1687133 367.991458 40.1687133 367.991458 45.8158035 367.991458 45.8158035 367.991458 47.5910304 367.991458 47.5910304 366.212493 47.5910304 342.562734 47.5910304 340.376401 53.241858 355.4378 53.2343833 378.766151 53.2343833 393.808863 53.2343833"></polygon>
                <rect id="Rectangle" fill="url(#linearGradient-16)" fill-rule="nonzero" x="366.193807" y="40.1799253" width="1.77522691" height="1"></rect>
                <rect id="Rectangle" fill="#FFFFFF" fill-rule="nonzero" x="367.969034" y="45.8232782" width="1" height="1.77522691"></rect>
                <rect id="Rectangle" fill="url(#linearGradient-17)" fill-rule="nonzero" x="367.969034" y="45.8232782" width="1" height="1.77522691"></rect>
                <polygon id="Path" fill="url(#linearGradient-18)" fill-rule="nonzero" opacity="0.8" points="525.508275 43.4911906 525.508275 43.4463428 525.508275 30.38441 525.508275 30.3358249 525.508275 30.38441 525.564335 1.45381741 512.913508 1.45381741 512.446343 1.92098238 512.446343 66.307528 512.913508 66.7709557 518.115857 66.7709557 518.115857 23.3470368 518.115857 22.9359317 518.115857 21.5381741 525.519487 21.5381741 525.519487 23.3470368 519.894821 23.3470368 519.894821 66.7709557 525.044848 66.7709557 525.508275 66.307528 525.508275 43.4463428 525.508275 43.4463428"></polygon>
                <path d="M182.437266,62.5851575 C181.955152,62.8430326 181.469301,63.0896957 180.983449,63.3326215 C181.469301,63.0896957 181.955152,62.8430326 182.437266,62.5851575 Z" id="Path" fill="#FFFFFF" fill-rule="nonzero" opacity="0.8"></path>
                <path d="M180.643353,63.4895889 C180.235985,63.6876668 179.828617,63.8633209 179.421249,64.0576615 C179.828617,63.8782702 180.235985,63.6876668 180.643353,63.4895889 Z" id="Path" fill="#FFFFFF" fill-rule="nonzero" opacity="0.8"></path>
                <path d="M179.159637,64.1735184 C178.677523,64.3865456 178.195408,64.5920982 177.709557,64.7864389 C178.195408,64.5883609 178.677523,64.3865456 179.159637,64.1735184 Z" id="Path" fill="#FFFFFF" fill-rule="nonzero" opacity="0.8"></path>
                <polygon id="Path" fill="#FFFFFF" fill-rule="nonzero" opacity="0.8" points="162.991991 41.1142552 162.524826 40.6470902 162.524826 28.5157501 162.991991 28.0485852 162.991991 28.0485852 162.524826 28.5157501 162.524826 40.6470902 162.991991 41.1142552 169.397758 41.1142552 169.397758 41.1142552"></polygon>
                <polygon id="Path" fill="#FFFFFF" fill-rule="nonzero" opacity="0.8" points="182.45969 28.5157501 182.227977 28.2840363 182.45969 28.5157501"></polygon>
                <path d="M177.051789,65.0293647 L177.051789,65.0293647 C177.268553,64.9471436 177.485318,64.8574479 177.698345,64.7714896 L177.051789,65.0293647 Z" id="Path" fill="#FFFFFF" fill-rule="nonzero" opacity="0.8"></path>
                <path d="M169.379071,67.2343833 L169.379071,53.2493326 C167.043246,54.1799253 162.857448,54.6433529 159.602242,54.6433529 C146.521623,54.6433529 138.138815,45.3000534 138.138815,34.1142552 C138.138815,22.928457 146.536572,13.5888948 159.135077,13.5888948 C167.06567,13.5888948 174.996263,14.9866524 181.996263,19.1948745 L182.45969,18.7277096 L182.45969,4.25680726 C175.463428,0.990389749 168,0.0560597971 159.135077,0.0560597971 C139.073145,0.0560597971 123.675387,15.4538174 123.675387,34.1142552 C123.675387,53.241858 139.54031,68.1724506 159.602242,68.1724506 C164.929528,68.209882 170.226552,67.3689242 175.280299,65.6833956 L175.280299,65.6833956 C173.349508,66.3297269 171.378143,66.84785 169.379071,67.2343833 L169.379071,67.2343833 Z" id="Path" fill="url(#linearGradient-19)" fill-rule="nonzero" opacity="0.8"></path>
                <polygon id="Path" fill="#FFFFFF" fill-rule="nonzero" points="182.227977 28.2840363 181.996263 28.0485852 162.991991 28.0485852 162.991991 28.0485852 181.996263 28.0485852"></polygon>
                <path d="M179.421249,64.0576615 L179.159637,64.1735184 L179.421249,64.0576615 Z" id="Path" fill="#FFFFFF" fill-rule="nonzero"></path>
                <polygon id="Path" fill="#FFFFFF" fill-rule="nonzero" points="182.437266 62.5851575 182.45969 62.5851575 182.45969 28.5157501 182.45969 28.5157501 182.45969 62.5739455"></polygon>
                <path d="M180.983449,63.3288841 L180.643353,63.4895889 L180.983449,63.3288841 Z" id="Path" fill="#FFFFFF" fill-rule="nonzero"></path>
                <polygon id="Path" fill="#FFFFFF" fill-rule="nonzero" points="169.397758 53.241858 169.379071 53.241858 169.379071 53.241858"></polygon>
                <path d="M175.280299,65.6684463 L175.280299,34.9402029 L162.524826,34.9402029 L162.524826,33.1612387 L177.051789,33.1612387 L177.051789,65.0293647 L177.698345,64.7864389 L177.698345,64.7864389 C178.184196,64.5920982 178.666311,64.3865456 179.148425,64.1735184 L179.410037,64.0576615 C179.817405,63.8782702 180.224773,63.6839295 180.632141,63.4895889 L180.972237,63.3288841 C181.458089,63.0896957 181.94394,62.8430326 182.426054,62.5814202 L182.448478,62.5814202 L182.448478,28.5157501 L182.216765,28.2840363 L181.985051,28.0485852 L162.991991,28.0485852 L162.524826,28.5157501 L162.524826,40.6470902 L162.991991,41.1142552 L169.397758,41.1142552 L169.397758,53.241858 L169.397758,53.241858 L169.379071,53.241858 L169.379071,67.2343833 C171.378491,66.8429545 173.349862,66.319836 175.280299,65.6684463 L175.280299,65.6684463 Z" id="Path" fill="url(#linearGradient-20)" fill-rule="nonzero"></path>
                <path d="M532.97544,1.45755473 L512.913508,1.45755473 L512.446343,1.9247197 L512.446343,14.631607 L525.508275,14.5531233 L525.508275,14.5306994 L532.041111,14.5306994 C536.899626,14.5306994 540.263214,16.0256273 541.410571,19.527496 C541.48935,19.7655098 541.555469,20.0075287 541.608649,20.252536 C541.766709,20.9780537 541.844415,21.7187676 541.840363,22.461292 C541.840363,28.0672718 538.103043,30.395622 532.041111,30.395622 L525.508275,30.395622 L525.508275,43.4762413 L532.982915,43.4762413 C541.971169,43.4762413 548.5937,39.9220502 552.439402,34.6524293 C552.704752,34.2786973 552.958889,33.9049653 553.186866,33.5312333 C553.30646,33.34063 553.422317,33.1575013 553.534437,32.9556861 C553.646556,32.7538708 553.766151,32.5520555 553.874533,32.3502403 C553.982915,32.148425 554.095035,31.9279231 554.19968,31.7148959 C554.548496,31.0064342 554.854265,30.2775794 555.115323,29.5323011 L555.115323,29.5323011 C555.322121,28.9492792 555.499021,28.3575369 555.646022,27.7570742 C555.795515,27.1553657 555.922584,26.5461826 556.019754,25.9295248 C556.06834,25.6193273 556.113187,25.3053924 556.146823,24.9877202 C556.240583,24.1838133 556.289244,23.3752861 556.29259,22.565937 C556.29259,22.5397758 556.29259,22.5173518 556.29259,22.4911906 C556.303791,11.2530699 547.891084,1.45755473 532.97544,1.45755473 Z" id="Path" fill="url(#linearGradient-21)" fill-rule="nonzero"></path>
            </g>
        </g>
    </g>
</svg>