<?xml version="1.0" encoding="utf-8"?>
<!-- Generator: Adobe Illustrator 16.0.4, SVG Export Plug-In . SVG Version: 6.00 Build 0)  -->
<!DOCTYPE svg PUBLIC "-//W3C//DTD SVG 1.1//EN" "http://www.w3.org/Graphics/SVG/1.1/DTD/svg11.dtd">
<svg version="1.1" id="Laag_1" xmlns="http://www.w3.org/2000/svg" x="0px" y="0px"
     width="85.04px" height="85.04px" viewBox="0 0 85.04 85.04" enable-background="new 0 0 85.04 85.04"
     xml:space="preserve">
<rect y="0" fill="none" width="85.039" height="85.04"/>
<g>
	<g>
		<g>
			<path fill="#26B4B3" d="M69.186,45.896c-3.352-10.883-10.062-24.075-13.933-31.534c3.604,0.257,6.451,0.656,9.541,1.483
				C64.828,23.222,68.623,35.854,69.186,45.896z"/>
		</g>
		<g>
			<path fill="#0863AA" d="M5.535,51.904v-4.469c1.522,0.729,3.408,1.455,5.461,1.455c2.186,0,3.145-0.727,3.145-1.92
				c0-1.588-1.423-1.621-4.601-3.012c-2.085-0.893-4.038-2.481-4.038-5.924c0-4.171,3.145-6.09,7.448-6.09
				c2.284,0,4.138,0.496,5.296,0.926v4.369c-1.059-0.496-2.98-1.126-4.899-1.126c-1.887,0-2.747,0.63-2.747,1.722
				c0,1.192,1.125,1.623,3.045,2.317c3.145,1.126,5.893,2.351,5.893,6.587c0,4.203-3.311,6.355-7.613,6.355
				C9.242,53.096,7.189,52.633,5.535,51.904z"/>
		</g>
		<path fill="#0863AA" d="M55.482,45.873v-9.241c-8.817-5.749-18.313-11.756-25.742-17.104c-2.991,2.721-5.166,7.346-6.133,12.697
			h5.162v13.661c1.482-0.002,3.194-0.004,5.064-0.006V32.225h7.515c7.579,0,10.359,4.966,10.359,10.295
			c0,1.117-0.144,2.265-0.44,3.351C52.686,45.871,54.095,45.871,55.482,45.873z"/>
		<path fill="#E85523" d="M63.861,45.881c-1.219-0.002-2.492-0.004-3.812-0.006v6.971h-4.567v-6.973
			c-1.388-0.002-2.797-0.002-4.215-0.002c-1.024,3.766-3.981,6.975-10.019,6.975h-7.415v-6.965c-1.87,0.002-3.582,0.004-5.064,0.006
			v6.959h-5.162c1.174,7.775,4.249,13.074,11.594,15.506c9.56-6.812,21.483-12.01,30.56-19.416L63.861,45.881z"/>
		<path fill="#E57E37" d="M65.761,48.936c-9.076,7.406-21,12.604-30.56,19.416c2.557,0.934,5.322,1.518,8.463,1.916
			c7.053-6.352,15.964-12.363,22.625-20.482L65.761,48.936z"/>
		<path fill="#642480" d="M68.626,52.846h-0.432l-1.905-3.061c-6.661,8.119-15.572,14.131-22.625,20.482
			c8.408,0.992,16.499,0.895,23.144-1.406C66.178,63.592,67.74,58.68,68.626,52.846z"/>
		<path fill="#32A9CC" d="M71.43,52.846h-2.804c-0.886,5.834-2.448,10.746-1.818,16.016c3.599-1.283,5.867-2.883,7.911-5.75
			C72.728,59.193,72.194,56.127,71.43,52.846z"/>
		<path fill="#FFFFFF" d="M73.722,52.025v0.82H71.43c0.765,3.281,1.298,6.348,3.289,10.266c1.093-1.539,2.022-3.516,2.686-5.564
			C75.691,55.279,74.695,53.611,73.722,52.025z"/>
		<path fill="#078E38" d="M79.461,38.111c-2.463,1.168-3.834,3.262-5.739,5.063v8.851c0.974,1.586,1.97,3.254,3.683,5.521
			C79.28,51.67,79.744,45.258,79.461,38.111z"/>
		<path fill="#FFFFFF" d="M79.266,35.207c-2.427,1.756-3.767,4.366-5.544,6.711v1.257c1.905-1.802,3.276-3.896,5.739-5.063
			C79.414,37.048,79.361,36.236,79.266,35.207z"/>
		<path fill="#E85523" d="M78.542,30.302c-2.212,2.477-3.429,5.662-4.82,8.715v2.9c1.777-2.345,3.117-4.955,5.544-6.711
			C79.106,33.492,78.872,31.852,78.542,30.302z"/>
		<path fill="#1F3460" d="M73.722,39.017c1.391-3.053,2.608-6.238,4.82-8.715c-0.066-0.311-0.043-0.205-0.113-0.512
			c-0.848-3.681-2.099-6.447-4.255-8.783c-1.504,3.201-2.123,7.15-2.615,11.218h2.163v6.386V39.017z"/>
		<path fill="#54B171" d="M71.559,32.225c0.492-4.067,1.111-8.017,2.615-11.218c-0.894-0.972-1.913-1.811-3.075-2.537
			c-1.196,3.773-1.264,8.687-1.263,13.755H71.559z"/>
		<path fill="#1F3460" d="M69.463,32.225c-0.141-5.263-0.229-10.357,0.845-14.224c-0.243-0.135-0.159-0.092-0.408-0.223
			c-1.008,3.909-0.836,9.092-0.622,14.446H69.463z"/>
		<path fill="#54B171" d="M69.153,32.225h0.124c-0.214-5.354-0.386-10.537,0.622-14.446c-0.498-0.261-1.19-0.582-1.734-0.806
			c-1.009,5.911,0.58,14.901,0.988,23.103V32.225z"/>
		<path fill="#0863AA" d="M69.153,42.685v-2.609c-0.408-8.201-1.997-17.191-0.988-23.103c-1.086-0.447-2.145-0.798-3.371-1.127
			c0.034,7.376,3.829,20.008,4.392,30.05C69.121,44.969,69.153,43.546,69.153,42.685z"/>
		<path fill="#E57E37" d="M69.186,45.896c-3.352-10.883-10.062-24.075-13.933-31.534c-2.514-0.178-4.703-0.229-7.212-0.162
			c6.343,7.342,14.797,19.422,20.262,29.958C68.645,44.789,68.958,45.402,69.186,45.896z"/>
		<g>
			<path fill="#642480" d="M48.041,14.201c-0.358,0.012-0.831,0.027-1.187,0.043c4.263,4.67,9.353,11.18,13.987,17.981h0.103
				l1.377,2.207l0.001,0.001l4.47,7.166c0.004,0.006,0.007,0.012,0.011,0.018l0.562,0.902c0.312,0.513,0.637,1.082,0.938,1.639
				C62.838,33.623,54.384,21.542,48.041,14.201z"/>
			<path fill="#32A9CC" d="M60.842,32.225c-4.635-6.802-9.725-13.312-13.987-17.981c-0.709,0.031-1.059,0.051-1.756,0.102
				c4.619,4.711,10.049,11.158,15.008,17.88H60.842z"/>
		</g>
		<path fill="#078E38" d="M60.106,32.225c-4.959-6.722-10.389-13.169-15.008-17.88c-1.395,0.1-2.631,0.234-3.938,0.435
			c5.312,4.778,11.439,11.005,17.099,17.445H60.106z"/>
		<path fill="#FFFFFF" d="M55.482,32.225h2.776C52.6,25.785,46.472,19.558,41.16,14.78c-2.281,0.351-4.092,0.782-5.993,1.5
			c6.208,4.927,13.483,10.831,20.315,16.79V32.225z"/>
		<path fill="#E85523" d="M55.482,33.07c-6.832-5.959-14.107-11.863-20.315-16.79c-1.356,0.512-2.586,1.132-3.696,1.882
			c7.1,5.295,15.859,11.369,24.012,17.293V33.07z"/>
		<path fill="#1F3460" d="M55.482,35.455C47.33,29.531,38.57,23.457,31.471,18.162c-0.222,0.15-0.148,0.1-0.364,0.254
			C38.279,23.73,47.191,29.8,55.482,35.697V35.455z"/>
		<path fill="#FFFFFF" d="M69.836,32.225c-0.001-5.068,0.066-9.981,1.263-13.755c-0.23-0.146-0.548-0.334-0.791-0.469
			c-1.074,3.866-0.985,8.961-0.845,14.224H69.836z"/>
		<g>
			<path fill="#0863AA" d="M63.861,45.881l-2.09-3.362c-0.558-0.881-1.206-1.957-1.649-2.84c-0.056-0.111-0.122-0.232-0.17-0.338
				c0.003,0.074,0.004,0.155,0.01,0.231c0.034,0.88,0.088,1.897,0.088,2.78v3.522C61.369,45.877,62.643,45.879,63.861,45.881z"/>
			<path fill="#54B171" d="M55.482,35.697C47.191,29.8,38.279,23.73,31.106,18.416c-0.435,0.312-0.979,0.757-1.366,1.113
				c7.429,5.348,16.925,11.354,25.742,17.104V35.697z"/>
		</g>
		<g>
			<path fill="#E85523" d="M45.781,45.873c-2.324,0-4.609,0.002-6.783,0.004v2.732h1.754C43.627,48.609,45.094,47.537,45.781,45.873
				z"/>
		</g>
		<g>
			<path fill="#0863AA" d="M40.951,36.396h-1.953v9.481c2.174-0.002,4.459-0.004,6.783-0.004c0.39-0.943,0.533-2.097,0.533-3.353
				C46.314,39.011,45.286,36.396,40.951,36.396z"/>
		</g>
	</g>
	<path fill="#FFFFFF" d="M55.482,35.455V33.07v-0.845h2.776h1.848h0.735h0.104l1.372,2.2l0,0l4.476,7.175
		c0.003,0.005,0.007,0.011,0.01,0.017l0.562,0.902c0.312,0.513,0.637,1.082,0.938,1.639c0.342,0.631,0.655,1.244,0.883,1.738
		c-0.064-0.928-0.032-2.35-0.032-3.211v-2.609v-7.851h0.124h0.186h0.373h1.723h2.163v6.386v0.406v2.9v1.257v8.851v0.82H71.43h-2.804
		h-0.432l-1.905-3.061l-0.528-0.85l-1.899-3.055l-2.09-3.362c-0.558-0.881-1.206-1.957-1.649-2.84
		c-0.056-0.111-0.121-0.232-0.17-0.338c0.003,0.074,0.004,0.155,0.01,0.231c0.034,0.88,0.088,1.897,0.088,2.78v3.522v6.971h-4.567
		v-6.973v-9.241v-0.936V35.455z"/>
	<g>
		<rect x="23.607" y="32.226" fill="#FFFFFF" width="5.162" height="20.62"/>
	</g>
	<path fill="#FFFFFF" d="M41.349,32.225h-7.515v13.656v6.965h7.415c6.037,0,8.994-3.209,10.019-6.975
		c0.297-1.086,0.44-2.234,0.44-3.351C51.708,37.191,48.928,32.225,41.349,32.225z M45.781,45.873
		c-0.688,1.664-2.154,2.736-5.029,2.736h-1.754v-2.732v-9.481h1.953c4.335,0,5.363,2.615,5.363,6.124
		C46.314,43.776,46.171,44.93,45.781,45.873z"/>
</g>
</svg>
