<?xml version="1.0" encoding="UTF-8" standalone="no"?>
<!-- Generator: Adobe Illustrator 19.0.0, SVG Export Plug-In . SVG Version: 6.00 Build 0)  -->

<svg
   version="1.1"
   id="layer"
   x="0px"
   y="0px"
   viewBox="-153 -110 600 512.39999"
   xml:space="preserve"
   sodipodi:docname="vng.svg"
   width="600px"
   height="312px"
   inkscape:version="1.1.2 (b8e25be833, 2022-02-05)"
   xmlns:inkscape="http://www.inkscape.org/namespaces/inkscape"
   xmlns:sodipodi="http://sodipodi.sourceforge.net/DTD/sodipodi-0.dtd"
   xmlns="http://www.w3.org/2000/svg"
   xmlns:svg="http://www.w3.org/2000/svg"><defs
   id="defs11" /><sodipodi:namedview
   id="namedview9"
   pagecolor="#ffffff"
   bordercolor="#666666"
   borderopacity="1.0"
   inkscape:pageshadow="2"
   inkscape:pageopacity="0.0"
   inkscape:pagecheckerboard="0"
   showgrid="false"
   inkscape:zoom="0.80521472"
   inkscape:cx="298.05714"
   inkscape:cy="56.506667"
   inkscape:window-width="1280"
   inkscape:window-height="650"
   inkscape:window-x="-6"
   inkscape:window-y="-6"
   inkscape:window-maximized="1"
   inkscape:current-layer="layer" />
<style
   type="text/css"
   id="style2">
	.st0{fill:#009FE4;}
	.st1{fill:#004388;}
</style>
<path
   class="st0"
   d="M 447,110.2 C 447,24.4 377.4,-45.5 291.7,-46 c -0.2,0 -0.3,0 -0.5,0 h -50.7 c -8.7,0 -15.8,7.1 -15.8,15.8 0,8.7 7.1,15.8 15.8,15.8 h 50.2 c 68.7,0 124.5,55.9 124.5,124.5 0,68.7 -55.9,124.5 -124.5,124.5 H 117.5 v -29 H 85.8 v 60.6 h 205.4 v 0 c 86,0 155.8,-70 155.8,-156 m -600,0 c 0,85.8 69.6,155.7 155.3,156.2 0.2,0 0.3,0 0.5,0 h 50.7 c 8.7,0 15.8,-7.1 15.8,-15.8 0,-8.7 -7.1,-15.8 -15.8,-15.8 H 3.2 c -68.7,0 -124.5,-55.9 -124.5,-124.5 0,-68.7 55.9,-124.5 124.5,-124.5 h 173.3 v 29 h 31.7 V -45.8 H 2.8 v 0 c -86,0.1 -155.8,70 -155.8,156"
   id="path4" />
<path
   class="st1"
   d="M 8.7,124.1 -20.9,45.7 H -56.7 L -5.2,174.5 H 19.6 L 72.7,45.7 H 38.8 Z m 167.8,3.6 -50.1,-82 H 85.8 v 128.8 h 31.6 V 90.4 l 51.5,84.1 h 39.2 V 45.7 H 176.5 Z M 298.7,96.4 v 29.5 h 22.4 v 16.9 c -2.9,1.4 -5.9,2.5 -8.9,3.4 -4.1,1.3 -9.1,1.9 -14.9,1.9 -5.6,0 -10.7,-0.9 -15.1,-2.8 -4.4,-1.8 -8.3,-4.5 -11.5,-7.9 -3.3,-3.4 -5.8,-7.5 -7.4,-12 -1.7,-4.6 -2.6,-9.8 -2.6,-15.4 0,-5.5 0.9,-10.6 2.6,-15.3 1.6,-4.5 4.1,-8.6 7.4,-12.1 3.3,-3.4 7.2,-6.1 11.5,-7.9 4.5,-1.9 9.6,-2.8 15.1,-2.8 6.7,0 12.4,1 16.8,2.8 4.4,1.9 8.5,4.7 12,8.3 l 1.5,1.6 22.2,-24.3 -1.5,-1.4 c -6.5,-6 -14.4,-10.5 -22.9,-12.9 -8.5,-2.4 -18,-3.7 -28.1,-3.7 -9.9,0 -19.2,1.6 -27.7,4.7 -8.2,3 -15.7,7.6 -22,13.6 -6.2,5.9 -11,13.1 -14.5,21.4 -3.4,8.3 -5.2,17.7 -5.2,27.9 0,10.2 1.7,19.6 5.2,27.9 3.4,8.3 8.3,15.5 14.5,21.4 6.2,5.9 13.6,10.4 22,13.6 8.4,3.1 17.7,4.7 27.7,4.7 9.3,0 18.5,-1 27.4,-2.9 9,-1.9 17.7,-5.1 25.9,-9.3 l 1.1,-0.6 V 96.2 Z"
   id="path6" />
</svg>
