<?xml version="1.0" encoding="UTF-8"?><svg id="Laag_2" xmlns="http://www.w3.org/2000/svg" viewBox="0 0 183.74 44.26"><defs><style>.cls-1{fill:#0080c9;}.cls-1,.cls-2,.cls-3{stroke-width:0px;}.cls-2{fill:#fff;}.cls-3{fill:#1d1d1b;}</style></defs><g id="Layer_1"><polygon class="cls-1" points="179.7 30.36 179.7 24.2 177.14 24.2 177.14 23.22 183.74 23.22 183.74 24.2 181.19 24.2 181.19 30.36 179.7 30.36"/><polygon class="cls-3" points="12.34 43.42 0 10.07 7.41 10.07 16.98 35.88 26.26 10.07 31.24 10.07 19.28 43.42 12.34 43.42"/><path class="cls-3" d="m35.27,10.07h6.94v20.45c0,3.7.63,6.15,1.88,7.35,1.25,1.21,2.88,1.8,4.88,1.8s3.53-.59,4.7-1.78c1.16-1.19,1.75-3.48,1.75-6.88V10.07h6.04v20.48c0,3.86-.48,6.63-1.45,8.3-.97,1.67-2.37,2.99-4.2,3.96-1.83.96-4.16,1.44-6.96,1.44s-5.14-.45-7.12-1.34c-1.98-.89-3.55-2.23-4.71-3.99-1.16-1.76-1.74-4.58-1.74-8.44V10.07Z"/><path class="cls-2" d="m70.97,35.27v.88l.26-.23c-.06-.25-.11-.5-.16-.75l-.1.09Z"/><path class="cls-1" d="m75.42,25.44c0-.14.11-.29.26-.29s.26.15.26.29-.11.26-.26.26-.26-.11-.26-.26"/><path class="cls-1" d="m91.87,33.54c-.4-1.1-1.47-1.84-2.94-1.73-.81-1.55-2.1-.82-2.47-.37.4.37.73.51,1.21.59v.33c-.92-.04-1.21-.4-1.84-1.07-.26,2.21,2.32,2.99,3.13,1.18,1.21-.04,1.95.51,2.21,1.29.25.77,0,1.62-.41,2.02-.74.88-1.92.88-2.98.33-.66-.33-1.36-1.03-1.99-1.69-.92-1.03-1.44-1.47-2.14-1.84-.38-.18-.77-.27-1.14-.33-.22-.04-.44-.07-.66-.07-.21,0-.41.02-.59.06-1.57.17-3.17.95-5.08,1.12h-1.03c-.64.56-1.2,1.05-1.7,1.49l-1.21,1.05s0,.02.01.02c-.52.47-.82.75-.82.75.14,1.14.18,1.69.18,2.72,0,.85-.04,1.26-.04,1.62-.04.37-.11.66-.22.95-.07.26-.3.48-.66.52-.33.07-1.11-.52-1.36-.15-.22.29.04.99.25,1.18h2.17c.26-.55.37-.88.52-1.21.19-.26.33-.67.48-.92.15-.25.3-.63.37-.88.04-.26.15-.52.18-.7.15-.41.37-.78.51-.99.04-.07.08-.12.12-.18.1.14.19.29.25.4.52.81.96,1.44,1.69,1.73.29.15.48.26.59.37.11.11.11.44.08.66,0,.3-.11.55-.41.66-.48.19-1.25-.51-1.55-.14-.26.29.04.85.3,1.21h1.98c.48-.77.67-1.84.67-2.72s0-1.14-.55-1.36c-.18-.11-.37-.55-.51-1.03,0-.05,0-.15,0-.25.95-.31,1.99-.87,3.14-1.71,0,.15.01.3.03.46.18,1.25.33,2.39,1.29,3.31.25.26.47.52.51.67,0,.11-.15.51-.26.7-.22.48-.7.88-1.06.92-.48.07-1.03-.55-1.4-.18-.33.33.11,1.03.33,1.21h2.02c.66-1.21,1.58-2.24,1.92-2.91.18-.48.18-.66-.19-.81-.66-.37-.59-1.18-.4-2.1.05-.15.12-.31.2-.46.5,1.39,1.15,2.7,2.67,3.1.25.03.62.22.66.3,0,.07,0,.37-.04.58-.07.44-.33.96-.66,1.21-.36.29-1.28-.66-1.58-.11-.22.44.15,1.03.34,1.18h1.95c.55-1.21,1.03-2.28,1.18-3.05.14-.92.14-1.25-.56-1.4-.37-.04-.66-.19-.77-.7-.26-.92-.22-2.46-.92-3.53.77.92,1.61,1.58,2.35,1.95,1.69.92,3.46.58,4.3-.63.55-.92.55-1.95.33-2.61"/><path class="cls-1" d="m108.77,10.2c-1.51-.18-4.94.18-7.88.84,1.84-.92,2.36-1.06,3.02-1.47.18-.11.29-.37.29-.77,0-.44-.4-.51-.88-.44-.48.04-1.51.4-2.77.85-2.5,1.03-6.11,2.72-10.38,5.6-3.75,2.58-6.25,4.78-8.98,7.54-.71.73-1.53,1.63-2.38,2.63-.19-.33-.31-.41-.64-.32.96-2.17,1.06-2.28,1.58-3.53.22-.59.11-1.04-.11-1.29-.3-.52-.7-.15-.96.04-.4.48-.52.59-1.4,1.69,1.1-3.68,1.69-3.97,2.72-6.07.11-.26.11-.69-.04-1.03-.11-.26-.26-.41-.48-.29-.41.18-.52.4-1.29,1.32,1.1-2.1,2.61-4.56,2.76-4.96.18-.44.44-.52-.04-1.18-.37-.55-.7-.15-.96.11-.22.11-.67.63-1.43,1.55,1.62-3.02,3.13-4.42,3.42-4.93.37-.59.41-.74.11-1.4-.26-.59-.78-.33-1.03,0-1.14,1.1-1.07.85-2.98,3.05.99-2.62,2.73-4.6,3.35-5.63.26-.4.3-.55.04-1.55-.15-.44-.51-.59-.88-.55-.55.11-1.07.41-2.1,1.29-2.1,1.88-4.89,4.61-7.18,9.5-2.21,4.6-2.69,8.94-2.69,11.92,0,4.63,1.21,8.64,2.33,11.16,0-.09-.01-.17-.02-.27-.07-1.25.15-2.68.37-3.38.47-1.84,1.08-2.83,1.59-3.63l-.89-1.22,1.18.37-.7-1.55s.89.1,1.57,1.02c.43-.39,1.3-.73,2.14-.06.55-.04.89.07,1.18.22.62.37.55,1.03.51,1.18-.33-.29-1.25-.89-2.25-.11l1.84.63-2.32.18v2.4l-2.76,2.46v.94l1.89-1.66v.87l-3.33,2.99v.91l4.2-3.78h0s1.06-.94,1.06-.94h0c.63-.51.88-.77,1.25-.95.44-.3.51.03.59.51.11.4.59.81,1.59-.11,2.94-2.65,6.04-4.09,9.31-5.67-1.77,1.21-5.04,3.01-6.15,4.23-.48.55,0,1.91.77,1.33,1.4-.92,3.24-1.07,4.16-1.03.44,0,.92-.29,1.18-.66.26-.33.26-.7-.33-.74,3.02-.92,3.79-1.17,6.29-1.4.66-.04,1.07-.4,1.18-.96.11-.51-.15-.66-.77-.73-.74-.11-2.03.11-3.32.33,2.91-1.25,6.44-1.91,9.24-2.72.88-.26,1-.52,1.03-1.03.11-.55-.33-.55-1.33-.55-2.02.11-5.04.29-9.64,1.62,4.34-2.17,6.77-3.21,10.71-4.2,1.07-.3,1.25-.55,1.33-1.11.18-.63-.33-.63-.7-.55-.55.04-1.88,0-4.57.81,2.62-1.14,5.48-2.47,7.54-3.13.45-.15.7-.44.7-.92,0-.37-.11-.4-.55-.4-.89,0-2.32.29-4.05.81,3.53-1.51,4.6-2.03,6.95-2.43.78-.18.92-.44.96-.92.11-.66-.33-.63-.84-.66m-35.04,12c-.04-.29-.18-.47-.44-.62.52-1.25,1.03-2.25,2.02-3.57-.92,1.84-1.36,3.39-1.58,4.2m-3.2-1.03c.7-7.51,4.12-13.03,6.44-15.57-3.35,4.93-5.26,11.78-6.44,15.57m12.51,2.13c4.38-4.16,10.38-8.57,17.96-10.45-6.4,2.28-15.2,8.28-17.96,10.45"/><polygon class="cls-1" points="118.44 17.32 115.8 10.18 117.38 10.18 119.43 15.7 121.42 10.18 122.48 10.18 119.92 17.32 118.44 17.32"/><path class="cls-1" d="m124.84,13.42h.34c.62,0,1.04-.13,1.27-.4.23-.27.35-.57.35-.91,0-.29-.09-.52-.28-.7-.19-.17-.58-.26-1.16-.26h-.52v2.26Zm-1.4,3.9v-7.14h2.67c.55,0,.96.07,1.25.2.29.14.51.34.68.62.16.28.25.59.25.94,0,.42-.12.81-.36,1.18-.24.37-.58.65-1.02.85l2.34,3.33h-1.81l-1.77-2.92h-.82v2.92h-1.4Z"/><rect class="cls-1" x="130.2" y="10.18" width="1.49" height="7.14"/><path class="cls-1" d="m132.25,18.57v-1.06c.37.15.77.23,1.19.23.17,0,.33-.03.46-.1.13-.07.24-.17.32-.31.08-.15.12-.44.12-.9v-6.25h1.49v6.09c0,.67-.08,1.16-.23,1.46-.16.31-.4.55-.73.74-.33.19-.77.28-1.32.28-.41,0-.83-.06-1.29-.17"/><polygon class="cls-1" points="137.62 17.32 137.62 10.18 142.2 10.18 142.2 11.16 139.11 11.16 139.11 13.15 141.66 13.15 141.66 14.13 139.11 14.13 139.11 16.3 142.42 16.3 142.42 17.32 137.62 17.32"/><path class="cls-1" d="m116.51,23.22h1.49v4.38c0,.79.13,1.31.4,1.57.27.26.61.38,1.04.38s.76-.13,1-.38c.25-.25.38-.74.38-1.47v-4.48h1.29v4.38c0,.83-.1,1.42-.31,1.78-.21.36-.5.64-.9.85-.39.2-.89.31-1.49.31s-1.1-.09-1.52-.29c-.42-.19-.76-.47-1.01-.85-.25-.38-.37-.98-.37-1.81v-4.37Z"/><polygon class="cls-1" points="123.89 30.36 123.89 23.22 125.2 23.22 128.5 28.09 128.5 23.22 129.69 23.22 129.69 30.36 128.36 30.36 125.08 25.48 125.08 30.36 123.89 30.36"/><rect class="cls-1" x="131.64" y="23.22" width="1.48" height="7.14"/><polygon class="cls-1" points="136.73 30.36 134.09 23.22 135.67 23.22 137.72 28.74 139.71 23.22 140.77 23.22 138.21 30.36 136.73 30.36"/><polygon class="cls-1" points="141.56 30.36 141.56 23.22 146.14 23.22 146.14 24.2 143.05 24.2 143.05 26.19 145.6 26.19 145.6 27.17 143.05 27.17 143.05 29.34 146.36 29.34 146.36 30.36 141.56 30.36"/><path class="cls-1" d="m149,26.46h.34c.61,0,1.04-.13,1.27-.4.24-.27.35-.57.35-.91,0-.29-.1-.52-.29-.7-.19-.17-.58-.26-1.16-.26h-.52v2.26Zm-1.4,3.9v-7.14h2.67c.54,0,.96.07,1.25.2.29.14.51.34.68.62.17.28.25.59.25.94,0,.42-.12.81-.36,1.19-.24.37-.58.66-1.02.85l2.34,3.33h-1.81l-1.77-2.92h-.82v2.92h-1.4Z"/><path class="cls-1" d="m153.84,30.29v-1.23c.56.23.97.37,1.25.42.28.05.53.07.76.07.42,0,.73-.09.93-.28.21-.19.31-.41.31-.67,0-.2-.05-.38-.17-.54-.11-.16-.4-.36-.84-.61l-.48-.27c-.69-.38-1.15-.74-1.4-1.06-.25-.32-.37-.7-.37-1.13,0-.54.21-1,.62-1.38.41-.38,1-.57,1.78-.57.57,0,1.22.08,1.94.25v1.14c-.74-.28-1.32-.41-1.76-.41-.36,0-.63.08-.82.23-.19.16-.28.34-.28.56,0,.17.06.32.17.47.11.15.39.34.84.59l.52.29c.79.44,1.29.82,1.51,1.15.21.33.32.7.32,1.1,0,.58-.22,1.08-.67,1.5-.45.42-1.16.62-2.13.62-.58,0-1.25-.08-2.02-.24"/><rect class="cls-1" x="159.89" y="23.22" width="1.49" height="7.14"/><polygon class="cls-1" points="164.46 30.36 164.46 24.2 161.91 24.2 161.91 23.22 168.51 23.22 168.51 24.2 165.95 24.2 165.95 30.36 164.46 30.36"/><polygon class="cls-1" points="169.05 30.36 169.05 23.22 173.63 23.22 173.63 24.2 170.54 24.2 170.54 26.19 173.09 26.19 173.09 27.17 170.54 27.17 170.54 29.34 173.85 29.34 173.85 30.36 169.05 30.36"/><rect class="cls-1" x="175.05" y="23.22" width="1.49" height="7.14"/><path class="cls-1" d="m117.98,40.54h2.22l-1.11-2.84-1.11,2.84Zm-2.19,2.86l2.78-7.14h1.49l2.78,7.14h-1.53l-.74-1.91h-2.96l-.74,1.91h-1.08Z"/><polygon class="cls-1" points="123.76 43.4 123.76 36.26 125.73 36.26 127.45 41.28 129.23 36.26 130.95 36.26 130.95 43.4 129.58 43.4 129.58 38.01 127.84 42.92 126.64 42.92 124.93 37.94 124.93 43.4 123.76 43.4"/><path class="cls-1" d="m132.42,43.33v-1.23c.56.23.97.37,1.25.42.28.04.53.07.76.07.41,0,.73-.09.93-.28.21-.18.31-.41.31-.67,0-.2-.06-.38-.17-.54-.12-.16-.39-.36-.84-.61l-.48-.26c-.69-.38-1.15-.74-1.4-1.06-.25-.32-.37-.7-.37-1.13,0-.54.2-1,.62-1.38.41-.38,1-.58,1.77-.58.58,0,1.23.08,1.95.25v1.15c-.74-.27-1.32-.41-1.76-.41-.36,0-.63.08-.82.24-.19.16-.28.34-.28.56,0,.17.06.32.17.47.11.14.39.34.84.59l.52.28c.79.44,1.29.83,1.51,1.15.21.33.32.69.32,1.1,0,.58-.22,1.08-.67,1.5-.45.41-1.15.62-2.13.62-.58,0-1.25-.08-2.02-.24"/><polygon class="cls-1" points="139.73 43.4 139.73 37.24 137.18 37.24 137.18 36.26 143.78 36.26 143.78 37.24 141.22 37.24 141.22 43.4 139.73 43.4"/><polygon class="cls-1" points="144.36 43.4 144.36 36.26 148.94 36.26 148.94 37.24 145.85 37.24 145.85 39.23 148.4 39.23 148.4 40.21 145.85 40.21 145.85 42.39 149.16 42.39 149.16 43.4 144.36 43.4"/><path class="cls-1" d="m151.7,39.5h.34c.62,0,1.04-.13,1.27-.4.23-.27.35-.57.35-.91,0-.29-.09-.52-.28-.7-.19-.17-.58-.26-1.16-.26h-.52v2.26Zm-1.4,3.9v-7.14h2.67c.55,0,.97.07,1.25.2.29.14.51.34.68.62.17.28.25.59.25.94,0,.42-.12.81-.36,1.19-.24.37-.58.65-1.02.85l2.34,3.33h-1.81l-1.78-2.92h-.82v2.92h-1.4Z"/><path class="cls-1" d="m158.35,42.39h1.11c.58,0,1.02-.09,1.33-.27.3-.18.55-.49.73-.91.18-.43.27-.91.27-1.43s-.08-.95-.26-1.34c-.17-.39-.41-.68-.72-.88-.31-.2-.83-.3-1.56-.3h-.89v5.15Zm-1.49,1.01v-7.14h3.08c.82,0,1.46.13,1.92.4.46.26.82.65,1.09,1.16.27.51.41,1.13.41,1.86s-.13,1.35-.39,1.91c-.26.56-.63,1-1.13,1.33-.5.33-1.18.49-2.04.49h-2.94Z"/><path class="cls-1" d="m165.73,40.54h2.21l-1.11-2.84-1.11,2.84Zm-2.19,2.86l2.78-7.14h1.49l2.78,7.14h-1.52l-.75-1.91h-2.95l-.75,1.91h-1.08Z"/><polygon class="cls-1" points="171.31 43.4 171.31 36.26 173.28 36.26 175 41.28 176.77 36.26 178.5 36.26 178.5 43.4 177.13 43.4 177.13 38.01 175.38 42.92 174.19 42.92 172.48 37.94 172.48 43.4 171.31 43.4"/></g></svg>