<?xml version="1.0" encoding="UTF-8"?><svg id="Layer_1" xmlns="http://www.w3.org/2000/svg" viewBox="0 0 478.14 32.8"><defs><style>.cls-1{fill:#fff;stroke-width:0px;}</style></defs><path class="cls-1" d="m24.3,11c-1.1,1.8-2.8,3-4.8,3.4h-.1c-1.7.5-3.4,1.6-4.4,3.4-1,1.7-1.2,3.6-.8,5.4.6,1.9.5,4.1-.6,6-2.1,3.5-6.5,4.6-10,2.5C.1,29.7-1,25.2,1,21.8c.6-1,1.4-1.8,2.3-2.4s1.9-1,2.9-1.1c1.7-.5,3.2-1.6,4.2-3.2.5-.9.8-1.8,1-2.7.1-.9.1-1.8-.1-2.7-.7-1.9-.5-4.1.6-6C13.9.2,18.4-.9,21.9,1.2c3.4,1.9,4.5,6.3,2.4,9.8Z"/><path class="cls-1" d="m54.1,25.6c0,4-3.2,7.2-7.2,7.2-2.1,0-4-.9-5.3-2.3h0c-1.3-1.3-3.1-2.2-5.1-2.2s-3.7.8-5,2c-1.3,1.5-3.2,2.5-5.4,2.5-4,0-7.2-3.2-7.2-7.2s3.2-7.2,7.2-7.2c2.2,0,4.2,1,5.5,2.6,1.3,1.2,3,1.9,4.8,1.9,1,0,1.9-.2,2.8-.6.8-.4,1.6-.9,2.2-1.5,1.3-1.5,3.3-2.5,5.4-2.5,4.1.2,7.3,3.4,7.3,7.3Z"/><circle class="cls-1" cx="36.7" cy="7.3" r="7.2"/><path class="cls-1" d="m301.93,2.5c.3-.6.6-1.1,1.4-1.1h4.5c.8,0,1.2.4,1.4,1.1l10.2,26.7c.3.8.1,1.5-.8,1.5h-4.7c-1,0-1.4-.5-1.6-1.2l-1.7-4.9h-10.4l-1.7,5.1c-.2.5-.5,1-1.3,1h-4.5c-.9,0-1.1-.7-.8-1.5l10-26.7Zm6.9,17l-2.7-8.3c-.3-.9-.5-1.7-.8-2.4h-.1c-.2.8-.5,1.6-.8,2.5l-2.7,8.2h7.1Z"/><path class="cls-1" d="m341.73,29.4c0,.9-.5,1.2-1.3,1.2h-16c-.9,0-1.3-.2-1.3-1.3V2.6c0-.8.4-1.2,1.2-1.2h4.3c.9,0,1.3.3,1.3,1.3v22.3h10.7c.8,0,1.2.4,1.2,1.2v3.2h-.1Z"/><path class="cls-1" d="m358.23,14.4l10,14.8c.2.2.3.5.3.8,0,.4-.2.7-1,.7h-5.1c-1.2,0-1.8-.4-2.4-1.2l-6.2-9.9-1.8,2.3v7.5c0,.9-.4,1.2-1.2,1.2h-4.2c-.9,0-1.3-.3-1.3-1.2V2.5c0-.8.5-1.1,1.3-1.1h4.2c.8,0,1.2.2,1.2,1.1v9.9l7.6-10.1c.5-.7,1-.9,1.8-.9h5.1c.8,0,1,.3,1,.7,0,.3-.2.5-.3.8l-9,11.5Z"/><path class="cls-1" d="m379.33,13.1h9.6c.9,0,1.3.5,1.3,1.1v3.1c0,.8-.4,1.2-1.2,1.2h-9.6v6.6h11c.8,0,1.2.3,1.2,1.1v3.1c0,.8-.4,1.2-1.2,1.2h-16.3c-1,0-1.4-.3-1.4-1.3V2.6c0-.7.4-1.2,1.1-1.2h16.8c.8,0,1.1.4,1.1,1l-.4,3.4c-.1.9-.6,1.1-1.6,1.1h-10.2v6.2h-.2Z"/><path class="cls-1" d="m421.93,14.5l-6.4,15.2c-.3.8-.9.9-1.4.9h-1.6c-.8,0-1.3-.1-1.7-1l-7.3-15.2h-.1l-.3,14.9c0,1.2-.5,1.3-1.4,1.3h-3.3c-1.1,0-1.5-.4-1.4-1.3l1.1-26.5c0-1,.5-1.3,1.3-1.3h3c1,0,1.3.3,1.7,1.1l9.3,19h.1l8.4-19c.3-.7.8-1.1,1.7-1.1h2.9c.8,0,1.1.3,1.2,1.1l1.4,26.9c0,.8-.3,1.3-1.1,1.3h-4.2c-1.1,0-1.3-.5-1.4-1.7l-.5-14.6h0Z"/><path class="cls-1" d="m460.93,31.2c-8.5,0-13.2-6-13.2-15.1s5.1-15.3,13.5-15.3,13.2,6.5,13.2,15.1c0,9.4-5.6,15.3-13.5,15.3Zm.1-24.7c-3.7,0-6.1,3.2-6.1,9.5,0,6.7,2.3,9.6,6.3,9.6,3.7,0,6.1-3,6.1-9.5-.1-6.9-2.3-9.6-6.3-9.6Z"/><path class="cls-1" d="m442.23,2.5v27c0,.6-.5,1.1-1.1,1.1h-4.5c-.6,0-1.1-.5-1.1-1.1V2.5c0-.6.5-1.1,1.1-1.1h4.5c.6,0,1.1.5,1.1,1.1Z"/><path class="cls-1" d="m74.88,24.23c.28.95.73,1.64,1.36,2.08.63.43,1.53.65,2.71.65,2.55,0,3.82-.99,3.82-2.98,0-.87-.29-1.58-.86-2.14-.57-.56-1.52-1.04-2.83-1.43l-3.49-1.05c-4.87-1.46-7.31-4.3-7.31-8.53v-.67c0-1.79.43-3.35,1.3-4.66.87-1.32,2.08-2.34,3.65-3.07,1.57-.73,3.4-1.09,5.5-1.09,1.74,0,3.23.19,4.47.57,1.25.38,2.39.99,3.42,1.83.81.64,1.47,1.49,1.97,2.54.5,1.05.76,2.11.76,3.17,0,.56-.12.95-.36,1.16-.24.21-.71.32-1.41.32h-3.32c-.62,0-1.04-.1-1.26-.29-.22-.2-.41-.57-.55-1.13-.42-1.68-1.68-2.52-3.78-2.52-2.3,0-3.44.98-3.44,2.94,0,.98.29,1.74.86,2.27.57.53,1.64,1.04,3.21,1.51l3.49,1.05c4.7,1.37,7.06,4.06,7.06,8.06v.76c0,2.83-.97,5.04-2.92,6.64-1.95,1.6-4.64,2.39-8.08,2.39-3.67,0-6.44-.84-8.32-2.52-.78-.73-1.41-1.6-1.87-2.62s-.69-2.06-.69-3.13c0-.56.12-.95.36-1.16.24-.21.71-.32,1.41-.32h3.23c.64,0,1.08.08,1.32.25.24.17.43.55.57,1.13Z"/><path class="cls-1" d="m99.83,8.15h-6.64c-.62,0-1.03-.12-1.24-.36s-.32-.74-.32-1.49v-2.44c0-.76.11-1.25.32-1.49s.62-.36,1.24-.36h20.16c.64,0,1.06.12,1.26.36.2.24.29.73.29,1.49v2.44c0,.76-.1,1.25-.29,1.49-.2.24-.62.36-1.26.36h-6.64v22.18c0,.64-.12,1.07-.36,1.28-.24.21-.72.32-1.45.32h-3.28c-.73,0-1.21-.11-1.45-.32s-.36-.64-.36-1.28V8.15Z"/><path class="cls-1" d="m125.49,30.32c0,.64-.12,1.07-.36,1.28s-.72.32-1.45.32h-3.28c-.73,0-1.21-.11-1.45-.32-.24-.21-.36-.64-.36-1.28V3.61c0-.64.12-1.07.36-1.28.24-.21.72-.32,1.45-.32h3.28c.73,0,1.21.11,1.45.32s.36.64.36,1.28v26.71Z"/><path class="cls-1" d="m146.11,22.64c.08-.56.26-.93.53-1.11.27-.18.72-.27,1.37-.27h3.28c.73,0,1.2.1,1.43.32.22.21.34.68.34,1.41,0,1.6-.28,3.02-.84,4.26-.56,1.25-1.37,2.27-2.44,3.09-1.93,1.51-4.56,2.27-7.9,2.27-4.59,0-7.8-1.5-9.62-4.49-1.2-1.99-1.81-4.66-1.81-8.02v-5.8c0-3.33.6-6.02,1.81-8.06,1.9-3.25,5.25-4.87,10.04-4.87,3.16,0,5.66.7,7.48,2.1,2.18,1.62,3.28,4.06,3.28,7.31,0,.76-.11,1.25-.34,1.47s-.71.34-1.47.34h-2.98c-.78,0-1.31-.13-1.58-.4-.27-.27-.47-.8-.61-1.62-.36-2.21-1.71-3.32-4.03-3.32-1.65,0-2.83.5-3.55,1.49-.71.99-1.07,2.65-1.07,4.98v6.55c0,2.32.35,3.98,1.05,4.98.7.99,1.86,1.49,3.49,1.49,1.32,0,2.29-.3,2.92-.9.63-.6,1.04-1.66,1.24-3.17Z"/><path class="cls-1" d="m180.18,30.32c0,.64-.12,1.07-.36,1.28s-.72.32-1.45.32h-3.28c-.73,0-1.21-.11-1.45-.32-.24-.21-.36-.64-.36-1.28v-10.92h-9.24v10.92c0,.64-.12,1.07-.36,1.28s-.72.32-1.45.32h-3.28c-.73,0-1.21-.11-1.45-.32-.24-.21-.36-.64-.36-1.28V3.61c0-.64.12-1.07.36-1.28.24-.21.72-.32,1.45-.32h3.28c.73,0,1.21.11,1.45.32s.36.64.36,1.28v9.83h9.24V3.61c0-.64.12-1.07.36-1.28.24-.21.72-.32,1.45-.32h3.28c.73,0,1.21.11,1.45.32s.36.64.36,1.28v26.71Z"/><path class="cls-1" d="m192.06,8.15h-6.64c-.62,0-1.03-.12-1.24-.36s-.32-.74-.32-1.49v-2.44c0-.76.11-1.25.32-1.49s.62-.36,1.24-.36h20.16c.64,0,1.06.12,1.26.36.2.24.29.73.29,1.49v2.44c0,.76-.1,1.25-.29,1.49-.2.24-.62.36-1.26.36h-6.64v22.18c0,.64-.12,1.07-.36,1.28-.24.21-.72.32-1.45.32h-3.28c-.73,0-1.21-.11-1.45-.32s-.36-.64-.36-1.28V8.15Z"/><path class="cls-1" d="m217.72,30.32c0,.64-.12,1.07-.36,1.28s-.72.32-1.45.32h-3.28c-.73,0-1.21-.11-1.45-.32-.24-.21-.36-.64-.36-1.28V3.61c0-.64.12-1.07.36-1.28.24-.21.72-.32,1.45-.32h3.28c.73,0,1.21.11,1.45.32s.36.64.36,1.28v26.71Z"/><path class="cls-1" d="m229.86,14.45v15.88c0,.64-.12,1.07-.36,1.28-.24.21-.72.32-1.45.32h-2.86c-.73,0-1.2-.11-1.43-.32-.22-.21-.34-.64-.34-1.28V3.61c0-.64.12-1.07.36-1.28.24-.21.72-.32,1.45-.32h2.6c.81,0,1.38.09,1.7.27.32.18.65.61.99,1.28l8.32,15.88V3.61c0-.64.12-1.07.36-1.28.24-.21.72-.32,1.45-.32h2.81c.73,0,1.21.11,1.45.32.24.21.36.64.36,1.28v26.71c0,.64-.12,1.07-.36,1.28-.24.21-.72.32-1.45.32h-2.6c-.81,0-1.38-.09-1.7-.27-.32-.18-.65-.61-.99-1.28l-8.32-15.92Z"/><path class="cls-1" d="m250.23,14.28c0-3.33.6-6.02,1.81-8.06,1.9-3.25,5.28-4.87,10.12-4.87,3.42,0,6.1.8,8.06,2.39,1.96,1.6,2.94,3.78,2.94,6.55,0,.53-.13.9-.38,1.11s-.71.32-1.39.32h-3.4c-.62,0-1.04-.11-1.28-.32-.24-.21-.43-.66-.57-1.36-.36-1.88-1.75-2.81-4.16-2.81-1.76,0-3,.48-3.72,1.43-.71.95-1.07,2.62-1.07,5v6.64c0,2.32.35,3.98,1.05,4.96.7.98,1.9,1.47,3.61,1.47s2.92-.36,3.65-1.07,1.09-1.91,1.09-3.59v-.17h-2.6c-.73,0-1.21-.1-1.45-.31-.24-.21-.36-.64-.36-1.28v-2.81c0-.64.12-1.07.36-1.28s.72-.31,1.45-.31h7.35c.73,0,1.21.1,1.45.31.24.21.36.64.36,1.28v4.66c0,3.42-.96,6.01-2.88,7.79-1.92,1.78-4.75,2.67-8.5,2.67-2.46,0-4.59-.49-6.36-1.47-1.78-.98-3.13-2.39-4.05-4.24-.76-1.51-1.13-3.78-1.13-6.8v-5.8Z"/></svg>