<svg width="304" height="78" viewBox="0 0 304 78" fill="none" xmlns="http://www.w3.org/2000/svg">
<path d="M46.0595 31.6668C43.9738 35.0797 40.7506 37.3549 36.9585 38.1133H36.7689C33.5457 39.0613 30.3225 41.147 28.4264 44.5598C26.5304 47.7831 26.1512 51.3855 26.9096 54.7984C28.0472 58.4008 27.8576 62.5721 25.772 66.1745C21.7903 72.8106 13.4478 74.8962 6.81171 70.9146C0.175619 67.1225 -1.91001 58.5904 1.88204 52.1439C3.01966 50.2479 4.53648 48.7311 6.24291 47.5934C7.94933 46.4558 9.84536 45.6974 11.7414 45.5078C14.9646 44.5598 17.8087 42.4742 19.7047 39.4405C20.6527 37.7341 21.2215 36.0277 21.6007 34.3213C21.7903 32.6148 21.7903 30.9084 21.4111 29.202C20.0839 25.5995 20.4631 21.4283 22.5487 17.8258C26.3408 11.1897 34.8729 9.10409 41.509 13.0858C47.9555 16.6882 50.0411 25.0307 46.0595 31.6668Z" fill="#09BCD4"/>
<path d="M102.561 59.3486C102.561 66.9327 96.4939 73 88.9098 73C84.9282 73 81.3257 71.2935 78.8609 68.6391C76.396 66.1743 72.9832 64.4678 69.1911 64.4678C65.5887 64.4678 62.1758 65.9847 59.711 68.2599C57.2462 71.1039 53.6437 73 49.4724 73C41.8883 73 35.821 66.9327 35.821 59.3486C35.821 51.9541 41.8883 45.6972 49.4724 45.6972C53.6437 45.6972 57.4358 47.5932 59.9006 50.6268C62.3654 52.9021 65.5887 54.2293 69.0015 54.2293C70.8976 54.2293 72.604 53.8501 74.3104 53.0917C75.8272 52.3333 77.344 51.3853 78.4817 50.2476C80.9465 47.4036 84.7385 45.5076 88.7202 45.5076C96.4939 45.8868 102.561 51.9541 102.561 59.3486Z" fill="#09BCD4"/>
<path d="M69.5702 38.3028C77.1097 38.3028 83.2216 32.1909 83.2216 24.6514C83.2216 17.1119 77.1097 11 69.5702 11C62.0308 11 55.9188 17.1119 55.9188 24.6514C55.9188 32.1909 62.0308 38.3028 69.5702 38.3028Z" fill="#09BCD4"/>
<path d="M120.108 60.908H128.915V64.3157H120.108V60.908ZM120.422 71H116.176V52.651H130.042V56.0587H120.422V71ZM141.65 71.3146C140.2 71.3146 138.854 71.0786 137.614 70.6068C136.39 70.135 135.324 69.4709 134.416 68.6146C133.524 67.7583 132.825 66.7535 132.319 65.6001C131.829 64.4468 131.585 63.1886 131.585 61.8255C131.585 60.4624 131.829 59.2042 132.319 58.0508C132.825 56.8975 133.533 55.8926 134.442 55.0363C135.35 54.1801 136.416 53.516 137.64 53.0442C138.863 52.5723 140.191 52.3364 141.624 52.3364C143.075 52.3364 144.403 52.5723 145.608 53.0442C146.832 53.516 147.889 54.1801 148.78 55.0363C149.689 55.8926 150.397 56.8975 150.903 58.0508C151.41 59.1867 151.664 60.4449 151.664 61.8255C151.664 63.1886 151.41 64.4555 150.903 65.6264C150.397 66.7797 149.689 67.7846 148.78 68.6408C147.889 69.4797 146.832 70.135 145.608 70.6068C144.403 71.0786 143.083 71.3146 141.65 71.3146ZM141.624 67.6972C142.445 67.6972 143.197 67.5574 143.878 67.2778C144.577 66.9982 145.189 66.5962 145.713 66.072C146.238 65.5477 146.639 64.9273 146.919 64.2109C147.216 63.4944 147.365 62.6993 147.365 61.8255C147.365 60.9517 147.216 60.1566 146.919 59.4401C146.639 58.7236 146.238 58.1033 145.713 57.579C145.207 57.0547 144.604 56.6528 143.905 56.3732C143.206 56.0936 142.445 55.9538 141.624 55.9538C140.803 55.9538 140.043 56.0936 139.344 56.3732C138.662 56.6528 138.059 57.0547 137.535 57.579C137.011 58.1033 136.6 58.7236 136.303 59.4401C136.023 60.1566 135.883 60.9517 135.883 61.8255C135.883 62.6818 136.023 63.4769 136.303 64.2109C136.6 64.9273 137.002 65.5477 137.509 66.072C138.033 66.5962 138.645 66.9982 139.344 67.2778C140.043 67.5574 140.803 67.6972 141.624 67.6972ZM163.007 71.3146C160.403 71.3146 158.368 70.5893 156.9 69.1389C155.432 67.6884 154.698 65.6176 154.698 62.9264V52.651H158.944V62.7692C158.944 64.5167 159.302 65.7749 160.019 66.5438C160.735 67.3127 161.74 67.6972 163.033 67.6972C164.327 67.6972 165.331 67.3127 166.048 66.5438C166.764 65.7749 167.123 64.5167 167.123 62.7692V52.651H171.317V62.9264C171.317 65.6176 170.583 67.6884 169.115 69.1389C167.647 70.5893 165.611 71.3146 163.007 71.3146ZM175.513 71V52.651H179.026L189.852 65.8623H188.148V52.651H192.342V71H188.855L178.003 57.7887H179.707V71H175.513ZM196.683 71V52.651H205.019C207.011 52.651 208.767 53.0354 210.288 53.8043C211.808 54.5558 212.996 55.613 213.852 56.9761C214.709 58.3392 215.137 59.9556 215.137 61.8255C215.137 63.6779 214.709 65.2943 213.852 66.6749C212.996 68.0379 211.808 69.1039 210.288 69.8728C208.767 70.6243 207.011 71 205.019 71H196.683ZM200.93 67.5137H204.809C206.032 67.5137 207.09 67.2865 207.981 66.8322C208.89 66.3603 209.589 65.6963 210.078 64.84C210.585 63.9837 210.838 62.9789 210.838 61.8255C210.838 60.6546 210.585 59.6498 210.078 58.811C209.589 57.9547 208.89 57.2994 207.981 56.845C207.09 56.3732 206.032 56.1373 204.809 56.1373H200.93V67.5137ZM215.672 71L223.85 52.651H228.044L236.249 71H231.793L225.082 54.8004H226.76L220.023 71H215.672ZM219.761 67.0681L220.888 63.8439H230.325L231.478 67.0681H219.761ZM241.032 71V56.1111H235.16V52.651H251.15V56.1111H245.278V71H241.032ZM253.435 71V52.651H257.681V71H253.435ZM270.948 71.3146C269.498 71.3146 268.152 71.0786 266.912 70.6068C265.688 70.135 264.622 69.4709 263.714 68.6146C262.822 67.7583 262.123 66.7535 261.617 65.6001C261.127 64.4468 260.883 63.1886 260.883 61.8255C260.883 60.4624 261.127 59.2042 261.617 58.0508C262.123 56.8975 262.831 55.8926 263.74 55.0363C264.649 54.1801 265.715 53.516 266.938 53.0442C268.161 52.5723 269.489 52.3364 270.922 52.3364C272.373 52.3364 273.701 52.5723 274.907 53.0442C276.13 53.516 277.187 54.1801 278.078 55.0363C278.987 55.8926 279.695 56.8975 280.202 58.0508C280.708 59.1867 280.962 60.4449 280.962 61.8255C280.962 63.1886 280.708 64.4555 280.202 65.6264C279.695 66.7797 278.987 67.7846 278.078 68.6408C277.187 69.4797 276.13 70.135 274.907 70.6068C273.701 71.0786 272.381 71.3146 270.948 71.3146ZM270.922 67.6972C271.744 67.6972 272.495 67.5574 273.177 67.2778C273.876 66.9982 274.487 66.5962 275.011 66.072C275.536 65.5477 275.938 64.9273 276.217 64.2109C276.514 63.4944 276.663 62.6993 276.663 61.8255C276.663 60.9517 276.514 60.1566 276.217 59.4401C275.938 58.7236 275.536 58.1033 275.011 57.579C274.505 57.0547 273.902 56.6528 273.203 56.3732C272.504 56.0936 271.744 55.9538 270.922 55.9538C270.101 55.9538 269.341 56.0936 268.642 56.3732C267.96 56.6528 267.357 57.0547 266.833 57.579C266.309 58.1033 265.898 58.7236 265.601 59.4401C265.321 60.1566 265.182 60.9517 265.182 61.8255C265.182 62.6818 265.321 63.4769 265.601 64.2109C265.898 64.9273 266.3 65.5477 266.807 66.072C267.331 66.5962 267.943 66.9982 268.642 67.2778C269.341 67.5574 270.101 67.6972 270.922 67.6972ZM284.153 71V52.651H287.666L298.492 65.8623H296.788V52.651H300.982V71H297.496L286.643 57.7887H288.347V71H284.153Z" fill="#1D384A"/>
<path d="M114.199 39L127.037 11.093H129.07L141.907 39H139.714L127.595 12.3688H128.472L116.392 39H114.199ZM118.904 31.1462L119.581 29.4319H136.286L136.963 31.1462H118.904ZM146.973 39V11.093H149.006V37.1661H165.073V39H146.973ZM172.048 31.9435L171.968 29.392L189.749 11.093H192.221L179.782 23.9701L178.626 25.206L172.048 31.9435ZM170.294 39V11.093H172.327V39H170.294ZM190.586 39L178.028 24.6478L179.423 23.1728L193.058 39H190.586ZM200.119 23.9302H215.229V25.7243H200.119V23.9302ZM200.359 37.1661H217.581V39H198.325V11.093H216.983V12.9269H200.359V37.1661ZM224.994 39V11.093H226.709L239.665 33.4585H238.749L251.665 11.093H253.34L253.38 39H251.386L251.347 14.1628H251.905L239.665 35.2924H238.669L226.39 14.1628H226.988V39H224.994ZM263.109 39V11.093H265.143V39H263.109ZM286.708 39.1993C284.635 39.1993 282.708 38.8538 280.927 38.1628C279.173 37.4452 277.631 36.4485 276.302 35.1728C275 33.8704 273.99 32.3688 273.272 30.6678C272.555 28.9402 272.196 27.0664 272.196 25.0465C272.196 23.0266 272.555 21.1661 273.272 19.4651C273.99 17.7375 275 16.2359 276.302 14.9601C277.631 13.6578 279.173 12.6611 280.927 11.9701C282.708 11.2525 284.635 10.8937 286.708 10.8937C288.781 10.8937 290.694 11.2525 292.449 11.9701C294.229 12.6611 295.771 13.6445 297.073 14.9203C298.375 16.196 299.385 17.6977 300.103 19.4253C300.847 21.1263 301.219 23 301.219 25.0465C301.219 27.093 300.847 28.9801 300.103 30.7076C299.385 32.4086 298.375 33.897 297.073 35.1728C295.771 36.4485 294.229 37.4452 292.449 38.1628C290.694 38.8538 288.781 39.1993 286.708 39.1993ZM286.708 37.3256C288.488 37.3256 290.136 37.0199 291.651 36.4086C293.166 35.7973 294.482 34.9336 295.598 33.8173C296.714 32.701 297.578 31.3987 298.189 29.9103C298.827 28.4219 299.146 26.8007 299.146 25.0465C299.146 23.2658 298.827 21.6445 298.189 20.1827C297.578 18.6944 296.714 17.392 295.598 16.2758C294.482 15.1595 293.166 14.2957 291.651 13.6844C290.136 13.0731 288.488 12.7674 286.708 12.7674C284.927 12.7674 283.279 13.0731 281.764 13.6844C280.249 14.2957 278.92 15.1595 277.777 16.2758C276.661 17.392 275.784 18.6944 275.146 20.1827C274.535 21.6445 274.229 23.2658 274.229 25.0465C274.229 26.8007 274.535 28.4219 275.146 29.9103C275.784 31.3987 276.661 32.701 277.777 33.8173C278.92 34.9336 280.249 35.7973 281.764 36.4086C283.279 37.0199 284.927 37.3256 286.708 37.3256Z" fill="#1D384A"/>
</svg>
