<?xml version="1.0" encoding="UTF-8"?>
<svg  d="Layer_1" xmlns="http://www.w3.org/2000/svg" viewBox="0 0 527.86 32.8" width="527.86" height="32.8">
<defs><style>.l{fill:#1abdd4;stroke-width:0px;}.c{fill:#1d384a;stroke-width:0px;}</style></defs>
<path class="l" d="m24.3,11c-1.1,1.8-2.8,3-4.8,3.4h-.1c-1.7.5-3.4,1.6-4.4,3.4-1,1.7-1.2,3.6-.8,5.4.6,1.9.5,4.1-.6,6-2.1,3.5-6.5,4.6-10,2.5C.1,29.7-1,25.2,1,21.8c.6-1,1.4-1.8,2.3-2.4s1.9-1,2.9-1.1c1.7-.5,3.2-1.6,4.2-3.2.5-.9.8-1.8,1-2.7.1-.9.1-1.8-.1-2.7-.7-1.9-.5-4.1.6-6C13.9.2,18.4-.9,21.9,1.2c3.4,1.9,4.5,6.3,2.4,9.8Z" />
<path class="l" d="m54.1,25.6c0,4-3.2,7.2-7.2,7.2-2.1,0-4-.9-5.3-2.3h0c-1.3-1.3-3.1-2.2-5.1-2.2s-3.7.8-5,2c-1.3,1.5-3.2,2.5-5.4,2.5-4,0-7.2-3.2-7.2-7.2s3.2-7.2,7.2-7.2c2.2,0,4.2,1,5.5,2.6,1.3,1.2,3,1.9,4.8,1.9,1,0,1.9-.2,2.8-.6.8-.4,1.6-.9,2.2-1.5,1.3-1.5,3.3-2.5,5.4-2.5,4.1.2,7.3,3.4,7.3,7.3Z" />
<circle class="l" cx="36.7" cy="7.3" r="7.2" />
<path class="c" d="m77.5,2.5c.3-.6.6-1.1,1.4-1.1h4.5c.8,0,1.2.4,1.4,1.1l10.2,26.7c.3.8.1,1.5-.8,1.5h-4.7c-1,0-1.4-.5-1.6-1.2l-1.7-4.9h-10.4l-1.7,5.1c-.2.5-.5,1-1.3,1h-4.5c-.9,0-1.1-.7-.8-1.5l10-26.7Zm6.9,17l-2.7-8.3c-.3-.9-.5-1.7-.8-2.4h-.1c-.2.8-.5,1.6-.8,2.5l-2.7,8.2h7.1Z" />
<path class="c" d="m411.6,2.5c.3-.6.6-1.1,1.4-1.1h4.5c.8,0,1.2.4,1.4,1.1l10.2,26.7c.3.8.1,1.5-.8,1.5h-4.7c-1,0-1.4-.5-1.6-1.2l-1.7-4.9h-10.4l-1.7,5.1c-.2.5-.5,1-1.3,1h-4.5c-.9,0-1.1-.7-.8-1.5l10-26.7Zm6.9,17l-2.7-8.3c-.3-.9-.5-1.7-.8-2.4h-.1c-.2.8-.5,1.6-.8,2.5l-2.7,8.2h7.1Z" />
<path class="c" d="m117.3,29.4c0,.9-.5,1.2-1.3,1.2h-16c-.9,0-1.3-.2-1.3-1.3V2.6c0-.8.4-1.2,1.2-1.2h4.3c.9,0,1.3.3,1.3,1.3v22.3h10.7c.8,0,1.2.4,1.2,1.2v3.2h-.1Z" />
<path class="c" d="m133.8,14.4l10,14.8c.2.2.3.5.3.8,0,.4-.2.7-1,.7h-5.1c-1.2,0-1.8-.4-2.4-1.2l-6.2-9.9-1.8,2.3v7.5c0,.9-.4,1.2-1.2,1.2h-4.2c-.9,0-1.3-.3-1.3-1.2V2.5c0-.8.5-1.1,1.3-1.1h4.2c.8,0,1.2.2,1.2,1.1v9.9l7.6-10.1c.5-.7,1-.9,1.8-.9h5.1c.8,0,1,.3,1,.7,0,.3-.2.5-.3.8l-9,11.5Z" />
<path class="c" d="m154.9,13.1h9.6c.9,0,1.3.5,1.3,1.1v3.1c0,.8-.4,1.2-1.2,1.2h-9.6v6.6h11c.8,0,1.2.3,1.2,1.1v3.1c0,.8-.4,1.2-1.2,1.2h-16.3c-1,0-1.4-.3-1.4-1.3V2.6c0-.7.4-1.2,1.1-1.2h16.8c.8,0,1.1.4,1.1,1l-.4,3.4c-.1.9-.6,1.1-1.6,1.1h-10.2v6.2h-.2Z" />
<path class="c" d="m197.5,14.5l-6.4,15.2c-.3.8-.9.9-1.4.9h-1.6c-.8,0-1.3-.1-1.7-1l-7.3-15.2h-.1l-.3,14.9c0,1.2-.5,1.3-1.4,1.3h-3.3c-1.1,0-1.5-.4-1.4-1.3l1.1-26.5c0-1,.5-1.3,1.3-1.3h3c1,0,1.3.3,1.7,1.1l9.3,19h.1l8.4-19c.3-.7.8-1.1,1.7-1.1h2.9c.8,0,1.1.3,1.2,1.1l1.4,26.9c0,.8-.3,1.3-1.1,1.3h-4.2c-1.1,0-1.3-.5-1.4-1.7l-.5-14.6h0Z" />
<path class="c" d="m236.5,31.2c-8.5,0-13.2-6-13.2-15.1s5.1-15.3,13.5-15.3,13.2,6.5,13.2,15.1c0,9.4-5.6,15.3-13.5,15.3Zm.1-24.7c-3.7,0-6.1,3.2-6.1,9.5,0,6.7,2.3,9.6,6.3,9.6,3.7,0,6.1-3,6.1-9.5-.1-6.9-2.3-9.6-6.3-9.6Z" />
<path class="c" d="m478.79,31.2c-8.5,0-13.2-6-13.2-15.1s5.1-15.3,13.5-15.3,13.2,6.5,13.2,15.1c0,9.4-5.6,15.3-13.5,15.3Zm.1-24.7c-3.7,0-6.1,3.2-6.1,9.5,0,6.7,2.3,9.6,6.3,9.6,3.7,0,6.1-3,6.1-9.5-.1-6.9-2.3-9.6-6.3-9.6Z" />
<path class="c" d="m304.83,31.2c-8.5,0-13.2-6-13.2-15.1s5.1-15.3,13.5-15.3,13.2,6.5,13.2,15.1c0,9.4-5.6,15.3-13.5,15.3Zm.1-24.7c-3.7,0-6.1,3.2-6.1,9.5,0,6.7,2.3,9.6,6.3,9.6,3.7,0,6.1-3,6.1-9.5-.1-6.9-2.3-9.6-6.3-9.6Z" />
<path class="c" d="m217.8,2.5v27c0,.6-.5,1.1-1.1,1.1h-4.5c-.6,0-1.1-.5-1.1-1.1V2.5c0-.6.5-1.1,1.1-1.1h4.5c.6,0,1.1.5,1.1,1.1Z" />
<path class="c" d="m277.61,19.06v10.25c0,.64-.12,1.07-.36,1.28s-.72.32-1.45.32h-3.28c-.73,0-1.21-.11-1.45-.32-.24-.21-.36-.64-.36-1.28V2.6c0-.64.12-1.07.36-1.28.24-.21.72-.31,1.45-.31h15.5c.64,0,1.06.12,1.26.36.2.24.29.73.29,1.49v2.35c0,.76-.1,1.25-.29,1.49-.2.24-.62.36-1.26.36h-10.42v6.13h9.32c.64,0,1.06.12,1.26.36.2.24.29.74.29,1.49v2.18c0,.76-.1,1.25-.29,1.49-.2.24-.62.36-1.26.36h-9.32Z" />
<path class="c" d="m344.92,20.74c0,3.44-.95,6.11-2.86,8s-4.58,2.83-8.02,2.83h-.5c-7.28,0-10.92-3.61-10.92-10.84V2.6c0-.67.11-1.11.34-1.3.22-.2.71-.29,1.47-.29h3.28c.76,0,1.25.1,1.47.29.22.2.34.63.34,1.3v18.23c0,3.11,1.32,4.66,3.95,4.66h.67c2.6,0,3.91-1.55,3.91-4.66V2.6c0-.67.11-1.11.34-1.3.22-.2.71-.29,1.47-.29h3.28c.76,0,1.25.1,1.47.29.22.2.34.63.34,1.3v18.14Z" />
<path class="c" d="m356.76,13.43v15.88c0,.64-.12,1.07-.36,1.28-.24.21-.72.32-1.45.32h-2.86c-.73,0-1.2-.11-1.43-.32-.22-.21-.34-.64-.34-1.28V2.6c0-.64.12-1.07.36-1.28.24-.21.72-.31,1.45-.31h2.6c.81,0,1.38.09,1.7.27.32.18.65.61.99,1.28l8.32,15.88V2.6c0-.64.12-1.07.36-1.28.24-.21.72-.31,1.45-.31h2.81c.73,0,1.21.1,1.45.31.24.21.36.64.36,1.28v26.71c0,.64-.12,1.07-.36,1.28-.24.21-.72.32-1.45.32h-2.6c-.81,0-1.38-.09-1.7-.27-.32-.18-.65-.61-.99-1.28l-8.32-15.92Z" />
<path class="c" d="m388.3,1c5.04,0,8.51,1.95,10.42,5.84.39.81.66,1.68.82,2.6.15.92.23,2.18.23,3.78v5.67c0,1.4-.08,2.55-.23,3.46-.15.91-.43,1.81-.82,2.71-1.68,3.89-4.8,5.84-9.37,5.84h-9.66c-.73,0-1.21-.11-1.45-.32-.24-.21-.36-.64-.36-1.28V2.6c0-.64.12-1.07.36-1.28.24-.21.72-.31,1.45-.31h8.61Zm-3.53,24.02h3.44c1.71,0,2.88-.43,3.53-1.3.64-.87.97-2.45.97-4.75v-6.05c0-2.16-.35-3.7-1.05-4.64-.7-.94-1.85-1.41-3.44-1.41h-3.44v18.14Z" />
<path class="c" d="m435.09,7.13h-6.64c-.62,0-1.03-.12-1.24-.36-.21-.24-.32-.73-.32-1.49v-2.44c0-.76.11-1.25.32-1.49.21-.24.62-.36,1.24-.36h20.16c.64,0,1.06.12,1.26.36.2.24.29.73.29,1.49v2.44c0,.76-.1,1.25-.29,1.49-.2.24-.62.36-1.26.36h-6.64v22.18c0,.64-.12,1.07-.36,1.28-.24.21-.72.32-1.45.32h-3.28c-.73,0-1.21-.11-1.45-.32s-.36-.64-.36-1.28V7.13Z" />
<path class="c" d="m460.75,29.31c0,.64-.12,1.07-.36,1.28s-.72.32-1.45.32h-3.28c-.73,0-1.21-.11-1.45-.32-.24-.21-.36-.64-.36-1.28V2.6c0-.64.12-1.07.36-1.28.24-.21.72-.31,1.45-.31h3.28c.73,0,1.21.1,1.45.31s.36.64.36,1.28v26.71Z" />
<path class="c" d="m505.52,13.43v15.88c0,.64-.12,1.07-.36,1.28-.24.21-.72.32-1.45.32h-2.86c-.73,0-1.2-.11-1.43-.32-.22-.21-.34-.64-.34-1.28V2.6c0-.64.12-1.07.36-1.28.24-.21.72-.31,1.45-.31h2.6c.81,0,1.38.09,1.7.27.32.18.65.61.99,1.28l8.32,15.88V2.6c0-.64.12-1.07.36-1.28.24-.21.72-.31,1.45-.31h2.81c.73,0,1.21.1,1.45.31.24.21.36.64.36,1.28v26.71c0,.64-.12,1.07-.36,1.28-.24.21-.72.32-1.45.32h-2.6c-.81,0-1.38-.09-1.7-.27-.32-.18-.65-.61-.99-1.28l-8.32-15.92Z" />
</svg>