<svg width="300" height="78" viewBox="0 0 300 78" fill="none" xmlns="http://www.w3.org/2000/svg">
<path d="M82.3422 42.5526C89.9216 42.5526 96.066 48.6969 96.066 56.2763C96.066 63.8557 89.9216 70 82.3422 70C74.7628 70 68.6185 63.8557 68.6185 56.2763C68.6185 48.6969 74.7628 42.5526 82.3422 42.5526Z" fill="#09BCD4"/>
<path d="M46.4391 28.7073C44.3424 32.1383 41.1021 34.4255 37.2899 35.188L37.0993 35.188C33.6684 36.141 30.4281 38.2377 28.522 41.478C26.6159 44.7183 26.2347 48.3399 26.9971 51.7708C28.1408 55.3923 27.9502 59.5857 25.8535 63.2072C21.8507 69.8785 13.464 71.9752 6.79278 67.9724C0.121526 63.9697 -1.97515 55.5829 2.0276 48.9117C3.17124 47.0056 4.6961 45.4808 6.41156 44.3371C7.93642 43.7653 9.84249 43.0029 11.7486 42.6217C14.9889 41.6686 17.848 39.5719 19.7541 36.5222C20.7071 34.8068 21.2789 33.0913 21.6601 31.3758C21.8507 29.6604 21.8507 27.9449 21.4695 26.2294C20.1353 22.6079 20.5165 18.4145 22.6132 14.793C26.4253 8.12176 35.0026 6.02508 41.6739 10.0278C48.1545 13.6494 50.2512 22.2267 46.4391 28.7073Z" fill="#09BCD4"/>
<path d="M80.7484 28.7071C78.6517 32.138 75.4114 34.4253 71.5992 35.1877L71.4086 35.1877C67.9777 36.1408 64.7374 38.2374 62.8313 41.4778C60.9252 44.7181 60.544 48.3396 61.3065 51.7706C62.4501 55.3921 62.2595 59.5854 60.1628 63.207C56.1601 69.8782 47.7734 71.9749 41.1021 67.9722C34.4309 63.9694 32.3342 55.5827 36.3369 48.9114C37.4806 47.0054 39.0054 45.4805 40.7209 44.3369C42.2457 43.7651 44.1518 43.0026 46.0579 42.6214C49.2982 41.6684 52.1573 39.5717 54.0634 36.522C55.0164 34.8065 55.5882 33.0911 55.9695 31.3756C56.1601 29.6601 56.1601 27.9447 55.7788 26.2292C54.4446 22.6077 54.8258 18.4143 56.9225 14.7928C60.7346 8.12151 69.312 6.02483 75.9832 10.0276C82.4638 13.6491 84.5605 22.2264 80.7484 28.7071Z" fill="#09BCD4"/>
<path d="M116.108 60.908H124.915V64.3157H116.108V60.908ZM116.422 71H112.176V52.651H126.042V56.0587H116.422V71ZM137.65 71.3146C136.2 71.3146 134.854 71.0786 133.614 70.6068C132.39 70.135 131.324 69.4709 130.416 68.6146C129.524 67.7583 128.825 66.7535 128.319 65.6001C127.829 64.4468 127.585 63.1886 127.585 61.8255C127.585 60.4624 127.829 59.2042 128.319 58.0508C128.825 56.8975 129.533 55.8926 130.442 55.0363C131.35 54.1801 132.416 53.516 133.64 53.0442C134.863 52.5723 136.191 52.3364 137.624 52.3364C139.075 52.3364 140.403 52.5723 141.608 53.0442C142.832 53.516 143.889 54.1801 144.78 55.0363C145.689 55.8926 146.397 56.8975 146.903 58.0508C147.41 59.1867 147.664 60.4449 147.664 61.8255C147.664 63.1886 147.41 64.4555 146.903 65.6264C146.397 66.7797 145.689 67.7846 144.78 68.6408C143.889 69.4797 142.832 70.135 141.608 70.6068C140.403 71.0786 139.083 71.3146 137.65 71.3146ZM137.624 67.6972C138.445 67.6972 139.197 67.5574 139.878 67.2778C140.577 66.9982 141.189 66.5962 141.713 66.072C142.238 65.5477 142.639 64.9273 142.919 64.2109C143.216 63.4944 143.365 62.6993 143.365 61.8255C143.365 60.9517 143.216 60.1566 142.919 59.4401C142.639 58.7236 142.238 58.1033 141.713 57.579C141.207 57.0547 140.604 56.6528 139.905 56.3732C139.206 56.0936 138.445 55.9538 137.624 55.9538C136.803 55.9538 136.043 56.0936 135.344 56.3732C134.662 56.6528 134.059 57.0547 133.535 57.579C133.011 58.1033 132.6 58.7236 132.303 59.4401C132.023 60.1566 131.883 60.9517 131.883 61.8255C131.883 62.6818 132.023 63.4769 132.303 64.2109C132.6 64.9273 133.002 65.5477 133.509 66.072C134.033 66.5962 134.645 66.9982 135.344 67.2778C136.043 67.5574 136.803 67.6972 137.624 67.6972ZM159.007 71.3146C156.403 71.3146 154.368 70.5893 152.9 69.1389C151.432 67.6884 150.698 65.6176 150.698 62.9264V52.651H154.944V62.7692C154.944 64.5167 155.302 65.7749 156.019 66.5438C156.735 67.3127 157.74 67.6972 159.033 67.6972C160.327 67.6972 161.331 67.3127 162.048 66.5438C162.764 65.7749 163.123 64.5167 163.123 62.7692V52.651H167.317V62.9264C167.317 65.6176 166.583 67.6884 165.115 69.1389C163.647 70.5893 161.611 71.3146 159.007 71.3146ZM171.513 71V52.651H175.026L185.852 65.8623H184.148V52.651H188.342V71H184.855L174.003 57.7887H175.707V71H171.513ZM192.683 71V52.651H201.019C203.011 52.651 204.767 53.0354 206.288 53.8043C207.808 54.5558 208.996 55.613 209.852 56.9761C210.709 58.3392 211.137 59.9556 211.137 61.8255C211.137 63.6779 210.709 65.2943 209.852 66.6749C208.996 68.0379 207.808 69.1039 206.288 69.8728C204.767 70.6243 203.011 71 201.019 71H192.683ZM196.93 67.5137H200.809C202.032 67.5137 203.09 67.2865 203.981 66.8322C204.89 66.3603 205.589 65.6963 206.078 64.84C206.585 63.9837 206.838 62.9789 206.838 61.8255C206.838 60.6546 206.585 59.6498 206.078 58.811C205.589 57.9547 204.89 57.2994 203.981 56.845C203.09 56.3732 202.032 56.1373 200.809 56.1373H196.93V67.5137ZM211.672 71L219.85 52.651H224.044L232.249 71H227.793L221.082 54.8004H222.76L216.023 71H211.672ZM215.761 67.0681L216.888 63.8439H226.325L227.478 67.0681H215.761ZM237.032 71V56.1111H231.16V52.651H247.15V56.1111H241.278V71H237.032ZM249.435 71V52.651H253.681V71H249.435ZM266.948 71.3146C265.498 71.3146 264.152 71.0786 262.912 70.6068C261.688 70.135 260.622 69.4709 259.714 68.6146C258.822 67.7583 258.123 66.7535 257.617 65.6001C257.127 64.4468 256.883 63.1886 256.883 61.8255C256.883 60.4624 257.127 59.2042 257.617 58.0508C258.123 56.8975 258.831 55.8926 259.74 55.0363C260.649 54.1801 261.715 53.516 262.938 53.0442C264.161 52.5723 265.489 52.3364 266.922 52.3364C268.373 52.3364 269.701 52.5723 270.907 53.0442C272.13 53.516 273.187 54.1801 274.078 55.0363C274.987 55.8926 275.695 56.8975 276.202 58.0508C276.708 59.1867 276.962 60.4449 276.962 61.8255C276.962 63.1886 276.708 64.4555 276.202 65.6264C275.695 66.7797 274.987 67.7846 274.078 68.6408C273.187 69.4797 272.13 70.135 270.907 70.6068C269.701 71.0786 268.381 71.3146 266.948 71.3146ZM266.922 67.6972C267.744 67.6972 268.495 67.5574 269.177 67.2778C269.876 66.9982 270.487 66.5962 271.011 66.072C271.536 65.5477 271.938 64.9273 272.217 64.2109C272.514 63.4944 272.663 62.6993 272.663 61.8255C272.663 60.9517 272.514 60.1566 272.217 59.4401C271.938 58.7236 271.536 58.1033 271.011 57.579C270.505 57.0547 269.902 56.6528 269.203 56.3732C268.504 56.0936 267.744 55.9538 266.922 55.9538C266.101 55.9538 265.341 56.0936 264.642 56.3732C263.96 56.6528 263.357 57.0547 262.833 57.579C262.309 58.1033 261.898 58.7236 261.601 59.4401C261.321 60.1566 261.182 60.9517 261.182 61.8255C261.182 62.6818 261.321 63.4769 261.601 64.2109C261.898 64.9273 262.3 65.5477 262.807 66.072C263.331 66.5962 263.943 66.9982 264.642 67.2778C265.341 67.5574 266.101 67.6972 266.922 67.6972ZM280.153 71V52.651H283.666L294.492 65.8623H292.788V52.651H296.982V71H293.496L282.643 57.7887H284.347V71H280.153Z" fill="#1D384A"/>
<path d="M110.199 39L123.037 11.093H125.07L137.907 39H135.714L123.595 12.3688H124.472L112.392 39H110.199ZM114.904 31.1462L115.581 29.4319H132.286L132.963 31.1462H114.904ZM142.973 39V11.093H145.006V37.1661H161.073V39H142.973ZM168.048 31.9435L167.968 29.392L185.749 11.093H188.221L175.782 23.9701L174.626 25.206L168.048 31.9435ZM166.294 39V11.093H168.327V39H166.294ZM186.586 39L174.028 24.6478L175.423 23.1728L189.058 39H186.586ZM196.119 23.9302H211.229V25.7243H196.119V23.9302ZM196.359 37.1661H213.581V39H194.325V11.093H212.983V12.9269H196.359V37.1661ZM220.994 39V11.093H222.709L235.665 33.4585H234.749L247.665 11.093H249.34L249.38 39H247.386L247.347 14.1628H247.905L235.665 35.2924H234.669L222.39 14.1628H222.988V39H220.994ZM259.109 39V11.093H261.143V39H259.109ZM282.708 39.1993C280.635 39.1993 278.708 38.8538 276.927 38.1628C275.173 37.4452 273.631 36.4485 272.302 35.1728C271 33.8704 269.99 32.3688 269.272 30.6678C268.555 28.9402 268.196 27.0664 268.196 25.0465C268.196 23.0266 268.555 21.1661 269.272 19.4651C269.99 17.7375 271 16.2359 272.302 14.9601C273.631 13.6578 275.173 12.6611 276.927 11.9701C278.708 11.2525 280.635 10.8937 282.708 10.8937C284.781 10.8937 286.694 11.2525 288.449 11.9701C290.229 12.6611 291.771 13.6445 293.073 14.9203C294.375 16.196 295.385 17.6977 296.103 19.4253C296.847 21.1263 297.219 23 297.219 25.0465C297.219 27.093 296.847 28.9801 296.103 30.7076C295.385 32.4086 294.375 33.897 293.073 35.1728C291.771 36.4485 290.229 37.4452 288.449 38.1628C286.694 38.8538 284.781 39.1993 282.708 39.1993ZM282.708 37.3256C284.488 37.3256 286.136 37.0199 287.651 36.4086C289.166 35.7973 290.482 34.9336 291.598 33.8173C292.714 32.701 293.578 31.3987 294.189 29.9103C294.827 28.4219 295.146 26.8007 295.146 25.0465C295.146 23.2658 294.827 21.6445 294.189 20.1827C293.578 18.6944 292.714 17.392 291.598 16.2758C290.482 15.1595 289.166 14.2957 287.651 13.6844C286.136 13.0731 284.488 12.7674 282.708 12.7674C280.927 12.7674 279.279 13.0731 277.764 13.6844C276.249 14.2957 274.92 15.1595 273.777 16.2758C272.661 17.392 271.784 18.6944 271.146 20.1827C270.535 21.6445 270.229 23.2658 270.229 25.0465C270.229 26.8007 270.535 28.4219 271.146 29.9103C271.784 31.3987 272.661 32.701 273.777 33.8173C274.92 34.9336 276.249 35.7973 277.764 36.4086C279.279 37.0199 280.927 37.3256 282.708 37.3256Z" fill="#1D384A"/>
</svg>
