<?xml version="1.0" encoding="utf-8"?>
<!-- Generator: Adobe Illustrator 19.0.0, SVG Export Plug-In . SVG Version: 6.00 Build 0)  -->
<svg version="1.1" id="Layer_1" xmlns="http://www.w3.org/2000/svg" xmlns:xlink="http://www.w3.org/1999/xlink" x="0px" y="0px"
	 viewBox="0 0 63.7 61.1" style="enable-background:new 0 0 63.7 61.1;" xml:space="preserve">
<style type="text/css">
	.st0{fill:#09BCD4;}
	.st1{fill:#FFFFFF;}
</style>
<rect id="XMLID_299_" class="st0" width="63.7" height="61.1"/>
<g id="XMLID_291_">
	<path id="XMLID_294_" class="st1" d="M29.2,25.1c-1.1,1.8-2.8,3-4.8,3.4c0,0-0.1,0-0.1,0c-1.8,0.5-3.5,1.6-4.5,3.3
		c-1,1.7-1.2,3.6-0.8,5.4c0.6,1.9,0.5,4.1-0.6,6c-2.1,3.5-6.5,4.6-10,2.5c-3.5-2.1-4.6-6.5-2.5-10c0.6-1,1.4-1.8,2.3-2.4
		C9,33,10,32.6,11,32.4c1.7-0.5,3.2-1.6,4.2-3.2c0.5-0.9,0.8-1.8,1-2.7c0.1-0.9,0.1-1.8-0.1-2.7c-0.7-1.9-0.5-4.1,0.6-6
		c2-3.5,6.5-4.6,10-2.5C30.1,17.2,31.2,21.7,29.2,25.1z"/>
	<path id="XMLID_293_" class="st1" d="M58.9,39.8c0,4-3.2,7.2-7.2,7.2c-2.1,0-4-0.9-5.3-2.3l0,0c-1.3-1.3-3.1-2.2-5.1-2.2
		c-1.9,0-3.7,0.8-5,2c-1.3,1.5-3.2,2.5-5.4,2.5c-4,0-7.2-3.2-7.2-7.2c0-3.9,3.2-7.2,7.2-7.2c2.2,0,4.2,1,5.5,2.6
		c1.3,1.2,3,1.9,4.8,1.9c1,0,1.9-0.2,2.8-0.6c0.8-0.4,1.6-0.9,2.2-1.5c1.3-1.5,3.3-2.5,5.4-2.5C55.7,32.6,58.9,35.8,58.9,39.8z"/>
	<circle id="XMLID_292_" class="st1" cx="41.6" cy="21.4" r="7.2"/>
</g>
</svg>
