<svg xmlns="http://www.w3.org/2000/svg" viewBox="0 0 1305 1305" width="1305" height="1305">
	<style>
		tspan { white-space:pre }
		.shp0 { fill: #ffffff } 
	</style>
	<rect width="1305" height="1305" id="Color Fill 1" style="fill: #00bcd4" />
	<g id="Layer 2">
		<path id="&lt;Path&gt;" class="shp0" d="M968.02 933.96C931.49 970.51 888.94 999.21 841.56 1019.25C792.51 1040 740.39 1050.52 686.66 1050.52C593.89 1050.52 506.69 1014.4 441.11 948.8C385.76 893.44 351.41 822.68 342.03 746.18C382.91 899.46 521.69 1012.42 686.48 1015.05L686.6 1015.05C735.53 1015.05 783 1005.47 827.7 986.56C870.87 968.3 909.64 942.17 942.93 908.88C945.9 905.91 945.9 901.1 942.93 898.13C939.96 895.16 935.14 895.16 932.17 898.13C866.58 963.71 779.4 999.83 686.66 999.84C539.34 997.46 413.75 903.04 365.81 771.04C427.2 887.29 549.29 964.3 686.55 964.3C769.83 964.3 848.14 931.87 907.04 873C910.01 870.03 910.01 865.21 907.04 862.24C904.07 859.27 899.26 859.27 896.29 862.24C840.26 918.24 765.77 949.09 686.55 949.09C519.75 949.09 376.32 830.42 345.32 666.85C345.31 666.73 345.3 666.61 345.3 666.48L345.29 666.37C345.18 663.74 344.79 661.31 344.4 658.95C344.06 656.85 343.74 654.88 343.69 653.12C343.97 651.06 344.15 649.06 344.32 647.13C344.56 644.53 344.78 642.08 345.22 639.73C359.75 561 401.7 489.09 463.33 437.26C493.95 411.51 528.4 391.42 565.73 377.55C604.37 363.19 645.05 355.91 686.66 355.91C765.86 355.91 840.32 386.76 896.33 442.76C899.3 445.73 904.11 445.73 907.08 442.76C910.05 439.79 910.05 434.98 907.08 432.01C848.2 373.13 769.92 340.7 686.66 340.7C643.24 340.7 600.77 348.3 560.43 363.29C521.46 377.77 485.5 398.74 453.53 425.62C414.92 458.1 383.72 498.13 361.66 542.73C406.95 406.21 535.24 307.63 686.66 305.2C779.4 305.22 866.59 341.34 932.17 406.91C935.14 409.88 939.96 409.88 942.93 406.91C945.9 403.94 945.9 399.13 942.93 396.16C909.64 362.87 870.87 336.74 827.7 318.48C783 299.57 735.53 289.99 686.6 289.99L686.48 289.99C522.95 292.58 385.25 402.65 342.62 552.87C353.01 478.65 387.01 410.11 440.95 356.18C506.55 290.6 593.77 254.48 686.55 254.48C740.29 254.48 792.42 265 841.49 285.76C888.89 305.81 931.46 334.52 968.01 371.09C970.98 374.06 975.8 374.06 978.77 371.09C981.74 368.12 981.74 363.3 978.77 360.33C940.82 322.38 896.63 292.57 847.42 271.75C796.46 250.2 742.34 239.26 686.55 239.26C637.61 239.26 590.13 248.85 545.43 267.75C502.26 286.01 463.49 312.14 430.19 345.43C396.9 378.71 370.75 417.48 352.49 460.64C333.58 505.34 324 552.81 324 601.75C324 616.3 327.29 645.91 328.21 653.92C326.32 667.45 324.21 685.08 324.21 703.22C324.21 752.16 333.79 799.64 352.69 844.33C370.94 887.5 397.07 926.27 430.35 959.56C463.64 992.85 502.4 1018.99 545.56 1037.24C590.25 1056.15 637.72 1065.74 686.66 1065.74C742.44 1065.74 796.55 1054.81 847.49 1033.26C896.68 1012.45 940.85 982.66 978.78 944.72C981.75 941.75 981.75 936.93 978.78 933.96C975.8 930.99 970.99 930.99 968.02 933.96Z" />
	</g>
</svg>