<svg xmlns="http://www.w3.org/2000/svg" viewBox="0 0 1800 1800" width="1800" height="1800">
	<style>
		tspan { white-space:pre }
		.shp0 { fill: #00bcd4 } 
		.shp1 { fill: #ffffff } 
	</style>
	<path id="Color Fill 1" class="shp0" d="M0 700L1800 700L1800 1100L0 1100L0 700Z" />
	<g id="Layer 2">
		<g id="&lt;Group&gt;">
			<path id="&lt;Path&gt;" class="shp1" d="M394.66 808.28C393.73 808.28 392.97 809.04 392.97 809.97L392.97 900.92C391.02 897.43 388.32 894.42 385.08 892.11L385.08 809.97C385.08 809.04 384.32 808.28 383.39 808.28C382.46 808.28 381.7 809.04 381.7 809.97L381.7 890.06C379.26 888.82 376.61 887.94 373.81 887.49L373.81 809.97C373.81 809.04 373.06 808.28 372.12 808.28C371.19 808.28 370.43 809.04 370.43 809.97L370.43 887.17C370.15 887.16 369.86 887.15 369.57 887.15L295.4 887.15C288.93 887.15 283.67 881.89 283.67 875.43L283.67 809.97C283.67 809.04 282.92 808.28 281.98 808.28C281.05 808.28 280.29 809.04 280.29 809.97L280.29 875.43C280.29 880.16 282.48 884.38 285.89 887.15L284.13 887.15C277.67 887.15 272.41 881.89 272.41 875.43L272.41 809.97C272.41 809.04 271.65 808.28 270.72 808.28C269.78 808.28 269.03 809.04 269.03 809.97L269.03 875.43C269.03 883.76 275.8 890.53 284.13 890.53L369.57 890.53C381.2 890.53 390.87 899.06 392.67 910.19C388.31 903.13 380.5 898.42 371.61 898.42C370.72 898.42 283.31 898.42 282.01 898.42C276.41 898.29 271.16 896.01 267.24 892.01C263.31 887.99 261.14 882.68 261.14 877.06L261.14 809.97C261.14 809.04 260.38 808.28 259.45 808.28C258.52 808.28 257.76 809.04 257.76 809.97L257.76 990.25C257.76 991.18 258.52 991.94 259.45 991.94C260.38 991.94 261.14 991.18 261.14 990.25L261.14 899.3C263.09 902.79 265.79 905.8 269.03 908.11L269.03 990.25C269.03 991.18 269.78 991.94 270.72 991.94C271.65 991.94 272.41 991.18 272.41 990.25L272.41 910.16C274.84 911.4 277.5 912.28 280.29 912.73L280.29 990.25C280.29 991.18 281.05 991.94 281.98 991.94C282.92 991.94 283.67 991.18 283.67 990.25L283.67 913.05C283.86 913.06 312.62 913.06 369.98 913.07C370.13 913.07 370.28 913.07 370.43 913.08L370.43 990.25C370.43 991.18 371.19 991.94 372.12 991.94C373.06 991.94 373.81 991.18 373.81 990.25L373.81 913.72C378.4 915.31 381.7 919.67 381.7 924.79L381.7 990.25C381.7 991.18 382.46 991.94 383.39 991.94C384.32 991.94 385.08 991.18 385.08 990.25L385.08 924.79C385.08 916.46 378.31 909.69 369.98 909.69L284.54 909.69C272.92 909.69 263.26 901.18 261.45 890.07C262.4 891.61 263.53 893.05 264.82 894.37C269.37 899.02 275.45 901.65 281.95 901.79C282.12 901.8 344.71 901.8 371.61 901.8C383.39 901.8 392.97 911.38 392.97 923.16L392.97 990.25C392.97 991.18 393.73 991.94 394.66 991.94C395.59 991.94 396.35 991.18 396.35 990.25L396.35 923.16L396.35 809.97C396.35 809.04 395.59 808.28 394.66 808.28Z" />
			<path id="&lt;Path&gt;" class="shp1" d="M243.12 962.65C235 970.78 225.54 977.15 215.01 981.61C204.11 986.22 192.53 988.56 180.59 988.56C159.98 988.56 140.6 980.53 126.03 965.95C113.73 953.65 106.09 937.92 104.01 920.92C113.09 954.99 143.93 980.09 180.55 980.67L180.58 980.67C191.45 980.67 202 978.54 211.94 974.34C221.53 970.28 230.14 964.48 237.54 957.08C238.2 956.42 238.2 955.35 237.54 954.69C236.88 954.03 235.81 954.03 235.15 954.69C220.58 969.26 201.2 977.29 180.59 977.29C147.86 976.76 119.95 955.78 109.29 926.45C122.93 952.28 150.06 969.39 180.57 969.39C199.08 969.39 216.48 962.19 229.57 949.1C230.23 948.45 230.23 947.37 229.57 946.71C228.91 946.05 227.84 946.05 227.18 946.71C214.73 959.16 198.17 966.01 180.57 966.01C143.5 966.01 111.63 939.64 104.74 903.3C104.74 903.27 104.73 903.24 104.73 903.21L104.73 903.19C104.71 902.6 104.62 902.06 104.53 901.54C104.46 901.07 104.39 900.63 104.38 900.24C104.44 899.79 104.48 899.34 104.52 898.91C104.57 898.34 104.62 897.79 104.72 897.27C107.95 879.77 117.27 863.79 130.96 852.28C137.77 846.55 145.42 842.09 153.72 839.01C162.3 835.82 171.35 834.2 180.59 834.2C198.19 834.2 214.74 841.05 227.18 853.5C227.84 854.16 228.91 854.16 229.57 853.5C230.23 852.84 230.23 851.77 229.57 851.11C216.49 838.02 199.1 830.82 180.59 830.82C170.94 830.82 161.51 832.51 152.54 835.84C143.88 839.06 135.89 843.72 128.79 849.69C120.21 856.91 113.27 865.8 108.37 875.71C118.43 845.37 146.94 823.47 180.59 822.93C201.2 822.93 220.58 830.96 235.15 845.53C235.81 846.19 236.88 846.19 237.54 845.53C238.2 844.87 238.2 843.8 237.54 843.14C230.14 835.74 221.53 829.94 211.94 825.88C202 821.68 191.45 819.55 180.58 819.55L180.55 819.55C144.21 820.12 113.61 844.58 104.14 877.97C106.45 861.47 114 846.24 125.99 834.26C140.57 819.68 159.95 811.66 180.57 811.66C192.51 811.66 204.09 814 215 818.61C225.53 823.06 234.99 829.44 243.11 837.57C243.77 838.23 244.84 838.23 245.5 837.57C246.16 836.91 246.16 835.84 245.51 835.18C237.07 826.74 227.25 820.12 216.32 815.5C204.99 810.7 192.96 808.28 180.57 808.28C169.69 808.28 159.14 810.41 149.21 814.61C139.61 818.66 131 824.47 123.6 831.87C116.2 839.26 110.39 847.88 106.33 857.47C102.13 867.4 100 877.95 100 888.83C100 892.06 100.73 898.64 100.94 900.42C100.52 903.43 100.05 907.35 100.05 911.38C100.05 922.25 102.18 932.8 106.38 942.74C110.43 952.33 116.24 960.94 123.64 968.34C131.03 975.74 139.64 981.55 149.24 985.6C159.17 989.81 169.72 991.94 180.59 991.94C192.99 991.94 205.01 989.51 216.33 984.72C227.26 980.09 237.08 973.48 245.51 965.04C246.17 964.38 246.17 963.31 245.51 962.65C244.85 961.99 243.78 961.99 243.12 962.65Z" />
			<path id="&lt;Compound Path&gt;" fill-rule="evenodd" class="shp1" d="M691.46 929.2C691.55 930.49 692.17 931.68 693.2 932.49L765.17 988.92C765.9 989.5 766.03 990.56 765.46 991.29C765.12 991.72 764.63 991.94 764.13 991.94C763.76 991.94 763.39 991.82 763.08 991.58L691.11 935.15C690.63 934.77 690.2 934.34 689.82 933.88C689.78 934.24 689.77 934.6 689.77 934.97C689.77 938.28 691.26 941.35 693.86 943.39L751.49 988.92C752.23 989.5 752.35 990.57 751.77 991.3C751.44 991.72 750.94 991.94 750.44 991.94C750.08 991.94 749.71 991.82 749.4 991.58L691.77 946.05C688.35 943.36 686.39 939.32 686.39 934.97C686.39 932.44 687.06 930.06 688.24 928.01C688.28 927.92 688.33 927.83 688.38 927.75C690.59 924.07 694.43 921.48 698.9 920.98C698.93 920.97 698.96 920.97 699 920.96C699.48 920.91 699.97 920.89 700.47 920.89L721.24 920.88C734.32 920.6 746.51 915.24 755.57 905.8C762.22 898.86 766.59 890.33 768.34 881.1C768.21 881.39 768.09 881.68 767.97 881.96C766.24 885.84 764.04 889.5 761.44 892.85C756.64 899 750.43 904.1 743.47 907.58C736.16 911.23 728.29 913.08 720.07 913.08L703.18 913.2L695.29 913.21C683.22 913.21 673.41 923.02 673.41 935.09C673.41 941.17 675.84 946.81 680.26 950.99L683.39 953.46L683.4 953.46L728.28 988.92C729.01 989.5 729.14 990.57 728.56 991.3C728.23 991.72 727.73 991.94 727.23 991.94C726.86 991.94 726.5 991.82 726.18 991.58L681.32 956.13C680.17 955.37 679.08 954.51 678.06 953.56L676.01 951.94L675.97 951.9C675.68 951.68 675.46 951.51 675.25 951.33C668.26 945.65 664.25 937.21 664.25 928.18C664.25 911.72 677.64 898.33 694.11 898.33L711.08 898.33C732.95 898.33 751.4 882.02 754.08 860.37C750.03 852.65 743.99 846.12 736.57 841.49C728.81 836.64 719.84 834.08 710.64 834.08L635.37 834.08C639.66 841.32 642.13 849.5 642.55 858.07C642.65 858.29 642.71 858.53 642.71 858.79L642.71 870.79C643 884.78 637.83 898.04 628.15 908.14C618.47 918.24 605.43 923.97 591.44 924.26L591.4 924.27L577.13 924.27C576.98 924.31 576.82 924.34 576.65 924.34L569.41 924.34C566.14 924.7 563.31 926.55 561.61 929.2C561.69 930.49 562.31 931.68 563.34 932.49L635.31 988.92C636.05 989.5 636.18 990.56 635.6 991.29C635.27 991.72 634.77 991.94 634.27 991.94C633.91 991.94 633.54 991.82 633.23 991.58L561.26 935.15C560.77 934.77 560.34 934.34 559.97 933.88C559.93 934.24 559.91 934.6 559.91 934.97C559.91 938.28 561.4 941.35 564.01 943.39L621.64 988.92C622.37 989.5 622.5 990.57 621.92 991.3C621.58 991.72 621.09 991.94 620.59 991.94C620.22 991.94 619.85 991.82 619.54 991.58L561.91 946.05C558.49 943.36 556.53 939.32 556.53 934.97C556.53 932.44 557.21 930.06 558.38 928.01C558.42 927.92 558.47 927.83 558.53 927.75C560.73 924.07 564.58 921.48 569.04 920.98C569.07 920.97 569.11 920.97 569.14 920.96C569.63 920.91 570.12 920.89 570.61 920.89L591.39 920.88C604.47 920.6 616.66 915.24 625.71 905.8C632.36 898.86 636.73 890.33 638.48 881.1C638.36 881.39 638.24 881.68 638.11 881.96C636.38 885.84 634.19 889.5 631.58 892.85C626.79 899 620.57 904.1 613.61 907.58C606.31 911.23 598.44 913.08 590.22 913.08L573.32 913.2L565.43 913.21C553.37 913.21 543.55 923.02 543.55 935.09C543.55 941.17 545.99 946.81 550.41 950.99L553.54 953.46L598.43 988.92C599.16 989.5 599.28 990.57 598.7 991.3C598.37 991.72 597.88 991.94 597.38 991.94C597.01 991.94 596.64 991.82 596.33 991.58L551.46 956.13C550.32 955.37 549.22 954.51 548.21 953.56L546.15 951.93L546.12 951.91C545.82 951.68 545.6 951.5 545.39 951.33C538.41 945.65 534.39 937.21 534.39 928.18C534.39 911.72 547.79 898.33 564.25 898.33L581.22 898.33C603.09 898.33 621.55 882.02 624.22 860.37C620.17 852.65 614.13 846.12 606.72 841.49C598.95 836.64 589.99 834.08 580.78 834.08L453.16 834.2C446.7 834.2 441.44 839.46 441.44 845.92L441.44 898.77L507.33 898.77C508.26 898.77 509.02 899.53 509.02 900.46C509.02 901.4 508.26 902.15 507.33 902.15L441.44 902.15L441.44 909.61L507.33 909.61C508.26 909.61 509.02 910.36 509.02 911.3C509.02 912.23 508.26 912.99 507.33 912.99L441.44 912.99L441.44 920.57L507.33 920.57C508.26 920.57 509.02 921.33 509.02 922.26C509.02 923.19 508.26 923.95 507.33 923.95L441.44 923.95L441.44 954.3C441.44 960.77 446.7 966.03 453.16 966.03L528.74 966.03C529.68 966.03 530.43 966.78 530.43 967.72C530.43 968.65 529.68 969.41 528.74 969.41L441.89 969.41C433.57 969.41 426.79 962.63 426.79 954.3L426.79 845.92C426.79 837.59 433.57 830.82 441.89 830.82L453.16 830.82L580.78 830.7C590.62 830.7 600.21 833.44 608.51 838.62C614.94 842.64 620.4 847.98 624.54 854.27C624.44 848.04 623.05 842.05 620.4 836.46C620.36 836.43 620.32 836.4 620.28 836.36C611.14 827.7 599.17 822.93 586.57 822.93C489.47 822.93 440.54 822.93 439.77 822.93C434.17 823.06 428.93 825.33 425 829.34C421.07 833.36 418.9 838.66 418.9 844.29L418.9 955.93C418.9 961.56 421.07 966.86 425 970.88C428.93 974.89 434.17 977.16 439.77 977.29C441.03 977.29 527.86 977.29 528.74 977.29C529.68 977.29 530.43 978.05 530.43 978.98C530.43 979.92 529.68 980.67 528.74 980.67C502.03 980.67 439.88 980.67 439.71 980.67C433.22 980.53 427.14 977.89 422.59 973.25C421.29 971.92 420.16 970.48 419.21 968.94C421.02 980.05 430.68 988.56 442.3 988.56L528.74 988.56C529.68 988.56 530.43 989.32 530.43 990.25C530.43 991.18 529.68 991.94 528.74 991.94L442.3 991.94C427.53 991.94 415.52 979.93 415.52 965.16L415.52 835.06C415.52 820.29 427.53 808.28 442.3 808.28L720.07 808.29C734.07 808.29 747.22 813.74 757.12 823.64C766.4 832.91 771.77 845.06 772.4 858.07C772.51 858.29 772.57 858.53 772.57 858.79L772.57 870.79C772.86 884.78 767.69 898.04 758.01 908.14C748.33 918.24 735.29 923.97 721.29 924.26L721.26 924.27L706.98 924.27C706.83 924.31 706.67 924.34 706.51 924.34L699.26 924.34C695.99 924.7 693.16 926.55 691.46 929.2ZM443.65 834.2L441.89 834.2C435.43 834.2 430.17 839.46 430.17 845.92L430.17 954.3C430.17 960.77 435.43 966.03 441.89 966.03L443.65 966.03C440.24 963.25 438.06 959.03 438.06 954.3L438.06 845.92C438.06 841.19 440.24 836.97 443.65 834.2ZM608.78 811.66C613.76 813.54 618.44 816.19 622.67 819.55L716.43 819.55C726.68 819.55 736.54 822.51 744.97 828C741.97 824.24 738.36 820.97 734.25 818.37C727.57 814.13 719.87 811.82 711.93 811.67L608.78 811.66ZM586.57 819.55C596.82 819.55 606.68 822.51 615.12 828C612.12 824.24 608.5 820.97 604.39 818.37C597.71 814.13 590.01 811.82 582.08 811.67L442.3 811.66C430.68 811.66 421.02 820.17 419.21 831.28C420.16 829.74 421.29 828.3 422.59 826.98C427.14 822.33 433.22 819.69 439.71 819.55C439.82 819.55 488.78 819.55 586.57 819.55ZM639.23 860.68C639.23 837.66 623.27 818.29 601.83 813.06C603.33 813.8 604.79 814.62 606.2 815.51C613.47 820.12 619.32 826.62 623.12 834.32C626.31 840.78 627.93 847.73 627.93 854.99C627.93 856.74 627.83 858.48 627.64 860.19C627.64 860.22 627.64 860.25 627.63 860.28C627.62 860.38 627.61 860.49 627.6 860.59C624.8 884.03 604.86 901.71 581.22 901.71L564.25 901.71C549.65 901.71 537.77 913.58 537.77 928.18C537.77 932.5 538.81 936.67 540.74 940.38C540.37 938.65 540.17 936.88 540.17 935.09C540.17 921.16 551.5 909.83 565.43 909.83L573.31 909.82L590.21 909.7C605.44 909.7 619.55 902.8 628.91 890.77C631.35 887.64 633.41 884.22 635.02 880.59C637.81 874.31 639.23 867.61 639.23 860.68ZM754.4 854.27C754.3 848.04 752.91 842.05 750.25 836.46C750.21 836.43 750.17 836.4 750.14 836.36C741 827.7 729.03 822.93 716.43 822.93L626.54 822.93C626.78 823.16 627.03 823.4 627.27 823.64C629.47 825.84 631.45 828.2 633.2 830.7L710.64 830.7C720.48 830.7 730.06 833.44 738.36 838.62C744.79 842.64 750.25 847.98 754.4 854.27ZM769.09 860.68C769.09 837.66 753.13 818.29 731.69 813.06C733.18 813.8 734.64 814.62 736.06 815.51C743.32 820.12 749.17 826.62 752.98 834.32C756.17 840.78 757.79 847.73 757.79 854.99C757.79 856.74 757.69 858.48 757.5 860.19C757.5 860.22 757.49 860.25 757.49 860.28C757.48 860.38 757.47 860.49 757.46 860.59C754.66 884.03 734.72 901.71 711.08 901.71L694.11 901.71C679.51 901.71 667.63 913.58 667.63 928.18C667.63 932.5 668.67 936.67 670.6 940.38C670.22 938.65 670.03 936.88 670.03 935.09C670.03 921.16 681.36 909.83 695.29 909.83L703.16 909.82L720.06 909.7C735.3 909.7 749.4 902.8 758.77 890.77C761.21 887.64 763.26 884.22 764.88 880.59C767.67 874.31 769.09 867.61 769.09 860.68Z" />
			<path id="&lt;Compound Path&gt;" fill-rule="evenodd" class="shp1" d="M1631.63 822.93C1632.88 825.37 1633.76 828.02 1634.21 830.82L1698.31 830.82C1699.24 830.82 1700 831.57 1700 832.51C1700 833.44 1699.24 834.2 1698.31 834.2L1634.53 834.2C1634.54 834.48 1634.54 834.77 1634.54 835.06L1634.54 990.25C1634.54 991.18 1633.79 991.94 1632.85 991.94C1631.92 991.94 1631.16 991.18 1631.16 990.25L1631.16 844.29C1631.16 832.51 1621.58 822.93 1609.8 822.93L1457.38 822.78C1444.75 822.78 1432.76 826.78 1423.62 834.04C1423.44 834.18 1423.25 834.27 1423.04 834.33C1420.67 839.06 1419.47 844.1 1419.47 849.34C1419.47 849.93 1419.49 850.52 1419.52 851.11C1423.74 845.44 1429.37 840.68 1436 837.22C1444.02 833.03 1453.41 830.82 1463.16 830.82L1608.17 830.82C1616.5 830.82 1623.28 837.59 1623.28 845.92L1623.28 990.25C1623.28 991.18 1622.52 991.94 1621.58 991.94C1620.65 991.94 1619.89 991.18 1619.89 990.25L1619.89 845.92C1619.89 839.46 1614.63 834.2 1608.17 834.2L1606.41 834.2C1609.82 836.97 1612.01 841.19 1612.01 845.92L1612.01 990.25C1612.01 991.18 1611.25 991.94 1610.32 991.94C1609.38 991.94 1608.63 991.18 1608.63 990.25L1608.63 845.92C1608.63 839.46 1603.37 834.2 1596.9 834.2L1463.16 834.2C1444.78 834.2 1428.77 842.32 1420.31 855.93C1420.27 856 1420.22 856.06 1420.17 856.12C1423.87 873.89 1441.71 887.01 1462.72 887.01L1494.03 887.01C1501.47 887.15 1508.63 888.7 1515.3 891.61C1521.76 894.42 1527.44 898.36 1532.18 903.3C1540.86 912.36 1545.49 924.01 1545.22 936.09L1545.22 947.07C1545.22 947.35 1545.15 947.61 1545.03 947.85C1544.29 959.36 1538.92 970.08 1529.73 978.28C1519.86 987.08 1506.75 991.93 1492.82 991.93L1484.73 991.93C1484.43 991.94 1484.14 991.94 1483.84 991.94L1367.97 991.94C1353.2 991.94 1341.19 979.93 1341.19 965.16L1341.19 809.97C1341.19 809.04 1341.95 808.28 1342.88 808.28C1343.81 808.28 1344.57 809.04 1344.57 809.97L1344.57 955.93C1344.57 967.71 1354.15 977.29 1365.93 977.29L1489.18 977.29C1501.82 977.29 1513.82 973.51 1522.97 966.64C1523.02 966.6 1523.08 966.56 1523.14 966.53C1525.76 961.56 1527.09 956.25 1527.09 950.72C1527.09 950.7 1527.09 950.68 1527.09 950.66C1522.9 955.83 1517.33 960.18 1510.76 963.37C1502.64 967.32 1493.18 969.41 1483.4 969.41L1367.56 969.41C1359.23 969.41 1352.46 962.63 1352.46 954.3L1352.46 809.97C1352.46 809.04 1353.21 808.28 1354.15 808.28C1355.08 808.28 1355.84 809.04 1355.84 809.97L1355.84 954.3C1355.84 959.42 1359.14 963.78 1363.72 965.38L1363.72 809.97C1363.72 809.04 1364.48 808.28 1365.41 808.28C1366.35 808.28 1367.1 809.04 1367.1 809.97L1367.1 966.01C1367.21 966.02 1405.97 966.02 1483.4 966.03C1492.67 966.03 1501.62 964.06 1509.28 960.34C1516.66 956.74 1522.67 951.62 1526.67 945.5C1523.74 926.86 1505.47 912.88 1483.84 912.88L1452.52 912.88C1437.72 912.6 1423.69 906.65 1414.01 896.55C1405.57 887.74 1401.07 876.48 1401.34 864.83L1401.34 854.09C1401.34 853.86 1401.38 853.65 1401.47 853.45C1401.87 841.51 1407.29 830.34 1416.83 821.87C1426.7 813.11 1439.81 808.29 1453.74 808.29L1462.19 808.29C1462.31 808.29 1541.01 808.28 1698.31 808.28C1699.24 808.28 1700 809.04 1700 809.97C1700 810.9 1699.24 811.66 1698.31 811.66L1620.77 811.66C1624.26 813.61 1627.27 816.31 1629.58 819.55L1698.31 819.55C1699.24 819.55 1700 820.3 1700 821.24C1700 822.17 1699.24 822.93 1698.31 822.93L1631.63 822.93ZM1367.97 988.56L1484.36 988.55C1492.43 988.47 1500.26 986.44 1507.05 982.65C1511.38 980.24 1515.16 977.18 1518.24 973.64C1509.7 978.21 1499.64 980.67 1489.18 980.67L1365.93 980.67C1357.04 980.67 1349.23 975.96 1344.87 968.9C1346.67 980.03 1356.34 988.56 1367.97 988.56ZM1541.74 945.09C1541.74 938.98 1540.33 933.06 1537.57 927.51C1535.96 924.3 1533.92 921.27 1531.5 918.49C1522.15 907.78 1508.05 901.64 1492.82 901.64L1470.62 901.64L1453.73 901.53C1437.53 901.53 1422.5 894.99 1412.51 883.6C1409.9 880.62 1407.7 877.37 1405.97 873.91C1405.73 873.44 1405.5 872.96 1405.28 872.47C1406.66 880.46 1410.49 887.99 1416.45 894.22C1425.51 903.66 1438.67 909.23 1452.57 909.5L1483.84 909.5C1507.42 909.5 1527.33 925.09 1530.13 945.76C1530.35 947.38 1530.47 949.05 1530.47 950.72C1530.47 957.16 1528.84 963.32 1525.62 969.05C1521.81 975.83 1515.95 981.56 1508.69 985.61C1507.88 986.06 1507.04 986.49 1506.2 986.9C1526.69 981.71 1541.74 964.94 1541.74 945.09ZM1420.94 831.08C1424.75 824.32 1430.61 818.62 1437.87 814.59C1438.67 814.14 1439.49 813.72 1440.32 813.32C1419.85 818.49 1404.82 835.18 1404.82 854.91C1404.82 860.99 1406.22 866.88 1408.99 872.4C1410.59 875.59 1412.63 878.61 1415.05 881.37C1424.4 892.03 1438.5 898.14 1453.74 898.14L1470.63 898.26L1492.82 898.26C1509.03 898.26 1524.05 904.82 1534.05 916.27C1536.66 919.26 1538.86 922.53 1540.59 926C1540.74 926.3 1540.88 926.6 1541.03 926.9C1539.44 919.07 1535.57 911.73 1529.74 905.64C1525.31 901.02 1520 897.34 1513.95 894.71C1507.69 891.98 1500.97 890.53 1493.98 890.39L1462.72 890.39C1439.13 890.39 1419.23 874.87 1416.43 854.28C1416.2 852.66 1416.09 851 1416.09 849.34C1416.09 842.92 1417.72 836.78 1420.94 831.08ZM1630.86 831.32C1629.07 820.19 1619.39 811.66 1607.76 811.66L1470.78 811.66C1470.72 811.67 1470.67 811.67 1470.62 811.67L1462.19 811.67C1454.12 811.75 1446.29 813.78 1439.51 817.54C1434.92 820.09 1430.95 823.35 1427.78 827.14C1436.43 822.12 1446.7 819.4 1457.38 819.4L1609.8 819.55C1618.69 819.55 1626.5 824.26 1630.86 831.32Z" />
			<path id="&lt;Compound Path&gt;" fill-rule="evenodd" class="shp1" d="M1326.64 810.44L1282.45 978.81C1282.32 979.49 1282.14 980.17 1281.91 980.84C1281.91 980.85 1281.91 980.86 1281.91 980.86C1280.28 985.68 1276.57 989.35 1271.98 991.01C1271.94 991.03 1271.9 991.04 1271.86 991.05C1271.68 991.12 1271.5 991.18 1271.31 991.24C1271.22 991.26 1271.13 991.29 1271.04 991.32C1270.91 991.36 1270.77 991.39 1270.64 991.43C1270.53 991.46 1270.42 991.49 1270.31 991.52C1270.19 991.55 1270.06 991.57 1269.93 991.6C1269.73 991.65 1269.52 991.69 1269.32 991.73C1269.2 991.75 1269.08 991.77 1268.96 991.79C1268.84 991.81 1268.72 991.82 1268.6 991.84C1268.47 991.85 1268.34 991.87 1268.22 991.88C1268.1 991.9 1267.99 991.91 1267.88 991.92C1267.73 991.93 1267.58 991.94 1267.43 991.95C1267.34 991.96 1267.25 991.96 1267.16 991.97C1266.91 991.98 1266.67 991.99 1266.42 991.99C1266.17 991.99 1265.92 991.98 1265.68 991.97C1265.59 991.96 1265.5 991.96 1265.41 991.95C1265.26 991.94 1265.1 991.93 1264.95 991.92C1264.84 991.91 1264.73 991.9 1264.62 991.88C1264.49 991.87 1264.37 991.85 1264.24 991.84C1264.12 991.82 1264 991.81 1263.88 991.79C1263.76 991.77 1263.64 991.75 1263.52 991.73C1263.31 991.69 1263.11 991.65 1262.9 991.6C1262.78 991.57 1262.65 991.55 1262.52 991.52C1262.41 991.49 1262.3 991.46 1262.2 991.43C1262.06 991.39 1261.93 991.36 1261.79 991.32C1261.7 991.29 1261.61 991.26 1261.52 991.24C1261.34 991.18 1261.16 991.12 1260.98 991.05C1260.94 991.04 1260.89 991.03 1260.85 991.01C1260.83 991 1260.8 990.99 1260.78 990.99C1258.98 991.65 1257.09 991.99 1255.15 991.99C1248.12 991.99 1241.9 987.51 1239.66 980.85C1239.66 980.84 1239.65 980.84 1239.65 980.83C1239.43 980.16 1239.25 979.47 1239.12 978.79L1221.39 910.55L1203.48 978.71C1203.34 979.4 1203.16 980.08 1202.94 980.75C1202.94 980.76 1202.94 980.76 1202.94 980.76L1202.93 980.77C1201.31 985.59 1197.6 989.26 1193.01 990.92C1192.97 990.94 1192.92 990.95 1192.88 990.97C1192.7 991.03 1192.53 991.09 1192.35 991.14C1192.25 991.17 1192.16 991.2 1192.06 991.23C1191.93 991.27 1191.81 991.3 1191.68 991.34C1191.56 991.37 1191.45 991.4 1191.34 991.43C1191.22 991.46 1191.1 991.48 1190.99 991.51C1190.77 991.56 1190.55 991.6 1190.33 991.64C1190.21 991.66 1190.1 991.68 1189.99 991.7C1189.86 991.72 1189.74 991.73 1189.62 991.75C1189.5 991.77 1189.37 991.78 1189.25 991.8C1189.13 991.81 1189.02 991.82 1188.91 991.83C1188.76 991.84 1188.61 991.85 1188.46 991.86C1188.37 991.87 1188.28 991.87 1188.18 991.88C1187.94 991.89 1187.69 991.9 1187.45 991.9C1187.2 991.9 1186.95 991.89 1186.71 991.88C1186.62 991.87 1186.53 991.87 1186.43 991.86C1186.28 991.85 1186.13 991.84 1185.98 991.83C1185.87 991.82 1185.76 991.81 1185.65 991.8C1185.52 991.78 1185.39 991.77 1185.27 991.75C1185.15 991.73 1185.03 991.72 1184.91 991.7C1184.79 991.68 1184.67 991.66 1184.55 991.64C1184.34 991.6 1184.13 991.56 1183.92 991.51C1183.8 991.48 1183.67 991.46 1183.55 991.43C1183.44 991.4 1183.33 991.37 1183.22 991.34C1183.09 991.31 1182.95 991.27 1182.82 991.23C1182.73 991.2 1182.64 991.17 1182.55 991.15C1182.37 991.09 1182.19 991.03 1182.01 990.97C1181.97 990.95 1181.92 990.94 1181.88 990.92C1181.86 990.91 1181.83 990.91 1181.81 990.9C1180.01 991.56 1178.12 991.9 1176.18 991.9C1169.15 991.9 1162.92 987.42 1160.69 980.76C1160.68 980.76 1160.68 980.75 1160.68 980.74C1160.46 980.08 1160.28 979.4 1160.15 978.72L1122.21 834.2L1045.24 834.2C1045.25 834.48 1045.25 834.77 1045.25 835.06L1045.25 990.25C1045.25 991.18 1044.5 991.94 1043.56 991.94C1042.63 991.94 1041.87 991.18 1041.87 990.25L1041.87 844.29C1041.87 832.51 1032.29 822.93 1020.51 822.93C988.9 822.93 964.32 822.93 946.77 822.93C946.73 822.93 946.69 822.92 946.65 822.92L940.56 830.82L1018.88 830.82C1027.21 830.82 1033.98 837.59 1033.98 845.92L1033.98 990.25C1033.98 991.18 1033.23 991.94 1032.29 991.94C1031.36 991.94 1030.6 991.18 1030.6 990.25L1030.6 845.92C1030.6 839.46 1025.34 834.2 1018.88 834.2L1017.12 834.2C1020.53 836.97 1022.72 841.19 1022.72 845.92L1022.72 990.25C1022.72 991.18 1021.96 991.94 1021.03 991.94C1020.09 991.94 1019.34 991.18 1019.34 990.25L1019.34 845.92C1019.34 839.46 1014.08 834.2 1007.61 834.2L937.95 834.2L880.07 909.26L880.07 909.27L880.01 909.34L816.83 991.28C816.49 991.71 815.99 991.94 815.49 991.94C815.13 991.94 814.76 991.83 814.46 991.59C813.72 991.02 813.58 989.96 814.15 989.22L868.75 918.4C866.94 919.49 865.07 920.47 863.15 921.33C859.62 922.89 855.95 924.06 852.19 924.81C830.56 952.14 812.63 974.51 798.88 991.32C798.55 991.73 798.06 991.94 797.57 991.94C797.2 991.94 796.82 991.82 796.5 991.56C795.78 990.97 795.67 989.9 796.27 989.18C809.52 972.97 826.68 951.58 847.29 925.55C846.97 925.58 846.65 925.61 846.32 925.64C844.86 925.76 843.36 925.83 841.86 925.83C840.18 925.83 838.48 925.74 836.8 925.58L785.74 991.29C785.41 991.72 784.91 991.94 784.41 991.94C784.05 991.94 783.68 991.82 783.37 991.59C782.63 991.01 782.5 989.95 783.07 989.21L832.92 925.06C821.36 923.07 810.78 917.24 802.87 908.43C794.23 898.81 789.47 886.38 789.47 873.43L789.46 809.86C789.46 808.93 790.22 808.17 791.15 808.17C792.08 808.17 792.84 808.93 792.84 809.86L792.85 865.32C793.02 873.37 795.51 881.19 800.05 887.93C802.76 891.95 806.13 895.5 810.01 898.44C803.98 889.66 800.73 879.74 800.73 869.79L800.73 809.7C800.73 808.77 801.49 808.01 802.42 808.01C803.35 808.01 804.11 808.77 804.11 809.7L804.11 869.79C804.11 881.76 809.19 893.72 818.42 903.45C818.43 903.47 818.45 903.49 818.46 903.51C823.79 905.97 829.45 907.37 835.35 907.7C829.11 903.56 823.8 898.12 819.8 891.73C814.62 883.42 811.88 873.84 811.88 864L811.88 810.29C811.88 809.35 812.63 808.6 813.57 808.6C814.5 808.6 815.26 809.35 815.26 810.29L815.26 864C815.26 873.2 817.82 882.17 822.67 889.93C827.37 897.45 834.01 903.56 841.88 907.61C842.28 907.58 842.68 907.54 843.08 907.5L843.11 907.49C843.22 907.48 843.33 907.47 843.44 907.46C844.66 907.32 845.86 907.13 847.06 906.9C847.09 906.83 847.14 906.77 847.18 906.71L923.24 808.82C923.82 808.08 924.88 807.95 925.62 808.52C926.35 809.1 926.49 810.16 925.91 810.89L852.37 905.54C858.18 903.68 863.54 900.69 868.18 896.69C875.75 890.03 937.94 809.75 938.56 808.94C939.14 808.2 940.2 808.06 940.94 808.63C941.67 809.21 941.81 810.27 941.24 811.01C938.67 814.32 878.22 892.36 870.4 899.24C862.92 905.68 853.73 909.68 843.82 910.82C843.69 910.83 843.56 910.85 843.44 910.86C841.66 911.05 839.84 911.15 838.01 911.15C830.47 911.15 823.25 909.53 816.54 906.35C808.69 902.62 802.02 896.9 797.25 889.82C796.06 888.05 795 886.22 794.07 884.33C795.91 892.4 799.77 899.92 805.39 906.17C813.41 915.1 824.36 920.77 836.23 922.13C839.48 922.5 842.83 922.55 846.04 922.27C849.93 921.94 853.74 921.16 857.41 919.93C857.41 919.93 857.42 919.93 857.43 919.92C865 917.39 871.92 912.97 877.44 907.13L877.48 907.09L953.06 809.07C953.25 808.83 953.49 808.65 953.75 808.54C954.01 808.38 954.32 808.28 954.65 808.28L1116.91 808.28C1116.98 808.28 1117.06 808.29 1117.14 808.3C1117.14 808.3 1117.15 808.29 1117.16 808.29C1118.06 808.05 1118.98 808.59 1119.22 809.5L1163.43 977.91L1163.91 979.73C1165.69 984.99 1170.62 988.52 1176.18 988.52C1176.59 988.52 1177 988.5 1177.41 988.46C1174.93 986.53 1173 983.89 1171.95 980.76C1171.95 980.76 1171.95 980.75 1171.95 980.74C1171.73 980.08 1171.55 979.4 1171.42 978.72L1127.22 810.36C1126.98 809.45 1127.52 808.53 1128.43 808.29C1129.33 808.05 1130.25 808.59 1130.49 809.5L1174.7 977.91L1175.17 979.73C1176.39 983.32 1179.08 986.11 1182.44 987.51C1182.44 987.52 1182.45 987.52 1182.46 987.52C1182.65 987.6 1182.84 987.67 1183.02 987.74C1183.07 987.76 1183.12 987.77 1183.17 987.79C1183.29 987.84 1183.42 987.88 1183.54 987.92C1183.63 987.94 1183.71 987.97 1183.8 987.99C1183.89 988.02 1183.98 988.04 1184.06 988.07C1184.17 988.1 1184.27 988.12 1184.37 988.15C1184.43 988.16 1184.5 988.18 1184.56 988.19C1184.77 988.24 1184.99 988.28 1185.21 988.32C1185.28 988.33 1185.35 988.35 1185.42 988.36C1185.53 988.37 1185.63 988.39 1185.73 988.4C1185.83 988.41 1185.92 988.43 1186.01 988.44C1186.1 988.45 1186.2 988.45 1186.29 988.46C1186.41 988.47 1186.52 988.48 1186.64 988.49C1186.71 988.49 1186.79 988.5 1186.86 988.5C1187.05 988.51 1187.25 988.52 1187.45 988.52C1187.64 988.52 1187.83 988.51 1188.02 988.5C1188.09 988.5 1188.17 988.49 1188.24 988.49C1188.35 988.48 1188.46 988.48 1188.57 988.47C1188.61 988.46 1188.65 988.46 1188.68 988.46C1188.22 988.09 1187.78 987.71 1187.35 987.3C1186.93 986.89 1186.54 986.47 1186.17 986.02C1186.15 986 1186.13 985.98 1186.11 985.95C1184.84 984.41 1183.85 982.65 1183.22 980.76C1183.22 980.75 1183.22 980.75 1183.21 980.74L1183.21 980.73C1182.99 980.07 1182.82 979.39 1182.68 978.72L1182.68 978.71L1180.17 969.15L1178.62 963.23L1138.49 810.36C1138.25 809.45 1138.79 808.53 1139.69 808.29C1140.6 808.05 1141.52 808.59 1141.76 809.5L1181.81 962.09L1199.73 893.94C1199.86 893.26 1200.04 892.57 1200.26 891.9L1200.27 891.89C1200.27 891.89 1200.27 891.89 1200.27 891.88L1200.27 891.87C1202.51 885.21 1208.73 880.75 1215.76 880.75C1217.7 880.75 1219.59 881.08 1221.39 881.74C1221.42 881.74 1221.44 881.73 1221.47 881.72C1221.51 881.7 1221.55 881.69 1221.59 881.68C1221.77 881.61 1221.95 881.55 1222.13 881.5C1222.22 881.47 1222.31 881.44 1222.41 881.41C1222.54 881.37 1222.67 881.34 1222.8 881.3C1222.92 881.27 1223.03 881.24 1223.14 881.21C1223.26 881.18 1223.38 881.16 1223.5 881.13C1223.71 881.08 1223.93 881.04 1224.14 881C1224.25 880.98 1224.37 880.96 1224.49 880.94C1224.61 880.92 1224.73 880.91 1224.85 880.89C1224.98 880.88 1225.1 880.86 1225.23 880.85C1225.34 880.83 1225.45 880.82 1225.57 880.81C1225.72 880.8 1225.87 880.79 1226.02 880.78C1226.11 880.77 1226.2 880.77 1226.29 880.76C1226.54 880.75 1226.78 880.75 1227.03 880.75C1227.28 880.75 1227.52 880.75 1227.77 880.76C1227.86 880.77 1227.95 880.77 1228.04 880.78C1228.19 880.79 1228.34 880.8 1228.49 880.81C1228.6 880.82 1228.72 880.83 1228.83 880.85C1228.95 880.86 1229.08 880.88 1229.21 880.89C1229.33 880.91 1229.45 880.92 1229.57 880.94C1229.69 880.96 1229.81 880.98 1229.92 881.01C1230.13 881.04 1230.34 881.08 1230.55 881.13C1230.67 881.16 1230.8 881.18 1230.92 881.21C1231.03 881.24 1231.14 881.27 1231.25 881.3C1231.39 881.34 1231.52 881.37 1231.65 881.41C1231.74 881.44 1231.84 881.47 1231.93 881.5C1232.11 881.55 1232.29 881.61 1232.47 881.68C1232.51 881.69 1232.55 881.7 1232.59 881.72C1237.19 883.38 1240.9 887.06 1242.52 891.88C1242.52 891.89 1242.52 891.89 1242.53 891.9L1242.53 891.91C1242.75 892.58 1242.93 893.26 1243.06 893.94L1256.13 944.47L1260.78 962.18L1300.84 809.59C1301.08 808.68 1302 808.14 1302.9 808.38C1303.81 808.62 1304.35 809.54 1304.11 810.44L1263.98 963.32L1262.53 968.83L1264.94 977.99C1264.94 977.99 1264.94 977.99 1264.94 978C1264.94 978.01 1264.94 978.02 1264.95 978.03L1265.41 979.82C1265.68 980.59 1266.02 981.34 1266.42 982.05C1266.82 981.34 1267.16 980.6 1267.42 979.83L1267.9 978L1312.11 809.59C1312.34 808.68 1313.27 808.14 1314.17 808.38C1315.07 808.62 1315.61 809.54 1315.38 810.44L1271.17 978.86L1270.67 980.74C1270.66 980.78 1270.65 980.82 1270.64 980.85C1270.16 982.3 1269.48 983.65 1268.62 984.9C1268.64 984.92 1268.65 984.94 1268.67 984.96C1269.68 985.93 1270.81 986.72 1272.05 987.32C1275.11 985.84 1277.55 983.19 1278.69 979.82L1279.16 978L1323.37 809.59C1323.61 808.68 1324.54 808.14 1325.44 808.38C1326.34 808.62 1326.88 809.54 1326.64 810.44ZM1031.48 811.66C1034.97 813.61 1037.98 816.31 1040.29 819.55L1118.37 819.55L1116.29 811.66L1031.48 811.66ZM1041.57 831.32C1039.78 820.19 1030.1 811.66 1018.47 811.66L955.33 811.66L949.25 819.55C967.06 819.55 990.81 819.55 1020.51 819.55C1029.4 819.55 1037.21 824.26 1041.57 831.32ZM1121.32 830.82L1119.25 822.93L1042.34 822.93C1043.59 825.37 1044.47 828.02 1044.91 830.82L1121.32 830.82ZM1232.66 885.41C1231.42 886.01 1230.29 886.8 1229.29 887.77C1229.27 887.79 1229.25 887.81 1229.23 887.83C1230.09 889.08 1230.77 890.44 1231.25 891.88C1231.26 891.91 1231.27 891.95 1231.28 891.99L1231.78 893.87L1253.67 977.99C1253.67 978.01 1253.68 978.02 1253.68 978.04L1254.14 979.81C1255.36 983.41 1258.05 986.2 1261.41 987.6C1261.42 987.6 1261.42 987.61 1261.43 987.61C1261.43 987.61 1261.43 987.61 1261.44 987.61C1261.62 987.69 1261.81 987.76 1262 987.83C1262.04 987.85 1262.09 987.86 1262.14 987.88C1262.26 987.92 1262.39 987.97 1262.52 988.01C1262.6 988.03 1262.69 988.06 1262.77 988.08C1262.86 988.11 1262.95 988.13 1263.04 988.16C1263.14 988.19 1263.24 988.21 1263.34 988.24C1263.41 988.25 1263.48 988.27 1263.54 988.28C1263.75 988.33 1263.96 988.37 1264.18 988.41C1264.25 988.42 1264.32 988.44 1264.4 988.45C1264.5 988.46 1264.6 988.48 1264.7 988.49C1264.8 988.5 1264.89 988.51 1264.98 988.52C1265.08 988.53 1265.17 988.54 1265.26 988.55C1265.38 988.56 1265.49 988.57 1265.61 988.58C1265.69 988.58 1265.76 988.59 1265.83 988.59C1266.03 988.6 1266.22 988.61 1266.42 988.61C1266.61 988.61 1266.8 988.6 1266.99 988.59C1267.06 988.59 1267.14 988.58 1267.22 988.58C1267.33 988.57 1267.44 988.56 1267.55 988.55C1267.58 988.55 1267.62 988.55 1267.66 988.54C1267.19 988.18 1266.75 987.8 1266.32 987.38C1265.91 986.98 1265.52 986.56 1265.15 986.12C1265.13 986.09 1265.1 986.06 1265.08 986.04C1263.81 984.5 1262.83 982.74 1262.19 980.85C1262.19 980.84 1262.19 980.83 1262.19 980.83L1262.19 980.82C1261.97 980.16 1261.79 979.48 1261.66 978.81C1261.66 978.81 1261.66 978.8 1261.65 978.8L1259.15 969.25C1259.14 969.24 1259.14 969.24 1259.14 969.23L1257.59 963.32C1257.59 963.31 1257.59 963.31 1257.58 963.3L1252.86 945.32L1239.78 894.74C1239.77 894.72 1239.77 894.71 1239.77 894.7L1239.3 892.92C1238.16 889.55 1235.73 886.89 1232.66 885.41ZM1185.01 963.23L1183.56 968.75L1185.96 977.9C1185.97 977.91 1185.97 977.93 1185.97 977.94L1186.34 979.36L1186.44 979.73C1186.7 980.5 1187.04 981.25 1187.45 981.96C1187.85 981.25 1188.18 980.51 1188.45 979.74L1188.93 977.91L1211 893.94C1211 893.93 1211 893.93 1211 893.93C1211.13 893.25 1211.31 892.57 1211.53 891.9C1211.53 891.89 1211.53 891.89 1211.53 891.89C1211.53 891.89 1211.53 891.89 1211.54 891.89L1211.54 891.87C1212.59 888.75 1214.52 886.11 1216.99 884.18C1216.58 884.15 1216.17 884.13 1215.76 884.13C1210.19 884.13 1205.27 887.66 1203.49 892.93L1203.02 894.69C1203.02 894.71 1203.02 894.73 1203.01 894.74L1185.01 963.23ZM1199.72 979.71L1200.18 977.95C1200.19 977.93 1200.19 977.92 1200.2 977.9L1218.2 909.41L1219.75 903.5C1219.75 903.49 1219.75 903.49 1219.76 903.49L1222.26 893.94C1222.26 893.93 1222.27 893.92 1222.27 893.92C1222.4 893.24 1222.58 892.56 1222.8 891.9C1222.8 891.89 1222.8 891.88 1222.8 891.88C1222.81 891.88 1222.81 891.87 1222.81 891.87C1223.45 889.97 1224.44 888.19 1225.73 886.65C1225.74 886.64 1225.75 886.62 1225.76 886.61C1226.13 886.17 1226.52 885.74 1226.94 885.34C1227.36 884.93 1227.8 884.55 1228.27 884.19C1228.23 884.18 1228.19 884.18 1228.15 884.18C1228.05 884.17 1227.94 884.16 1227.83 884.15C1227.75 884.15 1227.68 884.14 1227.6 884.14C1227.41 884.13 1227.22 884.13 1227.03 884.13C1226.83 884.13 1226.64 884.13 1226.44 884.14C1226.37 884.14 1226.3 884.15 1226.22 884.15C1226.1 884.16 1225.99 884.17 1225.87 884.18C1225.78 884.19 1225.69 884.2 1225.59 884.21C1225.5 884.22 1225.41 884.23 1225.32 884.24C1225.21 884.25 1225.11 884.27 1225 884.28C1224.94 884.29 1224.87 884.31 1224.8 884.32C1224.57 884.36 1224.35 884.4 1224.13 884.45C1224.07 884.47 1224.01 884.48 1223.96 884.49C1223.85 884.52 1223.75 884.55 1223.64 884.57C1223.56 884.6 1223.47 884.62 1223.39 884.65C1223.3 884.67 1223.21 884.7 1223.12 884.73C1223 884.77 1222.88 884.81 1222.76 884.85C1222.71 884.87 1222.66 884.88 1222.61 884.9C1222.42 884.97 1222.23 885.04 1222.05 885.12L1222.04 885.12C1222.03 885.12 1222.03 885.13 1222.02 885.13C1218.66 886.54 1215.97 889.33 1214.75 892.93L1214.29 894.69C1214.29 894.71 1214.28 894.73 1214.28 894.74L1192.19 978.77L1191.7 980.65C1191.69 980.69 1191.68 980.73 1191.67 980.76C1191.18 982.21 1190.51 983.56 1189.65 984.81C1189.67 984.83 1189.68 984.85 1189.7 984.87C1190.7 985.84 1191.84 986.63 1193.08 987.23C1196.15 985.75 1198.58 983.09 1199.72 979.71ZM1256.38 988.55C1253.9 986.62 1251.98 983.98 1250.93 980.85C1250.92 980.84 1250.92 980.84 1250.92 980.83L1250.92 980.82C1250.7 980.16 1250.52 979.48 1250.39 978.8C1250.39 978.8 1250.39 978.79 1250.38 978.79L1228.51 894.73L1228.03 892.9C1227.77 892.13 1227.43 891.39 1227.03 890.68C1226.63 891.4 1226.29 892.14 1226.02 892.91L1225.56 894.69C1225.55 894.71 1225.55 894.73 1225.55 894.74L1223.14 903.9L1224.59 909.41L1242.4 977.99C1242.41 978.01 1242.41 978.02 1242.41 978.04L1242.88 979.81C1244.66 985.07 1249.59 988.61 1255.15 988.61C1255.56 988.61 1255.97 988.58 1256.38 988.55Z" />
		</g>
	</g>
</svg>