<svg xmlns="http://www.w3.org/2000/svg" viewBox="0 0 183.36 71.73"><defs><style>.cls-1{fill:#0078d2;}</style></defs><title>uwvLogo2PayoffRGB</title><g id="payoff"><path class="cls-1" d="M326.29,340.84s1.25-6.6,1.37-7.22h2.21l.29-1.37h-2.23l.15-.65c.29-1.36.69-1.87,1.43-1.87a2.39,2.39,0,0,1,.94.19l.07,0,.34-1.35-.05,0a3.14,3.14,0,0,0-1.54-.38,2.51,2.51,0,0,0-2.33,1.37,9.11,9.11,0,0,0-.65,2l-.15.69h-1.26l-.29,1.37h1.26l-1.26,6.64v.09a.49.49,0,0,0,.49.49Zm-4.47-.78a.54.54,0,0,0,.2-.44,1.25,1.25,0,0,0,0-.19l-.33-.91a3.74,3.74,0,0,1-2.37.89A1.69,1.69,0,0,1,318,339a1.93,1.93,0,0,1-.47-1.42,2.81,2.81,0,0,1,.05-.62h5.28l0-.05a6.39,6.39,0,0,0,.4-2.19,2.77,2.77,0,0,0-.73-2,2.89,2.89,0,0,0-2.11-.75c-2.64,0-4.7,2.5-4.7,5.7a3.55,3.55,0,0,0,.92,2.58A3.12,3.12,0,0,0,319,341a4.4,4.4,0,0,0,2.82-1m-.25-5.34a3.35,3.35,0,0,1-.09.76h-3.56a2.5,2.5,0,0,1,2.31-2.13,1.28,1.28,0,0,1,1,.34,1.37,1.37,0,0,1,.36,1m-7.2-3.76a1.1,1.1,0,1,0,0-2.2,1.1,1.1,0,0,0,0,2.2M313,340.84l1.88-8.85-1.86.28-1.7,8v.11a.48.48,0,0,0,.47.47Zm-3.31-.56a.61.61,0,0,0,.17-.4.53.53,0,0,0,0-.17l-.27-.74a1.76,1.76,0,0,1-1.23.42.85.85,0,0,1-.6-.16.53.53,0,0,1-.12-.4,7.89,7.89,0,0,1,.18-1.19l.85-4h2.13l.29-1.37h-2.12l.55-2.37-1.88.3-.47,2.07h-1.25l-.31,1.37h1.27l-.94,4.36a5.45,5.45,0,0,0-.17,1.21,1.7,1.7,0,0,0,.47,1.28,1.9,1.9,0,0,0,1.45.51,3.55,3.55,0,0,0,2-.67l.05-.05m-5.55-5.61.83-1.36-.05-.1a2.74,2.74,0,0,0-2.53-1.29c-2.53,0-4.45,2.52-4.45,5.84a3.51,3.51,0,0,0,.87,2.53,2.69,2.69,0,0,0,2,.74,4.41,4.41,0,0,0,2.87-.95.51.51,0,0,0,.17-.4.42.42,0,0,0,0-.16l-.36-1-.07.08a3.72,3.72,0,0,1-2.08.81,1.41,1.41,0,0,1-1-.36,1.9,1.9,0,0,1-.44-1.38,5,5,0,0,1,1.19-3.47,2.1,2.1,0,0,1,1.4-.63c.72,0,1.14.27,1.73,1.12m-8.6,5.39a.57.57,0,0,0,.2-.44.65.65,0,0,0,0-.19l-.33-.91a3.71,3.71,0,0,1-2.36.89,1.7,1.7,0,0,1-1.27-.44,1.93,1.93,0,0,1-.47-1.42,2.81,2.81,0,0,1,.05-.62h5.28l0-.05a6.39,6.39,0,0,0,.4-2.19,2.77,2.77,0,0,0-.72-2,2.91,2.91,0,0,0-2.12-.75c-2.64,0-4.7,2.5-4.7,5.7a3.59,3.59,0,0,0,.92,2.58,3.14,3.14,0,0,0,2.32.85,4.4,4.4,0,0,0,2.82-1m-.26-5.34a2.86,2.86,0,0,1-.09.76h-3.56a2.5,2.5,0,0,1,2.32-2.13,1.27,1.27,0,0,1,1,.34,1.33,1.33,0,0,1,.36,1m-9.18-.88a2,2,0,0,1,.36,1.35c0,2.26-1.17,4.24-2.51,4.24a1.91,1.91,0,0,1-1.68-1.11l.7-3.25a3.24,3.24,0,0,1,2.42-1.47,1,1,0,0,1,.71.24m-6.82,10.09a.49.49,0,0,0,.49.47H281l.94-4.45a2.06,2.06,0,0,0,.64.69A2.66,2.66,0,0,0,284,341a3.58,3.58,0,0,0,2.51-1.13,6.84,6.84,0,0,0,1.81-4.74,3.66,3.66,0,0,0-.89-2.64,2.09,2.09,0,0,0-1.48-.6,3.43,3.43,0,0,0-1.68.49,4.2,4.2,0,0,0-1,.81l.25-1.19-1.81.29-2.44,11.5a.22.22,0,0,0,0,.11m0-11a3.07,3.07,0,0,0-2.57-1.05c-2,0-3.31,1.11-3.31,2.75a2.26,2.26,0,0,0,.38,1.3,2.93,2.93,0,0,0,1.61,1,4.23,4.23,0,0,1,1.17.53.84.84,0,0,1,.31.67,1.34,1.34,0,0,1-1.5,1.3,3,3,0,0,1-2.38-1.21l-.51,1a.44.44,0,0,0-.06.23.56.56,0,0,0,.17.4,3.84,3.84,0,0,0,2.78,1.1,3.46,3.46,0,0,0,2.46-.94,3,3,0,0,0,.85-2.15,2.2,2.2,0,0,0-.43-1.35c-.33-.44-.44-.53-1.45-.89l-.71-.27c-.72-.29-.92-.49-.92-.89a.89.89,0,0,1,.29-.7,1.7,1.7,0,0,1,1.2-.4,2.51,2.51,0,0,1,2,.94l.72-1.21Zm-9.68,2.33a2.43,2.43,0,0,1,2.19-1.48,1.76,1.76,0,0,1,.69.13l.07,0,.36-1.9-.09,0a2.33,2.33,0,0,0-.49-.06,3,3,0,0,0-1.46.47,3.36,3.36,0,0,0-.92.78l.27-1.26-1.77.27-1.72,8v.09a.49.49,0,0,0,.49.49h1.21Zm-5.13,4.76a.54.54,0,0,0,.2-.44.65.65,0,0,0,0-.19l-.32-.91a3.76,3.76,0,0,1-2.37.89,1.72,1.72,0,0,1-1.27-.44,2,2,0,0,1-.47-1.42,2.36,2.36,0,0,1,.06-.62h5.28v-.05a6.17,6.17,0,0,0,.4-2.19,2.77,2.77,0,0,0-.72-2,2.9,2.9,0,0,0-2.12-.75c-2.64,0-4.7,2.5-4.7,5.7a3.59,3.59,0,0,0,.92,2.58,3.16,3.16,0,0,0,2.32.85,4.4,4.4,0,0,0,2.82-1m-.25-5.34a3.35,3.35,0,0,1-.09.76h-3.57a2.51,2.51,0,0,1,2.32-2.13,1.26,1.26,0,0,1,1,.34,1.33,1.33,0,0,1,.37,1m-9.19-.88a1.93,1.93,0,0,1,.36,1.35c0,2.26-1.17,4.24-2.51,4.24a1.91,1.91,0,0,1-1.68-1.11l.7-3.25a3.26,3.26,0,0,1,2.43-1.47,1,1,0,0,1,.7.24m-6.81,10.09a.48.48,0,0,0,.48.47h1.22l.94-4.45a2,2,0,0,0,.63.69,2.68,2.68,0,0,0,1.48.39,3.56,3.56,0,0,0,2.51-1.13,6.79,6.79,0,0,0,1.81-4.74,3.7,3.7,0,0,0-.88-2.64,2.13,2.13,0,0,0-1.49-.6,3.43,3.43,0,0,0-1.68.49,4.4,4.4,0,0,0-1,.81l.25-1.19-1.81.29-2.44,11.5a.41.41,0,0,0,0,.11" transform="translate(-147.5 -284.13)"/><path class="cls-1" d="M274.56,324.3s.18-.78,1.2-5.59a8.3,8.3,0,0,0,.21-1.41,1.8,1.8,0,0,0-.52-1.35,1.92,1.92,0,0,0-1.45-.55,4.25,4.25,0,0,0-1.88.53,4.34,4.34,0,0,0-1.14.79l.27-1.23-1.84.29-1.7,7.94v.11a.49.49,0,0,0,.49.47h1.19l1.27-5.89a4,4,0,0,1,2.64-1.32.91.91,0,0,1,.63.19.64.64,0,0,1,.14.44,3.36,3.36,0,0,1-.1.72s-.8,3.76-1.13,5.28a.41.41,0,0,0,0,.11.48.48,0,0,0,.48.47Zm-9.6,0,.85-4.14,1.07-4.58h-1.72l-.23,1.14a2.1,2.1,0,0,0-.71-.88,2.5,2.5,0,0,0-1.46-.42c-2.39,0-4.33,2.61-4.33,5.81a3.55,3.55,0,0,0,.85,2.6,2.21,2.21,0,0,0,1.65.63,3,3,0,0,0,1.72-.47,2.9,2.9,0,0,0,.92-1l-.15.69a.49.49,0,0,1,0,.11v.05a.48.48,0,0,0,.49.49Zm-1.16-2.91a3.47,3.47,0,0,1-2.38,1.48,1,1,0,0,1-.73-.29,1.83,1.83,0,0,1-.39-1.35,7.43,7.43,0,0,1,.54-2.52c.43-1.08,1.1-1.64,2-1.64a1.64,1.64,0,0,1,1.63,1.46Zm-8.26,2.91.85-4.14,1.07-4.58h-1.72l-.23,1.14a2.1,2.1,0,0,0-.71-.88,2.5,2.5,0,0,0-1.46-.42c-2.39,0-4.32,2.61-4.32,5.81a3.51,3.51,0,0,0,.85,2.6,2.17,2.17,0,0,0,1.64.63,3,3,0,0,0,1.72-.47,2.9,2.9,0,0,0,.92-1l-.14.69a.26.26,0,0,1,0,.11v.05a.48.48,0,0,0,.49.49Zm-1.15-2.91a3.51,3.51,0,0,1-2.39,1.48,1,1,0,0,1-.72-.29,1.79,1.79,0,0,1-.4-1.35,7.43,7.43,0,0,1,.54-2.52c.43-1.08,1.1-1.64,2-1.64a1.64,1.64,0,0,1,1.63,1.46Z" transform="translate(-147.5 -284.13)"/><path class="cls-1" d="M299,307.76s.18-.77,1.19-5.58a8.52,8.52,0,0,0,.22-1.41,1.81,1.81,0,0,0-.53-1.36,1.93,1.93,0,0,0-1.44-.54,4.15,4.15,0,0,0-1.88.52,4.22,4.22,0,0,0-1.14.8l.27-1.23-1.85.29-1.7,7.93v.11a.48.48,0,0,0,.49.47h1.2l1.26-5.89a4,4,0,0,1,2.64-1.32.85.85,0,0,1,.63.2.62.62,0,0,1,.15.43,3.41,3.41,0,0,1-.11.72l-1.12,5.28a.23.23,0,0,0,0,.11.48.48,0,0,0,.49.47Zm-9.08-.77a.56.56,0,0,0,.2-.44.71.71,0,0,0,0-.2l-.32-.9a3.75,3.75,0,0,1-2.37.88,1.71,1.71,0,0,1-1.27-.43,2,2,0,0,1-.47-1.43,2.32,2.32,0,0,1,.06-.61H291l0-.06a6.29,6.29,0,0,0,.39-2.18,2.79,2.79,0,0,0-.72-2.05,2.89,2.89,0,0,0-2.12-.74c-2.64,0-4.7,2.5-4.7,5.7a3.55,3.55,0,0,0,.93,2.58,3.16,3.16,0,0,0,2.31.85,4.4,4.4,0,0,0,2.82-1m-.25-5.34a3.42,3.42,0,0,1-.09.76H286a2.49,2.49,0,0,1,2.31-2.13,1.3,1.3,0,0,1,1,.34,1.37,1.37,0,0,1,.36,1m-14.14,5.64a.48.48,0,0,0,.47.47h1.23l.88-4.16,2.25,4.16h2.08s-2.39-4.28-2.59-4.66l4.36-4.05h-2.35l-3.47,3.36,1.53-7.27-1.88.35-2.51,11.69Zm-3.13-5.06a2.43,2.43,0,0,1,2.19-1.48,1.92,1.92,0,0,1,.69.12l.07,0,.36-1.9h-.09a2.49,2.49,0,0,0-.49-.06,2.9,2.9,0,0,0-1.46.47,3.55,3.55,0,0,0-.93.78l.28-1.27-1.78.27-1.71,8v.09a.48.48,0,0,0,.48.49h1.22ZM267.28,307a.59.59,0,0,0,.2-.44.71.71,0,0,0,0-.2l-.33-.9a3.7,3.7,0,0,1-2.36.88,1.7,1.7,0,0,1-1.27-.43,2,2,0,0,1-.47-1.43,2.77,2.77,0,0,1,.05-.61h5.28l0-.06a6.29,6.29,0,0,0,.4-2.18,2.79,2.79,0,0,0-.72-2.05,2.91,2.91,0,0,0-2.12-.74c-2.64,0-4.7,2.5-4.7,5.7a3.59,3.59,0,0,0,.92,2.58,3.18,3.18,0,0,0,2.32.85,4.4,4.4,0,0,0,2.82-1m-.26-5.34a2.91,2.91,0,0,1-.09.76h-3.56a2.5,2.5,0,0,1,2.32-2.13,1.27,1.27,0,0,1,1,.34,1.33,1.33,0,0,1,.36,1m-11.62,5.64a.47.47,0,0,0,.49.47h1.28l4.07-8.71h-1.88l-2.64,6.2-.51-6.2h-1.68l-2.95,6.2-.21-6.2h-1.78l.47,8.24a.49.49,0,0,0,.49.47h1.32l3-6.24Z" transform="translate(-147.5 -284.13)"/></g><g id="logo"><path class="cls-1" d="M232.5,303.29a18.83,18.83,0,0,0-3.28-10.36c-9.05-13-34-11.41-55.69,3.53s-31.76,37.65-22.71,50.64,33.92,11.36,55.56-3.4c.12-.11,0-.22-.1-.15-12,6.86-22.51,6.88-27.2,0s.25-18.56,10.41-25.31a33.25,33.25,0,0,1,11.54-5l-1.36,6.85a.65.65,0,0,0,.23.71.71.71,0,0,0,.79,0l20.94-11.42a1,1,0,0,0,.51-.69.66.66,0,0,0-.25-.69l-16.38-11.23a.82.82,0,0,0-.81-.06,1,1,0,0,0-.51.69l-1,5.11a40.28,40.28,0,0,0-19.5,7.18c-14,9.44-20.26,24.65-13.92,33.95a14.85,14.85,0,0,0,6.95,5.41l.44.17v.08a17.38,17.38,0,0,1-11.82-7.14c-7.82-11.23.39-30.41,18.16-42.64s38.42-13.05,46.24-1.82a16.11,16.11,0,0,1,2.55,5.57l0,.14c0,.14.22.11.22-.1" transform="translate(-147.5 -284.13)"/><path class="cls-1" d="M193.46,340.16V339a4.3,4.3,0,0,1-3.79,2.07c-1.63,0-3.52-1-3.52-4.77v-7.63l2.62-.48v7.94a3.13,3.13,0,0,0,.64,2.17c1,.89,2.87.34,4-1.67v-8l2.59-.48v12.68h-1.87a.67.67,0,0,1-.69-.67" transform="translate(-147.5 -284.13)"/><path class="cls-1" d="M221.9,337.23l2.9-8.9h2.64l-4.37,12.4,0,.1h-2a.68.68,0,0,1-.65-.46l-4.3-12H219Z" transform="translate(-147.5 -284.13)"/><path class="cls-1" d="M206.32,331.77l-2.79,9.07h-2a.67.67,0,0,1-.65-.46l-3.46-12.05h2.84l2.23,8.58,2.67-8.58h2.52l2.74,8.58,2.23-8.58h2.64l-3.46,12.51h-2a.68.68,0,0,1-.64-.39Z" transform="translate(-147.5 -284.13)"/></g></svg>