<?xml version="1.0" encoding="utf-8"?>
<!-- Generator: Adobe Illustrator 26.2.1, SVG Export Plug-In . SVG Version: 6.00 Build 0)  -->
<svg version="1.1" id="Laag_1" xmlns="http://www.w3.org/2000/svg" xmlns:xlink="http://www.w3.org/1999/xlink" x="0px" y="0px"
	 viewBox="0 0 2205.9 878.6" style="enable-background:new 0 0 2205.9 878.6;" xml:space="preserve">
<style type="text/css">
	.st0{display:none;fill-rule:evenodd;clip-rule:evenodd;fill:#FFFFFF;}
	.st1{fill-rule:evenodd;clip-rule:evenodd;fill:#51ADDF;}
</style>
<g>
	<path class="st0" d="M-87.4-786.7h2500v2500h-2500V-786.7z"/>
	<g>
		<path class="st1" d="M873.6,198.1c-1.2-39.6-12.1-76-33.7-107.1C746.9-43.4,490.6-27,267.5,127.5C44.4,282-58.9,516.9,34.2,651.2
			c92.6,133.7,348.6,117.5,571-35.2c1.1-1.2,0.3-2.3-1.1-1.6c-123.5,71-231.3,71.2-279.5,0.1c-48.7-71.8,2.6-191.9,107-261.7
			c38.7-25.9,81.4-44.5,118.6-51.7l-14,70.8c-0.6,2.9,0.2,5.8,2.4,7.4c2.3,1.6,5.4,1.4,8.1-0.2l215.2-118.1c2.7-1.5,4.6-4.1,5.2-7.1
			c0.6-3.1-0.4-5.7-2.5-7.1L596.3,130.4c-2-1.3-5.6-2.2-8.3-0.6c-2.7,1.5-4.6,4.1-5.2,7.2l-10.6,52.8c-66.6,4.6-136,30.6-200.5,74.3
			c-144.1,97.7-208.2,255-143.1,351.2c17.3,25.5,41.9,44.1,71.5,56c4.5,1.8,4.5,1.7,4.5,1.7l-0.1,0.9
			c-53.2-8.2-95.2-36.1-121.4-73.9c-80.4-116.1,4-314.5,186.6-441C552.2,32.4,764.4,24,844.9,140.1c12.3,17.8,21.3,36.6,26.2,57.6
			c0.1,0.5,0.2,1,0.3,1.5C871.7,200.5,873.6,200.3,873.6,198.1L873.6,198.1z"/>
		<path class="st1" d="M472.4,579.4V567c-7.7,13.3-22.1,21.5-38.9,21.5s-36.2-9.9-36.2-49.3v-78.9l26.9-5v82.1
			c0,7.3,1.2,17.5,6.6,22.4c9.9,9.2,29.5,3.5,41.3-17.2v-82.3l26.6-5v131.2h-19.3C475.5,586.4,472.4,583.3,472.4,579.4
			C472.4,579.5,472.4,579.4,472.4,579.4L472.4,579.4z M761,549.1l29.9-92h27.1l-45.3,129.3h-1.1l-19.2,0c-3.1,0-5.8-1.9-6.7-4.8
			l-44.2-124.5h29.2L761,549.1z M603.2,492.6l-28.6,93.8H554c-3,0-5.7-1.9-6.7-4.8l-35.6-124.6h29.2l22.9,88.7l27.5-88.7h25.9
			l28.1,88.7l23-88.7h27.1l-35.6,129.4h-20.9c-3.2,0-5.9-2-6.6-4L603.2,492.6L603.2,492.6z M413.2,812.9v40.7
			c0,8.4,0.2,10.2,1.8,12.7c1.9,3.1,5.9,4.7,11,4.7c5.1,0,9-1.6,11-4.5c1.4-2.2,1.8-4.5,1.8-10.3v-43.3h9.2v42.2
			c0,8-1,12.1-3.7,15.6c-3.8,5-10.3,7.7-18.8,7.7c-8.5,0-14.7-2.5-18.4-7.5c-2.9-4-3.5-6.8-3.5-16.1v-41.9L413.2,812.9L413.2,812.9
			L413.2,812.9z M462.7,812.9h9.4v64.6h-9.4V812.9z M498.6,821.2l-17.1-0.5v-7.8h43.7v7.8l-17,0.5v56.3h-9.6V821.2z M532.8,812.9
			h10.1l15.9,53.6l15.6-53.6h9.6l-20.8,64.6h-9.4L532.8,812.9L532.8,812.9z M614.9,811.8c15,0,25.1,13.5,25.1,33.5
			c0,20-10.5,33.2-26.3,33.2c-15,0-25.4-13.2-25.4-32.2C588.3,825.4,598.9,811.8,614.9,811.8z M614.1,870.9
			c9.8,0,15.8-9.6,15.8-25.3c0-16-6-26.1-15.5-26.1c-9.6,0-16,10.1-16,25.4C598.4,861.2,604.3,870.9,614.1,870.9L614.1,870.9z
			 M651.2,812.9h38.2v7.8l-28.8,0.7v18.9h25.2v8.1h-25.2v20.8l28.8,0.5v7.8h-38.2V812.9L651.2,812.9z M702,813l9-0.2h8.9
			c9,0,13.4,1,17,3.8c3.4,2.8,5.4,7.8,5.4,13.2c0,4.3-1.4,8.4-3.7,11.3c-1.1,1.4-2.4,2.6-3.9,3.5c-3.5,2.1-5.8,2.8-11.7,3.2
			l22.7,29.7h-11.6l-21.8-29.4h-1.2v29.4H702L702,813L702,813z M714.3,841.9c5.9,0,9.7-0.6,12.5-1.8c3.7-1.6,5.8-5.2,5.8-9.9
			c0-4.4-1.9-7.6-5.3-8.9c-1.5-0.6-3.1-0.9-4.7-1.1c-2.6-0.2-4-0.2-9.9-0.2h-1.4v21.8L714.3,841.9L714.3,841.9z M757.9,812.9h9.4
			v64.6h-9.4V812.9z M783.5,812.9h10.2l26.8,49.5v-49.5h8.7v64.6h-9.7l-27.3-49.9v49.9h-8.8V812.9z M866.1,843.4h23.8v29.4
			c-2.1,1.1-4.3,2.1-6.5,3c-4.5,1.5-9.1,2.3-13.8,2.3c-17,0-28.1-12.6-28.1-32.1c0-20.2,11.7-33.9,28.9-33.9c2.4,0,4.8,0.3,7.1,0.9
			c5.6,1.4,8.3,3,13.7,8.1l-4.7,6.5c-1.6-1.5-3.3-2.8-5.1-4.1c-3.3-2-7.1-3-10.9-3c-11.9,0-18.7,9.2-18.7,25c0,16.1,7.3,25,20.6,25
			c3.2,0,4.9-0.3,8.9-1.5v-18.2h-15L866.1,843.4L866.1,843.4L866.1,843.4z M928.8,812.9h10l11.4,51.8l13-51.8h10.1l12.9,52l10.9-52
			h9.3l-15.4,64.6h-9.8l-13.2-53.7l-13.6,53.7h-9.8L928.8,812.9L928.8,812.9z M1017.4,812.9h38.2v7.8l-28.8,0.7v18.9h25.2v8.1h-25.2
			v20.8l28.8,0.5v7.8h-38.2V812.9L1017.4,812.9z M1069.8,813l9-0.2h8.9c9,0,13.4,1,17,3.8c3.4,2.8,5.4,7.8,5.4,13.2
			c0,4.3-1.3,8.4-3.7,11.3c-1.1,1.4-2.4,2.6-3.9,3.5c-3.5,2.1-5.8,2.8-11.7,3.2l22.7,29.7h-11.6l-21.8-29.4h-1.2v29.4h-9.3
			L1069.8,813L1069.8,813z M1082.1,841.9c5.9,0,9.7-0.6,12.5-1.8c3.7-1.6,5.8-5.2,5.8-9.9c0-4.4-1.9-7.6-5.3-8.9
			c-1.5-0.6-3.1-0.9-4.7-1.1c-2.6-0.2-4-0.2-10-0.2h-1.3v21.8L1082.1,841.9L1082.1,841.9z M1126.1,812.9h9.1v28.6h0.8l22.8-28.6
			h11.3l-25.5,30.7l26.7,33.9H1159l-23-30.3h-0.9v30.3h-9.1L1126.1,812.9L1126.1,812.9z M1182.6,812.9h10.2l26.8,49.5v-49.5h8.7
			v64.6h-9.7l-27.3-49.9v49.9h-8.8V812.9z M1242.6,812.9h38.2v7.8l-28.8,0.7v18.9h25.2v8.1H1252v20.8l28.8,0.5v7.8h-38.2V812.9
			L1242.6,812.9z M1298.7,812.9h10.9l17.8,53.4l18.5-53.4h10.7l5.5,64.6h-9.5l-3.6-50.2l-17.8,50.2h-8.4l-17.3-50.3l-4.3,50.3h-9.1
			L1298.7,812.9L1298.7,812.9z M1377,812.9h38.1v7.8l-28.8,0.7v18.9h25.2v8.1h-25.2v20.8l28.8,0.5v7.8H1377V812.9L1377,812.9z
			 M1429.4,813l9-0.2h8.9c9,0,13.4,1,17,3.8c3.4,2.8,5.4,7.8,5.4,13.2c0,4.3-1.3,8.4-3.7,11.3c-1,1.3-2.3,2.5-3.9,3.5
			c-3.5,2.1-5.8,2.8-11.7,3.2l22.7,29.7h-11.6l-21.7-29.4h-1.2v29.4h-9.3L1429.4,813L1429.4,813L1429.4,813z M1441.7,841.9
			c5.9,0,9.7-0.6,12.5-1.8c3.7-1.6,5.8-5.2,5.8-9.9c0-4.4-1.9-7.6-5.3-8.9c-1.5-0.6-3.1-0.9-4.7-1.1c-2.6-0.2-4-0.2-10-0.2h-1.3
			v21.8L1441.7,841.9L1441.7,841.9L1441.7,841.9z M1482,863.9c1.8,1.4,3.3,2.3,4.5,3.1c3.2,1.8,7.3,2.9,11.3,2.9
			c8.1,0,12.9-3.7,12.9-9.8c0-5-2.8-7.9-10.3-10.7c-4.4-1.6-7.1-2.6-8.3-3c-2.4-1-4.7-2.4-6.8-4.2c-3.4-2.9-5.2-7.3-5.2-12.3
			c0-10.7,7.8-17.9,19.6-17.9c2.4,0,4.9,0.3,7.4,1c4,1,6.2,1.9,11.1,5.1l-2.5,8c-1.7-1.2-3.4-2.3-5.2-3.3c-3.3-1.7-6.9-2.6-10.5-2.7
			c-6.4,0-10.3,3.3-10.3,8.6c0,5.1,2.3,7.5,10.1,10.3c9.8,3.6,11.8,4.4,15.1,7.1c3.7,3,5.6,7.4,5.6,12.8c0,11.4-8.9,19.2-22,19.2
			c-4.5,0-8.8-0.9-12.8-2.5c-2.6-1.1-3.9-1.9-6.8-4L1482,863.9L1482,863.9z M1526.2,812.9h10.1l15.9,53.6l15.7-53.6h9.5l-20.8,64.6
			h-9.5L1526.2,812.9L1526.2,812.9z M1588.8,812.9h38.2v7.8l-28.8,0.7v18.9h25.2v8.1h-25.2v20.8l28.8,0.5v7.8h-38.2V812.9
			L1588.8,812.9z M1641.2,813l9-0.2h8.9c9,0,13.4,1,17,3.8c3.4,2.8,5.4,7.8,5.4,13.2c0,4.3-1.4,8.4-3.7,11.3
			c-1.1,1.4-2.4,2.6-3.9,3.5c-3.5,2.1-5.8,2.8-11.7,3.2l22.7,29.7h-11.6l-21.8-29.4h-1.2v29.4h-9.3L1641.2,813L1641.2,813z
			 M1653.6,841.9c5.9,0,9.6-0.6,12.5-1.8c3.6-1.6,5.8-5.2,5.8-9.9c0-4.4-1.9-7.6-5.3-8.9c-1.5-0.6-3.1-0.9-4.7-1.1
			c-2.6-0.2-4-0.2-10-0.2h-1.3v21.8L1653.6,841.9L1653.6,841.9L1653.6,841.9z M1692,871.3l30.8-50.1l-27.9-0.5v-7.9h39.6v6.4
			l-31,49.9l31.7,0.7v7.6H1692L1692,871.3L1692,871.3z M1749.4,812.9h38.2v7.8l-28.8,0.7v18.9h25.2v8.1h-25.2v20.8l28.8,0.5v7.8
			h-38.2V812.9L1749.4,812.9z M1800.4,812.9h9.1v28.6h0.8l22.8-28.6h11.3l-25.5,30.7l26.7,33.9h-12.2l-23-30.3h-0.9v30.3h-9.1
			L1800.4,812.9L1800.4,812.9z M1855.9,812.9h38.2v7.8l-28.8,0.7v18.9h25.2v8.1h-25.2v20.8l28.8,0.5v7.8h-38.2V812.9L1855.9,812.9z
			 M1906.7,813l9-0.2h8.9c9,0,13.4,1,17,3.8c3.4,2.8,5.4,7.8,5.4,13.2c0,4.3-1.4,8.4-3.7,11.3c-1,1.3-2.3,2.5-3.9,3.5
			c-3.5,2.1-5.8,2.8-11.7,3.2l22.7,29.7h-11.6l-21.8-29.4h-1.1v29.4h-9.3L1906.7,813L1906.7,813z M1919.1,841.9
			c5.9,0,9.7-0.6,12.5-1.8c3.7-1.6,5.8-5.2,5.8-9.9c0-4.4-1.9-7.6-5.3-8.9c-1.5-0.6-3.1-0.9-4.8-1.1c-2.6-0.2-4-0.2-9.9-0.2h-1.4
			v21.8L1919.1,841.9L1919.1,841.9z M1963.1,812.9h9.4v64.6h-9.4V812.9z M1988.7,812.9h10.2l26.8,49.5v-49.5h8.7v64.6h-9.6
			l-27.2-49.9v49.9h-8.8V812.9z M2071.3,843.4h23.8v29.4c-2.1,1.1-4.3,2.1-6.5,3c-4.5,1.5-9.1,2.3-13.8,2.3
			c-17,0-28.1-12.6-28.1-32.1c0-20.2,11.7-33.9,28.9-33.9c2.4,0,4.7,0.3,7,0.9c5.6,1.4,8.3,3,13.7,8.1l-4.8,6.5
			c-1.6-1.5-3.3-2.8-5.1-4.1c-3.3-2-7.1-3-10.9-3c-11.9,0-18.8,9.2-18.8,25c0,16.1,7.3,25,20.6,25c3.2,0,4.8-0.3,8.9-1.5v-18.2h-15
			L2071.3,843.4L2071.3,843.4L2071.3,843.4z M2107.8,812.9h38.2v7.8l-28.8,0.7v18.9h25.2v8.1h-25.2v20.8l28.8,0.5v7.8h-38.2V812.9
			L2107.8,812.9z M2160.2,812.9h10.3l26.7,49.5v-49.5h8.7v64.6h-9.6l-27.3-49.9v49.9h-8.8L2160.2,812.9L2160.2,812.9z"/>
	</g>
</g>
</svg>
