<?xml version="1.0" encoding="utf-8"?>
<!-- Generator: Adobe Illustrator 15.0.2, SVG Export Plug-In . SVG Version: 6.00 Build 0)  -->
<!DOCTYPE svg PUBLIC "-//W3C//DTD SVG 1.1//EN" "http://www.w3.org/Graphics/SVG/1.1/DTD/svg11.dtd">
<svg version="1.1" id="Ebene_1" xmlns="http://www.w3.org/2000/svg" xmlns:xlink="http://www.w3.org/1999/xlink" x="0px" y="0px"
	 width="650.819px" height="225.699px" viewBox="0 0 650.819 225.699" enable-background="new 0 0 650.819 225.699"
	 xml:space="preserve">
<g>
	<path d="M67.023,138.145c-0.094,0.182-0.366,0.365-0.548,0.365h-3.663c-0.187,0-0.459-0.184-0.548-0.365L46.428,92.831
		c-0.183-0.365,0.089-0.73,0.455-0.73h2.286c0.188,0,0.46,0.184,0.55,0.365l14.924,42.564l14.92-42.564
		c0.089-0.182,0.365-0.365,0.55-0.365h2.29c0.365,0,0.637,0.365,0.454,0.73L67.023,138.145z"/>
	<path d="M112.425,94.296h-2.196c-6.225,0-11.349,5.033-11.349,11.35v8.055h24.895v-8.055
		C123.774,99.33,118.647,94.296,112.425,94.296 M126.978,116.359c0,0.365-0.276,0.549-0.548,0.549h-27.55v8.146
		c0,6.225,5.124,11.258,11.349,11.258h2.196c4.852,0,8.97-3.023,10.616-7.322c0.094-0.277,0.37-0.459,0.644-0.363l2.101,0.639
		c0.278,0.092,0.461,0.365,0.372,0.641c-2.018,5.676-7.417,9.703-13.733,9.703h-2.196c-8.058,0-14.559-6.502-14.559-14.555v-19.409
		c0-8.052,6.5-14.646,14.559-14.646h2.196c8.054,0,14.553,6.595,14.553,14.646V116.359z"/>
	<path d="M177.415,138.51h-37.716c-0.272,0-0.546-0.275-0.546-0.549v-2.105c0-0.365,0.274-0.551,0.546-0.551h18.861V73.788h-14.557
		c-0.274,0-0.55-0.271-0.55-0.548v-2.192c0-0.275,0.276-0.462,0.55-0.462h17.21c0.277,0,0.549,0.187,0.549,0.462v64.257h15.653
		c0.276,0,0.548,0.186,0.548,0.551v2.105C177.963,138.234,177.691,138.51,177.415,138.51"/>
	<path d="M217.14,105.646c0-6.316-5.127-11.35-11.349-11.35h-2.196c-6.229,0-11.354,5.033-11.354,11.35v19.409
		c0,6.221,5.125,11.258,11.354,11.258h2.196c6.222,0,11.349-5.037,11.349-11.258V105.646z M205.791,139.609h-2.196
		c-8.055,0-14.556-6.502-14.556-14.555v-19.409c0-8.052,6.501-14.646,14.556-14.646h2.196c8.058,0,14.554,6.595,14.554,14.646
		v19.409C220.345,133.107,213.849,139.609,205.791,139.609"/>
	<path fill="#44CA67" d="M300.529,138.51h-5.31c-0.182,0-0.73-0.275-0.824-0.365l-18.214-22.791l-4.855,4.848v17.303
		c0,0.553-0.547,1.006-1.098,1.006h-4.12c-0.546,0-1.004-0.453-1.004-1.006V71.591c0-0.544,0.458-1.006,1.004-1.006h4.12
		c0.551,0,1.098,0.462,1.098,1.006v39.914l19.956-20.045c0.096-0.095,0.64-0.278,0.735-0.278h5.855c1.191,0,1.559,0.914,0.731,1.74
		l-18.033,18.035l20.69,25.908C301.994,137.684,301.534,138.51,300.529,138.51"/>
	<path fill="#44CA67" d="M342.178,105.554c0-5.124-4.121-9.243-9.246-9.243h-2.018c-5.125,0-9.243,4.119-9.243,9.243v18.583
		c0,5.033,4.118,9.244,9.243,9.244h2.018c5.125,0,9.246-4.211,9.246-9.244V105.554z M332.932,139.514h-2.018
		c-8.509,0-15.469-6.863-15.469-15.377v-18.583c0-8.513,6.96-15.468,15.469-15.468h2.018c8.51,0,15.469,6.955,15.469,15.468v18.583
		C348.401,132.65,341.442,139.514,332.932,139.514"/>
	<path fill="#44CA67" d="M398.104,138.51h-4.115c-0.557,0-1.01-0.453-1.01-1.006v-31.946c0-5.128-4.121-9.247-9.246-9.247h-2.102
		c-5.129,0-9.246,4.119-9.246,9.247v31.946c0,0.553-0.459,1.006-1.006,1.006h-4.125c-0.547,0-1-0.453-1-1.006V92.191
		c0-0.547,0.453-1.009,1-1.009h4.125c0.547,0,1.006,0.462,1.006,1.009v1.01c2.559-1.923,5.76-3.114,9.246-3.114h2.102
		c8.518,0,15.379,6.96,15.379,15.472v31.946C399.112,138.057,398.651,138.51,398.104,138.51"/>
	<path fill="#44CA67" d="M449.088,138.51h-31.949c-0.547,0-1-0.453-1-1.006v-4.85l0.182-0.553l25.535-34.786h-23.617
		c-0.549,0-1.1-0.461-1.1-1.005v-4.12c0-0.547,0.551-1.009,1.1-1.009h29.846c0.547,0,1.004,0.462,1.004,1.009v4.76
		c0,0.096-0.184,0.548-0.184,0.644l-25.08,34.781h25.264c0.553,0,1.008,0.461,1.008,1.01v4.119
		C450.096,138.057,449.641,138.51,449.088,138.51"/>
	<path fill="#44CA67" d="M493.209,105.554c0-5.128-4.123-9.243-9.248-9.243h-2.014c-5.125,0-9.336,4.115-9.336,9.243v6.225h20.598
		V105.554z M498.43,117.912h-25.818v6.225c0,5.037,4.211,9.248,9.336,9.248h2.014c4.305,0,7.875-2.932,8.973-6.869
		c0.184-0.547,0.736-0.822,1.283-0.73l3.934,1.098c0.551,0.094,0.918,0.734,0.73,1.281c-1.734,6.5-7.777,11.355-14.92,11.355h-2.014
		c-8.514,0-15.469-6.869-15.469-15.383v-18.583c0-8.513,6.955-15.472,15.469-15.472h2.014c8.518,0,15.475,6.959,15.475,15.472
		v11.348C499.436,117.455,498.977,117.912,498.43,117.912"/>
	<path fill="#44CA67" d="M544.381,105.554c0-5.124-4.125-9.243-9.248-9.243h-2.014c-5.129,0-9.242,4.119-9.242,9.243v18.583
		c0,5.033,4.113,9.244,9.242,9.244h2.014c5.123,0,9.248-4.211,9.248-9.244V105.554z M535.133,139.514h-2.014
		c-3.475,0-6.688-1.096-9.242-3.014v21.602c0,0.549-0.555,1.004-1.105,1.004h-4.113c-0.553,0-1.012-0.455-1.012-1.004V92.188
		c0-0.549,0.459-1.006,1.012-1.006h4.113c0.551,0,1.105,0.457,1.105,1.006v1.009c2.555-1.919,5.768-3.11,9.242-3.11h2.014
		c8.51,0,15.467,6.955,15.467,15.468v18.583C550.6,132.65,543.643,139.514,535.133,139.514"/>
	<path fill="#44CA67" d="M586.756,139.514c-8.51,0-15.475-6.863-15.475-15.377V99.42h-7.227c-0.549,0-1.008-0.547-1.008-1.1v-4.115
		c0-0.549,0.459-1.009,1.008-1.009h7.227V71.595c0-0.553,0.459-1.01,1.01-1.01h4.121c0.551,0,1.1,0.457,1.1,1.01v21.602h19.496
		c0.547,0,1.008,0.46,1.008,1.009v4.115c0,0.553-0.461,1.1-1.008,1.1h-19.496v24.716c0,5.033,4.113,9.244,9.244,9.244
		c5.125,0,9.248-4.211,9.248-9.244v-2.105c0-0.549,0.453-1.008,1.004-1.008h4.121c0.547,0,1.01,0.459,1.01,1.008v2.105
		C602.139,132.65,595.266,139.514,586.756,139.514"/>
	<path fill="#44CA67" d="M240.883,178.217h-1.986c-0.401,0-0.812-0.457-0.812-0.992V47.439c0-0.532,0.412-0.978,0.812-0.978h1.986
		c0.401,0,0.804,0.445,0.804,0.978v129.786C241.687,177.76,241.284,178.217,240.883,178.217"/>
</g>
</svg>
